<?xml version="1.0" standalone="no"?>
<!DOCTYPE svg PUBLIC "-//W3C//DTD SVG 20010904//EN"
 "http://www.w3.org/TR/2001/REC-SVG-20010904/DTD/svg10.dtd">
<svg version="1.0" xmlns="http://www.w3.org/2000/svg"
 width="1676.000000pt" height="1676.000000pt" viewBox="0 0 1676.000000 1676.000000"
 preserveAspectRatio="xMidYMid meet">
<metadata>
Created by potrace 1.14, written by Peter Selinger 2001-2017
</metadata>
<g transform="translate(0.000000,1676.000000) scale(0.100000,-0.100000)"
fill="#000000" stroke="none">
<path d="M8270 16284 c-52 -52 -117 -110 -145 -128 -27 -18 -90 -59 -138 -91
-99 -64 -178 -138 -206 -193 -67 -131 -53 -276 34 -357 31 -30 33 -36 25 -66
-6 -19 -10 -48 -10 -66 0 -24 -7 -37 -29 -52 -16 -12 -32 -35 -36 -51 -4 -17
-10 -30 -14 -30 -15 0 -71 -63 -71 -80 0 -10 -15 -33 -33 -51 l-34 -34 -2
-145 c-1 -80 -3 -145 -4 -146 -1 -1 -27 -5 -57 -8 -30 -4 -66 -8 -80 -11 -14
-2 -43 -6 -65 -10 -265 -39 -631 -121 -885 -200 -63 -20 -128 -40 -145 -45
-77 -22 -343 -119 -410 -150 -11 -5 -65 -27 -120 -50 -151 -63 -417 -191 -536
-257 -18 -11 -61 -35 -94 -53 -206 -114 -465 -282 -685 -446 l-132 -97 -92 93
c-51 51 -101 97 -111 102 -9 6 -37 8 -60 6 -23 -3 -51 0 -61 5 -11 6 -41 12
-69 13 -108 5 -160 16 -195 44 -19 15 -44 30 -55 34 -17 5 -20 15 -20 69 -1
110 -59 193 -174 246 -104 48 -190 47 -431 -5 -14 -3 -29 -7 -35 -8 -49 -12
-125 -18 -239 -20 -74 -1 -137 -4 -139 -6 -3 -3 -7 -81 -10 -175 -4 -140 -10
-190 -32 -285 -21 -84 -28 -142 -29 -215 -1 -89 2 -107 27 -160 31 -67 95
-138 146 -162 19 -9 62 -19 96 -22 61 -6 64 -7 100 -56 27 -35 39 -62 41 -90
11 -153 14 -179 23 -188 6 -6 11 -33 11 -60 0 -47 3 -52 72 -125 40 -42 85
-87 100 -100 16 -13 28 -29 28 -34 0 -6 -33 -54 -73 -107 -118 -155 -249 -348
-343 -501 -206 -340 -401 -735 -523 -1058 -74 -197 -90 -242 -116 -322 -27
-85 -35 -110 -75 -249 -42 -147 -106 -417 -126 -531 -2 -14 -9 -47 -14 -75 -5
-27 -12 -66 -14 -85 -3 -19 -10 -62 -16 -95 -5 -33 -13 -87 -16 -120 -4 -33
-8 -62 -11 -65 -2 -2 -63 -4 -135 -3 -143 2 -173 -5 -198 -51 -7 -14 -21 -26
-31 -26 -10 0 -35 -17 -56 -39 -22 -21 -53 -46 -71 -55 -18 -9 -38 -25 -45
-36 -7 -12 -23 -20 -40 -20 -15 0 -47 -5 -70 -11 -42 -10 -43 -10 -88 34 -108
103 -296 84 -429 -43 -26 -25 -87 -106 -136 -180 -61 -95 -118 -167 -191 -241
-57 -59 -103 -111 -103 -115 0 -5 45 -55 100 -111 67 -69 125 -141 176 -220
42 -65 97 -142 122 -172 143 -169 370 -193 488 -53 11 14 25 22 31 19 12 -8
73 -20 95 -19 10 0 33 -15 52 -34 19 -19 40 -34 48 -34 8 0 24 -14 37 -31 12
-17 43 -39 67 -49 24 -11 47 -26 50 -34 9 -24 53 -33 189 -35 71 -1 132 -4
136 -7 3 -2 9 -29 12 -61 11 -103 15 -128 41 -274 35 -198 38 -210 78 -379 87
-366 238 -814 384 -1140 41 -92 207 -423 250 -500 115 -204 303 -501 388 -613
20 -26 36 -50 36 -52 0 -3 32 -46 71 -95 l71 -90 -102 -101 -102 -101 4 -54
c1 -30 -1 -55 -6 -57 -4 -1 -9 -32 -10 -68 -2 -36 -6 -71 -11 -78 -4 -7 -7
-33 -7 -57 1 -24 -2 -44 -6 -44 -4 0 -22 -24 -40 -53 -32 -53 -33 -53 -80 -52
-94 4 -183 -49 -237 -140 -69 -118 -69 -223 -1 -513 8 -35 15 -121 15 -202 1
-77 4 -147 8 -155 4 -12 30 -15 132 -15 147 -1 163 -3 341 -40 226 -48 349
-32 453 60 62 54 91 113 91 186 1 35 4 64 8 64 3 0 28 17 55 37 49 38 50 38
195 46 37 2 73 8 80 14 7 6 37 13 65 15 51 5 56 8 148 99 53 52 100 95 104 97
5 1 66 -41 137 -94 71 -53 194 -139 274 -192 80 -52 156 -103 170 -112 124
-84 575 -322 790 -418 406 -179 839 -319 1295 -418 21 -5 150 -30 200 -39 97
-17 308 -47 343 -48 9 0 12 -31 13 -116 0 -64 2 -130 3 -147 2 -29 33 -83 48
-84 4 0 16 -20 27 -44 10 -24 31 -52 45 -61 14 -10 26 -23 26 -31 0 -7 16 -29
35 -49 27 -27 36 -44 37 -72 0 -21 5 -49 10 -62 7 -20 2 -31 -36 -71 -70 -75
-87 -183 -46 -293 37 -100 99 -164 250 -261 41 -27 93 -61 114 -75 22 -14 86
-70 142 -123 57 -54 111 -98 121 -98 10 0 61 42 113 93 78 77 262 216 288 217
4 1 38 27 76 58 122 101 173 203 164 331 -6 76 -22 113 -72 162 -33 32 -35 36
-26 74 5 22 10 53 10 68 0 19 10 37 30 54 17 13 30 31 30 38 0 8 20 34 45 58
25 25 45 52 45 60 0 8 17 29 38 45 l37 30 2 148 c2 81 4 148 5 150 2 1 30 4
63 7 33 4 103 13 155 22 52 9 111 18 130 21 19 3 76 14 125 24 50 11 101 21
115 24 245 43 847 232 1105 346 22 10 94 41 160 70 206 90 460 223 725 380
107 63 372 242 496 336 69 52 130 94 134 92 5 -2 52 -45 104 -96 94 -91 98
-94 156 -102 32 -5 65 -12 72 -16 7 -5 36 -9 63 -11 133 -6 154 -11 187 -38
18 -15 42 -32 53 -37 17 -8 20 -17 18 -63 -3 -101 68 -198 186 -254 49 -23 68
-26 156 -25 106 1 121 3 255 36 62 15 129 22 250 25 91 3 167 7 170 10 3 2 8
80 11 171 5 131 13 193 35 287 54 237 34 376 -70 480 -58 59 -120 85 -190 80
-44 -3 -46 -1 -70 39 -14 24 -32 48 -40 56 -11 8 -16 27 -14 54 0 23 -4 51
-10 63 -7 12 -9 34 -6 50 3 15 -1 46 -8 68 -7 22 -11 54 -8 70 9 43 -7 69
-110 173 l-91 93 64 82 c132 171 345 490 446 672 19 33 43 76 54 95 89 154
317 633 317 665 0 8 5 15 10 15 6 0 9 3 8 8 -1 4 17 57 41 117 97 249 228 671
265 855 3 14 7 34 10 45 11 48 35 163 40 196 3 20 8 42 10 50 3 8 8 32 11 54
5 37 20 133 30 195 2 14 7 52 10 85 4 33 10 63 13 67 4 4 66 8 137 9 136 2
180 10 189 35 3 8 26 23 50 34 24 10 55 32 67 49 13 17 29 31 37 31 8 0 29 15
46 33 23 24 41 33 70 36 22 1 50 7 63 12 20 7 30 2 69 -35 87 -84 218 -92 347
-23 32 17 79 53 104 81 41 45 143 190 143 202 0 15 96 132 172 208 52 53 88
97 88 109 0 12 -40 62 -99 122 -66 68 -126 143 -183 230 -102 156 -163 222
-243 260 -51 25 -72 29 -146 29 -98 1 -123 -8 -186 -68 -41 -38 -43 -39 -81
-28 -22 7 -51 12 -66 12 -15 0 -37 11 -53 29 -16 15 -38 31 -50 35 -12 4 -32
20 -43 36 -11 16 -36 34 -55 41 -18 7 -39 22 -45 34 -24 45 -56 54 -200 52
l-134 -1 -22 150 c-20 138 -26 176 -39 244 -3 14 -7 39 -10 55 -2 17 -21 100
-40 185 -20 85 -38 164 -40 176 -44 200 -222 724 -316 931 -10 23 -19 45 -19
48 0 24 -221 466 -313 625 -33 58 -67 116 -74 130 -8 14 -32 52 -53 85 -22 33
-46 72 -55 87 -25 44 -172 256 -261 375 -46 61 -84 115 -84 120 0 4 44 51 97
105 95 96 97 98 99 148 2 28 8 58 14 65 7 8 14 45 16 82 2 38 5 87 7 110 2 26
11 51 24 65 11 13 28 35 37 49 15 23 25 27 79 31 110 7 183 61 239 176 26 52
32 78 34 141 1 42 -2 99 -7 126 -5 28 -12 64 -15 80 -2 17 -13 64 -23 105 -13
52 -19 120 -20 225 -1 82 -7 155 -12 161 -7 8 -55 12 -152 12 -122 0 -163 5
-287 32 -246 53 -368 42 -474 -45 -65 -53 -99 -118 -102 -197 -2 -57 -5 -62
-36 -80 -18 -11 -42 -28 -53 -38 -19 -17 -75 -28 -180 -34 -27 -2 -61 -8 -76
-14 -14 -5 -37 -8 -52 -5 -48 9 -72 -5 -169 -103 l-96 -97 -130 96 c-158 117
-385 269 -555 370 -70 43 -129 77 -132 77 -2 0 -28 14 -57 31 -72 43 -340 177
-468 234 -320 144 -760 296 -1070 371 -202 49 -477 104 -590 119 -191 24 -200
27 -201 54 0 14 0 74 1 132 1 116 -7 145 -49 173 -16 11 -34 35 -41 54 -6 19
-25 41 -40 50 -15 9 -33 31 -39 49 -7 19 -23 41 -37 49 -17 12 -24 26 -24 48
0 17 -5 48 -11 68 -9 36 -8 40 30 78 56 56 75 112 69 202 -6 92 -42 170 -108
237 -27 27 -113 92 -192 144 -102 68 -168 121 -233 186 -54 55 -98 91 -110 91
-12 0 -58 -38 -115 -96z m-670 -3144 c0 -41 17 -73 51 -95 16 -11 32 -28 35
-37 3 -10 20 -30 38 -45 18 -16 41 -43 52 -60 10 -18 22 -33 28 -33 8 0 5 -46
-10 -155 -3 -22 -33 -121 -65 -220 -69 -206 -80 -273 -55 -339 15 -39 64 -95
107 -122 14 -9 49 -76 49 -94 0 -4 -13 -11 -29 -15 -39 -8 -72 -46 -81 -94 -9
-49 7 -90 50 -123 l32 -25 -26 -16 c-51 -34 -95 -87 -107 -129 -17 -65 -5
-139 50 -296 55 -158 80 -256 88 -347 5 -54 2 -65 -21 -99 -14 -21 -26 -45
-26 -52 0 -8 -4 -14 -8 -14 -5 0 -22 -11 -38 -25 -29 -25 -29 -26 -29 -135 l0
-110 -35 -11 c-41 -13 -68 -24 -168 -69 l-73 -32 -74 72 c-74 71 -74 71 -127
70 -70 -2 -136 17 -171 49 -53 49 -118 151 -202 319 -95 189 -126 231 -191
262 -39 20 -56 22 -115 16 l-70 -6 2 32 c3 64 -1 79 -36 112 -41 41 -82 48
-134 25 l-38 -17 -15 47 c-10 29 -14 74 -12 123 2 69 0 80 -26 121 -36 57 -87
92 -254 173 -139 67 -264 144 -302 186 -24 26 -32 65 -39 195 -5 100 -12 126
-44 162 l-21 24 58 40 c31 22 95 65 142 95 278 180 542 316 885 456 213 86
591 195 835 239 47 9 94 18 105 20 11 3 23 5 28 6 4 0 7 -12 7 -29z m1617 20
c26 -5 62 -11 78 -14 94 -14 362 -79 483 -117 352 -109 660 -239 949 -400 56
-31 108 -59 115 -63 7 -3 33 -19 58 -35 25 -16 72 -46 105 -66 33 -20 97 -62
143 -94 70 -50 81 -61 69 -72 -38 -39 -47 -67 -51 -165 -8 -164 -12 -179 -66
-224 -64 -54 -150 -104 -312 -183 -205 -101 -257 -160 -245 -286 3 -34 -1 -76
-9 -108 l-15 -52 -41 19 c-88 39 -183 -33 -172 -131 l5 -39 -70 6 c-132 12
-188 -36 -292 -251 -82 -168 -136 -258 -196 -322 -54 -58 -102 -76 -191 -73
-53 1 -53 1 -125 -69 l-73 -70 -133 54 c-73 29 -134 55 -136 57 -2 2 -5 44 -6
93 -2 106 -9 130 -46 152 -16 9 -40 40 -55 70 -35 68 -33 139 6 289 9 33 36
118 61 188 52 147 65 241 42 296 -18 41 -60 91 -99 115 l-27 17 39 37 c35 33
40 43 40 84 0 25 -5 57 -11 71 -11 23 -62 56 -88 56 -6 0 -11 4 -11 10 0 18
35 85 49 94 43 27 92 83 107 122 23 61 15 135 -31 264 -50 145 -83 254 -89
298 -14 91 -15 141 -6 147 6 4 19 23 29 44 11 20 30 43 44 50 14 7 31 25 38
39 8 14 26 38 42 53 15 15 28 37 28 48 1 12 3 26 4 31 1 6 3 17 4 25 1 18 -2
17 58 5z m-4734 -1992 c12 -6 71 -13 132 -14 187 -5 186 -4 255 -96 33 -44 95
-150 140 -240 129 -260 162 -291 311 -287 48 2 93 -2 105 -9 12 -6 24 -9 27
-5 13 12 19 -28 7 -42 -18 -22 -16 -89 3 -119 28 -41 66 -61 118 -60 l47 1 -5
-72 c-10 -134 34 -181 289 -308 188 -94 339 -199 333 -234 -1 -10 3 -33 11
-50 8 -20 11 -51 8 -77 -5 -40 -3 -47 33 -87 21 -24 55 -59 76 -80 l39 -36
-25 -54 c-13 -30 -34 -79 -47 -109 -12 -30 -27 -68 -34 -84 l-12 -29 -102 -1
-102 -1 -38 -40 c-22 -22 -56 -51 -78 -64 -34 -20 -47 -23 -109 -18 -107 8
-200 31 -328 78 -100 38 -212 69 -251 69 -73 0 -162 -54 -196 -119 l-12 -24
-32 37 c-25 29 -40 37 -77 42 -68 9 -113 -15 -135 -72 -16 -43 -17 -44 -40
-29 -13 8 -30 15 -37 15 -8 0 -23 12 -33 27 -38 55 -94 102 -135 113 -62 17
-131 5 -305 -54 -155 -53 -293 -86 -359 -86 -19 0 -39 8 -50 20 -10 11 -22 20
-28 20 -5 0 -29 19 -53 43 -99 98 -129 117 -178 111 -28 -3 -28 -2 -22 40 49
327 196 822 332 1124 51 111 125 269 133 282 5 8 22 40 37 70 60 120 274 463
328 528 17 19 21 20 28 7 5 -8 19 -20 31 -27z m7934 -84 c350 -519 607 -1132
728 -1737 20 -99 34 -184 32 -190 -2 -7 -13 -13 -25 -13 -12 -1 -31 -2 -42 -3
-10 0 -35 -16 -54 -33 -19 -18 -48 -43 -65 -56 -17 -13 -31 -30 -31 -38 0 -8
-6 -14 -14 -14 -8 0 -29 -12 -46 -26 -28 -24 -37 -26 -88 -21 -64 7 -99 13
-157 29 -22 6 -44 11 -50 13 -5 1 -17 5 -25 8 -8 3 -69 24 -134 47 -130 45
-211 56 -266 39 -44 -15 -101 -59 -120 -94 -14 -26 -103 -79 -114 -68 -3 4 -6
15 -6 26 0 10 -15 34 -34 53 -28 28 -42 34 -75 34 -50 0 -92 -20 -118 -56
l-19 -26 -27 41 c-15 22 -46 53 -68 68 -35 23 -52 27 -108 27 -80 0 -86 -2
-231 -53 -170 -59 -256 -81 -345 -87 -73 -6 -84 -4 -119 17 -22 13 -56 42 -77
64 l-39 39 -102 2 c-56 1 -104 6 -105 11 -2 4 -28 67 -58 138 l-55 130 67 66
c73 73 87 99 79 144 -9 48 25 140 65 176 57 52 161 116 296 181 129 62 207
109 231 137 41 51 54 95 50 167 l-5 72 41 -2 c97 -7 162 76 130 166 -10 28
-11 45 -4 52 5 5 10 7 10 3 0 -4 10 -2 23 4 13 8 54 12 100 10 43 -1 94 3 113
9 56 19 115 96 193 257 74 150 136 252 188 309 30 33 61 42 173 49 36 2 70 4
75 5 6 0 25 -1 43 -3 23 -3 42 2 65 18 18 13 36 22 41 21 6 -1 43 -51 83 -112z
m-7581 -3303 c23 -59 58 -76 143 -72 13 1 38 17 57 36 l34 36 59 -61 c33 -34
65 -59 70 -56 5 4 12 2 16 -4 3 -5 34 -10 67 -10 48 0 99 13 240 60 264 88
385 105 448 60 15 -11 31 -20 34 -20 4 0 24 -18 45 -40 l38 -40 105 0 105 0
23 -62 c13 -35 38 -96 57 -137 l33 -74 -70 -73 c-38 -39 -71 -79 -71 -88 -1
-9 -2 -22 -3 -28 -1 -7 1 -23 5 -34 4 -12 4 -25 -1 -30 -4 -5 -12 -29 -17 -54
-8 -44 -18 -54 -151 -162 -8 -6 -95 -51 -194 -101 -257 -128 -295 -169 -285
-312 3 -43 1 -72 -4 -69 -5 3 -27 5 -48 6 -87 1 -149 -89 -116 -168 16 -39 17
-44 10 -44 -3 0 -21 -6 -40 -14 -25 -11 -56 -14 -105 -10 -59 5 -77 2 -115
-16 -50 -24 -99 -77 -132 -142 -11 -24 -47 -94 -78 -157 -54 -111 -138 -243
-173 -274 -26 -22 -111 -34 -254 -36 -41 0 -71 -13 -104 -43 l-22 -19 -91 135
c-342 511 -590 1093 -715 1677 -45 210 -49 243 -26 245 8 1 23 2 34 3 17 1 43
23 145 121 20 20 54 47 76 62 43 29 82 30 185 7 25 -5 55 -11 67 -14 12 -2 82
-25 155 -50 170 -60 187 -64 267 -62 58 2 73 6 105 31 21 16 50 46 65 67 14
21 33 39 41 39 8 0 24 7 34 15 29 22 35 19 52 -24z m7150 24 c10 -8 27 -15 37
-15 9 0 17 -4 17 -8 0 -19 75 -94 113 -112 69 -34 130 -27 311 34 205 70 227
75 348 90 40 6 53 2 91 -22 42 -26 60 -42 162 -143 32 -32 47 -39 78 -39 20 0
37 -4 37 -9 0 -10 -24 -135 -46 -241 -45 -215 -131 -500 -216 -720 -49 -127
-123 -295 -130 -298 -5 -2 -8 -10 -8 -17 0 -7 -15 -42 -33 -77 -19 -35 -53
-101 -77 -148 -25 -47 -59 -108 -77 -137 -18 -29 -33 -55 -33 -58 0 -3 -8 -18
-18 -33 -11 -15 -63 -93 -116 -174 l-97 -147 -42 30 c-27 19 -53 30 -76 30
-142 1 -238 14 -263 36 -39 34 -127 177 -196 318 -117 237 -162 278 -309 274
-80 -2 -143 7 -143 21 0 4 7 23 15 43 33 80 -28 170 -116 169 -21 -1 -43 -3
-47 -6 -5 -3 -7 30 -4 74 4 71 2 83 -21 122 -37 64 -76 92 -244 175 -220 108
-363 208 -363 254 0 11 -6 34 -13 52 -7 18 -10 43 -7 57 11 44 -8 83 -75 150
l-66 66 34 75 c19 41 44 102 57 137 l23 62 105 0 105 0 37 40 c20 22 42 40 48
40 6 0 24 11 40 25 26 21 36 24 93 19 35 -2 75 -7 89 -10 14 -3 41 -8 60 -11
19 -4 91 -26 160 -51 170 -60 216 -72 278 -72 69 0 121 27 170 89 l38 48 30
-34 c36 -42 86 -56 138 -38 50 17 64 32 72 71 7 37 20 42 50 19z m-4413 -1476
c71 -28 107 -48 107 -58 1 -9 2 -58 3 -109 l3 -93 42 -39 c23 -22 42 -45 42
-53 0 -8 9 -22 20 -32 41 -37 18 -182 -67 -427 -48 -140 -57 -174 -57 -239 -1
-66 2 -80 27 -118 15 -23 45 -54 67 -69 41 -28 50 -42 27 -42 -18 0 -53 -39
-63 -70 -21 -68 13 -140 74 -158 l39 -12 -23 -47 c-13 -25 -39 -56 -57 -68
-18 -13 -46 -42 -62 -66 -28 -39 -30 -49 -29 -123 1 -70 8 -99 48 -211 55
-154 83 -257 91 -342 6 -57 4 -65 -19 -96 -14 -19 -26 -38 -26 -43 0 -5 -13
-18 -30 -27 -16 -10 -35 -28 -41 -40 -7 -12 -29 -38 -50 -58 -32 -29 -39 -43
-39 -73 l0 -38 -43 6 c-24 3 -95 17 -159 31 -618 130 -1172 362 -1694 707
l-152 100 24 36 c17 25 25 50 25 81 0 76 8 183 16 225 7 33 19 48 78 93 39 30
148 92 243 140 254 126 301 178 289 316 -5 58 7 124 25 142 3 3 22 -2 41 -11
31 -15 42 -16 76 -6 44 14 90 61 92 95 1 12 1 36 0 52 l-1 31 63 -4 c93 -6
138 10 189 67 24 27 53 68 65 92 12 24 47 95 77 156 92 187 177 299 235 308
19 3 41 10 50 14 9 5 37 7 63 4 44 -5 48 -3 99 43 29 27 64 61 77 76 22 26 25
27 55 13 18 -7 80 -33 140 -56z m1867 -5 l75 -76 49 5 c30 3 63 -1 83 -10 19
-7 38 -11 44 -7 13 7 78 -62 130 -138 21 -31 74 -127 116 -214 82 -166 130
-231 189 -259 37 -17 101 -22 155 -10 l31 7 -5 -46 c-6 -57 21 -102 77 -130
38 -19 42 -19 87 -3 56 20 63 21 56 4 -3 -7 1 -24 8 -38 10 -17 12 -47 8 -99
-10 -140 30 -183 289 -313 95 -48 203 -109 240 -137 76 -58 87 -82 94 -205 2
-38 4 -74 5 -80 0 -5 -1 -27 -2 -47 -2 -27 5 -46 24 -71 l26 -34 -152 -100
c-164 -108 -357 -223 -375 -223 -6 0 -12 -3 -14 -7 -4 -10 -218 -116 -348
-173 -182 -81 -573 -217 -700 -245 -8 -2 -71 -17 -140 -34 -69 -16 -141 -33
-160 -36 -19 -3 -61 -10 -92 -17 -62 -11 -93 -6 -85 16 13 34 -15 83 -103 175
-19 20 -47 54 -62 76 -24 36 -26 47 -22 100 7 79 25 150 86 330 62 183 70 250
38 318 -12 26 -34 57 -49 68 -14 11 -36 28 -48 37 -13 9 -24 28 -26 41 -2 13
-12 30 -23 38 -16 12 -17 15 -4 23 8 5 22 10 31 10 23 0 67 44 75 75 3 14 4
45 1 68 -4 33 -14 49 -44 74 -21 18 -32 33 -25 33 23 0 109 95 122 135 19 57
7 136 -40 270 -71 204 -92 288 -93 385 -2 64 1 80 21 104 12 16 22 37 22 46 0
10 10 20 23 24 24 6 51 45 53 78 1 10 2 53 3 96 l1 78 126 49 c69 27 128 53
130 57 9 15 19 8 94 -68z"/>
</g>
</svg>
