<svg xmlns="http://www.w3.org/2000/svg" width="1243.125" height="1158.75"><path style="fill:#FFFFFF" d="M339.844 1157.76c-1.606-.528-8.215-.717-15.407-.441-10.275.394-12.994.221-14.766-.94-2.579-1.69-2.89-5.554-.53-6.577 3.468-1.503 24.44-1.973 38.203-.855 14.208 1.154 23.135.566 38.437-2.531 2.578-.522 6.578-.808 8.89-.636 3.65.273 4.323.664 5.134 2.983 1.205 3.446-.624 4.898-7.3 5.794-2.667.358-6.325 1.31-8.13 2.114-2.549 1.137-7.57 1.525-22.5 1.738-10.919.156-20.433-.125-22.031-.65zm147.187-.013c-2.062-.42-7.125-.801-11.25-.847-9.763-.108-17.668-3.015-18.092-6.654-.38-3.262 2.918-4.777 7.944-3.647 9.923 2.23 46.328 2.765 64.083.943 14.662-1.505 29.118-1.285 31.638.48 2.87 2.01 2.646 4.663-.495 5.85-1.418.536-8.484 1.231-15.703 1.544-7.218.313-18.398 1.007-24.843 1.541-16.696 1.384-28.94 1.675-33.282.79zm145.781-4.227c-3.867-.777-9.492-1.744-12.5-2.148-4.75-.637-7.12-1.947-7.173-3.96-.008-.308.83-1.323 1.863-2.257 1.727-1.563 3.424-1.656 21.328-1.162 10.698.295 22.826.146 26.951-.33 4.125-.478 11.508-1.273 16.407-1.768 4.898-.494 13.476-1.5 19.061-2.233 10.55-1.385 14.376-1.046 15.927 1.413 1.237 1.962.093 6.057-1.934 6.92-1.921.819-26.683 3.124-39.631 3.69-4.907.214-12.5.853-16.875 1.42-13.99 1.816-16.256 1.856-23.423.415zm-217.156-14.522c-6.679-.66-18.822-4.279-21.203-6.32-4.454-3.818-.186-6.321 8.511-4.991 10.192 1.558 24.603 2.046 30.63 1.038 3.094-.518 14.273-1.403 24.844-1.967 17.033-.91 20.604-1.395 31.406-4.272 17.526-4.668 18.832-4.9 27.787-4.945 6.456-.033 8.523.303 10.191 1.653 3.634 2.943.678 4.495-10.021 5.261-8.927.64-22.209 3.41-25.954 5.415-1.763.943-8.92 2.657-18.878 4.52-2.578.482-10.594 1.055-17.813 1.273-7.645.23-15.278.993-18.281 1.827-6.29 1.745-13.575 2.263-21.219 1.508zm-266.125-4.63c-15.721-.717-26.497-2.145-30.416-4.03-1.28-.616-2.976-2.303-3.768-3.75-1.339-2.445-1.311-2.728.389-3.992 1.201-.893 2.89-1.161 4.921-.78 2.522.473 3.421.174 4.874-1.62 1.529-1.888 2.628-2.203 7.735-2.214 5.315-.011 5.953.186 5.953 1.846 0 1.423-.828 1.994-3.526 2.432-4.455.724-5.613 1.786-2.021 1.854 25.06.471 54.54.085 59.453-.778 3.352-.59 11.367-1.537 17.813-2.105 6.445-.568 14.46-1.425 17.812-1.904 3.352-.48 8.752-1.15 12-1.49 9.827-1.026 5.257-2.514-8.459-2.753-12.707-.222-24.95-2.074-27.456-4.154-.769-.638-1.398-2.155-1.398-3.37 0-3.184 3.231-3.682 15.54-2.4 14.593 1.522 33.84 1.386 41.463-.292 3.453-.76 13.24-1.57 21.748-1.802 22.888-.621 34.019-1.996 38.36-4.736 3.55-2.241 3.576-2.243 6.483-.476 1.604.976 6.199 2.293 10.209 2.927 12.94 2.044 65.361 1.317 78.012-1.082 7.808-1.48 19.288-1.227 20.685.457 1.53 1.842-.1 3.92-3.58 4.565-32.43 6.012-63.167 8.004-84.996 5.508-11.84-1.354-17.514-3.207-18.801-6.14-1.193-2.716-3.323-2.362-14.496 2.41l-8.905 3.803-18.283.615c-16.78.563-18.918.833-26.017 3.285-4.254 1.469-7.734 2.992-7.734 3.384 0 1.577-19.08 9.195-31.406 12.54-4.45 1.208-21.842 3.008-24.844 2.572-.773-.112-6.469.224-12.656.748-6.188.523-13.149 1.099-15.469 1.279-2.32.18-10.969.02-19.219-.357zm136.406-1.028c-3.867-.506-10.446-1.007-14.621-1.114-4.796-.123-8.161-.668-9.14-1.481-1.676-1.39-2.076-4.372-.702-5.222.995-.615 26.742-1.878 32.901-1.614 2.32.099 12.867.406 23.438.683 18.722.49 19.557.43 32.343-2.29 15.363-3.268 34.52-6.004 39.025-5.573 2.36.226 3.233.794 3.44 2.242.44 3.075-3.502 4.319-23.715 7.485-9.61 1.505-23.69 4.417-29.531 6.108-4.538 1.314-44.84 1.899-53.438.776zm295.182-1.245c-.33-.351-7.501-1.052-15.937-1.56-16.305-.979-23.348-2.416-27.376-5.584-2.083-1.639-2.323-2.268-1.473-3.855.872-1.631 1.627-1.818 5.388-1.33 8.786 1.137 60.937 2.158 71.873 1.406 10.38-.713 14.93-1.335 34.039-4.65 6.149-1.068 7.012-1.029 8.421.38 3.491 3.491-1.213 5.985-17.148 9.094a855.548 855.548 0 0 0-17.812 3.701c-8.538 1.896-38.743 3.707-39.975 2.398zm108.483-6.043c-1.15-1.862.41-2.925 4.438-3.02 2.16-.052 4.983-.41 6.273-.795l2.343-.701-2.343-1.016c-1.29-.56-4.204-1.573-6.477-2.253-7.63-2.282-7.494-7.008.194-6.701 2.166.086 9.423 1.29 16.126 2.673 11.458 2.365 12.777 2.453 22.031 1.48 5.415-.569 21.868-1.23 36.563-1.467 21.061-.34 27.711-.751 31.406-1.939 2.578-.829 10.323-1.888 17.21-2.353 9.325-.63 14.508-1.493 20.303-3.38 7.452-2.427 7.885-2.467 10.213-.942 4.825 3.162 2.542 6.783-6.007 9.525-2.836.91-6.366 2.266-7.844 3.014-1.623.82-7.754 1.692-15.469 2.197-7.03.461-15.734 1.464-19.343 2.23-4.44.942-17.933 1.733-41.719 2.445-19.336.58-42.377 1.279-51.202 1.555-11.346.354-16.236.193-16.696-.552zm-30.666-12.74c-.479-.48-21.051-2.099-41.319-3.251-14.638-.833-17.946-2.056-17.44-6.448.278-2.404.527-2.516 5.448-2.443 2.836.042 10.008.612 15.938 1.265 24.45 2.696 45.287 2.222 60-1.365 2.835-.691 9.164-1.53 14.062-1.864 9.35-.637 15-1.892 15-3.334 0-.471-1.552-1.599-3.448-2.505-4.023-1.923-4.554-2.947-2.784-5.367 1.263-1.728 1.496-1.72 10.09.322l8.798 2.09 7.9-2.393c9.633-2.92 13.7-3.077 15.034-.584.731 1.366.608 2.17-.503 3.281-1.336 1.337-1.143 1.471 2.112 1.466 1.97 0 5.903-.38 8.739-.837 2.835-.457 15.064-.982 27.173-1.167 20.85-.316 22.036-.242 22.354 1.406.484 2.51-.592 3.225-7.866 5.234-5.047 1.394-10.184 1.85-22.911 2.03-9.024.129-19.149.535-22.5.903-3.762.413-11.33.119-19.776-.77l-13.682-1.44-2.81 2.076c-2.767 2.047-16.783 6.633-20.269 6.633-1.845 0-8.002 1.29-25.026 5.24-10.163 2.359-11.568 2.567-12.314 1.822zm-149.468-1.411c-5.192-.388-10.887-1.171-12.657-1.74-4.008-1.29-8.726-1.415-22.436-.594-17.244 1.032-31.406-1.943-31.406-6.598 0-2.566 3.185-2.83 16.258-1.35 8.06.914 12.966.963 20.277.205 8.066-.837 10.622-.758 15.617.48 3.951.978 10.415 1.492 19.098 1.518 16.594.05 44.138-1.774 47.751-3.163 4.372-1.68 17.106-2.387 18.729-1.04 2.482 2.06.492 3.723-7.272 6.08-16.943 5.145-43.564 7.726-63.96 6.202zm-431.393-2.729c-7.719-1.947-9.638-3.191-9.638-6.247v-2.157l26.485.275c14.566.151 28.936.602 31.933 1.002 5.766.77 6.265.689 29.239-4.709 17.333-4.072 21.592-4.62 24.987-3.214 4.545 1.883 3.008 3.891-4.369 5.707-3.606.888-10.985 2.907-16.4 4.488-14.972 4.37-18.053 4.851-33.75 5.272-7.992.214-20.648.593-28.125.84-11.13.369-14.82.141-20.362-1.257zm827.081-11.498c-1.547-.503-6.61-.84-11.25-.747-4.64.093-14.765.224-22.5.292l-14.062.125-.291-2.519c-.255-2.206.151-2.641 3.281-3.51 1.965-.546 5.94-.994 8.835-.997 2.894 0 7.535-.441 10.312-.974 2.778-.533 13.699-1.17 24.269-1.414 11.205-.258 22.737-1.06 27.656-1.92 4.64-.813 10.904-1.864 13.919-2.337 3.015-.472 8.077-1.941 11.25-3.263 15.693-6.54 26.074-8.564 28.988-5.65 2.28 2.279 1.2 3.756-4.753 6.505-2.938 1.356-8.855 4.332-13.15 6.614-4.294 2.281-9.99 4.563-12.656 5.07-2.666.508-8.012 1.572-11.879 2.365-16.81 3.445-31.773 4.375-37.969 2.36zM22.5 1091.81c-8.29-2.493-13.118-5.108-14.075-7.624-1.455-3.826-1.115-5.097 1.64-6.145 2.094-.796 3.746-.513 8.985 1.543 5.715 2.242 7.154 2.445 13.13 1.857 3.69-.364 13.674-.63 22.187-.59 11.213.052 16.744-.314 20.079-1.327 2.531-.77 7.61-1.399 11.288-1.399 3.677 0 11.467-.665 17.31-1.477 11.05-1.536 13.844-1.082 11.408 1.853-1.498 1.804-11.3 4.922-17.89 5.69-2.835.33-8.109 1.17-11.718 1.867-20.775 4.01-27.992 5.16-35.157 5.597-4.382.268-11.343.697-15.468.955-4.893.306-8.967.027-11.719-.8zm424.219-.177c-6.684-1.58-18.378-3.326-27.46-4.1-5.82-.497-11.721-1.45-13.113-2.116-2.73-1.309-3.804-4.072-2.203-5.672 1.216-1.217 21.234-.956 25.648.334 4.593 1.342 20.777 3.674 25.325 3.649 2.195-.012 7.036-.833 10.76-1.823 3.723-.99 11.528-2.078 17.343-2.416 5.816-.339 13.739-1.467 17.606-2.506 3.867-1.04 11.803-2.319 17.635-2.842 11.497-1.033 15.178-.331 15.178 2.894 0 1.856 2.034 2.232 26.718 4.95 9.352 1.03 43.17.243 50.625-1.178 2.578-.491 11.01-.882 18.738-.868 8.51.015 17.408-.547 22.562-1.425 4.682-.798 10.382-1.318 12.668-1.154 3.73.266 4.157.537 4.157 2.64 0 2.026-.635 2.508-4.687 3.553-2.578.665-9.75 1.603-15.938 2.084-18.985 1.475-30.66 2.61-37.031 3.598-16.81 2.607-37.698 2.133-60.938-1.386-11.634-1.761-15.52-3.184-16.417-6.009-.629-1.981-.99-2.05-7.595-1.452-3.813.346-10 1.413-13.748 2.371-3.747.959-11.65 2.056-17.563 2.44-7.86.509-12.812 1.394-18.422 3.29-5.776 1.952-10.184 2.717-17.823 3.09-5.583.274-10.994.298-12.025.054zm-278.906-3.272c-20.255-1.15-30-3.534-30-7.343 0-2.842 2.61-3.701 8.437-2.777 6.789 1.077 36.744 3.632 37.453 3.195.303-.188 8.559-.834 18.346-1.436a6166.61 6166.61 0 0 0 28.107-1.79c10.251-.691 13.594-.171 13.594 2.113 0 2.86-2.543 4.47-8.455 5.353-6.327.944-48.387 3.783-52.483 3.541-1.289-.076-8.039-.461-15-.856zm112.5.076c-1.29-.413-5.154-.793-8.589-.844-7.6-.114-16.382-3.164-17.283-6.002-.787-2.481 2.023-4.625 5.228-3.989 12.97 2.576 40.938 3.389 47.831 1.39 4.083-1.184 22.416-3.54 36.094-4.638 10.206-.82 15.171-1.675 20.625-3.553 2.671-.92 20.655-6.398 24.14-7.353 2.764-.758 1.846-2.177-2.655-4.107-5.623-2.41-9.891-2.324-17.805.36-3.571 1.21-7.97 2.468-9.774 2.794-7.234 1.307-38.2 4.38-44.137 4.38-5.58 0-6.536-.267-8.05-2.25l-1.72-2.25-13.593 1.383c-13.444 1.367-14.057 1.539-23.906 6.71-2.17 1.14-5.702 1.468-15.469 1.435-14.28-.048-19.31-1.092-22.407-4.654-1.94-2.232-2.642-2.426-7.491-2.075-3.913.283-5.905.941-7.414 2.45-2.433 2.433-4.493 2.549-11.756.657-2.969-.774-8.28-1.406-11.8-1.406-4.28 0-6.756-.427-7.47-1.286-.586-.707-1.216-4.82-1.398-9.14-.183-4.32-.87-9.899-1.525-12.396-1.145-4.358-1.31-4.523-4.107-4.105-1.602.239-6.288 1.353-10.413 2.476-10.834 2.948-39.215 5.297-47.813 3.957-3.61-.563-9.54-1.013-13.18-1-8.137.027-11.42-1.117-12.207-4.252-1.184-4.716-.063-5.52 6.42-4.608 8.733 1.23 41.209.992 50.842-.372 4.64-.657 11.813-1.666 15.938-2.241 13.056-1.823 13.34-2.19 9.452-12.258-1.246-3.228-3.118-8.618-4.16-11.977-1.041-3.359-3.751-9.689-6.022-14.066-2.27-4.377-4.678-9.622-5.348-11.654-1.024-3.102-7.646-16.436-14.072-28.335-2.885-5.342-10.895-14.695-18.728-21.868-10.628-9.733-12.137-13.285-8.916-20.994 1.5-3.589 2.816-14.896 2.595-22.292-.072-2.408-1.006-7.498-2.075-11.31-1.07-3.811-1.955-7.958-1.967-9.214-.012-1.256-2.092-5.357-4.622-9.112s-5.315-9.028-6.188-11.718c-.874-2.69-3.2-8.056-5.169-11.923-3.983-7.822-6.705-14.551-9.293-22.969-.95-3.093-2.38-7.312-3.176-9.375-.796-2.062-1.48-6.703-1.518-10.312-.054-4.974-.629-7.697-2.376-11.25-1.269-2.578-2.31-5.416-2.315-6.307-.005-.89-1.063-4.421-2.352-7.846-1.723-4.576-2.344-8.053-2.344-13.116 0-6.288-.194-6.995-2.224-8.092-2.987-1.614-14.152-13.92-16.142-17.791-1.85-3.597-4.193-6.823-8.938-12.3-1.87-2.158-4.763-6.665-6.43-10.017-1.668-3.352-3.86-6.997-4.872-8.1-1.013-1.104-2.594-4.901-3.515-8.438-1.995-7.66-4.156-12.982-5.646-13.902-.595-.369-2.092-2.952-3.326-5.742-1.561-3.53-3.239-5.659-5.52-7.005-3.37-1.988-7.137-8.249-7.137-11.861 0-1.351.913-2.274 2.952-2.985 4.146-1.446 5.958-1.298 10.394.846 4.809 2.323 7.322 2.364 10.2.168 3.998-3.052 10.917-6.503 17.277-8.62 3.425-1.14 7.559-3.214 9.187-4.61 1.627-1.395 7.388-4.76 12.803-7.475 10.152-5.093 13.31-7.084 25.312-15.959 3.867-2.86 8.573-5.904 10.458-6.766 1.885-.862 5.682-3.008 8.438-4.77 2.755-1.761 7.274-4.338 10.04-5.726 2.767-1.388 6.84-4.099 9.05-6.024 2.212-1.925 6.065-4.55 8.564-5.832 2.5-1.283 5.924-3.253 7.611-4.379 1.688-1.125 6.117-3.208 9.844-4.629 8.385-3.196 9.992-4.48 8.421-6.724-.625-.893-2.64-4.154-4.477-7.248-1.838-3.094-5.016-7.946-7.062-10.781-3.357-4.655-6.956-10.506-17.012-27.657a761.56 761.56 0 0 0-7.35-12.187c-4.651-7.535-16.17-28.363-21.774-39.375-2.1-4.125-4.654-8.71-5.677-10.19-1.023-1.478-3.522-5.908-5.555-9.843-2.033-3.935-4.027-7.577-4.431-8.092-.405-.516-2.951-6.211-5.66-12.656-6.088-14.49-11.559-25.507-13.443-27.07-.785-.652-1.717-2.527-2.07-4.167-.354-1.64-1.4-4.478-2.326-6.307-4.253-8.405-2.889-14.97 3.104-14.942 3.95.019 5.072.817 5.923 4.214.385 1.541 1.685 4.762 2.886 7.158 1.202 2.395 2.186 4.81 2.186 5.366 0 1.636 7.514 16.06 8.367 16.06 1.785 0 8.465-3.314 16.88-8.374 4.934-2.967 11.08-6.19 13.659-7.163 2.578-.973 8.273-3.975 12.656-6.672 4.383-2.696 10.898-6.425 14.477-8.287 3.58-1.86 7.588-4.143 8.907-5.07 1.318-.929 3.403-2 4.633-2.383 1.23-.382 5.87-3.031 10.312-5.886 15.297-9.832 17.473-11.166 24.015-14.723 3.61-1.963 8.672-5.11 11.25-6.994 4.277-3.126 9.737-6.883 19.178-13.198 1.927-1.29 6.205-4.468 9.507-7.063 3.301-2.596 7.9-5.97 10.221-7.498 2.32-1.527 4.43-2.999 4.688-3.27 1.3-1.363 13.692-10.699 17.14-12.913 3.725-2.39 7.398-5.138 20.312-15.193 2.98-2.32 7.704-5.958 10.499-8.084 2.794-2.125 6.348-5.29 7.896-7.03 1.548-1.743 4.486-4.603 6.53-6.357 9.147-7.85 23.046-20.855 29.406-27.514 3.817-3.996 7.461-7.265 8.1-7.265.637 0 4.686-3.857 8.997-8.57 4.311-4.714 11.002-11.807 14.87-15.763 3.867-3.956 9.013-9.697 11.436-12.758s7.837-9.116 12.033-13.456c4.195-4.34 8.876-10.102 10.402-12.806 1.526-2.704 3.348-5.136 4.048-5.405 1.399-.537 11.607-13.597 15.862-20.294 1.478-2.326 4.478-6.34 6.666-8.917 7.17-8.448 13.99-20.736 18.47-33.281 1.964-5.499 2.153-7.464 1.937-20.115-.132-7.712-.647-14.428-1.145-14.926-.581-.581-3.176-.04-7.26 1.513-3.496 1.329-9.098 3.167-12.45 4.083-5.684 1.554-6.661 2.25-14.549 10.357-9.106 9.358-12.269 11.211-20.772 12.171-5.371.607-11.338 3.307-16.36 7.405-1.355 1.105-4.982 2.951-8.06 4.102-3.077 1.151-7.646 3.788-10.153 5.86-6 4.957-9.513 6.698-12.172 6.03-4.677-1.173-5.121-2.569-5.121-16.09 0-6.932.411-13.335.914-14.23.503-.896 2.854-5.637 5.225-10.535 7.495-15.488 9.25-18.065 13.244-19.447 1.972-.682 5.695-3.29 8.273-5.797 2.578-2.506 5.954-5.19 7.502-5.966 1.549-.776 3.632-2.313 4.63-3.416.998-1.102 3.603-2.796 5.79-3.763 2.435-1.077 4.545-2.86 5.444-4.597 1.867-3.61 4.937-5.764 8.216-5.764 2.21 0 4.512 2.1 4.512 4.115 0 1.01-11.113 11.53-16.906 16.004-3.311 2.557-8.35 6.016-11.198 7.686-2.848 1.67-6.102 3.693-7.233 4.494-3.8 2.695-14.965 18.648-16.556 23.658-1.52 4.787-2.151 18.124-.916 19.359.345.345 1.59-.001 2.764-.771 1.174-.77 4.896-2.439 8.27-3.709 3.374-1.27 7.299-3.393 8.72-4.719 3.772-3.515 9.726-6.142 15.91-7.019 11.16-1.582 13.282-2.587 20.03-9.485 3.492-3.569 6.788-6.488 7.325-6.488.537 0 3.512-1.639 6.61-3.641 3.1-2.003 7.035-3.905 8.747-4.226 1.711-.32 6.046-1.82 9.632-3.332l6.52-2.748.469-13.886c.614-18.202.056-25.018-2.082-25.425-.91-.173-3.564 1.506-6.094 3.856-6.993 6.497-11.049 8.152-19.974 8.152-7.887 0-11.226-.98-11.226-3.293 0-2.695 4.409-4.501 9.51-3.897 6.466.766 10.398-1.03 16.74-7.647 6.16-6.427 10.385-8.6 16.716-8.6 4.607 0 7.435 1.464 7.827 4.05.092.609.256 13.13.366 27.825.216 29.054 1.74 55.92 3.506 61.834 1.078 3.61 2.672 5.508 28.304 33.724 3.61 3.973 8.461 8.864 10.781 10.87 2.32 2.004 7.383 6.668 11.25 10.363 3.868 3.695 12.938 12.096 20.157 18.668a6221.152 6221.152 0 0 1 22.415 20.51c5.11 4.71 10.172 9.17 11.25 9.911 1.078.743 2.28 1.871 2.67 2.509.391.637 6.297 5.928 13.125 11.757 6.828 5.83 12.626 10.848 12.884 11.151.976 1.15 21.278 18.38 25.312 21.481 2.32 1.784 8.438 7.07 13.594 11.748 5.156 4.677 11.062 9.74 13.125 11.249 2.062 1.51 8.18 6.581 13.593 11.271 5.415 4.69 12.586 10.593 15.938 13.117 5.805 4.372 18.133 14.757 20.147 16.972.52.572 2.984 2.47 5.473 4.218 9.68 6.795 16.62 11.888 25.406 18.646 10.353 7.963 23.835 17.862 31.474 23.111 2.836 1.949 6.844 5.054 8.906 6.902 4.155 3.72 7.721 6.155 12.657 8.638 1.804.909 6.234 3.786 9.843 6.396 3.61 2.609 8.25 5.872 10.313 7.252 2.062 1.38 5.86 4.053 8.437 5.94 2.578 1.888 7.222 4.699 10.319 6.246 3.097 1.546 8.218 4.756 11.379 7.133 3.16 2.376 5.993 4.32 6.293 4.32 1.094 0 16.242 9.292 17.377 10.66.642.773 2.414 1.68 3.936 2.015 2.21.485 3.394.071 5.863-2.05 1.702-1.46 5.099-4.04 7.548-5.732 2.45-1.692 4.29-3.59 4.092-4.219-.342-1.082-9.736-4.429-21.54-7.672-4.944-1.36-5.44-1.746-6.418-5.013-1.24-4.135-.904-7.836.76-8.384.643-.212 2.687 1.305 4.542 3.37 2.562 2.855 4.53 4.03 8.204 4.901 2.658.63 7.076 2.165 9.819 3.41 2.742 1.246 5.906 2.134 7.031 1.974 1.998-.284 2.045-.618 2.053-14.354.004-7.734-.418-20.694-.938-28.8l-.945-14.738-4.687-2.949c-8.482-5.335-17.012-12.944-21.937-19.567-2.666-3.586-7.255-8.35-10.198-10.586-6.286-4.778-7.676-7.132-7.695-13.025-.017-5.293 1.886-6.555 4.812-3.19 2.128 2.448 12.163 8.949 13.812 8.949 2.227 0 10.246-21.123 11.81-31.109.348-2.226 2.037-7.633 3.754-12.016 1.716-4.383 4.047-12.398 5.18-17.813 1.132-5.414 2.69-11.953 3.46-14.53 1.66-5.553 3.027-40.285 2.215-56.25-.157-3.095.025-7.786.405-10.426.715-4.971-.312-7.045-2.612-5.27-.622.48-3.24 1.41-5.819 2.067-2.578.656-6.797 2.585-9.375 4.287-2.578 1.7-6.425 3.55-8.55 4.11-2.123.56-4.866 1.802-6.093 2.758-3.822 2.979-7.67 4.538-12.82 5.196-4.052.518-6.016 1.481-10.675 5.235-6.698 5.397-17.125 9.567-24.193 9.673-4.144.063-5.16-.314-7.701-2.855-3.95-3.95-4.57-10.466-1.78-18.73 1.083-3.207 1.968-6.94 1.968-8.296 0-2.72 1.913-7.15 4.595-10.638 1.392-1.811 3.006-2.416 8.081-3.027 7.471-.9 10.091-2.388 12.266-6.97 2.025-4.267 6.47-7.134 15.283-9.855 5.106-1.577 7.959-3.12 10.781-5.83 4.717-4.53 7.529-5.428 16.35-5.22l6.886.162 4.618-5.06c7.41-8.121 7.425-8.174 7.717-26.877.246-15.801.372-16.797 2.544-20.157 2.415-3.734 5.088-4.993 8.688-4.09 4.396 1.104 4.533 2.561 5.357 56.987l.776 51.238 2.984 6.419c1.642 3.53 5.622 10.426 8.845 15.324 3.223 4.899 8.682 14.102 12.131 20.453 8.072 14.86 20.085 33.102 25.737 39.079 2.438 2.578 5.018 5.867 5.735 7.309.716 1.442 2.635 4.184 4.263 6.094 1.628 1.91 6.446 8.323 10.705 14.253 7.661 10.666 10.008 13.663 17.45 22.288 2.102 2.437 6.899 8.65 10.658 13.806 3.76 5.156 8.392 11.062 10.294 13.125 1.902 2.062 6.143 7.336 9.424 11.719 3.28 4.382 7.053 9.091 8.383 10.463 1.33 1.372 4.106 4.67 6.168 7.328 2.063 2.659 7.125 8.864 11.25 13.79 4.125 4.927 9.225 11.21 11.334 13.963 2.109 2.753 4.701 5.76 5.761 6.683 1.06.924 4.133 4.21 6.828 7.304 6.016 6.904 18.824 21.023 23.89 26.335 2.062 2.162 6.492 7.214 9.843 11.227 10.115 12.109 42.516 43.05 52.398 50.037 3.066 2.168 3.223 2.186 4.453.504.7-.958 1.274-3.139 1.274-4.845 0-2.953 2.627-6.852 4.616-6.852 1.677 0 6.88-6.04 8.542-9.919 1.996-4.656 4.937-6.956 8.895-6.956 6.202 0 6.628 3.713 1.376 11.99-2.058 3.244-3.741 6.217-3.741 6.606 0 .39-1.954 3.854-4.342 7.697-2.388 3.844-7.172 11.84-10.631 17.77-3.46 5.93-9.305 15.632-12.99 21.562-6.132 9.866-9.188 15.017-13.425 22.628-.849 1.525-2.576 4.335-3.838 6.245-4.498 6.805-11.169 18.385-17.459 30.307-1.735 3.287-4.71 8.297-6.612 11.133-1.902 2.835-5.287 8.53-7.523 12.656-2.235 4.125-4.816 8.571-5.733 9.88-.918 1.31-3.028 4.897-4.69 7.97-1.66 3.073-3.55 6.22-4.2 6.994-.648.773-2.532 3.937-4.186 7.03-1.654 3.095-5.863 10.266-9.353 15.938-6.799 11.048-17.488 30.37-18.93 34.219-.864 2.305-6.292 11.852-10.928 19.219a982.817 982.817 0 0 0-4.378 7.031c-1.11 1.805-3.661 5.813-5.67 8.906-7.822 12.049-15.424 24.408-15.424 25.078 0 1.11 2.42.824 5.314-.628 1.46-.733 4.49-2.081 6.732-2.997 2.448-1 4.406-2.529 4.899-3.825.727-1.912 1.444-2.159 6.274-2.159 5.21 0 5.633.184 9.525 4.15 2.503 2.55 3.866 4.686 3.537 5.543-.294.767-2.573 4.7-5.064 8.741-2.491 4.041-5.92 10.195-7.62 13.675-1.7 3.48-3.475 6.328-3.945 6.328-.47 0-1.47 1.16-2.221 2.579-1.97 3.717-36.36 38.322-44.303 44.58-3.693 2.91-7.662 6.673-8.82 8.363-1.158 1.69-3.245 4.338-4.638 5.885-1.393 1.547-3.396 4.5-4.452 6.562-3.24 6.33-10.531 21.912-10.531 22.509 0 .31-1.696 3.375-3.77 6.813-2.073 3.438-4.222 7.929-4.774 9.98-.552 2.05-3.44 8.601-6.418 14.557-2.977 5.956-5.727 11.834-6.11 13.064-.383 1.229-2.098 4.625-3.81 7.547-1.712 2.921-3.42 6.556-3.793 8.077-1.061 4.313-13.984 28.013-20.881 38.296-3.424 5.104-8.649 12.907-11.61 17.34-2.963 4.433-7.498 10.46-10.079 13.392-2.58 2.932-4.697 5.676-4.703 6.097-.006.421-4.049 4.914-8.984 9.985-4.936 5.07-8.709 9.484-8.384 9.808.324.324 4.894-.136 10.156-1.022 5.261-.887 11.393-1.61 13.625-1.606 2.232 0 6.662-1.001 9.844-2.234 8.884-3.441 13.766-4.322 23.966-4.322 10.7 0 16.883-1.108 24.177-4.333 4.601-2.035 6.716-2.295 21.736-2.665 9.151-.226 17.802-.853 19.224-1.394 2.844-1.08 8.968-1.305 11.293-.413 2.378.912 1.87 5.695-.789 7.438-3.53 2.312-13.722 3.447-29.678 3.303-12.989-.116-15.117.09-19.219 1.859-7.269 3.135-17.691 4.82-25.425 4.112-5.437-.498-8.005-.237-13.208 1.344-9.295 2.823-19.333 4.81-24.4 4.828-2.416.01-8.19.64-12.83 1.403-10.627 1.746-20.176 1.803-22.459.133-3.177-2.323-.95-5.865 11.922-18.969 6.797-6.92 12.945-13.741 13.662-15.16.718-1.418 3.11-4.478 5.317-6.798 2.207-2.32 4.75-5.695 5.65-7.5.9-1.805 2.847-4.67 4.326-6.369 1.48-1.698 4.002-5.706 5.605-8.906 1.603-3.2 4.323-7.554 6.044-9.674 3.415-4.208 21.553-40.518 32.508-65.076 6.877-15.415 10.127-21.869 16.184-32.127 1.764-2.988 3.612-6.897 4.106-8.686.952-3.447 5.781-11.804 8.635-14.943.938-1.032 3.247-3.774 5.132-6.094 5.74-7.068 11.508-12.962 15.023-15.35 3.671-2.495 20.924-18.361 29.858-27.46 9.434-9.607 12.03-12.774 14.194-17.31 1.138-2.386 2.54-4.629 3.116-4.985 1.626-1.004 4.771-7.695 4.771-10.147 0-1.211-.543-2.945-1.207-3.853-1.145-1.566-1.466-1.549-6.328.343-2.817 1.096-7.031 2.978-9.365 4.183-2.335 1.205-6.132 2.741-8.438 3.414-2.306.673-5.67 2.152-7.475 3.287-1.804 1.135-4.757 2.481-6.562 2.992-1.805.51-5.39 1.653-7.969 2.54-2.578.885-7.43 1.953-10.781 2.372-3.352.419-8.414 1.204-11.25 1.745-2.836.54-9.779 1.843-15.429 2.894-11.458 2.13-24.843 5.518-26.315 6.658-.529.41-4.747 1.392-9.375 2.181-33.166 5.657-49.476 9.018-52.333 10.784-2.507 1.549-5.026 1.985-12.879 2.23-11.55.36-13.982 1.346-13.982 5.671 0 6.09-4.18 7.079-8.115 1.92l-2.587-3.39-6.133.627c-3.373.345-6.446.939-6.829 1.32-.382.382-.197 2.013.412 3.626 1.39 3.683-.123 5.895-4.03 5.895-2.182 0-3.035-.696-4.592-3.75-2.076-4.068-2.867-4.291-10.194-2.876-2.785.538-4.783 1.648-6.229 3.462-2.08 2.608-2.227 2.643-6.436 1.517-4.384-1.172-17.154-.142-49.329 3.98-5.93.76-13.945 1.635-17.813 1.945-3.867.31-10.195 1.124-14.062 1.809-3.867.684-11.25 1.547-16.406 1.919-5.157.37-10.43 1.074-11.719 1.562-2.578.976-19.228 2.108-51.609 3.51-22.67.98-40.213 2.412-46.322 3.78-3.383.757-41.776 2.294-51.791 2.073-5.726-.127-9.31-2.277-10.01-6.007-.432-2.292-2.491-4.828-8.056-9.917-4.113-3.76-8.72-7.27-10.238-7.8-1.753-.611-3.346-2.198-4.369-4.352-2.768-5.834-31.175-36.013-35.058-37.246-2.875-.912-3.335-.114-3.279 5.678.036 3.69.608 5.82 2.11 7.851 2.538 3.434 2.585 4.909.224 7.045-1.395 1.263-3.701 1.713-9.61 1.876-10.3.284-31.744 2.1-33.704 2.854-2.041.785-7.066-1.852-7.773-4.079-.529-1.666 2.552-19.844 3.67-21.653 1.168-1.891-2.56-2.384-19.185-2.534-11.583-.105-19.99-.666-25.312-1.69-18.075-3.48-23.37-4.365-31.407-5.25-4.64-.511-13.922-1.972-20.625-3.247-6.703-1.275-20.836-3.404-31.406-4.731-21.257-2.67-24.205-3.218-32.256-6.001-3.046-1.053-6.4-1.915-7.452-1.915-2.06 0-11.037-2.715-37.636-11.384-9.281-3.024-20.722-6.536-25.424-7.804-4.702-1.267-12.085-3.627-16.406-5.242a2591.253 2591.253 0 0 0-16.295-6.015c-19.53-7.122-26.482-9.771-30.469-11.612-2.32-1.072-6.96-2.978-10.312-4.236-25.289-9.493-45.146-17.83-60.469-25.39-17.612-8.69-22.626-10.571-25.373-9.517-1.282.492-1.193 1.078.687 4.554 1.186 2.194 2.91 5.005 3.83 6.247.919 1.241 2.346 4.616 3.17 7.5 1.934 6.762 10.46 21.804 15.575 27.477 2.192 2.432 5.57 7.542 7.504 11.355 2.334 4.6 5.963 9.491 10.782 14.533 6.738 7.052 8.326 8.145 21.982 15.13 8.096 4.141 15.725 7.529 16.955 7.529 2.537 0 11.36 2.768 18.14 5.69 2.508 1.081 10.256 3.87 17.217 6.196 6.96 2.327 17.719 6.352 23.906 8.946 6.188 2.593 15.976 5.89 21.752 7.326 5.775 1.436 12.736 3.434 15.468 4.44 2.732 1.006 7.385 2.101 10.339 2.434 6.48.73 15.497 3.896 18.053 6.34 1.481 1.415 1.647 2.112.811 3.407-1.553 2.405-9.842 1.832-22.829-1.576a4150.777 4150.777 0 0 0-18.281-4.753c-13.055-3.347-21.472-6-24.407-7.693-2.963-1.71-16.521-6.382-18.517-6.382-.63 0-4.52-1.624-8.643-3.609-4.123-1.985-8.914-3.882-10.648-4.216-1.734-.334-6.902-2.296-11.486-4.36-4.583-2.064-8.697-3.753-9.142-3.753-1.307 0-20.635-7.402-24.57-9.41-5.84-2.979-6.819-2.588-6.067 2.425.352 2.345 1.661 6.459 2.91 9.14 1.249 2.682 2.274 5.413 2.28 6.069.004.655 1.485 4.97 3.29 9.589 1.804 4.618 3.281 9.747 3.281 11.398 0 1.65.422 4.296.938 5.88.515 1.583 1.96 6.042 3.212 9.91 2.64 8.157 4.775 13.205 10.477 24.76 2.268 4.596 4.123 9.14 4.123 10.1 0 .959 1.668 3.553 3.706 5.765 2.351 2.55 4.151 5.696 4.922 8.602.991 3.737 2.6 5.977 8.716 12.141 4.125 4.158 9.556 9.031 12.07 10.83 2.512 1.799 7.153 5.115 10.312 7.37 3.158 2.255 8.063 6.089 10.899 8.52 2.836 2.432 6.152 5.228 7.368 6.214 1.217.985 5.527 5.8 9.58 10.697 4.05 4.899 8.002 9.635 8.78 10.525.778.89 3.256 4.476 5.507 7.969 6.964 10.808 8.87 13.676 12.636 19.006 2.003 2.836 5.709 9.165 8.235 14.063 5.15 9.986 16.53 26.727 19.322 28.422 1.005.61 4.092 4.273 6.86 8.14 6.783 9.478 7.409 10.121 25.874 26.612 5.202 4.646 10.936 8.211 17.246 10.723 2.577 1.025 7.217 3.116 10.31 4.646 12.753 6.307 14.95 6.709 37.974 6.94 17.651.178 22.083-.055 27.183-1.434 3.352-.906 8.625-1.88 11.719-2.164 5.308-.488 6.073-.28 13.594 3.676 4.382 2.306 9.508 4.47 11.39 4.81 4.231.762 6.255 2.885 4.86 5.098-.54.86-1.781 1.7-2.757 1.868-.976.168-8.614 2.593-16.972 5.39-8.36 2.797-15.758 5.085-16.443 5.085-.684 0-2.916.888-4.958 1.972-2.043 1.085-6.878 2.345-10.745 2.801-3.868.456-9.352 1.239-12.188 1.74-2.836.5-11.484 1.807-19.219 2.903-35.3 5.006-37.155 5.171-41.718 3.71zm-73.594-29.08c6.187-.5 23.695-.91 38.906-.91 15.21 0 30.61-.425 34.219-.945 3.61-.52 9.433-1.192 12.942-1.492 3.575-.306 6.243-.954 6.07-1.476-.171-.511-4.097-2.492-8.724-4.402-10.84-4.474-18.6-8.932-23.882-13.72-2.32-2.103-7.258-6.267-10.974-9.253-7.082-5.692-21.615-20.42-26.19-26.54-1.474-1.974-4.523-5.88-6.775-8.682-2.252-2.802-5.953-8.92-8.223-13.594-2.27-4.675-5.564-10.82-7.32-13.656-9.8-15.837-20.183-31.567-23.342-35.364-1.983-2.382-4.574-5.842-5.758-7.687-1.183-1.845-5.443-6.308-9.465-9.918-4.022-3.61-8.603-7.888-10.18-9.509-1.577-1.62-4.765-4.114-7.085-5.54-2.32-1.428-5.907-4.003-7.97-5.723-9.743-8.127-12.052-9.738-12.833-8.957-.481.482-.421 1.904.143 3.388 1.513 3.98 1.118 16.118-.825 25.356-1.94 9.226-1.595 11.495 2.122 13.93 2.098 1.375 5.726 5.436 16.908 18.93 7.848 9.471 20.116 31.082 23.127 40.741 2.099 6.732 5.122 14.166 8.462 20.81 2.046 4.068 3.987 9.391 4.313 11.83.327 2.437 1.587 7.087 2.8 10.333 1.833 4.905 2.27 8.15 2.585 19.219.209 7.325.416 13.423.461 13.552.146.42 5.033.206 16.488-.72zm353.674-232.814c1.245-1.215 1.168-1.877-3.458-30.137a2671.505 2671.505 0 0 0-3.378-20.156c-.761-4.383-1.78-11.133-2.266-15-1.598-12.74-3.809-27.49-5.762-38.438-2.97-16.654-3.509-20.193-5.061-33.28-2.341-19.74-6.446-35.157-9.36-35.157-1.945 0-1.847 4.458.52 23.438 1.06 8.507 2.312 18.843 2.782 22.968 1.54 13.535 3.782 31.758 4.694 38.15.493 3.45.896 8.44.896 11.088 0 2.648.8 9.528 1.777 15.289.977 5.76 2.29 15.114 2.918 20.786 1.169 10.548 1.753 14.979 3.71 28.125.613 4.125 1.308 8.843 1.543 10.485.307 2.151 1.008 3.103 2.505 3.405 2.8.565 6.505-.165 7.94-1.566zm17.922-.17c.265-.265-.033-1.908-.663-3.65-.63-1.741-1.75-6.477-2.49-10.523-.74-4.046-2.437-12.208-3.772-18.138-1.336-5.93-2.804-13.312-3.265-16.406-.46-3.093-1.543-8.789-2.407-12.656-.863-3.867-1.917-9.14-2.341-11.719-.425-2.578-1.2-6.164-1.724-7.968-.523-1.805-1.828-8.133-2.9-14.063-1.072-5.93-3.012-16.688-4.312-23.906A3041.94 3041.94 0 0 0 551.278 690c-.44-2.32-1.226-6.54-1.748-9.375-2.438-13.255-4.408-18.75-6.721-18.75-1.17 0-.23 7.852 1.491 12.44.729 1.945 1.325 5.022 1.325 6.84 0 1.817.599 5.921 1.33 9.121.731 3.2 1.786 8.77 2.343 12.38 2.035 13.187 2.957 18.868 3.955 24.375.56 3.094 1.386 8.367 1.834 11.719.448 3.352 1.405 9.469 2.127 13.594.722 4.125 2.002 11.718 2.844 16.875 2.017 12.346 3.144 18.675 4.34 24.375.54 2.578 1.378 8.273 1.86 12.656 1.37 12.42 2.854 19.109 4.539 20.449 1.416 1.126 6.276.915 7.518-.326zm-35.949-2.076c-.357-1.418-1.026-5.953-1.487-10.078-.46-4.125-1.511-12.563-2.336-18.75-.824-6.188-1.607-13.57-1.739-16.407-.317-6.83-2.886-29.859-5.28-47.343-1.058-7.735-2.295-17.649-2.748-22.032-1.726-16.703-3.819-34.434-4.704-39.843-.506-3.094-1.195-8.79-1.532-12.657-.713-8.206-1.259-9.912-4.239-13.26-2.051-2.305-11.014-8.302-12.407-8.302-.34 0-.394.95-.122 2.11s.908 10.968 1.413 21.796c1.81 38.857 3.68 72.515 4.147 74.675.465 2.155 1.584 24.831 1.865 37.825.078 3.61.507 11.335.954 17.169l.81 10.605 4.025 4.863c2.213 2.675 6.606 7.125 9.762 9.89 3.156 2.764 6.824 6.666 8.151 8.671 2.962 4.476 6.5 5.167 5.467 1.068zm56.329.249c3.665-.765 13.476-1.559 21.802-1.764 9.682-.24 15.617-.771 16.465-1.475.73-.605 2.098-1.07 3.041-1.033 9.17.358 32.229-.159 37.81-.847 7.09-.875 28.618-2.913 51.093-4.836 6.703-.574 13.664-1.417 15.469-1.874 1.805-.457 4.758-.827 6.563-.822 1.804.006 8.976-.819 15.937-1.832 6.96-1.013 16.242-2.33 20.625-2.927 4.383-.597 10.29-1.447 13.125-1.89a866.39 866.39 0 0 1 11.518-1.688c3.5-.486 6.933-1.358 7.63-1.937 3.054-2.535 1.623-9.433-1.957-9.433-3.19 0-63.534-20.974-82.816-28.786-6.96-2.82-14.228-5.718-16.15-6.44-1.921-.722-7.406-3.166-12.187-5.432-4.782-2.265-11.858-5.492-15.725-7.17-25.61-11.117-50.533-23.287-60.537-29.562-3.572-2.24-9.007-5.411-12.078-7.047-3.071-1.635-7.08-4.136-8.907-5.557-1.827-1.421-8.174-5.455-14.104-8.965a4801.971 4801.971 0 0 1-25.275-15.108c-7.971-4.8-14.795-8.415-15.163-8.033-.368.381.542 6.389 2.021 13.35 1.48 6.96 4.401 20.882 6.493 30.937 2.092 10.055 5.04 23.766 6.552 30.469 3.437 15.238 5.224 23.925 7.136 34.687 1.796 10.111 4.336 21.36 7.41 32.813 1.245 4.64 2.511 9.597 2.813 11.015.652 3.06 1.827 3.183 11.396 1.187zm238.961-26.085c1.77-.917 1.716-1.04-.937-2.174-4.421-1.89-8.672-1.627-9.373.58-.325 1.026-.354 2.252-.063 2.723.631 1.02 7.714.25 10.373-1.13zm38.438-7.198c14.571-2.447 22.467-3.922 23.1-4.313.918-.568-.053-18.808-1.155-21.708-.46-1.207-2.167-2.915-3.795-3.796-1.629-.881-6.586-4.028-11.016-6.993-4.43-2.965-8.507-5.39-9.059-5.39-1.614 0-7.919 31.118-7.919 39.087 0 3.796.154 4.033 2.578 3.97 1.418-.039 4.688-.424 7.266-.857zM506.31 776.121c-.056-7.405-.697-21.48-1.424-31.277s-1.592-28.992-1.923-42.657c-.33-13.664-.966-26.32-1.41-28.125-.445-1.804-1.097-11.93-1.45-22.5-.51-15.27-.936-19.555-2.08-20.859-3.063-3.491-3.326-1.903-2.676 16.187.744 20.732 3.157 63.012 3.859 67.61.265 1.736.683 12.86.93 24.719.817 39.293 2.377 54.267 5.344 51.3.542-.542.89-6.574.83-14.398zm332.724 13.29c.759-.48 1.18-1.063.938-1.296-.94-.905-7.967-1.034-8.41-.155-.393.778.711 1.215 5.625 2.227.257.053 1.089-.296 1.847-.775zm19.1-.74c.238-.386.728-2.679 1.09-5.095l.657-4.392-3.305-.62c-1.818-.341-4.604-.335-6.191.014-2.632.578-2.886.961-2.886 4.354 0 3.301.344 3.87 3.047 5.045 3.359 1.46 6.916 1.786 7.588.695zm-416.165-2.085c1.6-.608 2.41-1.629 2.421-3.047.008-1.173.845-5.297 1.859-9.164 2.648-10.103 2.854-9.656-4.247-9.204-5.273.336-6.498.774-8.833 3.156-2.387 2.436-2.776 3.647-3.252 10.124-.297 4.047-.305 7.738-.017 8.203.697 1.129 9.046 1.081 12.07-.068zm381.65-.065c.926-1.499-1.23-3.515-4.535-4.241-1.636-.36-6.985-2.665-11.889-5.125-4.903-2.46-12.923-6.008-17.821-7.887l-11.719-4.492c-1.547-.593-7.031-3.288-12.187-5.989-5.156-2.7-12.961-6.433-17.344-8.296A1522.54 1522.54 0 0 1 735 744.842a1365.715 1365.715 0 0 0-12.064-5.197c-3.8-1.615-9.073-4.307-11.719-5.983-2.646-1.677-9.03-5.282-14.186-8.012-5.156-2.73-12.117-6.737-15.468-8.906-3.352-2.17-9.047-5.573-12.657-7.563-3.61-1.99-8.672-4.945-11.25-6.566-2.578-1.622-8.854-4.952-13.947-7.4-5.093-2.45-11.583-5.996-14.423-7.881-2.84-1.885-8.392-5.537-12.337-8.115-3.945-2.578-9.268-6.217-11.827-8.086-2.56-1.868-6.552-4.353-8.872-5.521-2.32-1.168-6.54-3.996-9.375-6.285-14.85-11.986-39.411-28.728-40.52-27.62-.448.448.666 6.746 2.514 14.211 1.825 7.373 3.319 13.553 3.319 13.732 0 .18 3.028 1.852 6.73 3.716 3.701 1.864 8.87 4.988 11.484 6.943 2.615 1.955 8.642 5.495 13.394 7.866 4.751 2.371 11.474 6.213 14.94 8.537 3.465 2.324 6.84 4.226 7.5 4.226.66 0 2.585 1.21 4.278 2.69 1.694 1.48 5.742 4.03 8.995 5.666 3.253 1.638 7.983 4.462 10.51 6.278 5.197 3.733 24.5 13.715 42.637 22.047 6.703 3.08 13.242 6.152 14.532 6.827 1.289.675 5.376 2.368 9.082 3.763 3.706 1.394 8.507 3.817 10.669 5.382 2.161 1.566 6.511 3.796 9.667 4.957 8.134 2.99 17.492 6.896 20.45 8.534 2.641 1.463 18.96 7.357 37.319 13.478 13.539 4.515 27.944 9.821 33.37 12.293 2.291 1.044 6.076 2.255 8.41 2.69 2.334.437 4.506 1.055 4.826 1.375.868.869 1.957.705 2.638-.397zm18.411-4.177c.272-1.63-.208-1.875-3.672-1.875-4.879 0-5.3 1.356-1.067 3.435 3.402 1.672 4.246 1.394 4.739-1.56zm-380.153 1.172c.775-1.23.623-9.92-.28-15.989-.513-3.451-.641-3.558-3.955-3.281-3.385.282-3.425.333-3.459 4.504-.018 2.32-.376 6.855-.795 10.078l-.76 5.86h4.255c2.386 0 4.58-.515 4.994-1.172zm454.791 0c.896-1.092 1.488-4.4 1.247-6.968-.057-.61-1.053-1.397-2.213-1.75-1.16-.352-3.516-1.695-5.235-2.984-1.72-1.288-3.422-1.978-3.783-1.532-.361.447-.502 3.87-.313 7.609l.344 6.797h4.496c2.473 0 4.929-.528 5.457-1.172zm29.098-5.896c2.672-.793 4.855-1.954 4.85-2.578-.015-2.407-2.838-23.868-3.724-28.323-.513-2.578-1.373-9.54-1.91-15.469-.538-5.93-1.575-14.79-2.304-19.687-.73-4.899-1.578-10.594-1.887-12.657-.309-2.062-.915-8.009-1.347-13.214-.433-5.206-1.258-10.346-1.834-11.423-.577-1.077-1.05-4.623-1.053-7.88-.003-3.256-1.07-13.303-2.374-22.326-1.303-9.024-2.137-17.352-1.854-18.507.282-1.156.117-3.898-.368-6.094-1.447-6.558-2.916-16.56-3.822-26.024-.468-4.899-1.517-13.97-2.33-20.157-.812-6.187-1.87-14.795-2.351-19.129-.883-7.968-2.197-11.074-3.674-8.685-.42.678-.584 2.362-.367 3.743.218 1.38.558 13.688.756 27.353.199 13.664.796 37.289 1.327 52.5.531 15.21 1.19 43.687 1.463 63.28.774 55.483 1.453 77.545 2.441 79.393 1.25 2.335 10.148 7.307 13.097 7.318 1.324.005 4.594-.64 7.265-1.434zm-452.072-10.042c-.294-5.8-.731-16.031-.973-22.734-.241-6.703-.735-18.305-1.097-25.782-.362-7.476-.762-20.132-.89-28.125-.128-7.992-.691-21.914-1.251-30.937-.56-9.023-1.025-20.604-1.033-25.733l-.013-9.328-4.747-4.456c-4.718-4.43-7.958-6.216-9.135-5.039-.339.339-.908 11.407-1.266 24.597-.359 13.19-.905 25.923-1.214 28.298-.662 5.08-2.28 43.933-2.978 71.506l-.49 19.377 6.868 4.706c3.777 2.588 9.188 6.823 12.024 9.41 2.836 2.588 5.51 4.724 5.942 4.746.433.023.546-4.705.253-10.506zm332.568 7.031c.72-1.418 1.593-5.109 1.939-8.203 1.154-10.331 2.186-14.94 7.104-31.74 3.276-11.19 3.209-11.318-10.953-20.742-7.737-5.148-17.92-13.296-22.422-17.943-1.086-1.12-3.829-3.194-6.094-4.607-2.265-1.412-6.278-4.514-8.918-6.893-10.137-9.133-16.878-14.788-22.803-19.126-3.38-2.476-11.708-9.967-18.505-16.647-6.797-6.68-12.804-12.146-13.35-12.146-.545 0-3.421-2.142-6.392-4.76-2.97-2.619-9.342-8.208-14.16-12.422-4.817-4.214-11.146-9.802-14.062-12.418-2.917-2.616-7.835-6.69-10.928-9.054-3.094-2.363-6.284-5.074-7.088-6.024-.805-.95-7.523-7.423-14.93-14.384-22.75-21.382-55.701-55.05-66.92-68.377-11.648-13.836-23.246-25.373-25.508-25.373-1.137 0-3.907.834-6.155 1.854s-5.352 1.875-6.9 1.9c-1.546.025-7.03 1.129-12.187 2.453-7.817 2.008-12.532 2.52-28.378 3.088-10.452.374-19.379 1.072-19.838 1.552-1.017 1.063.206 34.83 2.205 60.872.791 10.312 1.448 21.326 1.46 24.474l.02 5.725 5.27 3.941c5.83 4.36 8.317 4.464 7.491.314-1.426-7.175-6.168-44.078-7.197-56.017-.444-5.156-1.216-11.273-1.715-13.593-.499-2.32-1.2-8.479-1.559-13.685l-.652-9.466 5.22-.539c8.152-.841 8.496-.592 10.444 7.58 1.939 8.136 3.53 16.256 5.73 29.235.831 4.898 2.738 13.082 4.24 18.186 1.5 5.105 2.728 10.297 2.728 11.538 0 1.242.433 4.237.963 6.657 2.972 13.581 3.828 17.89 6.178 31.118 2.574 14.49 2.592 14.542 6.329 18.061 2.061 1.942 6.94 5.708 10.842 8.369 13.763 9.386 21.056 14.74 30.815 22.622 3.078 2.486 8.578 6.283 12.221 8.438 3.644 2.154 12.319 7.714 19.278 12.354 16.81 11.21 22.35 14.635 29.624 18.313 3.352 1.695 7.36 3.996 8.906 5.114 2.748 1.985 5.98 3.735 18.194 9.852 3.303 1.654 7.997 4.407 10.432 6.118 2.434 1.711 6.692 4.254 9.462 5.65 2.77 1.395 6.092 3.276 7.381 4.178 3.902 2.732 34.89 18.413 38.906 19.688 2.063.655 4.805 1.9 6.094 2.766 6.105 4.103 42.294 20.665 45.154 20.665.965 0 3.056 1.021 17.978 8.779 5.59 2.906 10.958 5.284 11.93 5.284.983 0 2.346-1.143 3.076-2.579zm15.384-.937c2.057-1.82 6.043-15.04 6.214-20.61.105-3.456.038-3.527-3.153-3.37-4.224.21-6.178 2.673-7.518 9.478-.58 2.949-1.643 7.458-2.362 10.02-1.01 3.603-1.05 4.82-.176 5.376 1.923 1.222 5.055.822 6.995-.894zm19.51-1.392c.283-.282 1.107-5.03 1.831-10.549.725-5.52 1.573-10.839 1.884-11.82.506-1.593.062-1.786-4.117-1.786h-4.684l-1.408 4.922c-2.69 9.404-4.288 18.867-3.374 19.969.856 1.03 8.685.447 9.868-.736zm105.798.588c4.012-1.54-.665-3.459-6.252-2.565-5.125.819-4.662 3.135.627 3.135 2.278 0 4.809-.257 5.625-.57zm16.911-3.116c.297-.48.216-1.047-.179-1.26-1.265-.682-8.687.423-8.687 1.294 0 1.115 8.175 1.084 8.866-.034zm-66.597-9.925c-.26-22.665-1.931-108.484-2.728-140.14-.292-11.601-.753-36.463-1.024-55.248-.27-18.786-.706-34.5-.966-34.922-.89-1.441-2.19-.768-3.499 1.811-1.434 2.826-2.176 7.328-2.973 18.047-.287 3.867-.96 8.396-1.494 10.063-.534 1.668-.723 3.813-.42 4.768 1.25 3.939 2.335 190.183 1.119 192.15-.54.872-1.346.805-3.462-.29-2.724-1.408-2.76-1.532-2.835-9.606-.042-4.498-.254-27.796-.47-51.772-.459-50.542-.4-45.212-.62-55.313-.095-4.383-.127-14.64-.071-22.792.056-8.152-.156-14.566-.47-14.251-1.67 1.669-3.566 13.32-6.794 41.73-.615 5.415-1.858 11.743-2.762 14.063-.905 2.32-1.856 6.96-2.115 10.313-.258 3.351-1.337 10.101-2.397 15-2.502 11.557-8.6 50.892-8.6 55.47 0 .847 1.814 2.602 4.032 3.902 2.217 1.3 6.065 4.043 8.55 6.097 2.486 2.054 7.49 5.262 11.12 7.13 3.631 1.867 7.07 4.037 7.644 4.821 1.477 2.02 8.226 5.897 9.903 5.689 1.108-.138 1.39-1.566 1.332-6.72zm80.75 1.628c.785-1.88 2.032-4.086 2.771-4.902.739-.817 2.42-3.51 3.737-5.986 1.316-2.476 3.48-5.927 4.81-7.67 2.988-3.917 7.759-11.616 13.396-21.616 2.364-4.194 6.396-10.733 8.96-14.531 6.178-9.155 6.178-9.155 9.27-14.98 1.474-2.778 4.267-7.175 6.206-9.772 1.939-2.596 4.876-7.026 6.526-9.844 1.651-2.817 4.247-6.81 5.769-8.873 1.522-2.062 4.223-6.566 6.003-10.008 1.78-3.442 3.675-6.53 4.21-6.86.536-.332 1.826-2.156 2.867-4.055 1.041-1.898 3.529-5.519 5.528-8.045 2-2.526 4.197-5.69 4.882-7.031.686-1.341 2.706-4.548 4.488-7.126 11.87-17.167 16.983-25.43 16.74-27.054-.196-1.305-1.772-2.338-5.432-3.558-2.836-.945-6.633-2.525-8.438-3.511-4.893-2.674-23.327-10.408-24.807-10.408-.708 0-3.959-1.412-7.224-3.138-3.266-1.726-8.07-3.842-10.676-4.702-10.165-3.355-31.489-18.002-39.513-27.142-1.999-2.276-9.365-15.44-10.19-18.21-.036-.122-2.371.589-5.189 1.579-8.729 3.068-17.035 4.127-23.6 3.01-3.207-.546-8.104-1.246-10.882-1.557-2.778-.31-7.088-1.596-9.578-2.858-5.3-2.686-6.734-2.824-8.404-.811-2.266 2.73-1.295 8.612 5.713 34.61 3.829 14.202 4.634 17.822 4.648 20.903.01 1.699 1.07 5.07 2.359 7.492 1.289 2.422 2.343 5.559 2.343 6.971 0 4.732 2.125 16.126 4.419 23.697 2.636 8.699 5.785 22.855 6.883 30.937.939 6.911 1.829 10.517 5.554 22.5 1.604 5.157 3.257 11.485 3.675 14.063.418 2.578 2.07 10.172 3.672 16.875 1.602 6.703 3.529 15.562 4.28 19.687 5.966 32.708 9.717 47.243 11.853 45.924.518-.32 1.585-2.121 2.37-4zm-32.25.32c.816-1.788.71-3.12-.488-6.112-.842-2.104-1.531-5.075-1.531-6.602 0-3.27-2.76-4.435-6.833-2.886-2.152.818-2.539 1.51-2.52 4.505.034 5.365 1.558 10.848 3.387 12.186 2.792 2.04 6.809 1.493 7.986-1.09zm45.325.682c1.547-.296 3.943-1.106 5.326-1.8 2.516-1.265 3.412-2.64 12.87-19.759 2.79-5.048 5.955-10.445 7.032-11.992 1.078-1.547 2.828-4.922 3.89-7.5 2.022-4.906 10.19-18.793 12.308-20.926.676-.681 1.23-1.66 1.23-2.175 0-.515 1.213-2.7 2.695-4.855 1.483-2.155 3.942-6.45 5.464-9.544 4.351-8.84 7.87-14.693 11.235-18.684 1.708-2.027 3.106-4.017 3.106-4.424 0-.407 1.999-3.811 4.441-7.566 2.443-3.754 5.447-8.724 6.677-11.044 1.23-2.32 2.728-4.852 3.33-5.625.602-.774 1.857-3.094 2.79-5.157.931-2.062 3.476-6.492 5.655-9.843 8.972-13.804 14.838-24.15 14.414-25.423-.362-1.087-7.039 7.848-11.995 16.05-1.804 2.987-6.973 10.909-11.485 17.604-4.513 6.695-9.325 14.62-10.694 17.61-2.947 6.436-6.697 12.26-12.035 18.69-2.141 2.578-4.134 5.32-4.43 6.094-.294.773-1.942 3.304-3.66 5.625-4.597 6.206-9.191 13.728-12.6 20.625-1.655 3.351-4.112 7.116-5.46 8.366-1.346 1.25-2.453 2.727-2.46 3.281-.013 1.113-8.926 15.379-12.27 19.64-1.164 1.482-3.267 5.13-4.674 8.105-1.408 2.976-3.999 7.037-5.758 9.025-4.575 5.167-11.55 17.607-9.409 16.779.91-.352 2.92-.882 4.467-1.177zm-28.07-.67c1.786-1.315 1.788-1.423.08-5.86-.956-2.487-1.95-5.877-2.208-7.535-.642-4.13-1.877-4.867-7.143-4.27-4.09.464-4.467.705-3.896 2.493.348 1.088 1.067 4.72 1.597 8.072.53 3.352 1.386 6.622 1.901 7.266 1.271 1.59 7.425 1.484 9.669-.167zm-558.068-3.584c1.2-.9 1.784-3.79 2.51-12.422.52-6.187 1.356-14.836 1.858-19.218.502-4.383 1.37-13.665 1.93-20.625.56-6.961 1.642-19.196 2.404-27.188.763-7.992 1.82-21.07 2.35-29.063 1.165-17.607 3.167-39.466 4.73-51.671 1.147-8.946 1.139-9.038-1.12-11.878-2.26-2.844-13.445-12.81-23.433-20.879-7.073-5.714-15.09-12.567-21.409-18.297-2.885-2.617-6.652-5.73-8.372-6.919-5.686-3.928-38.082-37.607-42.494-44.177-1.51-2.248-3.486-4.778-4.393-5.622-.906-.844-3.018-3.672-4.694-6.283-1.676-2.611-4.016-5.383-5.2-6.159-2.642-1.73-5.25-7.001-5.244-10.6.005-3.886 3.298-8.673 7.043-10.238 1.892-.79 4.23-2.903 5.582-5.046 2.414-3.824 8.928-7.543 13.212-7.543 4.77 0 21.531-4.69 22.961-6.426.803-.973 2.363-2.057 3.468-2.407 1.105-.351 2.274-1.471 2.597-2.49.323-1.019 1.716-2.551 3.095-3.406 1.379-.855 3.49-2.426 4.692-3.491 1.893-1.678 3.418-1.936 11.415-1.936 8.187 0 9.528-.24 11.877-2.125 2.93-2.35 12.053-6.822 25.616-12.553 4.899-2.07 9.434-4.441 10.079-5.269 1.476-1.896 1.512-11.104.07-18.081-.945-4.579-.879-5.794.47-8.636.863-1.819 1.569-4.146 1.569-5.172 0-1.025.797-5.813 1.771-10.64.974-4.825 2.045-11.305 2.38-14.4.695-6.413 1.363-9.805 4.872-24.744 3.198-13.616 3.526-24.001.82-26.026-1.377-1.031-2.868-1.215-5.624-.692-4.855.922-22.653.905-30.469-.027-8.245-.984-27.05-7.477-29.895-10.323-1.3-1.3-2.54-3.974-2.929-6.314-.37-2.234-.966-4.745-1.323-5.58-.384-.9-.026-2.143.879-3.047 1.94-1.94 11.213-1.977 38.424-.156 20.64 1.382 41.678.985 42.877-.81 1.078-1.613.834-19.422-.316-23.068-.568-1.801-1.199-9.745-1.4-17.652-.203-7.908-.569-14.702-.814-15.098-.245-.396-.488-9.891-.54-21.1-.084-17.907.097-20.594 1.49-22.132 1.287-1.423 1.46-2.748.922-7.058-.365-2.918-1.266-7.013-2.002-9.1-.915-2.592-1.443-9.25-1.668-21.011-.18-9.47-.567-17.455-.858-17.745-.29-.291-1.364 1.094-2.386 3.077-3.148 6.115-4.305 8.086-8.389 14.299-2.17 3.303-3.947 6.367-3.947 6.81 0 .443-1.793 3.058-3.984 5.81-2.192 2.754-5.985 8.127-8.43 11.94-2.444 3.815-6.344 9.256-8.667 12.091-2.322 2.836-4.903 6.524-5.735 8.194-.833 1.671-3.763 5.468-6.512 8.438-24.253 26.202-29.855 32.118-30.413 32.118-.353 0-11.995 11.226-25.872 24.946-23.285 23.022-31.918 30.672-43.402 38.458-2.381 1.614-5.996 4.672-8.035 6.797-2.038 2.124-4.179 3.862-4.757 3.862-.578 0-3.762 2.358-7.075 5.24-3.314 2.882-7.504 6.003-9.314 6.935-1.809.932-5.88 3.953-9.048 6.713-3.167 2.76-9.492 7.75-14.054 11.089-4.563 3.338-10.64 8.055-13.504 10.48-2.864 2.427-8.941 6.349-13.505 8.716-4.563 2.367-8.868 5.034-9.566 5.925-.877 1.12-1.117 3.215-.777 6.777.272 2.836.686 8.423.922 12.416.25 4.257 1.02 8.164 1.859 9.445 2.497 3.81 12.625 38.977 15.575 54.076 3.127 16.008 5.912 29.315 7.959 38.03.734 3.126 1.335 6.65 1.335 7.83 0 1.181 1.084 5.795 2.41 10.253a8020.391 8020.391 0 0 1 5.716 19.356c9.402 31.988 25.288 77.103 38.625 109.688 13.055 31.893 19.729 47.29 23.604 54.454 1.599 2.954 3.733 7.581 4.744 10.282 1.01 2.7 2.986 6.537 4.39 8.524 3.014 4.267 4.161 6.538 6.8 13.458 1.082 2.836 3.05 7.055 4.375 9.375 5.02 8.798 8.414 15.556 9.012 17.944.341 1.36 2.526 5.01 4.855 8.108 4.673 6.216 7.169 12.127 6.385 15.123-.28 1.073-.328 1.95-.106 1.95.221 0 5.228.663 11.125 1.472 5.896.81 17.803 1.598 26.458 1.752 8.655.155 16.003.547 16.328.873.964.964 3.557.676 5.235-.58zm19.44.223c2.124-1.137 2.385-2.692 3.688-22.02.556-8.25 1.502-20.906 2.102-28.125.6-7.218 1.174-19.242 1.275-26.718.102-7.477.42-15.493.709-17.813 1.32-10.615 2.515-25.385 2.503-30.938-.007-3.351.693-11.867 1.555-18.924 1.406-11.514 1.42-13.054.14-15.008-1.536-2.343-6.033-5.152-6.885-4.3-.286.285-.703 4.259-.928 8.83-.224 4.57-.812 9.996-1.307 12.059-.976 4.065-2.88 30.493-3.341 46.38-.158 5.428-.973 13.178-1.81 17.222-.868 4.188-1.262 8.75-.916 10.598.615 3.276-.459 14.356-2.893 29.862-1.962 12.499-3.337 28.484-2.862 33.282.23 2.32.438 4.504.464 4.853.114 1.53 6.071 2.063 8.506.76zm16.034-4.207c.329-1.547.65-6.82.713-11.719.098-7.498.77-19.742 2.418-44.063.157-2.32.76-13.71 1.34-25.312.58-11.602 1.238-21.938 1.46-22.969.222-1.031.667-10.734.988-21.562.48-16.212.349-20.004-.747-21.48-1.318-1.777-5.118-1.51-4.011.28.287.465-.098 10.277-.856 21.804-.759 11.527-1.553 25.388-1.765 30.802-.212 5.414-.816 13.64-1.343 18.281-.892 7.856-1.809 22.158-3.873 60.456-.894 16.581-.484 19.088 3.038 18.586 1.404-.2 2.226-1.169 2.638-3.104zm-102.897-2.88c-1.737-1.84-3.158-3.89-3.158-4.552 0-.663-1.524-3.201-3.387-5.64-1.863-2.44-5.06-8.302-7.103-13.026-2.044-4.724-4.489-9.433-5.433-10.465-.944-1.031-2.942-4.406-4.44-7.5-1.498-3.093-3.21-6.468-3.804-7.5-1.291-2.242-4.895-10.47-4.895-11.176 0-.274-3.944-8.629-8.763-18.567-11.355-23.416-17.804-37.435-20.171-43.85-1.047-2.836-3.059-8.32-4.472-12.188-1.413-3.867-3.01-7.613-3.548-8.325-.538-.711-1.686-3.454-2.551-6.094-.865-2.64-2.877-7.902-4.472-11.694-1.594-3.791-2.898-7.43-2.898-8.084 0-.654-.82-3.043-1.822-5.308-1.002-2.266-2.293-6.222-2.868-8.791-.574-2.57-2.036-6.993-3.247-9.829-1.212-2.836-3.12-8.742-4.241-13.125-2.977-11.637-5.59-21.095-8.029-29.062-1.184-3.868-2.798-9.985-3.588-13.594-2.42-11.07-14.857-62.496-16.436-67.969l-1.488-5.156-.32 6.094c-.176 3.351.179 14.403.788 24.56.61 10.157.826 18.924.481 19.482-.344.558-.164 5.537.4 11.064.844 8.251.686 15.504-.882 40.519-1.991 31.754-2.483 36.574-5.55 54.375-2.266 13.146-3.826 25.503-3.825 30.28.002 4.521 1.772 7.933 8.367 16.126 2.906 3.61 6.456 8.46 7.89 10.781 1.433 2.32 4.262 6.75 6.287 9.844 2.025 3.093 4.565 7.257 5.646 9.253 2.89 5.338 11.462 16.682 17.644 23.35 2.975 3.209 5.682 6.58 6.016 7.494 1.088 2.973 8.331 13.216 13.218 18.693 7.695 8.622 11.115 12.873 14.614 18.164 1.808 2.736 6.157 7.925 9.663 11.531 5.784 5.95 6.87 6.655 11.719 7.607 2.94.578 8.086 1.66 11.438 2.404 8.137 1.808 14.928 2.99 17.923 3.118l2.454.105-3.157-3.348zm-49.266-6.688c-.17-.879-1.843-2.672-3.72-3.984-3.317-2.319-6.654-6.04-14.39-16.047-2.063-2.668-4.763-5.748-6-6.845-6.562-5.815-17.005-18.685-20.243-24.948-.804-1.555-1.817-2.827-2.25-2.827-.435 0-2.822-3.059-5.306-6.797-2.483-3.738-7.83-10.945-11.88-16.015-4.051-5.07-8.372-10.766-9.603-12.656-1.23-1.891-3.745-4.869-5.588-6.617-1.842-1.748-3.35-3.541-3.35-3.984 0-.443-.568-.806-1.264-.806-.905 0-1.85 3.796-3.326 13.36-2.287 14.818-2.847 17.8-5.762 30.703-1.107 4.898-2.332 11.015-2.723 13.593-.39 2.578-1.665 8.04-2.831 12.139l-2.121 7.45 1.97 1.596c1.138.922 6.827 2.485 13.467 3.7 6.323 1.158 15.893 3.737 21.266 5.731 15.788 5.862 33.33 10.98 41.111 11.994 3.985.52 8.51 1.34 10.057 1.821 1.547.482 5.059.913 7.803.957 4.223.069 4.944-.165 4.683-1.518zm541.524-4.235c.802-1.146 1.459-3.064 1.459-4.263 0-2.135-4.163-6.69-6.167-6.748-.994-.03-3.208 7.762-3.208 11.292 0 2.727 5.957 2.516 7.916-.28zm11.303-.729c-.319-.515-1.188-.937-1.93-.937-.744 0-1.351.422-1.351.938 0 .515.868.937 1.93.937 1.062 0 1.67-.422 1.35-.938zm99.712-.836c1.3-.823.837-4.486-1.828-14.451-.909-3.4-1.118-3.556-4.42-3.282-2.835.236-3.424.629-3.243 2.163.122 1.032.497 4.407.833 7.5.336 3.094.989 6.364 1.452 7.266.892 1.74 5.004 2.2 7.206.804zm16.89-1.366c.768-.927.776-2.497.028-5.86-.562-2.527-1.237-6.387-1.499-8.578-.493-4.126-.893-4.397-5.912-4.012-4.38.336-5.112 2.004-3.795 8.64.647 3.255 1.38 6.684 1.63 7.62.81 3.031 7.564 4.58 9.548 2.19zm-108.678-9.329c1.627-6.783 1.157-8.56-2.355-8.905-5.781-.567-8.906 8.347-4.248 12.118 3.755 3.041 5.28 2.298 6.603-3.213zm-15.125-5.578c-.23-1.617-1.01-2.178-3.346-2.403-3.59-.346-3.813.292-.938 2.69 2.899 2.418 4.652 2.3 4.284-.287zm-653.285-10.781c.579-2.965 1.867-8.174 2.862-11.576.995-3.402 2.218-8.886 2.717-12.187 1.108-7.327 3.552-19.794 4.783-24.398 1.283-4.799 4.633-26.922 4.645-30.676.006-1.727-.832-4.203-1.865-5.517-1.031-1.31-1.875-2.969-1.875-3.684 0-.716-1.582-3.084-3.516-5.264-1.933-2.18-4.326-5.44-5.316-7.245-.99-1.805-3.98-6.234-6.645-9.844-2.665-3.61-6.172-8.46-7.794-10.781-1.623-2.32-4.191-5.643-5.709-7.383-2.43-2.788-3.128-3.088-5.874-2.527-3.749.767-11.824 5.494-22.985 13.455-10.356 7.387-17.93 12.28-20.748 13.405-1.199.478-4.017 2.134-6.262 3.679-2.246 1.545-4.475 2.808-4.954 2.808-.479 0-2.723 1.607-4.987 3.57-2.264 1.964-5.804 4.557-7.866 5.763-2.063 1.205-6.07 3.686-8.907 5.512a5580.035 5580.035 0 0 1-8.437 5.423c-5.045 3.233-21.87 11.604-23.327 11.606-.712 0-2.61.784-4.219 1.74-1.607.957-6.825 3.366-11.595 5.354-4.77 1.988-8.672 3.928-8.672 4.31 0 .384 1.793 1.568 3.985 2.632 2.191 1.064 5.672 2.973 7.734 4.242 2.063 1.27 7.758 3.835 12.656 5.702a675.833 675.833 0 0 1 17.608 7.05c4.786 2.013 9.12 3.659 9.63 3.659 1.343 0 17.765 6.351 20.82 8.053 3.481 1.938 15.54 6 17.966 6.05 1.07.023 3.422.621 5.226 1.33 11.09 4.35 26.523 9.722 29.589 10.297 1.974.37 5.69 1.738 8.26 3.04 2.568 1.302 6.607 2.942 8.974 3.645 2.367.703 5.14 1.91 6.163 2.683 1.022.773 2.988 1.418 4.37 1.435 2.316.027 2.593-.39 3.565-5.361zm653.695 1.406c1.232-.94 4.426-14.412 4.444-18.75.006-1.258-5.361-.74-6.496.627-.607.73-1.941 4.837-2.965 9.125-1.761 7.372-1.774 7.86-.239 8.983 2.044 1.494 3.312 1.498 5.256.015zm102.49-.09c.266-.694-.083-5.229-.777-10.078-1.146-8.009-1.457-8.844-3.395-9.125-4.266-.617-4.494-.033-3.653 9.35.433 4.824.97 9.299 1.192 9.943.546 1.575 6.023 1.5 6.633-.09zm-115.912-5.535c.697-3.223 1.797-6.92 2.446-8.215.648-1.296 1.472-4.46 1.83-7.032.358-2.57 1.454-7.91 2.435-11.862.98-3.953 1.783-8.648 1.783-10.433 0-1.784.629-4.75 1.398-6.59.768-1.84 2.043-7.64 2.831-12.89.789-5.25 1.69-9.962 2.004-10.47 1.306-2.112 4.049-14.615 4.063-18.523.008-2.32.839-6.75 1.845-9.844 2.437-7.5 8.218-32.22 9.318-39.844.483-3.352 2.013-10.312 3.4-15.469 5.288-19.655 9.1-37.912 8.726-41.79-.218-2.26-1.011-3.546-2.808-4.55-4.091-2.285-6.203-.282-12.965 12.297-8.8 16.373-10.185 18.774-12.053 20.892-.922 1.046-3.082 4.149-4.8 6.896-1.717 2.746-4.704 6.908-6.638 9.248-1.934 2.34-4.675 6.42-6.093 9.068-1.417 2.648-4.33 6.924-6.473 9.502-2.142 2.578-4.794 6.171-5.892 7.984-1.098 1.814-3.119 4.345-4.491 5.625-1.372 1.28-3.467 4.227-4.656 6.547-1.188 2.32-4.294 7.064-6.903 10.542-2.608 3.478-5.25 7.275-5.869 8.438-.619 1.163-3.483 4.998-6.363 8.523-2.88 3.525-6.385 8.125-7.788 10.222-1.402 2.098-3.465 4.788-4.583 5.978-1.118 1.19-2.514 3.13-3.1 4.309-1.232 2.474-9.603 8.238-11.966 8.238-4.486 0-1.661 3.654 9.075 11.74 2.578 1.941 8.484 7.182 13.125 11.646 4.64 4.464 11.812 10.364 15.937 13.11 4.125 2.748 9.399 6.817 11.719 9.044 5.334 5.118 16.884 13.396 18.791 13.468 1.028.039 1.814-1.642 2.715-5.805zm132.61 1.932c-.055-1.903-.899-6.245-1.874-9.65-1.376-4.805-2.234-6.308-3.83-6.708-3.522-.884-4.037.312-4.037 9.372 0 9.998.64 11.124 6.09 10.722 3.673-.271 3.752-.352 3.652-3.736zm-102.83 1.818c1.169-1.536 4.174-17.519 3.5-18.61-.287-.464-1.47-.843-2.63-.843-3.92 0-5.442 2.13-6.75 9.444-1.937 10.83-1.88 11.181 1.823 11.181 1.742 0 3.568-.527 4.058-1.172zm82.025-24.14c.635 0 .75-2.184.335-6.329-.94-9.354-1.138-9.762-4.586-9.428l-2.966.288.31 7.031c.32 7.212 1.79 10.029 4.661 8.927.702-.27 1.712-.49 2.246-.49zm-91.416-3.88c.612-1.877 1.405-5.99 1.761-9.141.641-5.663.621-5.73-1.701-5.73-3.266 0-4.392 1.726-5.933 9.088-1.966 9.4-1.888 9.835 1.712 9.488 2.575-.249 3.22-.823 4.16-3.706zm106.579 3.136c.704-1.14-3.672-13.413-5.096-14.294-.692-.427-1.646-.536-2.122-.242-1.11.686.064 12.452 1.405 14.067 1.104 1.33 5.082 1.652 5.813.47zm-91.597-3.006c.61-1.29 1.245-5.297 1.412-8.907.3-6.475.272-6.566-2.156-6.848-1.353-.156-3.08.335-3.838 1.093-1.6 1.6-4.1 14.88-3.104 16.491 1.224 1.982 6.474.732 7.686-1.83zm74.328-19.922c-.024-.645-.763-4.758-1.64-9.141-1.577-7.875-1.63-7.969-4.409-7.969-3.154 0-3.063-.575-1.83 11.485l.696 6.797h3.614c2.29 0 3.598-.43 3.57-1.172zm10.756-.59c.488-.79-3.642-15.857-4.613-16.828-1.07-1.07-1.187.675-.505 7.56.664 6.71 1.951 10.092 3.841 10.092.423 0 .997-.37 1.277-.823zM864.805 661c.496-.802 1.488-5.108 2.984-12.953.53-2.782.377-3.047-1.77-3.047-1.294 0-2.752.527-3.24 1.172-2.242 2.958-3.977 13.567-2.466 15.078.922.923 3.869.759 4.492-.25zm15.927-4.047c.775-2.707 1.525-6.82 1.667-9.14.252-4.137.204-4.215-2.487-4.02-3.848.28-5.12 1.918-6.68 8.61-1.646 7.055-.794 9.472 3.337 9.472 2.518 0 2.874-.422 4.163-4.922zm-336.044-1.262c0-.687-2.251-8.834-4.443-16.082l-1.63-5.39-.488 7.5c-.405 6.234-.18 8.093 1.335 11.015 1.089 2.104 2.505 3.516 3.523 3.516.936 0 1.703-.251 1.703-.559zm223.789-11.394c12.17-10.816 27.632-27.462 29.39-31.64.435-1.032 3.761-6.095 7.393-11.25 3.631-5.157 7.407-10.852 8.39-12.657.984-1.805 4.698-6.656 8.253-10.781 3.555-4.125 7.46-9.188 8.678-11.25 1.217-2.063 3.343-5.016 4.723-6.563 5.253-5.888 14.77-20.457 22.232-34.036 3.94-7.172 3.125-9.394-1.692-4.611-1.753 1.74-3.89 3.555-4.75 4.031-1.75.97-24.667 21.604-35.469 31.935-7.933 7.587-8.26 7.857-31.875 26.395-3.867 3.036-8.297 5.95-9.844 6.477-1.547.526-4.877 2.267-7.401 3.868-2.524 1.602-6.743 3.626-9.375 4.499-2.633.872-8.923 3.843-13.978 6.602-9.689 5.287-18.37 8.747-21.948 8.747-3.616 0-2.378 2.18 3.26 5.742 2.959 1.87 12.027 9.358 20.151 16.64 8.125 7.284 15.452 13.243 16.284 13.243.832 0 4.242-2.426 7.578-5.391zm-234.713 1.87c.241-.39-.323-3.237-1.253-6.328-.93-3.091-2.351-9.808-3.159-14.926-.923-5.853-2.042-9.853-3.016-10.781-1.435-1.367-1.507-.994-.987 5.087.309 3.61.838 8.844 1.177 11.633.507 4.175.332 5.279-.989 6.245-1.317.963-1.374 1.315-.317 1.96.71.433 2.25 2.369 3.423 4.302 1.996 3.287 4.11 4.446 5.121 2.808zm412.33-7.26c.436-.437.103-3.257-1.773-14.99-.885-5.537-3.388-6.921-4.974-2.75-.928 2.442.17 15.226 1.494 17.366.55.89 4.458 1.168 5.252.374zm-422.969-1.111c0-.353-.82-2.357-1.824-4.453-1.152-2.406-2.049-6.923-2.433-12.25-.857-11.875-1.79-14.822-5.94-18.753-3.744-3.549-8.464-6.449-8.676-5.331-.285 1.502.195 17.083.708 22.983.5 5.742.881 6.694 3.719 9.276 6.58 5.988 14.446 10.631 14.446 8.528zm347.57-4.526c.64-2.572 1.438-6.717 1.772-9.212.589-4.384.534-4.525-1.631-4.219-2.438.345-4.207 4.32-5.223 11.736-.664 4.84.106 7.102 2.275 6.686 1.097-.21 2.03-1.87 2.807-4.99zm13.713 3.527c.26-.902.982-4.933 1.606-8.957 1.264-8.152.686-9.72-3.223-8.739-1.867.469-2.647 1.623-3.819 5.654-2.027 6.972-1.955 12.481.169 13.036 3.355.877 4.808.603 5.267-.994zm70.904-1.469c0-5.732-3.12-17.52-4.32-16.32-.693.693 2.726 18.492 3.553 18.492.422 0 .767-.977.767-2.172zm-417.594-10.735c-1.199-1.199-1.644.854-.909 4.191l.784 3.56.328-3.61c.18-1.985.09-3.849-.203-4.14zm-39.112-8.26c.315-4.472-1.126-19.98-2.474-26.636-.369-1.818-1.305-3.393-2.109-3.546-1.267-.242-1.4 1.658-1.086 15.387.277 12.1.689 16.167 1.81 17.878 2.125 3.243 3.49 2.152 3.86-3.083zm-11.554-19.38c-.226-8.894-.43-16.69-.45-17.325-.044-1.28-6.644-4.94-8.908-4.94-.943 0-1.454.894-1.473 2.578-.015 1.418-.41 7.825-.876 14.239-.551 7.591-.521 12.27.086 13.404.868 1.622 9.816 8.062 11.348 8.169.377.026.5-7.23.273-16.125zM874.64 611.34c.525-.982 1.233-4.779 1.574-8.437.512-5.517.382-6.652-.765-6.652-.76 0-1.853.95-2.43 2.11-1.467 2.957-3.267 12.668-2.559 13.814.948 1.534 3.147 1.095 4.18-.835zm14.767-4.777c.622-3.351 1.15-7.464 1.174-9.14.038-2.63-.274-3.047-2.278-3.047-1.392 0-2.852.845-3.644 2.11-1.643 2.622-3.83 14.264-2.947 15.692.359.58 1.982.924 3.608.766 2.85-.276 2.998-.509 4.087-6.38zm52.071-.943c-.272-6.845-1.902-9.606-4.43-7.508-1.198.995-1.362 2.334-.85 6.951.643 5.794 1.57 7.339 4.114 6.857 1.108-.21 1.356-1.549 1.166-6.3zm-222.333.38c3.223-.826 8.266-2.724 11.206-4.218 2.941-1.495 7.085-3.33 9.208-4.08 2.124-.749 4.69-2.134 5.703-3.078 1.014-.944 3.443-2.285 5.4-2.98 11.04-3.925 28.866-13.865 30.935-17.25.41-.673 4.04-3.482 8.065-6.243 4.025-2.76 9.93-7.57 13.125-10.687 3.194-3.118 7.398-6.762 9.342-8.099 1.945-1.336 7.824-6.416 13.066-11.288 5.241-4.871 12.299-11.12 15.683-13.883 3.384-2.765 7.481-6.35 9.104-7.97 1.623-1.618 4.154-3.858 5.625-4.978 2.003-1.525 2.321-2.141 1.268-2.454-12.94-3.84-21.035-6.872-24.958-9.348-2-1.262-4.553-2.585-5.674-2.94-1.12-.356-3.863-2.421-6.094-4.59-4.032-3.922-4.106-3.948-12.962-4.615-22.03-1.658-23.437-2.006-23.437-5.798 0-3.323 2.77-6.272 8.112-8.635 2.773-1.226 7.717-3.919 10.988-5.984 3.27-2.066 6.209-3.756 6.53-3.756.321 0 3.018-1.557 5.992-3.46 2.975-1.904 7.308-4.182 9.628-5.063 2.32-.88 4.219-2.153 4.219-2.828 0-.732-3.779-2.413-9.375-4.17-5.157-1.62-11.607-4.034-14.336-5.365-2.728-1.33-6.314-2.71-7.969-3.067-1.654-.356-5.75-1.898-9.102-3.428-3.351-1.53-11.156-4.446-17.343-6.482-14.282-4.699-34.97-14.373-47.813-22.36-4.125-2.565-9.676-5.707-12.335-6.983-2.66-1.275-5.092-2.733-5.404-3.238-.313-.506-2.144-1.423-4.07-2.038-3.652-1.166-10.508-5.352-18.503-11.295-2.578-1.916-6.375-4.404-8.438-5.527-7.22-3.933-32.964-23.316-37.969-28.587-1.804-1.9-4.968-4.47-7.03-5.709-2.063-1.239-6.267-4.789-9.342-7.889-3.075-3.1-5.852-5.636-6.173-5.636-.32 0-12.359-11.631-26.753-25.847-24.852-24.544-26.312-25.817-28.983-25.25-1.547.33-5.765.912-9.375 1.296-6.283.668-6.782.909-11.718 5.645-9.59 9.2-21.433 12.715-30.325 9-4.198-1.754-8.952-1.817-9.6-.127-.27.704 1.168 4.817 3.195 9.14 2.028 4.324 3.931 9.55 4.23 11.612 1.68 11.616 2.56 15.634 4.732 21.604 1.322 3.632 3.477 11.226 4.79 16.875 2.422 10.428 2.648 11.133 5.682 17.77 1.662 3.636 3.19 14.25 3.58 24.87.32 8.725 1.646 10.652 11.023 16.015 1.451.83 4.022 2.56 5.712 3.843 1.691 1.285 5.01 3.189 7.376 4.231 4.312 1.9 12.045 6.74 17.202 10.767 3.476 2.713 13.898 9.18 14.797 9.18.371 0 2.98 1.056 5.799 2.345 2.818 1.289 5.469 2.344 5.89 2.344.421 0 2.874 1.5 5.45 3.336 6.617 4.712 12.2 6.975 17.226 6.981 2.384.003 5.916.445 7.85.982 3.01.836 3.515 1.36 3.515 3.644 0 3.49-1.052 3.807-12.696 3.807h-9.731l-3.552 3.556c-1.953 1.956-6.82 5.226-10.813 7.266-3.994 2.04-7.247 4.13-7.23 4.646.018.516 2.488 3.047 5.49 5.625 3.001 2.578 6.233 6.091 7.182 7.807.948 1.716 2.901 3.728 4.34 4.473 1.44.744 3.32 2.504 4.176 3.912.857 1.407 4.13 5.151 7.275 8.32 3.144 3.17 7.409 7.599 9.478 9.844 2.07 2.245 9.03 9.097 15.469 15.227 6.438 6.13 20.777 20.077 31.862 30.994 11.086 10.918 23.185 22.244 26.886 25.17 3.701 2.925 6.998 6.165 7.326 7.2.55 1.732 10.177 9.397 11.803 9.397.39 0 3.346-.675 6.568-1.501zm-497.9-6.233c.636-3.739 1.476-11.016 1.866-16.172.39-5.157 1.432-13.383 2.315-18.282.883-4.898 1.997-13.968 2.474-20.156.477-6.187 1.267-15.89 1.755-21.562 1.108-12.883 1.094-50.228-.031-83.438-.86-25.337-1.652-34.569-4.2-48.918-.749-4.218-1.368-8.858-1.376-10.313-.026-4.876-1.464-5.47-3.135-1.294-.846 2.114-1.538 4.578-1.538 5.474 0 .896-1.299 5.212-2.886 9.59-1.587 4.379-3.685 11.125-4.663 14.992-.977 3.868-3.048 10.51-4.602 14.761-1.554 4.251-4.274 12.478-6.045 18.281-5.502 18.035-10.873 33.732-13.716 40.083-1.5 3.352-4.86 12.422-7.465 20.157-2.606 7.734-5.653 16.7-6.771 19.922l-2.033 5.86 2.09 3.515c1.149 1.933 3.555 6.257 5.347 9.609 3.315 6.202 3.758 6.955 7.998 13.578 1.326 2.071 4.231 7.14 6.456 11.266 6.234 11.554 12.176 21.14 15.982 25.781 1.903 2.32 4.861 6.434 6.573 9.14 1.712 2.708 3.413 4.922 3.78 4.922.366 0 1.187-3.058 1.824-6.796zm302.334-6.914c-2.514-20.254-3.054-23.89-3.64-24.476-.849-.848-.691 4.024.401 12.405l1.955 15c1.081 8.292 1.573 10.351 2.297 9.627.266-.266-.19-5.917-1.013-12.556zm-55.438 3.624c.242-.39.583-7.659.759-16.15.275-13.339.122-15.48-1.129-15.728-1.17-.231-1.697 1.642-2.759 9.824-1.623 12.502-1.642 19.396-.058 21.304 1.32 1.59 2.497 1.867 3.187.75zm649.932-7.023 1.558-3.047-2.003 1.786c-1.102.982-2.003 2.354-2.003 3.047 0 2.039.784 1.467 2.448-1.786zm-179.636-2.975c0-4.617-1.967-12.964-3.433-14.57-.69-.755-1.27-.965-1.29-.468-.02.497-.226 3.355-.457 6.352-.471 6.09 1.348 11.895 3.726 11.895 1.031 0 1.454-.934 1.454-3.21zm-481.036-.821c-.132-3.895 1.01-23.626 1.504-25.97.4-1.894-.062-2.658-2.406-3.984-1.596-.902-3.253-1.64-3.682-1.64-.43 0-1.05 3.269-1.376 7.265-.327 3.996-1.066 10.129-1.643 13.629l-1.048 6.362 3.59 3.677c3.787 3.878 5.177 4.06 5.061.66zm422.847-.812c.644-2.147 1.408-7.056 1.7-10.907.427-5.646.283-6.921-.742-6.58-1.568.523-6.15 17.617-5.31 19.807 1.074 2.801 3.15 1.696 4.352-2.32zm12.014 2.733c1.222-1.54 2.981-9.457 3.281-14.766.233-4.133.176-4.224-2.815-4.513-1.931-.186-3.177.159-3.39.938-.186.677-1.036 4.817-1.89 9.198-1.459 7.49-1.455 8.037.054 9.14 2.039 1.491 3.58 1.492 4.76.004zm218.707-4.511c.821-1.535.635-2.7-.905-5.654-1.066-2.047-1.939-4.27-1.939-4.942 0-.671-1.645-4.35-3.657-8.174-2.01-3.824-4.131-8.852-4.712-11.172-.58-2.32-2.081-6.54-3.335-9.375-7.657-17.322-12.596-30.985-16.436-45.469-2.887-10.887-4.214-15.275-6.44-21.304-1.09-2.952-1.983-6.034-1.983-6.848 0-.814-1.058-5.36-2.352-10.102a2583.16 2583.16 0 0 1-4.213-15.652c-1.093-4.13-2.43-14.415-3.24-24.931-1.333-17.296-2.338-22.882-4.12-22.882-.465 0-2.301.609-4.08 1.352-6.637 2.773-24.787 4.597-45.745 4.597-17.32 0-21.54-.295-30-2.1-19.05-4.063-34.738-9.463-43.593-15.004C924.797 379.51 917.094 375 916.448 375c-.854 0 .246 37.717 1.122 38.468.959.823 9.287 2.478 18.992 3.775 4.383.586 10.386 1.92 13.34 2.967 4.442 1.573 5.767 2.578 7.66 5.807 2.354 4.016 12.723 13.255 22.018 19.617 2.895 1.981 6.318 4.593 7.607 5.805 1.29 1.211 5.508 3.966 9.375 6.12 28.576 15.921 39.069 21.298 48.682 24.95 3.314 1.258 7.111 3.033 8.438 3.944 3.43 2.357 7.346 3.65 12.571 4.15 8.368.802 8.404 5.196.054 6.521-3.36.534-5.221 1.461-6.954 3.466-4.59 5.31-13.374 10.311-21.54 12.263-5.912 1.412-17.96 1.666-24.885.524-4.67-.77-4.76-.738-7.276 2.56l-2.548 3.34 2.823 4.451c1.553 2.449 2.823 4.986 2.823 5.64 0 3.797 19.383 19.883 32.344 26.843 6.71 3.603 31.498 15.215 37.5 17.567 3.61 1.415 11.414 4.482 17.344 6.817 12.438 4.897 13.628 5.092 15.03 2.472zM495.47 571.64c-.39-3.739-.85-9.329-1.02-12.422-.172-3.094-.785-12.164-1.363-20.157-.578-7.992-1.263-21.355-1.524-29.695-.365-11.716-.768-15.278-1.77-15.663-1.94-.744-2.174.312-1.328 5.983.423 2.836 1.006 18.024 1.295 33.75.627 34.103 1.838 45 5 45 1.201 0 1.31-1.042.71-6.796zm-53.055.923c.444-1.167 1.092-7.39 1.441-13.828l.634-11.705-11.42-10.781c-6.28-5.93-12.147-11.203-13.037-11.719-4.921-2.852-25.676-22.303-30.009-28.125-1.919-2.578-6.44-7.746-10.047-11.484l-6.56-6.797-11.162-.068c-6.14-.038-13.397-.387-16.13-.776-2.73-.388-5.157-.396-5.392-.018-.742 1.202 6.395 9.298 22.439 25.453 8.567 8.626 15.577 16.062 15.577 16.523 0 .837 21.986 20.964 30 27.464 2.32 1.882 7.594 6.668 11.719 10.635 4.125 3.967 9.406 8.614 11.735 10.326 2.33 1.713 5.032 3.993 6.005 5.069 2.265 2.503 3.206 2.465 4.207-.168zm678.323-3.208c3.543-4.873 6.394-9.156 8.933-13.419 1.075-1.804 3.188-5.18 4.696-7.5 1.508-2.32 4.506-7.171 6.661-10.78 5.918-9.91 10.481-16.969 16.74-25.898 5.434-7.75 6.456-10.362 4.951-12.65-.379-.576-3.601-3.245-7.16-5.93-7.914-5.972-16.378-13.182-22.072-18.804-2.35-2.32-8.54-8.227-13.754-13.125-8.265-7.763-33.271-34.47-46.493-49.655-6.371-7.316-6.44-6.794-2.21 16.842.784 4.383 2.074 10.711 2.866 14.063.792 3.352 1.881 8.625 2.42 11.719 1.784 10.217 5.503 24.837 8.423 33.105 1.581 4.48 4.36 13.207 6.172 19.395 1.813 6.187 3.9 12.527 4.638 14.088.737 1.561 2.984 7.679 4.992 13.594 13.185 38.845 13.425 39.452 15.432 39.16 1.05-.154 3.196-2.046 4.765-4.205zM487.5 571.594c0-.67-.47-1.69-1.046-2.265-.663-.663-1.16-6.997-1.359-17.297-.172-8.938-.742-22.157-1.265-29.376a4610.225 4610.225 0 0 1-1.575-22.5l-.623-9.375-1.663 6.012c-1.325 4.794-1.8 11.66-2.345 33.885-.375 15.33-.404 29.357-.064 31.172.4 2.135 2.013 4.652 4.567 7.131 4.151 4.03 5.373 4.623 5.373 2.613zm397.51-10.835c.006-1.878.639-5.486 1.406-8.017 1.775-5.851 1.763-7.973-.05-8.668-2.034-.781-2.354-.239-3.782 6.422-1.336 6.229-1.717 13.183-.774 14.127 1.43 1.43 3.19-.696 3.2-3.864zm13.219-4.822c.315-3.351.72-6.515.9-7.03.182-.516.04-2.31-.314-3.985-.518-2.456-1.099-3.047-2.992-3.047-2.604 0-2.556-.129-4.262 11.468-.587 3.987-.787 7.702-.445 8.256.342.554 1.954.877 3.581.72 2.92-.284 2.967-.37 3.532-6.382zm34.995 4.78c.592-.957-2.994-13.217-3.866-13.217-.681 0 .343 11.882 1.134 13.163.7 1.133 2.05 1.16 2.732.055zM471.179 545.86c.41-6.574.667-17.859.572-25.078-.094-7.218.314-16.97.907-21.669 1.09-8.636.648-12.793-1.167-10.978-.522.522-1.09 4.916-1.265 9.766-.174 4.85-.784 12.405-1.356 16.787-2.331 17.87-2.706 22.865-2.305 30.702.528 10.332.962 12.423 2.577 12.423.994 0 1.467-2.773 2.037-11.953zm-294.929 8.777c0-.715-1.491-3.469-3.314-6.118-1.823-2.65-3.68-5.756-4.128-6.902-1.224-3.131-10.45-15.912-11.052-15.31-.288.288-.085 1.061.45 1.718s2.128 3.304 3.539 5.882 4.33 7.43 6.487 10.782a901.293 901.293 0 0 1 5.523 8.671c1.777 2.862 2.495 3.23 2.495 1.277zm340.953-2.624c-.3-.748-.522-.526-.566.566-.041.988.18 1.542.492 1.23.311-.31.345-1.12.074-1.796zm-56.504-12.246c.309-4.77 1.192-18.298 1.962-30.063.771-11.765 1.401-22.03 1.401-22.81 0-1.104-.671-1.276-3.046-.78-5.384 1.127-5.656 1.886-6.464 17.992-.407 8.14-1.17 18.598-1.692 23.239-1.552 13.759-1.393 15.273 1.927 18.374 4.685 4.376 5.282 3.775 5.912-5.952zm428.74-4.063c.122-1.504.492-4.95.823-7.656.394-3.22.258-4.922-.392-4.922-.547 0-1.197.738-1.446 1.64-1.938 7.04-2.687 11.485-2.164 12.849.924 2.407 2.928 1.202 3.18-1.91zm8.686-2.265c0-5.6-1.166-6.065-2.664-1.064-1.488 4.965-1.38 5.751.789 5.751 1.625 0 1.875-.625 1.875-4.688zm22.203 1.699c-.3-.748-.522-.526-.566.566-.041.988.18 1.542.492 1.23.311-.31.345-1.12.074-1.796zm-474.647-.37c.313-.816.569-3.674.569-6.353 0-2.678.41-8.233.912-12.345.501-4.111 1.029-11.391 1.172-16.178.3-10.038-.196-10.787-6.163-9.313-2.14.529-9.796 1.002-17.015 1.051-10.752.074-14.789-.308-22.33-2.111-5.063-1.21-9.418-1.988-9.678-1.728-.845.845 10.08 11.778 27.32 27.338 26.857 24.24 24.232 22.195 25.213 19.64zm482.913-15.675c3.452-3.926 7.857-6.28 11.75-6.28 1.616 0 5.96 1.209 9.656 2.685 8.102 3.238 21.509 5.056 28.13 3.816 10.252-1.92 12.69-3.002 24.806-11.01l4.968-3.282 9.148 1.211c7.155.947 10.52.972 15.437.116 7.719-1.344 20.323-6.896 20.323-8.95 0-.804-.316-1.488-.703-1.521-3.087-.268-58.536-2.08-84.609-2.766-39.847-1.047-74.523-2.408-97.969-3.844-23.072-1.414-41.13-1.57-41.663-.36-.585 1.328 16.27 9.416 22.444 10.769 2.836.621 7.171 1.593 9.633 2.16 3.262.75 6.437.748 11.697-.01 8.138-1.171 8.255-1.136 16.294 4.938 2.904 2.194 6.189 4.476 7.3 5.07 1.111.595 3.433 2.624 5.16 4.508 4.387 4.787 10.545 6.866 18.823 6.354 6.067-.376 6.775-.648 9.375-3.604zm-762.246-.889c2.397-7.993 11.896-34.79 15.534-43.828 5.802-14.41 13.176-35.343 17.337-49.219 1.856-6.187 5.453-17.789 7.995-25.781 4.534-14.257 7.473-24.947 7.473-27.177 0-.619-1.37.515-3.046 2.52-1.676 2.005-4.524 5.169-6.329 7.031-1.804 1.863-4.335 5.151-5.625 7.308-1.289 2.157-3.925 5.808-5.859 8.114-1.933 2.306-3.516 4.585-3.516 5.064 0 .478-2.003 3.185-4.453 6.014a724.43 724.43 0 0 0-9.14 10.825c-6.55 7.939-10.857 12.981-13.594 15.916-2.5 2.68-8.226 5.873-12.362 6.894-2.727.673-21.354 12.847-23.366 15.27-1.44 1.737-.401 3.828 9.044 18.214 3.237 4.93 6.545 10.544 7.353 12.477.808 1.932 3.273 5.577 5.478 8.1 2.205 2.521 5.454 7.454 7.22 10.96 5.103 10.133 8.9 14.486 9.856 11.298zm879.386-28.776c-.49-.488-4.724-2.366-9.41-4.174-16.532-6.38-37.524-17.078-41.697-21.251-.955-.955-3.502-2.637-5.659-3.738-4.074-2.078-16.04-10.099-23.323-15.632-2.309-1.755-4.338-2.773-4.508-2.263-.796 2.389 8.92 17.1 15.257 23.1 1.633 1.547 4.307 4.784 5.94 7.194 1.634 2.41 4.036 5.22 5.338 6.244 1.302 1.024 2.818 3.156 3.37 4.738 1.362 3.91 4.884 4.752 20.52 4.91 6.961.07 15.82.426 19.688.79 11.092 1.047 15.48 1.072 14.484.081zm-516.984-2.923c7.044-1.093 17.499-3.49 22.031-5.053 2.063-.71 8.702-2.414 14.753-3.784 6.052-1.37 11.22-2.843 11.484-3.271.265-.428 3.54-2.344 7.279-4.258 7.65-3.916 8.85-4.804 7.845-5.809-1.16-1.16-56.156-1.235-87.767-.12a37418.34 37418.34 0 0 1-36.563 1.276c-3.867.13-12.937.496-20.156.815-7.219.318-33.764.81-58.99 1.09-25.226.282-46.25.75-46.722 1.042-2.62 1.62 2.659 2.511 17.302 2.924l16.223.457 6.094 3.664c3.351 2.014 6.937 3.842 7.968 4.06 1.031.219 6.305 1.455 11.719 2.747 19.218 4.587 40.093 3.507 57.155-2.955 7.088-2.684 8.658-2.506 18.045 2.048 3.753 1.82 7.756 3.31 8.893 3.31 1.138 0 3.038.426 4.222.946 5.737 2.52 25.699 2.963 39.185.871zm456.563.42c0-.317-2.048-2.953-4.55-5.86-2.502-2.905-5.101-6.331-5.776-7.613-.674-1.28-2.437-3.601-3.917-5.156-8.977-9.43-13.212-15.023-17.047-22.514-5.98-11.68-8.749-16.534-10.343-18.127-1.934-1.935-18.018-5.922-22.544-5.59l-3.792.28.132 13.125c.072 7.218.283 21.111.468 30.873l.337 17.748 6.598 1.113c3.628.613 15.637 1.19 26.685 1.282 11.049.092 20.28.358 20.512.591.649.649 13.237.504 13.237-.152zm-90.876-4.144c1.706-.913 1.812-2.149 1.8-20.86-.012-18.892-.388-24.108-1.739-24.108-.327 0-1.612 1.917-2.854 4.26-1.243 2.342-3.908 6.132-5.924 8.42-3.66 4.16-3.929 6.07-.852 6.07 1.926 0 3.882 1.748 3.882 3.47 0 .874-1.715 1.218-6.071 1.218-5.821 0-6.197.143-9.14 3.466-9.064 10.232-10.902 11.938-14.555 13.506-2.191.941-3.984 2.091-3.984 2.556 0 1.731 36.482 3.583 39.437 2.002zm16.045-30.384c-.169-17.444-.693-31.622-1.205-32.578-1.347-2.518-3.417-2.054-5.066 1.134-1.845 3.569-2.255 31.32-.51 34.581.6 1.12.861 2.76.582 3.643-.805 2.54-.912 22.265-.127 23.534.389.63 2.039 1.016 3.666.858l2.96-.287-.3-30.885zm-63.45 26.422c1.546-.834 5.343-3.904 8.437-6.824 3.094-2.919 7.233-6.342 9.2-7.606 5.12-3.292 4.326-5.084-3.113-7.029-10.747-2.81-22.528-3.64-24.826-1.75-.522.43-3.902 2.321-7.511 4.204-8.533 4.452-10.58 5.626-20.082 11.515-4.368 2.707-8.44 4.922-9.05 4.922-1.018 0-3.887 2.695-3.092 2.905.192.05 9.208.583 20.036 1.183 20.836 1.154 25.474.92 30-1.52zm-458.75-18.404c9.626-.056 18.17-.358 18.985-.67.816-.314 1.483-1.315 1.483-2.225 0-.911 6.814-8.565 15.143-17.01 14.442-14.642 23.09-24.777 22.038-25.828-.63-.63-39.164 18.593-42.44 21.17-1.372 1.079-3.344 1.962-4.383 1.962-1.039 0-4.858 1.711-8.487 3.803-3.629 2.092-11.475 5.431-17.437 7.42-5.962 1.988-14.082 5.128-18.044 6.977-3.963 1.85-8.076 3.362-9.141 3.362-1.76 0-2.528.967-1.549 1.953.214.215 6.225.12 13.36-.21 7.134-.331 20.847-.648 30.473-.704zm66.99-1.555c2.162-.432 3.631-3.449 4.543-9.328.683-4.41 3.744-15.294 5.799-20.625 6.219-16.132 6.237-15.808-.832-14.91-6.292.797-9.4 2.616-13.469 7.879-1.793 2.32-10.627 11.662-19.63 20.76-9.004 9.097-16.37 16.78-16.37 17.073 0 .58 36.713-.2 39.959-.849zm22.142-.422h2.885l-.596-20.49c-.328-11.27-.862-21.183-1.187-22.03-1.087-2.833-2.124-1.59-3.208 3.849-.591 2.964-2.487 9.82-4.212 15.234-4.146 13.007-6.096 19.987-6.096 21.823 0 1.046 1.067 1.611 3.516 1.863 1.933.199 4.077.224 4.764.057.687-.168 2.547-.306 4.134-.306zm30.711-.415c0-.744-.868-2.823-1.928-4.62-1.061-1.799-2.8-6.358-3.863-10.133-2.04-7.24-5.658-15.202-7.395-16.276-1.27-.784-.192 28.193 1.143 30.741 1.143 2.183 12.043 2.444 12.043.288zm26.484-.2c9.463-.626 11.161-1.613 7.36-4.276-2.769-1.94-15.962-16.707-18.662-20.89-1.332-2.062-4.366-6.07-6.741-8.906-2.376-2.836-5.256-6.696-6.4-8.579-2.312-3.805-3.627-4.553-7.977-4.532-4.894.024-5.989 1.208-4.498 4.866a240.092 240.092 0 0 1 2.626 6.839c.752 2.062 2.648 6.281 4.214 9.375 1.565 3.093 3.407 7.734 4.092 10.312a190.944 190.944 0 0 0 2.808 9.375c.86 2.578 1.72 5.215 1.911 5.86.397 1.333 6.946 1.505 21.267.556zm62.578-.351c0-.532-.738-1.222-1.64-1.534-7.916-2.732-29.292-13.546-33.985-17.193-1.804-1.402-4.757-3.291-6.562-4.197-1.805-.907-3.914-2.188-4.688-2.847-.773-.66-3.582-2.402-6.241-3.871-10.062-5.561-18.225-10.82-22.382-14.417-2.367-2.048-4.7-3.725-5.184-3.725-1.593 0-.92 2.2 1.422 4.644 1.266 1.322 4.114 4.996 6.328 8.165 3.638 5.207 9.841 12.408 21.136 24.535 2.191 2.353 3.984 4.588 3.984 4.966 0 .378 1.371 1.666 3.047 2.861 2.815 2.008 4.26 2.212 18.984 2.685 8.766.282 18.153.599 20.86.704 2.88.111 4.921-.21 4.921-.776zm-108.86-9.58c-.125-10.76-.933-16.284-1.99-13.605-.874 2.21.31 23.214 1.306 23.214.437 0 .745-4.324.684-9.61zm390.973-.456c3.135-3.473 5.7-6.833 5.7-7.466 0-1.944-6.778-5.907-10.102-5.907-2.13 0-4.633 1.132-7.985 3.611-2.685 1.986-7.308 4.97-10.272 6.631-5.45 3.055-6.75 4.72-3.75 4.806.902.026 4.593 1.038 8.203 2.25 10.683 3.586 11.607 3.387 18.206-3.925zm-749.362-1.353c9.657-7.25 14.68-12.033 30.413-28.966 7.868-8.469 15.347-16.241 16.62-17.272 4.766-3.862 9.686-9.373 13.1-14.672 2.782-4.32 4.157-5.59 6.537-6.044 2.083-.397 4.093-1.92 6.504-4.93 1.919-2.395 5.52-6.544 8.001-9.22 4.585-4.944 5.697-7.79 3.044-7.79-2.316 0-5.245 1.877-9.384 6.015-2.106 2.106-8.014 6.113-13.13 8.906-5.114 2.793-10.565 5.983-12.112 7.089-1.547 1.106-4.134 2.543-5.749 3.193-1.615.65-4.11 2.406-5.542 3.902-1.433 1.496-4.541 3.378-6.907 4.182-2.366.805-5.99 2.713-8.052 4.24-3.11 2.304-33.419 17.785-34.818 17.785-.238 0-3.787 1.325-7.885 2.945-8.756 3.46-9.04 4.25-3.874 10.799 1.969 2.495 4.736 7.068 6.148 10.162 3.415 7.478 8.002 14.531 9.45 14.531.642 0 4.079-2.184 7.636-4.855zm721.566-6.506c6.306-3.67 12.448-7.048 13.65-7.506 1.202-.457 2.016-1.356 1.81-1.998-.397-1.226-1.322-1.854-13.37-9.067A1802.71 1802.71 0 0 1 840 412.777c-3.352-2.056-9.68-5.628-14.063-7.938-4.382-2.31-13.242-7.93-19.687-12.49-6.445-4.561-14.04-9.9-16.875-11.867-2.836-1.965-8.32-5.892-12.188-8.727a760.436 760.436 0 0 0-14.181-10.094c-3.933-2.718-12.207-8.798-18.386-13.512-6.18-4.713-12.243-9.09-13.474-9.727-1.232-.636-3.327-2.264-4.656-3.618-3.541-3.605-7.602-6.909-14.707-11.966-3.473-2.472-12.19-9.571-19.372-15.776-7.182-6.204-15.06-12.757-17.504-14.562-2.446-1.805-8.834-7.078-14.198-11.719-5.363-4.64-14.08-11.984-19.373-16.319-5.291-4.334-10.114-8.342-10.717-8.906-.603-.564-4.047-3.457-7.654-6.43-15.266-12.582-18.813-15.573-26.39-22.251-4.386-3.867-9.626-8.146-11.642-9.51-2.017-1.362-6.94-5.535-10.94-9.273-4.001-3.738-8.75-7.735-10.556-8.881-3.088-1.962-8.141-6.677-48.626-45.368-8.955-8.56-19.583-19.57-23.617-24.468-4.034-4.898-8.82-10.594-10.636-12.656l-3.3-3.75-.02 13.125c-.014 8.345.475 15.173 1.342 18.75.75 3.093 1.645 10.476 1.99 16.406.74 12.714 1.745 15.33 8.215 21.387 1.48 1.386 5.256 5.683 8.39 9.55 3.133 3.868 6.668 8.038 7.855 9.269 1.186 1.23 2.158 2.563 2.158 2.962 0 .856 10.187 13.166 13.857 16.745 1.402 1.367 4.87 5.363 7.705 8.88 2.836 3.517 6.966 8.357 9.179 10.754 2.212 2.398 5.237 6.047 6.72 8.11 4.556 6.33 61.485 61.621 68.109 66.148 1.087.743 8.306 7.161 16.043 14.262 19.867 18.235 35.345 30.25 55.105 42.774 2.063 1.307 5.307 3.567 7.21 5.022 1.904 1.454 6.755 4.36 10.782 6.457 4.026 2.096 7.987 4.4 8.8 5.12.815.72 1.784 1.31 2.155 1.31.371 0 3.002 1.489 5.846 3.308 19.167 12.26 36.927 21.417 52.7 27.17 6.354 2.317 13.948 5.458 16.874 6.978 6.259 3.252 19.119 8.519 26.415 10.819 2.835.894 6.054 2.186 7.151 2.872 2.943 1.839 12.61 4.96 15.603 5.036 1.61.042 6.956-2.47 14.062-6.607zm39.418-8.56c2.254-2.28 5.082-9.7 4.078-10.703-.338-.338-2.62 1.071-5.073 3.133-2.452 2.06-5.618 4.035-7.036 4.387-3.428.851-3.257 2.275.468 3.894 4.177 1.816 5.154 1.724 7.563-.711zm-404.259-11.058c-.736-1.843-.931-.979-.979 4.339-.032 3.652.257 6.96.644 7.351 1.083 1.094 1.374-9.087.335-11.69zm422.066-26.635c-.169-12.458-.653-18.843-1.693-22.337-1.208-4.057-1.264-5.646-.329-9.308 1.259-4.925.116-9.178-2.466-9.178-1.253 0-1.371 3.369-.982 27.868.437 27.551.466 27.886 2.55 29.458 1.159.874 2.343 1.444 2.632 1.266.288-.179.418-8.174.288-17.769zm-431.28 3.708c-.32-14.47.326-13.594-10.02-13.594-12.752 0-13.093.375-12.22 13.412l.676 10.083 10.885-.263 10.886-.263-.207-9.375zm36.747 5.515c2.426-2.426 1.71-18.712-.908-20.626-2.085-1.524-14.996-1.787-18.696-.38-2.303.875-2.404 1.228-2.404 8.376 0 7.14 1.063 12.144 2.804 13.19.447.268 4.582.62 9.189.783 6.983.246 8.649.022 10.015-1.343zm-29.462-13.812c-1.162-1.162-1.37 7.837-.268 11.578.491 1.668.771.478.97-4.125.16-3.659-.146-6.897-.702-7.453zm551.234 4.149c7.493-.5 14.349-1.188 15.234-1.528 2.673-1.026 1.838-3.702-2.653-8.51-2.345-2.51-5.364-6.462-6.709-8.783-1.345-2.32-4.432-6.328-6.86-8.906-2.428-2.578-6.264-7.172-8.525-10.21-2.261-3.037-4.93-6.623-5.93-7.969-1-1.345-3.531-4.376-5.625-6.734-8.565-9.65-15.934-18.582-19.28-23.368-1.263-1.805-4.334-5.813-6.825-8.906-2.491-3.094-6.47-8.56-8.841-12.147-6.747-10.206-14.417-20.213-19.629-25.61-4.515-4.676-10.825-13.942-24.081-35.368-3.19-5.156-7.6-12.008-9.801-15.226-2.2-3.218-5.57-8.875-7.488-12.571-3.302-6.366-5.99-9.387-7.24-8.137-.31.31.5 3.88 1.797 7.936 1.298 4.055 2.767 9.973 3.265 13.152.498 3.178 2.156 9.928 3.685 15 1.528 5.071 3.727 13.229 4.886 18.127 1.16 4.898 2.84 10.383 3.735 12.188.895 1.804 2.138 6.445 2.763 10.312 1.947 12.064 3.641 16.87 6.303 17.881 2.033.773 2.256 1.252 1.612 3.461-1.115 3.826-.726 8.067 1.337 14.555 4.932 15.514 7.726 25.067 8.823 30.172 1.079 5.015 1.627 5.883 5.245 8.313 4.411 2.963 5.63 4.884 4.08 6.434-1.22 1.22-17.187 2.11-32.762 1.824l-11.484-.21v2.803c0 3.976 1.696 7.197 4.45 8.452 1.302.593 4.736 2.892 7.63 5.109 4.651 3.561 13.481 7.6 23.545 10.77 10.26 3.23 20.003 5.769 25.781 6.717 3.61.592 8.04 1.43 9.844 1.86 3.79.906 29.884.442 49.718-.883zm-563.681-16.937 4.005-.008-.493-11.953c-.271-6.575-.916-22.29-1.432-34.922-1.169-28.573-1.39-30.2-4.068-29.82-1.631.233-2.064 1.007-2.259 4.038-.277 4.311-3.679 26.215-4.978 32.056-.481 2.162-.882 5.537-.89 7.5-.009 1.963-.842 6.733-1.85 10.6-2.07 7.941-3.378 19.699-2.457 22.099.511 1.333 1.42 1.499 5.514 1.007 2.696-.324 6.705-.593 8.908-.597zm11.527-8.757c-.71-.71-1.002.098-1.002 2.78 0 4.918 1.318 6.244 1.705 1.715.164-1.921-.152-3.944-.703-4.495zm25.036 6.88c2.952-.007 3.018-.086 1.734-2.116-.734-1.16-2.032-5.273-2.885-9.14-.852-3.868-2.32-9.352-3.262-12.188-4.799-14.445-6.421-21.165-7.529-31.183-.888-8.03-4.114-19.238-6.115-21.238-4.225-4.225-5.638 7.535-3.008 25.031.874 5.819 1.597 15.522 1.606 21.563.02 13.885 1.523 28.45 3.042 29.502.639.441 3.903.572 7.254.29 3.352-.283 7.475-.517 9.163-.52zm431.779-22.25c.431-.258.431-.795 0-1.193-2.026-1.872-13.93-7.728-21.024-10.342-4.338-1.598-11.76-4.777-16.495-7.064-4.735-2.287-9.077-4.158-9.649-4.158-.572 0-4.282-1.898-8.246-4.218-6.248-3.658-11.465-5.349-11.465-3.716 0 .814 7.551 8.202 13.137 12.853 7.23 6.022 20.767 14.358 26.296 16.194 8.174 2.715 24.05 3.666 27.446 1.643zm1.146-11.272c-1.216-6.89-4.555-19.473-5.478-20.648-.947-1.205-2.903-7.831-8.642-29.274-1.725-6.445-3.821-13.617-4.657-15.938-.837-2.32-2.782-10.546-4.324-18.28-4.94-24.787-9.11-37.73-8.002-24.845.708 8.232 2.65 85.421 2.468 98.079-.03 2.08 11.28 8.162 24.36 13.1 4.746 1.792 4.96 1.682 4.275-2.194zm-32.136-11.123c.317-.317-.14-1.67-1.016-3.005-1.289-1.966-1.635-5.112-1.817-16.533-.125-7.758-.438-14.66-.697-15.337-.26-.678-.73-21.959-1.044-47.29-.314-25.332-.89-46.917-1.277-47.965-.905-2.446-1.785 38.808-1.883 88.284l-.076 38.671 3.07 1.872c3.328 2.03 3.865 2.177 4.74 1.303zm-14.55-39.737c.087-19.037-.204-31.875-.723-31.875-.794 0-2.22 4.284-7.644 22.97-1.048 3.609-2.927 9.185-4.176 12.392-3.205 8.233-5.492 17.436-4.788 19.27.329.858 1.987 2.214 3.686 3.015 1.698.8 4.775 2.494 6.837 3.764 7.054 4.342 6.647 6.107 6.809-29.536zm-414.563 11.53c-.938-2.444-1.61-.712-.849 2.188.52 1.982.8 2.243 1.062.993.197-.932.1-2.364-.213-3.18zm9.767-12.139c6.03-2.615 7.758-2.594 25.049.301 2.265.38 4.327-.245 8.437-2.553 5.813-3.264 8.721-5.447 8.721-6.547 0-1.061-14.54-1.766-49.688-2.41-17.789-.326-33.187-.618-34.218-.648-1.032-.03-13.688.03-28.125.133-26.15.187-26.241.195-23.907 2 3.85 2.978 21.35 8.586 31.714 10.164 8.866 1.35 10.292 1.346 16.916-.047 6.815-1.433 7.665-1.421 14.693.2 4.102.947 11.333 1.76 16.069 1.806 7.363.073 9.44-.274 14.339-2.399zm63.77-16.615c0-.708-1.866-3.006-4.145-5.107-2.28-2.102-4.495-4.437-4.922-5.19-1.133-1.994-19.63-22.742-25.387-28.473-2.707-2.696-4.926-5.438-4.932-6.094-.014-1.556-10.154-14.67-20.493-26.505-4.505-5.157-9.163-10.77-10.352-12.476-1.189-1.706-2.365-2.898-2.614-2.649-.808.808-.207 30.877.752 37.625.513 3.61 1.125 10.995 1.36 16.413.842 19.406 1.972 30.152 3.254 30.944 2.07 1.28 12.94 1.949 24.822 1.528 9.005-.32 32.337.318 41.016 1.12.902.083 1.64-.428 1.64-1.136zm272.02-89.604c2.304-1.02 4.98-2.726 5.945-3.793 3.006-3.321 7.398-5.522 14.137-7.085 3.57-.828 8.812-2.902 11.647-4.608 2.836-1.707 6.633-3.4 8.438-3.765 1.805-.364 5.499-1.892 8.209-3.396s6.96-3.17 9.446-3.703c3.613-.775 5.21-1.796 7.963-5.09 3.432-4.105 3.444-4.151 3.444-12.951 0-10.994-.856-17.53-2.295-17.53-.607 0-2.343 1.303-3.857 2.896-3.82 4.018-6.494 5.184-13.489 5.884-5.166.517-7.025 1.265-12.748 5.132-3.685 2.49-9.38 5.335-12.655 6.323-4.988 1.504-6.894 2.746-11.744 7.648-6.118 6.186-12.073 9.562-16.925 9.596-1.612.011-3.355.548-3.872 1.192-1.033 1.287-3.977 17.568-3.977 21.991 0 1.526.316 3.093.703 3.48 1.019 1.024 6.785-.078 11.63-2.221zm-18.515 902.407c-.324-.847-.094-2.138.513-2.87 1.28-1.542 8.831-3.334 14.054-3.334 1.983 0 6.286-.799 9.563-1.775 3.277-.977 13.13-2.684 21.896-3.795 8.765-1.11 20.156-2.64 25.312-3.4 5.156-.758 14.438-1.995 20.625-2.748 6.188-.753 15.258-2.048 20.156-2.877 17.898-3.032 19.998-3.194 22.266-1.727 2.348 1.52 2.712 3.41.938 4.871-1.058.872-20.2 4.044-35.119 5.82-3.201.382-8.686 1.36-12.187 2.174-9.486 2.205-17.432 3.43-28.398 4.381-9.123.791-17.257 2.334-25.312 4.8-1.805.553-10.129 1.233-18.499 1.512-13.538.451-15.282.337-15.808-1.032zm-98.242-9.512c-1.665-1.664-1.09-3.934 1.151-4.543 1.658-.45 8.875-1.941 16.554-3.42 26.581-5.116 36.918-6.072 65.625-6.072 16.657 0 18.33-.162 25.781-2.492 12.08-3.776 23.513-5.49 36.57-5.483 13.35.01 17.154-.788 19.785-4.133 1.93-2.454 6.843-4.284 11.525-4.293 2.58-.01 2.641.085 1.172 1.709-.853.943-1.558 2.736-1.566 3.984-.017 2.76-.804 4.033-3.267 5.29-3.18 1.624-18.995 3.92-33.843 4.913-8.614.577-16.505 1.65-20.156 2.744-11.963 3.581-20.238 4.879-30.516 4.786-23.332-.212-48.715.812-54.235 2.186-5.055 1.26-9.309 2.192-24.212 5.31-6.233 1.305-8.693 1.19-10.368-.486zm-654.764-2.56c-1.514-1.824-.637-3.938 2.162-5.214 5.922-2.697 31.558-4.14 48.424-2.725 10.49.88 11.205.822 17.812-1.457 13.654-4.707 29.11-6.236 44.791-4.43 10.596 1.22 13.776 2.605 11.412 4.969-.812.81-6.632 1.133-20.539 1.136-16.445 0-19.959.254-23.035 1.64-1.997.9-4.962 1.637-6.589 1.637-1.627 0-4 .738-5.276 1.64-2.028 1.436-4.956 1.656-23.412 1.763-22.22.129-32.1.556-39.874 1.725-3.677.553-4.975.402-5.876-.684zm500.068-2.493c-2.008-.42-4.329-1.65-5.156-2.735-1.192-1.562-2.87-2.077-8.068-2.48-11.817-.912-53.901-.632-57.015.38-10.315 3.355-22.049 4.67-38.229 4.289-13.672-.323-16.47-.63-17.256-1.888-1.37-2.196 1.337-3.837 8.343-5.057 7.504-1.307 11.695-1.293 15.55.05 2.445.853 4.93.74 12.092-.548 28.113-5.055 26.779-4.934 53.078-4.81 15.596.072 28.73.605 34.218 1.386 7.996 1.138 10.106 1.09 20.625-.46 18.431-2.72 33.208-2.366 49.536 1.184 8.315 1.808 32.73 1.25 44.683-1.022 4.47-.849 12.992-1.439 21.094-1.459 7.737-.02 17.027-.639 21.562-1.437 4.383-.773 9.586-1.405 11.563-1.405 1.977-.001 7.04-.915 11.25-2.03 6.523-1.728 10.57-2.059 27.344-2.23 18.628-.19 20.052-.333 26.467-2.659 6.263-2.27 7.931-2.458 21.92-2.458 14.168 0 15.66-.172 23.22-2.69 22.591-7.522 24.98-7.994 26.074-5.143.88 2.29-3.441 4.999-13.751 8.623-13.603 4.781-25.567 6.666-38.225 6.022-8.508-.432-11.224-.243-14.063.979-7.434 3.2-12.127 3.841-29.299 4.001-13.767.129-19.18.57-26.25 2.142-4.898 1.088-11.015 1.99-13.593 2.005-2.578.014-6.586.704-8.907 1.533-3.234 1.156-8.763 1.576-23.7 1.801-10.715.162-21.684.713-24.375 1.224-13.585 2.584-22.727 3.185-32.352 2.127-11.657-1.282-22.683-1.365-27.276-.205-1.865.47-5.5 1.298-8.078 1.838-6.08 1.274-38.289 2.121-43.026 1.132zm358.026-19.797c-10.765-.682-19.78-2.318-21.82-3.96-.951-.766-.856-1.34.468-2.811 1.596-1.772 2.532-1.823 22.758-1.224 16.482.489 23.554.309 32.344-.822 6.188-.796 13.584-1.45 16.437-1.455 2.852 0 7.493-.647 10.312-1.43 2.82-.783 11.665-1.82 19.657-2.305 16.739-1.016 21.47-2.078 33.75-7.576 11.442-5.123 17.695-5.576 21.174-1.534 4.377 5.085 2.34 7.885-6.659 9.151-8.12 1.143-20.464 4.37-24.827 6.491-3.245 1.578-18.147 2.993-45 4.273-5.93.283-15.633 1.106-21.563 1.829-14.562 1.775-24.73 2.152-37.03 1.373zm-366.822-32.363c-1.146-.803-2.084-2.06-2.084-2.795 0-2.055 3.957-2.6 13.888-1.914 7.814.54 10.52.298 19.393-1.735 5.672-1.3 15.797-2.83 22.5-3.402 6.703-.572 17.527-2.06 24.052-3.305 6.526-1.246 13.909-2.28 16.407-2.298 6.726-.049 17.143-2.143 30.323-6.098 6.445-1.934 13.318-3.969 15.274-4.522 4.865-1.376 6.757-.083 6.757 4.619v3.605l-5.625 1.24c-3.094.682-11.11 2.466-17.813 3.965-15.01 3.355-22.742 4.524-34.151 5.167-4.861.274-11.4.892-14.531 1.373-3.131.482-11.388 1.55-18.349 2.376-6.96.825-17.719 2.336-23.906 3.359-13.897 2.296-29.131 2.469-32.135.365zm-159.818-.491c-2.313-1.347-2.122-5.27.292-6.037 1.064-.338 11.378-.342 22.921-.01 22.395.645 24.816.448 59.248-4.827 13.466-2.063 16.38-2.267 17.623-1.234.82.68 1.365 2.117 1.21 3.193-.339 2.377-3.924 3.675-14.344 5.195-4.124.6-9.396 1.495-11.716 1.986-2.32.49-7.383 1.296-11.25 1.79-9.57 1.222-61.87 1.175-63.984-.057zm-108.985-7.51c-2.578-.433-8.41-1.383-12.96-2.11-9.043-1.444-11.042-2.52-9.43-5.076 1.673-2.651 6.317-2.89 18.388-.942 10.455 1.687 13.509 1.777 33.533.99 12.118-.477 22.945-.547 24.06-.157 3.138 1.098 3.802 4.567 1.268 6.619-1.912 1.548-4.222 1.688-26.134 1.582-13.22-.065-26.147-.472-28.725-.906zm460.078-2.757c-2.668-1.072-3.02-6.177-.468-6.82.902-.228 8.39-1.98 16.64-3.895s18.164-4.28 22.032-5.255c17.04-4.3 27.225-6.517 34.062-7.414 4.039-.53 10.063-2.052 13.386-3.382 3.323-1.33 8.456-2.78 11.406-3.225 2.95-.444 7.474-1.619 10.052-2.61 2.578-.992 7.974-2.067 11.99-2.39 6.315-.507 8.566-1.231 16.617-5.344 10.6-5.416 15.455-6.02 15.455-1.925 0 2.45-.051 2.488-8.941 6.512-8.09 3.662-19.102 7.318-24.318 8.073-2.309.334-9.059 2.04-15 3.79-21.466 6.323-38.188 10.694-48.303 12.626-17.08 3.262-42.148 9.26-45.07 10.784-3.05 1.59-6.356 1.755-9.54.475zm-40.83-4.453c-2.893-3.197-2.012-4.07 3.8-3.767 5.05.263 5.39.429 5.39 2.625 0 2.068-.446 2.376-3.799 2.622-2.776.205-4.227-.194-5.39-1.48zm-319.873-26.584c-12.3-.874-26.85-3.124-29.55-4.569-1-.535-5.169-.671-10.004-.328-6.915.49-8.495.342-9.523-.898-.679-.817-1.084-2.244-.902-3.172.269-1.36 1.143-1.647 4.531-1.485 2.309.11 9.26.4 15.448.643 6.188.243 12.938.676 15 .962 18.903 2.624 32.788 2.377 51.367-.914 10.005-1.772 13.79-1.153 13.79 2.255 0 2.757-1.869 3.72-9.424 4.855a2140.7 2140.7 0 0 0-15.351 2.384c-9.068 1.445-8.845 1.443-25.382.267zm101.016.513c-.645-.297-1.172-1.297-1.172-2.222 0-2.883 2.03-3.592 12.188-4.255 5.414-.353 13.954-1.236 18.978-1.962 5.024-.726 12.406-1.324 16.406-1.33 11.573-.015 29.127-1.739 37.272-3.66 15.625-3.685 39.87-6.31 50.389-5.454 4.251.346 9.619-.266 19.544-2.23 7.526-1.487 14.909-3.116 16.406-3.618 1.498-.503 6.31-1.396 10.692-1.986 4.383-.59 9.346-1.282 11.029-1.537 3.432-.52 5.846.957 5.846 3.577 0 .95-.738 2.108-1.64 2.573-2.559 1.32-17.675 4.615-26.485 5.773-4.383.576-10.5 1.634-13.594 2.35-3.376.781-13.926 1.513-26.39 1.83-20.815.531-25.351 1.02-36.208 3.9-12.746 3.383-18.963 4.127-42.402 5.077-13.406.544-25.851 1.407-27.656 1.918-3.841 1.088-21.493 2.044-23.203 1.256zM264.844 965.55c-22.448-.996-35.778-4.822-33.895-9.73.944-2.461 4.917-2.591 14.827-.485 6.438 1.369 14.258 2.198 23.287 2.469 16.944.508 17.812.679 17.812 3.504 0 4.497-3.05 5.084-22.031 4.242zm295.407-11.96c-.267-.433-.887-2.436-1.379-4.454-.491-2.018-2.047-7.465-3.457-12.106-2.993-9.847-3.385-16.65-1.091-18.944 1.14-1.14 4.154-1.746 11.196-2.251 5.3-.381 11.233-1.17 13.184-1.755 6.412-1.92 8.665.193 10.98 10.294.65 2.836 1.792 6.827 2.538 8.868 1.858 5.08 2.72 15.983 1.332 16.841-2.786 1.722-4.613-.545-7.33-9.096l-2.745-8.644-3.639.227c-4.751.297-5.513 1.21-3.78 4.535 2.953 5.662 1.272 15.494-2.437 14.258-1.225-.408-6.385-15.851-6.416-19.2-.023-2.479.723-2.988 7.95-5.424 4.367-1.472 5.624-2.315 5.624-3.771 0-2.069-.08-2.075-12.502-.872-4.47.433-7.05 1.117-7.37 1.955-.577 1.502 1.556 12.09 4.278 21.237 1.045 3.51 1.666 6.991 1.381 7.735-.553 1.44-5.503 1.883-6.317.566zm207.162-1.625c-3.011-3.01 1.635-6.962 8.195-6.97 3.755 0 25.947-4.281 31.58-6.086 5.5-1.762 20.636-4.884 27.187-5.608 5.174-.571 15.155-2.553 21.882-4.344 1.98-.528 6.621-1.535 10.312-2.239 10.297-1.963 30.4-7.548 37.055-10.296 6.437-2.657 10.163-2.778 11.665-.379 1.774 2.836-.075 4.444-7.856 6.834-4.216 1.295-8.351 2.951-9.19 3.681-1.399 1.218-7.39 2.822-24.962 6.683-3.61.794-15.633 2.946-26.718 4.784-11.086 1.837-22.688 4.114-25.782 5.06-3.093.945-8.578 2.614-12.187 3.707-10.533 3.191-28.333 6.645-34.25 6.645-3.71 0-5.931-.472-6.931-1.472zm-311.466-1.575c-1.01-1.632-2.772-13.832-2.378-16.46.328-2.177 2.175-3.323 7.039-4.368 2.062-.443 2.574-1.02 2.343-2.643-.275-1.938-.84-2.094-8.491-2.347-4.509-.149-8.985.15-9.947.666-1.67.894-1.61 1.344 1.367 10.002 3.269 9.507 3.162 12.572-.437 12.572-2.802 0-5.662-4.005-8.089-11.326-2.328-7.026-2.932-12.563-1.598-14.663 1.493-2.35 8.814-4.011 17.673-4.011 13.598 0 17.04 2.26 18.556 12.187.354 2.32 1.277 6.209 2.051 8.641 1.69 5.316 1.391 9.086-.833 10.478-2.596 1.626-4.703-.373-6.797-6.45-3.205-9.3-7.491-9.838-5.024-.629 1.743 6.506.986 9.523-2.39 9.523-1.275 0-2.645-.528-3.045-1.172zm-97.079-5.443c-1.451-.847-3.05-5.166-5.15-13.913-.744-3.101-3.359-5.77-4.518-4.61-.318.318.065 2.742.851 5.388 1.736 5.845 1.158 7.65-3.452 10.775-3.606 2.445-5.9 2.943-7.81 1.695-1.523-.996-5.029-7.006-5.05-8.658-.01-.773-2.12-5.994-4.69-11.601-2.571-5.607-4.674-10.92-4.674-11.808 0-.887.836-2.37 1.858-3.294 1.975-1.788.973-1.803 21.421.316 10.478 1.086 11.202 1.875 13.398 14.598.942 5.452 2.355 11.158 3.142 12.68 1.83 3.536 1.815 6.09-.042 7.948-1.688 1.688-3.01 1.809-5.284.483zm-16.065-23.103c.785-.3 3.182-.593 5.327-.65 3.242-.084 3.901-.418 3.901-1.976 0-1.668-.83-1.943-7.5-2.49-4.125-.337-7.62-.498-7.766-.358-.567.544 1.828 9.406 2.892 10.701.93 1.132 1.176.847 1.422-1.656.164-1.663.94-3.27 1.724-3.57zm-63.99 14c-1.628-1.086-3.188-4.568-3.188-7.113 0-4.135-.946-5.295-4.319-5.295-3.617 0-3.73.333-1.733 5.111 2.022 4.84 1.11 7.077-2.884 7.077-3.941 0-4.725-1.33-5.595-9.489-.619-5.808-.521-6.306 1.518-7.734 1.28-.897 4.04-1.527 6.689-1.527 3.032 0 4.675-.436 5.02-1.333.764-1.993-1.27-5.134-3.727-5.75-3.477-.873-20.293-1.927-21.254-1.333-.931.576-.218 3.668 2.157 9.353.92 2.202 1.182 4.792.797 7.871-1.233 9.843-7.317 7.174-9.94-4.36-.822-3.612-2.11-7.757-2.862-9.21-.752-1.455-1.367-4.767-1.367-7.361 0-4.363.193-4.765 2.578-5.364 1.418-.356 6.797-.115 11.953.536 5.157.651 12.944 1.525 17.307 1.943 6.112.585 8.27 1.177 9.404 2.578 2.086 2.576 5.248 28.916 3.696 30.786-1.215 1.463-2.665 1.673-4.25.614zm417.56-5.142c-1.407-1.11-1.907-3.694-3.229-16.678-.669-6.574.426-7.604 8.859-8.33 5.168-.445 6.318-.85 6.6-2.324.315-1.654-.112-1.743-5.804-1.211-8.015.748-16.528 3.256-17.226 5.075-.304.793.357 4.265 1.468 7.716 3.206 9.952 2.257 16.016-2.499 15.972-2.997-.027-4.23-1.61-4.093-5.252.073-1.958-.49-5.657-1.252-8.223-1.472-4.958-1.808-11.646-.667-13.274 3.116-4.446 11.88-7.472 24.218-8.364 8.214-.593 8.635-.527 11.38 1.782 1.757 1.478 3.09 3.683 3.478 5.752.346 1.845 1.44 4.687 2.43 6.316 2.447 4.024 5.009 12.432 4.328 14.206-.698 1.818-8.872 2.001-11.263.253-.958-.7-1.908-3.124-2.298-5.86-.626-4.397-.86-4.714-4.068-5.508-4.552-1.128-6.792-.213-6.104 2.495 2.384 9.391 2.71 12.127 1.709 14.325-1.143 2.508-3.626 2.98-5.967 1.132zm104.31-20.79c-.614-.739-1.024-3.573-.918-6.328.106-2.745-.5-7.506-1.349-10.579-3.64-13.193-1.988-15.35 12.707-16.592 5.198-.44 11.782-1.408 14.63-2.151 7.285-1.903 8.609-1.01 8.67 5.848.027 2.947.389 8.31.805 11.92.891 7.734-.459 11.719-3.97 11.719-2.84 0-4.383-1.69-4.383-4.798 0-4.191-.931-5.514-3.88-5.514-3.551 0-4.113 1.649-2.794 8.212.878 4.373.83 5.533-.27 6.634-2.09 2.088-6.04.65-6.7-2.439-.302-1.41-.94-3.533-1.42-4.717-1.307-3.225-1.054-7.953.547-10.24.934-1.332 2.874-2.245 5.66-2.663 2.33-.35 5.171-1.42 6.313-2.38 1.79-1.505 1.883-1.883.669-2.755-1.746-1.254-15.735-.542-17.15.873-.71.71-.652 2.985.197 7.816 2.415 13.744 2.425 13.518-.691 16.634-3.118 3.119-4.983 3.537-6.674 1.5zm-433.244-13.376c-.74-.1-10.38-.653-21.421-1.228-21.107-1.099-25.393-2.042-25.393-5.59 0-.988.492-2.1 1.094-2.472 1.78-1.1 22.048-.4 32.475 1.122 5.314.776 10.575 1.121 11.691.767 1.578-.5 33.587-.588 52.709-.144 1.547.036 7.664-.443 13.594-1.064 22.37-2.342 43.008-3.84 53.099-3.852 8.952-.012 10.759.246 12.656 1.801 2.037 1.67 2.093 1.937.705 3.35-2.497 2.541-7.962 3.227-25.897 3.25-11.785.016-21.829.635-32.344 1.993-12.204 1.576-20.882 1.998-43.436 2.11-15.503.076-28.792.057-29.532-.043zm549.408-3.602c-.658-.792-1.398-4.59-1.645-8.438l-.449-6.997h-3.55c-6.234 0-6.422.259-5.835 8.017.456 6.03.31 7.021-1.112 7.567-2.517.966-11.945-.854-12.736-2.459-1.332-2.704-3.545-11.763-4.14-16.947-.917-7.994.276-8.946 13.484-10.762 5.889-.81 11.96-2.119 13.49-2.91 3.422-1.77 6.936-.523 7.596 2.696.241 1.178.635 8.163.876 15.522.358 10.976.188 13.628-.95 14.765-1.778 1.78-3.523 1.76-5.03-.054zm-10.703-20.133c2.802-.582 5.942-.788 6.98-.459 2.37.753 3.537-1.747 1.796-3.846-1.323-1.594-7.007-1.35-16.092.69-4.89 1.098-4.903 1.118-3.425 5.357l1.028 2.95 2.31-1.818c1.27-.999 4.602-2.293 7.403-2.874zm-367.191 19.672c-1.224-.289-2.358-1.218-2.521-2.065-.816-4.24 8.274-5.818 41.537-7.212 18.121-.76 28-1.94 47.812-5.711 5.157-.982 15.914-2.46 23.907-3.287 7.992-.826 17.428-2.153 20.968-2.95 5.3-1.193 6.832-1.238 8.672-.253 5.94 3.179.262 6.03-16.984 8.527-6.703.97-12.877 1.98-13.72 2.244-.842.263-4.85.865-8.906 1.34-4.056.473-14.546 1.943-23.312 3.267-10.556 1.594-23.313 2.71-37.783 3.304-12.016.493-22.328 1.195-22.917 1.559-1.517.937-14.09 1.866-16.753 1.237zm177.83-14.342c-2.272-1.662-1.166-5.125 2.024-6.338 1.319-.501 6.24-1.756 10.936-2.788 4.696-1.032 11.07-2.665 14.163-3.63 3.094-.964 8.367-2.286 11.719-2.937 3.352-.651 9.68-2.544 14.063-4.206 8.246-3.128 15.256-4.314 36.093-6.107 6.703-.577 16.347-1.854 21.43-2.837 14.465-2.8 18.023-2.143 13.644 2.517-3.141 3.344-12.004 5.694-24.292 6.44-16.057.975-36.416 3.996-43.71 6.487-3.546 1.21-9.61 2.936-13.478 3.836-3.867.899-11.25 3.04-16.406 4.76-7.263 2.42-21.749 6.046-24.157 6.046-.18 0-1.094-.56-2.029-1.243zm-478.658-3.384c-1.805-.364-5.39-1.608-7.969-2.764-4.445-1.993-6.602-2.628-21.094-6.21-10.25-2.533-13.373-3.452-19.218-5.655-6.285-2.369-33.771-9.098-44.404-10.871-8-1.334-11.482-3.5-9.877-6.142 1.426-2.347 5.957-2.595 15.375-.841 4.382.816 11.554 2.137 15.937 2.936 4.383.799 9.656 2.024 11.719 2.722 2.062.698 7.336 2.343 11.719 3.654a5881.44 5881.44 0 0 1 18.75 5.66c5.93 1.8 12.257 3.534 14.062 3.852 1.805.317 7.078 1.793 11.719 3.28 4.64 1.486 10.545 3.276 13.12 3.977 5.136 1.399 6.643 3.877 3.678 6.045-1.78 1.302-8.015 1.466-13.517.357zm600.938-16.936a.94.94 0 0 1 .937-.937.94.94 0 0 1 .938.938.94.94 0 0 1-.938.937.94.94 0 0 1-.938-.938zm5.625-3.604c0-2.697 2.757-4.54 9.333-6.236 3.329-.858 7.277-2.194 8.774-2.968 2.09-1.081 5.927-1.385 16.523-1.307 15.7.115 21.775-.842 29.12-4.588 7.161-3.653 12.854-5.37 26.466-7.985 8.198-1.575 13.896-3.29 18.851-5.673 8.28-3.983 10.464-3.985 10.464-.007 0 2.08-.766 3.278-3.104 4.854-4.715 3.177-20.996 7.87-30.774 8.871-9.055.926-15.637 3.009-27.422 8.675-8.575 4.122-12.551 4.747-23.161 3.64-7.786-.813-8.987-.692-17.725 1.79-11.235 3.192-17.345 3.52-17.345.933zm-438.75-13.798c-.774-.192-7.102-.747-14.063-1.234-15.88-1.11-38.677-4.333-47.558-6.726-3.728-1.004-7.947-1.836-9.375-1.85-2.612-.024-11.064-2.015-31.376-7.387-6.03-1.595-12.345-2.9-14.031-2.9-5.072 0-11.046-2.75-11.709-5.39-.37-1.474-.109-2.631.719-3.192 1.43-.97 15.393-.141 17.688 1.049.783.406 9.017 2.484 18.298 4.617 9.281 2.134 19.196 4.482 22.031 5.218 9.57 2.485 34.12 6.309 49.688 7.74 18.69 1.716 18.702 1.717 39.968.753 16.824-.763 17.01-.75 18.08 1.248.763 1.425.794 2.554.108 3.837-1.152 2.151-3.992 2.59-21.125 3.269-6.703.265-13.031.666-14.062.89-1.031.225-2.508.25-3.281.058z"/></svg>