<svg xmlns="http://www.w3.org/2000/svg" viewBox="0 0 263.084 263.006"><defs><linearGradient id="a"><stop style="stop-color:#fff;stop-opacity:1" offset="0"/><stop style="stop-color:#fff;stop-opacity:.27983539" offset="1"/></linearGradient><linearGradient id="b"><stop style="stop-color:#fff;stop-opacity:1" offset="0"/><stop style="stop-color:#fff;stop-opacity:.27983539" offset="1"/></linearGradient><linearGradient id="c"><stop style="stop-color:#fff;stop-opacity:1" offset="0"/><stop style="stop-color:#fff;stop-opacity:.27983539" offset="1"/></linearGradient><linearGradient id="d"><stop style="stop-color:#fff;stop-opacity:1" offset="0"/><stop style="stop-color:#fff;stop-opacity:.27983539" offset="1"/></linearGradient><linearGradient id="e"><stop style="stop-color:#fff;stop-opacity:1" offset="0"/><stop style="stop-color:#fff;stop-opacity:.27983539" offset="1"/></linearGradient><linearGradient id="f"><stop style="stop-color:#fff;stop-opacity:1" offset="0"/><stop style="stop-color:#fff;stop-opacity:.27983539" offset="1"/></linearGradient><linearGradient id="g"><stop style="stop-color:#fff;stop-opacity:1" offset="0"/><stop style="stop-color:#fff;stop-opacity:.27983539" offset="1"/></linearGradient><linearGradient id="h"><stop style="stop-color:#fff;stop-opacity:1" offset="0"/><stop style="stop-color:#fff;stop-opacity:.27983539" offset="1"/></linearGradient><linearGradient id="i"><stop style="stop-color:#fff;stop-opacity:1" offset="0"/><stop style="stop-color:#fff;stop-opacity:.27983539" offset="1"/></linearGradient><linearGradient id="j"><stop style="stop-color:#fff;stop-opacity:1" offset="0"/><stop style="stop-color:#fff;stop-opacity:.27983539" offset="1"/></linearGradient><linearGradient id="k"><stop style="stop-color:#fff;stop-opacity:1" offset="0"/><stop style="stop-color:#fff;stop-opacity:.27983539" offset="1"/></linearGradient><filter id="l" x="-.606" width="2.211" y="-.282" height="1.563" color-interpolation-filters="sRGB"><feGaussianBlur stdDeviation="21.537"/></filter><filter id="m" x="-1.026" width="3.052" y="-1.88" height="4.759" color-interpolation-filters="sRGB"><feGaussianBlur stdDeviation="21.537"/></filter><filter id="n" x="-1.514" width="4.028" y="-1.88" height="4.759" color-interpolation-filters="sRGB"><feGaussianBlur stdDeviation="21.537"/></filter></defs><path d="M205.02 131.743c0 69.023-34.293 124.979-76.594 124.979-42.301 0-76.594-55.956-76.594-124.98 0-69.023 34.293-124.978 76.594-124.978 42.301 0 76.594 55.955 76.594 124.979z" style="color:#000;fill:#eed175"/><path d="M203.086 132.662c0 67.26-33.417 121.785-74.637 121.785S53.812 199.92 53.812 132.662c0-67.26 33.417-121.785 74.637-121.785s74.637 54.526 74.637 121.785z" style="color:#000;fill:#c89c31"/><path d="M200.68 132.944c0 65.11-32.35 117.894-72.253 117.894s-72.252-52.784-72.252-117.894c0-65.111 32.349-117.895 72.252-117.895 39.904 0 72.253 52.784 72.253 117.895z" style="color:#000;fill:#ebc859"/><path d="M75.919 50.931C48.513 98.258 49.027 172.62 78.03 217.339c7.834 12.078 16.277 22.236 26.634 26.756-6.361-5.377-11.769-12.764-17.237-21.195-31.465-48.51-32.926-129.353-3.27-180.561 2.862-4.944 6.065-8.539 9.264-12.567C87.14 35.486 81.121 41.948 75.92 50.93z" style="color:#000;fill:#d2aa48"/><path d="M172.257 227.016c31.771-39.395 37.963-113.355 13.819-165.195-6.52-14-14.598-24.941-23.525-32.699 5.739 6.999 10.996 15.393 15.549 25.167 26.192 56.238 19.55 136.387-14.83 179.013-3.319 4.115-6.774 7.723-10.333 10.845 6.77-3.965 13.29-9.651 19.32-17.13z" style="color:#000;fill:#f7e587"/><path d="M1074.28 606.029c-42.303 0-76.585 55.943-76.585 124.964 0 69.026 34.285 124.983 76.586 124.983 2.047 0 4.076-.13 6.082-.387-39.457-5.059-70.514-58.916-70.514-124.6 0-65.682 31.057-119.521 70.514-124.58a47.804 47.804 0 0 0-6.082-.386z" style="color:#000;fill:#d5b04f" transform="translate(-958.159 -599.256)"/><path d="M1063.239 607.323c-4.893 1.153-9.634 3.061-14.181 5.65 3.242.312 7.11.5 11.276.522 4.19-2.48 8.548-4.389 13.043-5.65-2.941-.288-6.4-.471-10.138-.522zm-14.11 14.317c-4.693 0-9.021.218-12.569.58a82.185 82.185 0 0 0-4.435 4.431c2.808.508 6.708.886 11.194 1.064a82.708 82.708 0 0 1 6.023-6.075h-.213zm-13.4 14.356c-4.435.065-8.467.328-11.702.716a110.03 110.03 0 0 0-2.894 4.315c2.898.509 6.913.879 11.502 1.044a110.11 110.11 0 0 1 4.055-6.075c-.319.002-.645-.004-.96 0zm-9.224 14.318c-4.134.06-7.923.29-11.04.638a135.503 135.503 0 0 0-2.24 4.624c3.107.455 7.183.776 11.75.89a135.776 135.776 0 0 1 2.977-6.152c-.485-.002-.972-.007-1.447 0zm-4.968 14.317c-4.633.014-8.899.232-12.38.6a156.147 156.147 0 0 0-1.73 4.778c3.225.421 7.326.713 11.88.794.708-2.097 1.452-4.15 2.23-6.172zm-7.079 14.336c-3.58 0-6.95.129-9.924.348a174.63 174.63 0 0 0-1.4 5.399c3.299.29 7.168.445 11.324.445h.712a173.978 173.978 0 0 1 1.612-6.172c-.763-.012-1.539-.02-2.324-.02zm-5.585 14.337c-2.706 0-5.282.083-7.672.212a188.75 188.75 0 0 0-.996 5.708 139.6 139.6 0 0 0 8.668.271c1.173 0 2.316-.013 3.439-.039.327-2.054.69-4.082 1.079-6.094a149.576 149.576 0 0 0-4.518-.058zm-6.687 14.336c-1.085.016-2.123.059-3.155.097-.228 1.98-.422 3.966-.592 5.978a146.23 146.23 0 0 0 12.142-.02c.168-1.981.368-3.95.592-5.9-2.136-.1-4.41-.155-6.782-.155-.748 0-1.477-.01-2.205 0zm2.205 14.317c-2.265 0-4.445.044-6.498.136-.084 1.957-.137 3.92-.166 5.9a147.288 147.288 0 0 0 12.154.058c.029-2.014.08-4.007.166-5.997-1.807-.07-3.695-.097-5.656-.097zm0 14.337c-2.31 0-4.529.059-6.617.155.053 1.98.13 3.946.238 5.9a146.234 146.234 0 0 0 12.165.02c-.11-1.979-.197-3.975-.249-5.978-1.772-.067-3.62-.097-5.537-.097zm0 14.336c-1.99 0-3.908.044-5.739.116.196 2.015.422 4.017.676 5.998 1.628.056 3.316.078 5.063.078a143.6 143.6 0 0 0 7.091-.175 196.75 196.75 0 0 1-.676-5.881c-2.029-.09-4.18-.136-6.415-.136zm-2.205 14.337c-.555.008-1.072.024-1.613.038.357 2.063.743 4.116 1.162 6.134.872.015 1.756.019 2.656.019 3.392 0 6.59-.11 9.45-.31-.383-1.861-.748-3.73-1.079-5.63a140.559 140.559 0 0 0-8.37-.251c-.748 0-1.478-.011-2.206 0zm8.359 14.317c-2.408 0-4.714.051-6.877.155a172.332 172.332 0 0 0 1.636 5.94c1.682.06 3.43.096 5.24.096 2.417 0 4.73-.05 6.902-.155a171.95 171.95 0 0 1-1.636-5.94 147.16 147.16 0 0 0-5.265-.096zm2.24 14.336c-1.64 0-3.23.028-4.765.078a153.418 153.418 0 0 0 2.324 6.094c.802.013 1.616.02 2.442.02 3.449 0 6.698-.124 9.593-.33a153.004 153.004 0 0 1-2.158-5.668 142.617 142.617 0 0 0-7.435-.194zm10.068 14.337c-3.13 0-6.098.1-8.786.27a131.04 131.04 0 0 0 2.988 5.805 146.226 146.226 0 0 0 12.142-.02 131.256 131.256 0 0 1-3.083-6.016c-1.066-.024-2.15-.04-3.261-.04zm5.585 14.317c-2.218 0-4.353.047-6.368.136 1.377 2.095 2.8 4.11 4.269 6.036.69.01 1.391.02 2.099.02 3.537 0 6.867-.115 9.818-.33a106.138 106.138 0 0 1-4.056-5.746 146.2 146.2 0 0 0-5.763-.116zm13.991 14.337c-3.149 0-6.132.098-8.833.27a77.7 77.7 0 0 0 6.414 5.901c.795.013 1.602.02 2.42.02 3.368 0 6.546-.114 9.39-.31a78.367 78.367 0 0 1-6.296-5.843c-1.013-.02-2.041-.038-3.095-.038zm18.723 14.336c-2.817 0-5.499.092-7.968.232 6.702 3.128 13.788 4.798 21.106 4.798 1.716 0 3.412-.09 5.099-.27.236-.053.462-.1.676-.155-5.182-.699-10.22-2.249-15.06-4.547a149.248 149.248 0 0 0-3.853-.058z" style="fill:#c89c31;fill-rule:evenodd" transform="translate(-958.159 -599.256)"/><path style="color:#000;fill:#d5b04f" d="M1074.28 606.029c-42.303 0-76.585 55.943-76.585 124.964 0 69.026 34.285 124.983 76.586 124.983 2.047 0 4.076-.13 6.082-.387-39.457-5.059-70.514-58.916-70.514-124.6 0-65.682 31.057-119.521 70.514-124.58a47.804 47.804 0 0 0-6.082-.386z" transform="translate(-968.159 -599.256)"/><path style="fill:#c89c31;fill-rule:evenodd" d="M1063.239 607.323c-4.893 1.153-9.634 3.061-14.181 5.65 3.242.312 7.11.5 11.276.522 4.19-2.48 8.548-4.389 13.043-5.65-2.941-.288-6.4-.471-10.138-.522zm-14.11 14.317c-4.693 0-9.021.218-12.569.58a82.185 82.185 0 0 0-4.435 4.431c2.808.508 6.708.886 11.194 1.064a82.708 82.708 0 0 1 6.023-6.075h-.213zm-13.4 14.356c-4.435.065-8.467.328-11.702.716a110.03 110.03 0 0 0-2.894 4.315c2.898.509 6.913.879 11.502 1.044a110.11 110.11 0 0 1 4.055-6.075c-.319.002-.645-.004-.96 0zm-9.224 14.318c-4.134.06-7.923.29-11.04.638a135.503 135.503 0 0 0-2.24 4.624c3.107.455 7.183.776 11.75.89a135.776 135.776 0 0 1 2.977-6.152c-.485-.002-.972-.007-1.447 0zm-4.968 14.317c-4.633.014-8.899.232-12.38.6a156.147 156.147 0 0 0-1.73 4.778c3.225.421 7.326.713 11.88.794.708-2.097 1.452-4.15 2.23-6.172zm-7.079 14.336c-3.58 0-6.95.129-9.924.348a174.63 174.63 0 0 0-1.4 5.399c3.299.29 7.168.445 11.324.445h.712a173.978 173.978 0 0 1 1.612-6.172c-.763-.012-1.539-.02-2.324-.02zm-5.585 14.337c-2.706 0-5.282.083-7.672.212a188.75 188.75 0 0 0-.996 5.708 139.6 139.6 0 0 0 8.668.271c1.173 0 2.316-.013 3.439-.039.327-2.054.69-4.082 1.079-6.094a149.576 149.576 0 0 0-4.518-.058zm-6.687 14.336c-1.085.016-2.123.059-3.155.097-.228 1.98-.422 3.966-.592 5.978a146.23 146.23 0 0 0 12.142-.02c.168-1.981.368-3.95.592-5.9-2.136-.1-4.41-.155-6.782-.155-.748 0-1.477-.01-2.205 0zm2.205 14.317c-2.265 0-4.445.044-6.498.136-.084 1.957-.137 3.92-.166 5.9a147.288 147.288 0 0 0 12.154.058c.029-2.014.08-4.007.166-5.997-1.807-.07-3.695-.097-5.656-.097zm0 14.337c-2.31 0-4.529.059-6.617.155.053 1.98.13 3.946.238 5.9a146.234 146.234 0 0 0 12.165.02c-.11-1.979-.197-3.975-.249-5.978-1.772-.067-3.62-.097-5.537-.097zm0 14.336c-1.99 0-3.908.044-5.739.116.196 2.015.422 4.017.676 5.998 1.628.056 3.316.078 5.063.078a143.6 143.6 0 0 0 7.091-.175 196.75 196.75 0 0 1-.676-5.881c-2.029-.09-4.18-.136-6.415-.136zm-2.205 14.337c-.555.008-1.072.024-1.613.038.357 2.063.743 4.116 1.162 6.134.872.015 1.756.019 2.656.019 3.392 0 6.59-.11 9.45-.31-.383-1.861-.748-3.73-1.079-5.63a140.559 140.559 0 0 0-8.37-.251c-.748 0-1.478-.011-2.206 0zm8.359 14.317c-2.408 0-4.714.051-6.877.155a172.332 172.332 0 0 0 1.636 5.94c1.682.06 3.43.096 5.24.096 2.417 0 4.73-.05 6.902-.155a171.95 171.95 0 0 1-1.636-5.94 147.16 147.16 0 0 0-5.265-.096zm2.24 14.336c-1.64 0-3.23.028-4.765.078a153.418 153.418 0 0 0 2.324 6.094c.802.013 1.616.02 2.442.02 3.449 0 6.698-.124 9.593-.33a153.004 153.004 0 0 1-2.158-5.668 142.617 142.617 0 0 0-7.435-.194zm10.068 14.337c-3.13 0-6.098.1-8.786.27a131.04 131.04 0 0 0 2.988 5.805 146.226 146.226 0 0 0 12.142-.02 131.256 131.256 0 0 1-3.083-6.016c-1.066-.024-2.15-.04-3.261-.04zm5.585 14.317c-2.218 0-4.353.047-6.368.136 1.377 2.095 2.8 4.11 4.269 6.036.69.01 1.391.02 2.099.02 3.537 0 6.867-.115 9.818-.33a106.138 106.138 0 0 1-4.056-5.746 146.2 146.2 0 0 0-5.763-.116zm13.991 14.337c-3.149 0-6.132.098-8.833.27a77.7 77.7 0 0 0 6.414 5.901c.795.013 1.602.02 2.42.02 3.368 0 6.546-.114 9.39-.31a78.367 78.367 0 0 1-6.296-5.843c-1.013-.02-2.041-.038-3.095-.038zm18.723 14.336c-2.817 0-5.499.092-7.968.232 6.702 3.128 13.788 4.798 21.106 4.798 1.716 0 3.412-.09 5.099-.27.236-.053.462-.1.676-.155-5.182-.699-10.22-2.249-15.06-4.547a149.248 149.248 0 0 0-3.853-.058z" transform="translate(-968.159 -599.256)"/><path style="color:#000;fill:none" transform="scale(-1 1)" d="M436.956 972.82H596.91v260.997H436.956z"/><path d="M-636.875 1103.312c0 69.023 34.293 124.979 76.594 124.979 42.301 0 76.594-55.956 76.594-124.979s-34.293-124.979-76.594-124.979c-42.301 0-76.594 55.956-76.594 124.979z" style="color:#000;fill:#eed175"/><path d="M-634.94 1104.231c0 67.26 33.416 121.785 74.636 121.785s74.637-54.525 74.637-121.785c0-67.259-33.417-121.784-74.637-121.784s-74.637 54.525-74.637 121.784z" style="color:#000;fill:#c89c31"/><path d="M-632.535 1104.513c0 65.11 32.35 117.894 72.253 117.894s72.252-52.783 72.252-117.894c0-65.11-32.349-117.894-72.252-117.894-39.904 0-72.253 52.783-72.253 117.894z" style="color:#000;fill:#ebc859"/><path d="M-507.774 1022.5c27.406 47.327 26.892 121.69-2.112 166.409-7.834 12.077-16.277 22.235-26.634 26.755 6.361-5.377 11.77-12.764 17.237-21.194 31.465-48.511 32.926-129.354 3.27-180.562-2.862-4.944-6.065-8.538-9.264-12.567 6.282 5.714 12.301 12.176 17.503 21.16z" style="color:#000;fill:#d2aa48"/><path d="M-565.79 987.086c-13.647 0-26.055 2.185-38.273 15.13-19.06 20.194-29.992 59.675-29.992 100.26 0 9.8.738 19.315 2.116 28.396 13.222 27.065 29.487 30.525 47.562 30.525 37.869 0 67.775-51.09 67.775-114.544 0-9.786-.95-18.753-2.324-27.823-12.25-19.165-28.785-31.945-46.867-31.945z" style="opacity:.5;color:#000;fill:#f7e587"/><path d="M-547.977 978.848c42.303 0 76.585 55.942 76.585 124.964 0 69.026-34.285 124.982-76.585 124.982-2.047 0-4.076-.13-6.083-.387 39.458-5.058 70.515-58.916 70.515-124.598 0-65.683-31.058-119.522-70.515-124.58a47.804 47.804 0 0 1 6.083-.388z" style="color:#000;fill:#d5b04f"/><path d="M-536.935 980.141c4.892 1.154 9.633 3.062 14.181 5.65-3.243.313-7.11.5-11.276.522-4.19-2.48-8.549-4.388-13.044-5.65 2.942-.287 6.401-.47 10.139-.522zm14.11 14.318c4.692 0 9.02.218 12.568.58a82.185 82.185 0 0 1 4.435 4.43c-2.808.51-6.707.886-11.193 1.065a82.711 82.711 0 0 0-6.024-6.075h.214zm13.399 14.356c4.436.064 8.468.327 11.703.716a109.99 109.99 0 0 1 2.893 4.314c-2.897.51-6.913.88-11.501 1.045a110.13 110.13 0 0 0-4.056-6.075h.96zm9.224 14.317c4.135.06 7.923.29 11.04.639.772 1.51 1.512 3.055 2.24 4.624-3.107.454-7.182.776-11.75.89a135.774 135.774 0 0 0-2.976-6.153c.484 0 .971-.01 1.446 0zm4.969 14.318c4.633.013 8.898.232 12.379.6a156.185 156.185 0 0 1 1.731 4.778c-3.226.42-7.326.712-11.88.793a156.216 156.216 0 0 0-2.23-6.172zm7.079 14.336c3.579 0 6.949.128 9.924.348.495 1.775.955 3.58 1.4 5.398-3.3.29-7.168.445-11.325.445h-.711a173.92 173.92 0 0 0-1.613-6.172c.764-.012 1.54-.019 2.324-.019zm5.584 14.336c2.706 0 5.283.083 7.672.213.362 1.88.688 3.791.996 5.708-2.657.166-5.583.27-8.668.27-1.173 0-2.316-.012-3.438-.038a187.88 187.88 0 0 0-1.08-6.095 150.57 150.57 0 0 1 4.518-.058zm6.688 14.337c1.084.016 2.123.059 3.154.097.229 1.98.422 3.966.593 5.978a146.957 146.957 0 0 1-12.142-.02c-.168-1.981-.368-3.95-.593-5.9 2.137-.1 4.41-.155 6.783-.155.747 0 1.477-.01 2.205 0zm-2.205 14.317c2.265 0 4.445.043 6.497.135.085 1.958.138 3.92.166 5.901-2.101.097-4.336.155-6.663.155-1.901 0-3.733-.03-5.49-.097-.03-2.014-.08-4.008-.166-5.998a146.82 146.82 0 0 1 5.656-.097zm0 14.336c2.31 0 4.529.06 6.616.155-.052 1.98-.129 3.946-.237 5.901a146.214 146.214 0 0 1-12.165.02c.109-1.979.196-3.975.249-5.979a146.95 146.95 0 0 1 5.537-.097zm0 14.337c1.99 0 3.907.044 5.739.116a197.006 197.006 0 0 1-.676 5.998c-1.628.056-3.316.077-5.064.077-2.487 0-4.864-.064-7.09-.174.248-1.945.483-3.905.675-5.882 2.03-.09 4.181-.135 6.415-.135zm2.205 14.336c.554.01 1.071.025 1.613.04a186.763 186.763 0 0 1-1.162 6.133c-.872.015-1.756.019-2.656.019-3.393 0-6.59-.111-9.45-.31.383-1.861.748-3.73 1.078-5.63 2.578-.155 5.404-.252 8.371-.252.748 0 1.478-.01 2.206 0zm-8.36 14.318c2.408 0 4.714.05 6.878.154a172.372 172.372 0 0 1-1.636 5.94c-1.682.06-3.43.097-5.241.097-2.417 0-4.73-.05-6.901-.155a171.96 171.96 0 0 0 1.636-5.94c1.69-.06 3.445-.096 5.265-.096zm-2.24 14.336c1.64 0 3.23.028 4.766.077a153.457 153.457 0 0 1-2.324 6.095c-.802.013-1.617.019-2.443.019-3.448 0-6.698-.124-9.592-.33.747-1.858 1.47-3.743 2.158-5.668 2.322-.122 4.818-.194 7.435-.194zm-10.067 14.337c3.13 0 6.097.1 8.786.27a131.008 131.008 0 0 1-2.988 5.805 146.991 146.991 0 0 1-12.142-.02 131.237 131.237 0 0 0 3.083-6.017c1.066-.023 2.15-.039 3.26-.039zm-5.585 14.317c2.217 0 4.353.047 6.367.135-1.377 2.095-2.8 4.11-4.268 6.037-.69.01-1.392.019-2.1.019-3.536 0-6.866-.114-9.817-.33a106.126 106.126 0 0 0 4.055-5.745 147.17 147.17 0 0 1 5.763-.117zm-13.992 14.336c3.15 0 6.133.098 8.834.271a77.726 77.726 0 0 1-6.415 5.901c-.794.013-1.6.02-2.419.02-3.369 0-6.547-.114-9.39-.31a78.356 78.356 0 0 0 6.296-5.843c1.013-.021 2.041-.04 3.094-.04zm-18.723 14.337c2.817 0 5.5.092 7.968.232-6.702 3.127-13.787 4.798-21.106 4.798-1.715 0-3.41-.09-5.098-.27-.236-.054-.463-.101-.676-.156 5.182-.698 10.22-2.248 15.059-4.546 1.253-.032 2.536-.058 3.853-.058z" style="fill:#c89c31;fill-rule:evenodd"/><path style="color:#000;fill:#d5b04f" d="M-537.977 978.848c42.303 0 76.585 55.942 76.585 124.964 0 69.026-34.285 124.982-76.585 124.982-2.047 0-4.076-.13-6.083-.387 39.458-5.058 70.515-58.916 70.515-124.598 0-65.683-31.058-119.522-70.515-124.58a47.804 47.804 0 0 1 6.083-.388z"/><path style="fill:#c89c31;fill-rule:evenodd" d="M-526.935 980.141c4.892 1.154 9.633 3.062 14.181 5.65-3.243.313-7.11.5-11.276.522-4.19-2.48-8.549-4.388-13.044-5.65 2.942-.287 6.401-.47 10.139-.522zm14.11 14.318c4.692 0 9.02.218 12.568.58a82.185 82.185 0 0 1 4.435 4.43c-2.808.51-6.707.886-11.193 1.065a82.711 82.711 0 0 0-6.024-6.075h.214zm13.399 14.356c4.436.064 8.468.327 11.703.716a109.99 109.99 0 0 1 2.893 4.314c-2.897.51-6.913.88-11.501 1.045a110.13 110.13 0 0 0-4.056-6.075h.96zm9.224 14.317c4.135.06 7.923.29 11.04.639.772 1.51 1.512 3.055 2.24 4.624-3.107.454-7.182.776-11.75.89a135.774 135.774 0 0 0-2.976-6.153c.484 0 .971-.01 1.446 0zm4.969 14.318c4.633.013 8.898.232 12.379.6a156.185 156.185 0 0 1 1.731 4.778c-3.226.42-7.326.712-11.88.793a156.216 156.216 0 0 0-2.23-6.172zm7.079 14.336c3.579 0 6.949.128 9.924.348.495 1.775.955 3.58 1.4 5.398-3.3.29-7.168.445-11.325.445h-.711a173.92 173.92 0 0 0-1.613-6.172c.764-.012 1.54-.019 2.324-.019zm5.584 14.336c2.706 0 5.283.083 7.672.213.362 1.88.688 3.791.996 5.708-2.657.166-5.583.27-8.668.27-1.173 0-2.316-.012-3.438-.038a187.88 187.88 0 0 0-1.08-6.095 150.57 150.57 0 0 1 4.518-.058zm6.688 14.337c1.084.016 2.123.059 3.154.097.229 1.98.422 3.966.593 5.978a146.957 146.957 0 0 1-12.142-.02c-.168-1.981-.368-3.95-.593-5.9 2.137-.1 4.41-.155 6.783-.155.747 0 1.477-.01 2.205 0zm-2.205 14.317c2.265 0 4.445.043 6.497.135.085 1.958.138 3.92.166 5.901-2.101.097-4.336.155-6.663.155-1.901 0-3.733-.03-5.49-.097-.03-2.014-.08-4.008-.166-5.998a146.82 146.82 0 0 1 5.656-.097zm0 14.336c2.31 0 4.529.06 6.616.155-.052 1.98-.129 3.946-.237 5.901a146.214 146.214 0 0 1-12.165.02c.109-1.979.196-3.975.249-5.979a146.95 146.95 0 0 1 5.537-.097zm0 14.337c1.99 0 3.907.044 5.739.116a197.006 197.006 0 0 1-.676 5.998c-1.628.056-3.316.077-5.064.077-2.487 0-4.864-.064-7.09-.174.248-1.945.483-3.905.675-5.882 2.03-.09 4.181-.135 6.415-.135zm2.205 14.336c.554.01 1.071.025 1.613.04a186.763 186.763 0 0 1-1.162 6.133c-.872.015-1.756.019-2.656.019-3.393 0-6.59-.111-9.45-.31.383-1.861.748-3.73 1.078-5.63 2.578-.155 5.404-.252 8.371-.252.748 0 1.478-.01 2.206 0zm-8.36 14.318c2.408 0 4.714.05 6.878.154a172.372 172.372 0 0 1-1.636 5.94c-1.682.06-3.43.097-5.241.097-2.417 0-4.73-.05-6.901-.155a171.96 171.96 0 0 0 1.636-5.94c1.69-.06 3.445-.096 5.265-.096zm-2.24 14.336c1.64 0 3.23.028 4.766.077a153.457 153.457 0 0 1-2.324 6.095c-.802.013-1.617.019-2.443.019-3.448 0-6.698-.124-9.592-.33.747-1.858 1.47-3.743 2.158-5.668 2.322-.122 4.818-.194 7.435-.194zm-10.067 14.337c3.13 0 6.097.1 8.786.27a131.008 131.008 0 0 1-2.988 5.805 146.991 146.991 0 0 1-12.142-.02 131.237 131.237 0 0 0 3.083-6.017c1.066-.023 2.15-.039 3.26-.039zm-5.585 14.317c2.217 0 4.353.047 6.367.135-1.377 2.095-2.8 4.11-4.268 6.037-.69.01-1.392.019-2.1.019-3.536 0-6.866-.114-9.817-.33a106.126 106.126 0 0 0 4.055-5.745 147.17 147.17 0 0 1 5.763-.117zm-13.992 14.336c3.15 0 6.133.098 8.834.271a77.726 77.726 0 0 1-6.415 5.901c-.794.013-1.6.02-2.419.02-3.369 0-6.547-.114-9.39-.31a78.356 78.356 0 0 0 6.296-5.843c1.013-.021 2.041-.04 3.094-.04zm-18.723 14.337c2.817 0 5.5.092 7.968.232-6.702 3.127-13.787 4.798-21.106 4.798-1.715 0-3.41-.09-5.098-.27-.236-.054-.463-.101-.676-.156 5.182-.698 10.22-2.248 15.059-4.546 1.253-.032 2.536-.058 3.853-.058z"/><path style="font-size:144px;font-style:normal;font-variant:normal;font-weight:700;font-stretch:normal;text-indent:0;text-align:start;text-decoration:none;line-height:125%;letter-spacing:0;word-spacing:0;text-transform:none;direction:ltr;block-progression:tb;writing-mode:lr-tb;text-anchor:start;baseline-shift:baseline;color:#000;fill:#c19442;fill-opacity:1;stroke:none;stroke-width:5;marker:none;visibility:visible;display:inline;overflow:visible;enable-background:accumulate;font-family:Comic Neue;-inkscape-font-specification:Comic Neue Bold" d="M-542.281 1048.41c-5.089.71-8.342 7.465-11.86 12.255-3.537 4.849-8.012 8.808-9.943 15.747-.947 5.7 2.166 11.154 5.648 12.577 2.08 1.077 4.24.284 6.213-.85.935-.665 2.06.475 1.843 2.072-.482 7.323-.262 14.758-.465 22.126-.079 6.098-.165 12.195-.24 18.293-4.016-.624-8.867-.303-11.589 4.907-3.05 5.899-.066 15.447 4.636 16.433 5.798 1.346 11.758-.218 17.62.454 4.693.092 9.764.88 14.061-2.45 3.875-4.072 3.67-14.596-.824-17.528-1.91-2.836-5.126-.446-7.072-3.091-1.05-2.038.138-4.66-.18-6.947.212-22.022 1.097-44.071.522-66.083-1.231-5.086-4.925-8.065-8.37-7.914zm.58 5.981c2.371-.217 4.118 3.102 4.293 6.438.354 3.684-.413 7.379-.235 11.1-.367 21.562-.575 43.129-.896 64.692 3.124.513 6.647-1.341 9.487 1.296 1.328 1.413 2.036 4.927.53 6.586-2.61 3.445-6.255 1.363-9.354 1.901-6.956-.792-14.117 1.497-20.923-1.274-1.049-1.915-1.48-5.228.07-6.841 2.609-2.596 5.974-2.014 8.922-1.424 1.878.318 2.894-2.62 2.806-5.11-.02-4.697-.123-9.386.04-14.084.143-14.63.513-29.606.505-44.02-3.113 3.006-5.282 8.806-9.202 9.538-1.963.415-4.393-1.4-4.475-4.706.345-3.985 3.199-5.768 4.887-8.306 3.987-5.517 7.732-11.84 12.539-15.7.334-.044.67-.072 1.005-.086zm-44.821 21.639c-5.156.36-8.595 9.4-7.08 16.57-.66 3.144-3.178 3.209-4.97 2.922-1.898-.275-4.042-.42-5.501 1.732-5.242 4.483-3.999 18.636 1.878 20.565 2.502 1.85 5.455-.786 7.917 1.094 1.526 1.77.198 4.825.44 7.149.025 5.567 1.94 11.968 5.899 12.938 4.375 1.733 9.55-3.53 9.39-10.644.37-3.113-.761-6.827.579-9.57 1.38-1.922 3.197.351 4.782-.202 3.512-.111 7.63-2.985 8.315-8.775 1.214-6.97-2.631-15.22-7.568-14.489-1.938-.09-4.521 1.01-5.934-1.636-.887-2.272.464-4.797-.16-7.18-.617-5.842-3.851-11.143-7.987-10.474zm.558 6.001c2.096.215 3.523 3.18 3.533 6.225.237 4.045-.458 8.156-.021 12.142.313 1.914 1.875 1.63 2.813 1.094 3.174.01 6.763-1.336 9.62 1.36 2.13 2.254 1.521 7.8-.9 9.05-2.563 1.438-5.37.013-8.022.128-1.488-.586-3.27.53-3.497 3.048-.866 4.817.89 10.058-.489 14.723-.663 2.63-2.767 4.58-4.538 3.07-2.523-1.909-2.69-6.853-2.313-10.608.137-3.138.775-7.258-1.066-9.532-2.459-1.902-5.279.198-7.889-.17-1.794-.256-4.208-.936-4.635-4.133-.598-4.214 2.308-8.704 5.09-7.191 2.667-.105 5.691 1.39 8.098-.85 1.398-1.942.208-5.021.363-7.436-.137-3.684-.142-8.702 2.43-10.473.452-.26.938-.464 1.423-.447z"/><path style="font-size:144px;font-style:normal;font-variant:normal;font-weight:700;font-stretch:normal;text-indent:0;text-align:start;text-decoration:none;line-height:125%;letter-spacing:0;word-spacing:0;text-transform:none;direction:ltr;block-progression:tb;writing-mode:lr-tb;text-anchor:start;baseline-shift:baseline;color:#000;fill:#ffeda1;fill-opacity:1;stroke:none;stroke-width:5;marker:none;visibility:visible;display:inline;overflow:visible;enable-background:accumulate;font-family:Comic Neue;-inkscape-font-specification:Comic Neue Bold" d="M-546.154 1049.325c-5.668.792-8.744 9.064-12.975 13.758-3.153 4.818-8.227 8.595-8.96 15.851.003 7.568 5.72 12.604 10.206 10.35-4.663.583-9.633-6.615-7.813-13.87 4.34-8.902 10.763-14.85 15.795-22.801 1.126-1.377 2.368-2.597 3.747-3.288zm2.382 4.4c-3.646.71 4.914 2.481 2.86 7.084-.325 25.625-.727 51.248-1.046 76.873 3.886.186 10.686-2.063 11.369 6.273.018 2.404-4.538 5.434-.98 3.837 5.55-2.243 1.263-13.606-3.368-10.731-2.873 1.362-6.552-.296-4.935-5.773.286-24.086.7-48.167.974-72.253-.533-3.243-2.76-5.308-4.874-5.31zm-6.962 21.784c-1.804 2.644-6.232 7.35-6.516 8.62 2.72-1.31 5.982-3.922 6.516-8.62zm-40.125 1.857c-5.097 0-8.208 8.867-7.1 15.825-.742 6.05 3.824 1.685 1.898-2.182-.432-5.601 1.509-11.851 5.202-13.643zm2.19 4.4c-2.59.9 3.92 3.708 2.133 7.332.683 4.389-2.132 14.229 2.513 13.001 3.744-.122 8.508-1.932 11.193 3.24 2.015 3.104-3.548 10.779.744 7.316 4.435-6.235-1.408-13.92-6.023-11.357-3.947 1.991-7.943-.532-6.478-7.494.267-4.759.246-12.041-4.083-12.038zm26.502 2.416c-.372.451.325.052 0 0zm10.08 1.615c-3.816 2.924-1.396 10.585-2.206 15.651-.133 10.239-.266 20.477-.402 30.715 4.266-.314 1.029-9.91 2.186-14.133.142-10.744.283-21.489.421-32.233zm-52.555 11.191c-5.588-.392-9.247 10.372-6.145 17.287 2.735 6.615 8.15 4.223 12.27 5.151 1.53 5.765-.963 15.504 4.052 19.49.714 1.584 6.178 1.93 5.082.714-4.318.27-6.703-6.633-6.658-12.417.475-4.642.14-10.975-4.188-8.636-4.021 1.47-8.882-2.111-9.465-8.756-.803-5.5 1.322-11.57 5.052-12.833zm4.321 4.337c-2.011-.306-5 .931-1.274.506 1.677.145 6.42.437 5.896-.36-1.541.043-3.08-.127-4.622-.146zm15.37 12.767c-4.437 4.34.786 14.15-2.844 19.661-1.324 3.192 3.674-1.39 3.065-3.952.459-4.72.092-12.838-.22-15.709zm4.69 4.439c-1.882 1.79 8.796.067 3.64.157-1.212-.057-2.44.114-3.64-.157zm20.117 14.243c-4.797-.335-9.393 7.68-6.92 14.69 2.103 6.38 7.528 6.897 11.647 6.261 7.764-.41 15.586.99 23.305-.846-8.882.923-17.793.015-26.68.371-4.583-.453-8.688-8.453-6.206-15.073.998-2.758 2.858-4.69 4.854-5.403zm3.702 4.31c-1.367-.3-4 .865-1.128.537 1.525.556 7.688-.342 3.068-.455-.646-.03-1.293-.075-1.94-.081z"/><path style="opacity:.5473251;fill:#fff;fill-opacity:1;fill-rule:nonzero;stroke:none" d="M-558.948 984.936c-17.787 0-34.067 10.482-46.656 27.875l-23.031 58.937a188.776 188.776 0 0 0-2.563 31.063c0 33.77 8.712 64.225 22.657 85.719l76.343-195.282c-8.27-5.379-17.303-8.312-26.75-8.312zM-493.266 1068.233h34.137v22.5h-34.137z"/><path style="opacity:.60082302;fill:#fff;fill-opacity:1;fill-rule:nonzero;stroke:none;filter:url(#l)" d="M133.528 251.228c21.218-1.18 39.645-18.058 45.053-38.265 8.147-21.66 19.994-42.863 19.58-66.61 1.056-26.894-3.484-54.63-15.476-78.625-23.234 59.575-46.748 119.04-69.719 178.718 6.295 3.342 13.376 5.077 20.562 4.782z"/><path style="opacity:.60082302;fill:#fff;fill-opacity:1;fill-rule:nonzero;stroke:none;filter:url(#m)" d="M353.366 97.506h50.387v27.5h-50.387z"/><path style="opacity:.60082302;fill:#fff;fill-opacity:1;fill-rule:nonzero;stroke:none;filter:url(#n)" d="M971.866 99.756h34.137v27.5h-34.137z"/></svg>