<svg xmlns="http://www.w3.org/2000/svg" height="527.3" viewBox="0 0 146.07 527.296" width="146.07" fill="#262c2c"><path d="M115.73 526.88c-.107-.097-8.618.026-18.914.272-19.982.478-41.095-.296-42.408-1.556-.44-.421 2.584-.603 6.719-.403 9.75.47 56.294.016 64.47-.628l6.314-.498-.176-5.055c-.097-2.78-.607-5.301-1.134-5.602-1.792-1.023-1.196-4.18.803-4.249 1.037-.036 2.648-.58 3.58-1.207 1.338-.903 2.169-.833 3.962.332 2.257 1.466 2.248 1.473-1.698 1.457-4.862-.021-4.55-.67-3.857 8.026l.578 7.25 5.115-.18 5.115-.178-.69-16.158c-.922-21.633-.076-19.84-10.152-21.522-4.63-.773-8.43-1.746-8.445-2.163-.033-.97.196-.959 7.518.386 3.375.62 6.664 1.123 7.31 1.119 1.302-.01 1.106-17.516-.216-19.19-.397-.503-1.78-.99-3.073-1.085-7.105-.52-8.476-.965-8.54-2.774-.035-1.007.312-1.844.77-1.86s.75-.72.649-1.564c-.101-.843.4-1.762 1.114-2.04 1.014-.397 1.206.222.876 2.828l-.423 3.335 4.391.24c2.415.13 4.524.136 4.686.012.163-.125-.63-8.36-1.762-18.3-1.132-9.94-2.14-20.392-2.238-23.226-.503-14.458-2.85-42.14-3.48-41.036-.735 1.288-.748 1.27-2.36-3.319-1.567-4.465-3.275 1.045-2.977 9.602.097 2.77-.245 5.051-.76 5.07s-.916.664-.889 1.437c.028.773.471 1.391.986 1.373.516-.019.958.554.983 1.271.025.717 1.109 1.532 2.408 1.81 1.3.278 2.384 1.096 2.409 1.818.036 1.042-.621 1.153-3.192.539-1.781-.426-3.794-.638-4.472-.472-.68.166-1.225-.437-1.214-1.34.011-.904.039-3.146.06-4.983.024-1.956.437-3.114.997-2.794.543.31.921-.491.874-1.851-.046-1.319-.506-2.383-1.02-2.365-.518.019-1.023-2.406-1.128-5.41-.116-3.335-.747-6.128-1.63-7.213-3.268-4.022-.831-7.894 2.564-4.072 1.629 1.833 6.786 4.27 8.884 4.197.222-.008-.038-5.592-.578-12.41-2.192-27.66-3.13-44.961-4.299-79.35-.808-23.778-1.521-35.583-2.092-34.636-.476.79-.728 5.541-.56 10.558l.303 9.12-3.294-1.432c-3.662-1.592-4.413-3.157-3.32-6.91.527-1.806.131-4.328-1.379-8.79-1.165-3.44-1.914-6.613-1.664-7.05.765-1.34 3.15-.973 3.202.493.026.76 1.336 1.991 2.91 2.737 3.038 1.439 3.767.47 1.344-1.79-.8-.745-1.47-1.808-1.49-2.36-.06-1.746 1.632-1.149 3.709 1.31l2.005 2.374-.777-7.342c-.427-4.038-.994-11.498-1.26-16.577l-.484-9.235-4.983-1.662c-5.4-1.801-6.782-3.81-2.276-3.309 1.527.17 2.596.04 2.376-.29-.22-.33-.644-5.154-.942-10.721-.443-8.274-.742-9.826-1.64-8.504-.987 1.454-1.203 1.356-2.135-.962a147.187 147.187 0 0 0-1.73-4.13c-.549-1.226-.284-1.456 1.272-1.107 1.082.243 1.994.919 2.027 1.502.062 1.075 6.38 4.124 8.399 4.054.604-.021 1.118.91 1.142 2.07.043 2.057.008 2.065-1.395.339-1.314-1.616-1.41-1.285-1.095 3.79.203 3.278.456 4.306.616 2.503.405-4.56 2.004-3.752 2.174 1.097.08 2.319-.275 4.231-.79 4.249-.515.019-.892 1.311-.838 2.874.073 2.08-.457 3.078-1.98 3.727-1.924.82-1.948.935-.321 1.525 1.114.404 2.032.159 2.505-.67 1.57-2.751 1.863 1.364 4.399 61.893 1.434 34.225 3.069 68.754 3.633 76.731.565 7.977 1.52 23.774 2.124 35.104 1.421 26.704 3.183 51.8 3.841 54.743.287 1.28 1.147 12.647 1.912 25.26.764 12.613 1.754 23.141 2.2 23.396.786.449 1.425 9.94 2 29.7l.278 9.612-15.072.285c-8.29.157-15.159.206-15.266.11zm-83.244-.29c-6.795-.131-10.701-.601-11.199-1.348-.607-.91-1.2-.893-2.873.079-1.446.84-3.906 1.072-7.832.74-3.149-.267-6.907-.458-8.352-.426-2.025.046-2.506-.291-2.098-1.469.292-.84.763-6.18 1.048-11.865 1.02-20.348 1.598-25.739 2.91-27.145.893-.958 1.675-6.678 2.456-17.966.712-10.277 1.536-16.579 2.171-16.61.574-.028.465-.378-.247-.795-.975-.572-1.088-1.601-.483-4.425a326.685 326.685 0 0 0 1.277-6.27c.269-1.426.8-2.555 1.179-2.51 1.79.211 2.425-.311 1.23-1.01-1.121-.657-1.168-1.773-.304-7.246.562-3.558 1.071-6.893 1.131-7.411.06-.518.22-1.157.355-1.42.52-1.008 1.245-7.4 1.764-15.54.23-3.62 1.003-12.51 1.716-19.759 1.227-12.468 2.27-24.258 3.08-34.816.198-2.586.807-9.784 1.352-15.994.546-6.21 1.375-16.159 1.842-22.109.468-5.95 1.364-16.112 1.992-22.583a3254.46 3254.46 0 0 0 1.807-19.193c.365-4.084 1.087-7.973 1.603-8.641.517-.669.56-1.349.096-1.512-.482-.17-.63-3.515-.348-7.818.272-4.137.658-10.408.858-13.935.282-4.986.662-6.31 1.704-5.952.78.269 1.321-.114 1.293-.914-.026-.757-.525-1.36-1.108-1.34-1.03.037-1.053-8.375-.047-16.883.214-1.814.627-8.334.917-14.49l.528-11.191-2.39-2.066c-1.316-1.135-2.414-2.726-2.443-3.535-.028-.809-1.126-1.915-2.44-2.46-1.589-.658-2.802-2.256-3.627-4.777-.682-2.084-2.038-4.768-3.014-5.965-3.642-4.464-1.143-16.856 3.944-19.556 1.136-.603 2.815-1.824 3.731-2.713.916-.889 2.16-1.634 2.763-1.655.656-.023 1.045-1.547.967-3.786-.072-2.06-.459-3.736-.86-3.722-1.63.057-6.57 5.886-6.507 7.679.038 1.06-.354 1.941-.87 1.96-2.503.087-.889-4.94 2.75-8.565 5.68-5.658 8.31-5.159 7.537 1.43-.356 3.03-.316 3.066 2.186 2.013 1.835-.772 2.921-.784 3.878-.045 1.03.795 1.317.707 1.279-.393-.054-1.536 1.812-2.624 4.672-2.724 1.46-.05 1.774-.738 1.672-3.654-.169-4.827-.467-4.951-6.416-2.669-5.703 2.187-6.727 2.384-6.765 1.297-.014-.405 2.872-1.856 6.414-3.225l6.44-2.488.076-5.679c.07-5.312.227-5.694 2.413-5.91 1.285-.128 3.637-.568 5.227-.977 2.507-.647 2.977-.457 3.555 1.433.639 2.092.726 2.046 2.203-1.16 1.5-3.255 1.492-3.342-.347-3.595-2.862-.392-4.168-1.743-5.503-5.692-.669-1.979-1.551-3.587-1.961-3.572-1.62.056-4.957-8.633-4.426-11.525.682-3.72 3.01-9.063 3.965-9.097 2.952-.103 5.787 10.462 3.631 13.53-1.544 2.197-1.729 3.659-.346 2.736.536-.357 1.324-1.676 1.751-2.93 1.031-3.027 1.73-2.88 4.927 1.041 3.073 3.77 3.452 6.32 1.407 9.468-.784 1.207-1.198 2.408-.92 2.667.279.26 1.214-.75 2.079-2.244.865-1.494 1.684-2.885 1.82-3.093.137-.207.98.186 1.875.873 1.482 1.138 1.522 1.066.441-.8-.652-1.128-.962-3.093-.69-4.367.41-1.91.197-2.233-1.213-1.839-1.201.336-2.562-.65-4.57-3.31l-2.86-3.788 1.619-3.453c2.501-5.334 2.491-5.588-.087-2.221-3.074 4.014-3.424 3.971-6.145-.753l-2.268-3.936 2.701-6.79c1.486-3.733 2.69-7.127 2.675-7.542-.051-1.465-2.386 3.086-3.861 7.527-1.775 5.34-2.67 6.126-4.76 4.177-.86-.8-1.82-1.182-2.132-.846s.252 1.168 1.256 1.85c1.786 1.212 1.784 1.36-.095 6.727-4.059 11.591-6.035 18.63-5.633 20.061.341 1.214.534 1.139 1.043-.409 2.188-6.653 2.256-6.746 3.634-4.993 3.21 4.082 2.163 16.501-1.402 16.638-.581.022-1.56.691-2.174 1.487-.91 1.179-.85 1.436.325 1.395 2.073-.072 1.656 6.441-.522 8.153-4.015 3.157-6.23.894-4.395-4.491.72-2.11.586-2.25-1.704-1.78l-2.483.51 1.996-1.588c1.662-1.32 1.978-2.57 1.884-7.434-.062-3.216.007-11.066.153-17.445l.266-11.598-2.61-1.236C25.993 77.3 35.883 61.921 50.4 56.848c6.572-2.296 13.186-4.213 15.788-4.576 1.54-.215 5.525-.936 8.855-1.603 28.954-5.793 62.285 12.404 52.358 28.586l-2.884 4.702.258 16.75.257 16.75-2.499-.342c-1.374-.188-3.207-.618-4.073-.955-1.228-.478-1.698.076-2.14 2.522-.311 1.724-.98 3.418-1.485 3.765-1.331.915.145 2.68 2.183 2.609.958-.033 3.737.714 6.178 1.66 5.434 2.108 4.913 2.18 5.543-.762.333-1.557-.034-3.256-.998-4.622-2.562-3.628-1.466-4.455 1.96-1.479 1.722 1.495 1.911 2.307 1.36 5.816-.92 5.848-.83 6.426.999 6.397 4.475-.07 9.296 9.315 5.536 10.78-.756.293-1.19-.509-1.254-2.313-.107-3.083-3.654-7.924-5.098-6.96-.513.342-.711 1.83-.441 3.308.27 1.477.167 2.697-.23 2.71-1.208.043-1.87-1.556-2.131-5.151-.374-5.154-12.342-9.454-12.164-4.371.046 1.322-.329 2.68-.833 3.016-.544.363-.963-.718-1.03-2.66-.122-3.457-.364-3.622-6.727-4.574-1.815-.272-3.976-.656-4.802-.855-1.19-.286-1.46.372-1.297 3.164.277 4.762-1.543 5.063-2.07.342-.345-3.081-.83-3.838-2.728-4.244-4.191-.898-2.608-2.398 2.095-1.985 2.458.216 3.934.177 3.28-.086-.654-.264-1.21-1.082-1.236-1.82-.025-.736-.592-2.148-1.259-3.137-1.867-2.77-.159-3.856 4.481-2.85 3.138.682 4.032 1.344 4.484 3.32.787 3.444.212 3.635-2.556.85-2.552-2.568-3.44-2.945-3.388-1.436.018.515.616.916 1.33.891.712-.024 1.545.79 1.85 1.812.39 1.302.093 1.877-.995 1.925-1.344.06-1.36.184-.114.928 3.652 2.184 7.25.862 9.17-3.37 1.555-3.426 1.62-4.09.417-4.304-2.68-.478-.695-3.894 2.324-3.999 2.802-.098 3.697-12.65 1.2-16.815-1.368-2.283-5.496 8.502-4.703 12.288l.674 3.219-2.012-2.275c-1.107-1.251-2.061-3.41-2.121-4.795s-.54-2.767-1.066-3.067c-.527-.3-.933.162-.902 1.029.039 1.124-.29 1.325-1.149.7-2.104-1.531-5.459-1.868-5.412-.543.05 1.438 2.14 2.283 5.368 2.17 2.11-.074 2.307.24 2.154 3.443l-.168 3.523-4.645-.084c-5.252-.095-5.239-.082-8.86-8.585-4.368-10.261-5.642-11.15-7.866-5.486-1.923 4.897-4.52 9.14-4.627 7.559-.035-.515 1.347-3.94 3.071-7.612l3.14-6.677-2.199-5.28c-4.139-9.943-4.76-10.11-10.215-2.755-5.029 6.782-5.368 7.677-3.327 8.772.721.387 2.211 2.362 3.31 4.387 4.19 7.723 6.794 11.981 7.694 12.579.512.341.617.958.23 1.372-.385.413-1.12.145-1.634-.596-.82-1.182-1.05-1.171-1.884.093-.756 1.148-.848 1.024-.451-.61 1.302-5.368-10.112-20.199-12.228-15.889-.774 1.577-.69 1.957.43 1.918 1.14-.04 1.41 1.402 1.481 7.919.062 5.644-.254 7.98-1.084 8.011-.644.025-1.157.441-1.14.926.047 1.356 1.744 2.02 2.368.926.695-1.217 3.245-1.371 3.286-.199.017.478-.69 1.033-1.57 1.235-1.106.253-1.616 1.373-1.65 3.62-.034 2.14-.71 3.724-1.978 4.631-3.044 2.179-2.314 2.571 4.35 2.338 4.465-.155 6.376.146 6.723 1.06.388 1.021-.665 1.234-5.27 1.062l-5.754-.215.09 2.581c.05 1.42-.322 2.856-.826 3.193-.55.366-.973-.82-1.056-2.957-.227-5.834-7.092-7.665-13.903-3.708-3.09 1.796-4.906 1.498-5.136-.841-.114-1.157-.404-.409-.645 1.664-1.105 9.485 2.403 16.89 5.462 11.532.302-.529 1.619-.732 2.927-.452 1.316.282 3.371-.067 4.604-.784 1.69-.982 3.023-1.079 5.542-.401 2.306.62 3.305.592 3.281-.093-.023-.664 3.796-.954 11.701-.889 7.022.058 11.944-.27 12.256-.816.29-.51 1.023-.276 1.654.525.623.792 2.616 1.59 4.428 1.776 3.402.346 13.678 1.062 15.751 1.096.645.01 1.193.581 1.217 1.269.024.687.914 1.218 1.978 1.181 1.064-.037 3.938.667 6.387 1.564s5.093 1.865 5.877 2.15c7.246 2.64 12.99 9.378 13.205 15.487.178 5.113-5.313 16.68-7.962 16.772-.685.024-2.135 1.341-3.224 2.927-1.09 1.586-2.453 2.9-3.032 2.92-.578.02-1.862 1.782-2.853 3.914l-1.802 3.877-2.065-2.445c-2.417-2.86-1.92-4.484 1.17-3.822 2.107.451 2.146.347 1.098-3.011-1.487-4.768-2.708-6.706-4.194-6.654-.692.024-1.778-.54-2.414-1.253-.635-.714-3.578-1.92-6.54-2.68-2.962-.76-6.247-1.75-7.3-2.198-1.921-.819-5.32-1.251-10.092-1.284-2.036-.014-2.753-.629-3.539-3.032l-.985-3.015.015 2.86c.02 3.687-6.42 3.994-6.749.321-.14-1.58-.256-1.653-.55-.347-.364 1.625-2.118 2.114-6.791 1.894-3.759-.176-4.194-.286-4.954-1.249-.447-.565-.711-.467-.695.259.034 1.522-2.473 1.61-3.144.11-.389-.87-.75-.799-1.461.285-.736 1.122-.975.666-1.082-2.066-.18-4.624 7.209-5.657 7.547-1.055l.178 2.42.579-2.365c.477-1.95 1.146-2.378 3.808-2.434 2.718-.057 22.661 1.247 27.215 1.78 6.316.739 18.732 5.389 25.188 9.433l2.877 1.803-3.417-3.842c-1.88-2.112-3.852-3.833-4.382-3.824-.53.01-1.602-.805-2.381-1.81-.779-1.005-2.208-1.8-3.176-1.765-.968.033-3.109-.483-4.758-1.148-5.33-2.15-11.78-3.205-24.673-4.038-3.102-.2-6.366-.716-7.253-1.145-1.005-.486-1.826-.405-2.18.214-.311.547-2.114 1.03-4.005 1.075-6.052.141-15.11 1.636-15.081 2.488.015.453.555.806 1.2.783 1.794-.063 1.818 7.276.023 7.4-.772.053-2.732.41-4.356.793-2.708.638-2.994.476-3.446-1.962l-.493-2.659-.05 2.582c-.028 1.42-.433 2.595-.9 2.61-.467.017-.6.861-.297 1.876 1.29 4.311-.288 8.685-2.93 8.12-1.57-.337-2.713-.076-3.184.728-.605 1.031-.744 1.036-.792.026-.031-.674-.47-.95-.973-.614-.505.337-.932.196-.95-.312-.017-.507.7-1.142 1.593-1.409 1.495-.447 1.489-.49-.082-.535-1.263-.036-1.569-.54-1.177-1.944.413-1.477.103-1.88-1.408-1.827-1.097.04-1.916.677-1.888 1.473.027.773.428 1.393.891 1.376 1.099-.038.92 17.622-.198 19.617-.57 1.017-.736-.955-.498-5.899.265-5.495.083-7.242-.698-6.721-.58.388-.984 2.763-.896 5.279s-.297 4.878-.855 5.25c-.706.472-.85-.225-.47-2.293.575-3.14-.626-10.909-1.537-9.933-.294.316-.48 4.255-.415 8.755.066 4.5-.315 10.694-.846 13.766-2.04 11.796-2.732 22.272-1.513 22.925 1.52.815.408 12.45-1.323 13.84-.827.663-1.33 4.51-1.539 11.78-.17 5.937-.577 12.592-.903 14.789-.413 2.787-.235 4.27.588 4.906.903.698 1.256-.653 1.506-5.78.375-7.706-.005-6.957 4-7.867 3.044-.691 3.12-.634 2.818 2.09-.172 1.54.122 2.927.652 3.084.63.185.562 3.115-.196 8.442-.693 4.87-.8 8.264-.265 8.422.493.145.782 1.226.644 2.402-.219 1.855-.47 1.984-1.889.974-1.504-1.071-1.548-1.738-.55-8.239.75-4.87.788-8.524.125-11.73-.69-3.334-.97-3.857-.99-1.841-.014 1.548-.453 3.463-.975 4.255-.7 1.063-.833.331-.505-2.797.289-2.744.137-3.895-.43-3.268-.482.533-1.202 6.046-1.6 12.251-.398 6.205-1.061 11.671-1.474 12.146-.413.475-.627-1.628-.476-4.674.262-5.27.21-5.422-1.069-3.145-1.503 2.676-1.649 10.376-.195 10.326 1.557-.054 1.144 2.614-.574 3.709-1.113.71-1.272 1.233-.517 1.706 1.672 1.05.39 9.39-1.705 11.094-1.587 1.29-1.595 1.41-.097 1.386 1.906-.033 2.034 1.15.966 8.907-.429 3.111-.7 7.975-.603 10.81.097 2.834-.165 6.642-.582 8.462-.627 2.732-.719 2.293-.529-2.517.127-3.205-.151-6.045-.617-6.311-.834-.476-1.296 2.904-1.928 14.096-.833 14.767-1.588 23.417-4.672 53.562-.579 5.656-.867 10.458-.64 10.67 1.221 1.138 2.164-1.262 1.605-4.083-.417-2.102-.27-3.257.416-3.281.583-.02 1.097 1.017 1.142 2.305.076 2.183.397 2.332 4.71 2.181 5.72-.2 10.198 21.66 5.645 27.552-.685.887-.641 1.795.152 3.161.613 1.054.89 2.309.616 2.788-.815 1.428 1.427 2.123 2.827.877.712-.634 1.843-.954 2.513-.712.784.284.65.488-.375.571-1.569.128-1.762.817-2.677 9.548-.19 1.813-.576 4.676-.858 6.362-.31 1.848-.137 3.054.433 3.034.52-.02 1.33-3.635 1.8-8.036 1.085-10.195 1.954-10.352 1.6-.29-.33 9.44.915 6.764 1.443-3.1.399-7.457 1.63-9.638 5.014-8.878 1.016.228 1.875 1.209 1.909 2.18.034.97.483 1.749.998 1.731.515-.017.815-.498.666-1.068-.148-.569.721-1.237 1.933-1.485 1.97-.402 2.155-.174 1.751 2.156-.248 1.433-.668 3.898-.933 5.478-1 5.974-5.751 4.574-5.792-1.708-.032-4.998-1.31-6.758-2.895-3.982-.39.685-.228.836.427.399.725-.484 1.096.346 1.175 2.628.064 1.834-.354 3.35-.93 3.37-.585.021-.858-.796-.62-1.855.233-1.04.05-1.642-.407-1.337-.457.305-.77 2.11-.696 4.012.094 2.41.376 3.046.93 2.098.91-1.556.862 4.148-.076 8.99-.545 2.813-4.047 5.358-4.129 3.001-.026-.743-.313-.74-1.015.013-1.378 1.478 1.184 5.15 3.184 4.563 1.7-.5 2.87 15.59 1.508 20.743-.637 2.411-1.717-9.064-1.503-15.973.044-1.42-.328-2.568-.828-2.55-1.088.038-1.943 2.275-1.936 5.068.005 1.962-.024 1.969-.814.187-.45-1.017-.636-2.19-.412-2.609.622-1.162-1.092-10.003-1.933-9.973-1.105.038-1.724 3.728-.722 4.3.477.273.909 2.052.959 3.955.08 3.077-.053 3.283-1.211 1.863-2.073-2.54-2.216-2.09-2.555 8.063-.322 9.635-1.47 13.582-2.727 9.38-.48-1.607-.833-1.828-1.392-.873-1.11 1.894-.9 2.69.695 2.635 1.052-.037 1.29.569.914 2.323-.406 1.897-.217 2.25.937 1.76 1.712-.726 4.078.35 2.784 1.266-1.19.842-1.957 7.69-.857 7.652.483-.017.856-.663.829-1.436-.027-.773.397-1.421.943-1.44.546-.02.746.396.446.922-.3.527-.148.943.34.926.487-.016 1.103-1.938 1.37-4.269.675-5.892 2.029-5.379 1.7.644-.346 6.343 1.53 4.966 2.199-1.614.343-3.38.12-4.725-.88-5.31-1.076-.63-1.016-.8.299-.857 1.62-.07 1.908.476 2.18 4.13.192 2.567 1.943 2.844 2.433.385.53-2.656 2.336-2.455 2.08.232-.162 1.685.302 2.125 2.346 2.222 4.733.226 3.551 1.02-1.796 1.207l-5.31.185-.036 3.05c-.02 1.677-.057 3.665-.083 4.417-.026.752-1.01 1.63-2.19 1.953-2.472.675-2.66 2.575-.218 2.202 1.428-.218 1.605.44 1.424 5.286l-.206 5.535 2.683-.154c5.117-.294 6.737.047 4.125.867-1.983.624-2.338 1.354-2.45 5.03-.144 4.748.787 5.41 7.32 5.21 1.908-.06 2.881.287 2.53.901-.312.549-2.428.94-4.7.868-2.273-.071-8.828-.22-14.567-.33zm-3.828-4.46c-.054-1.546-.52-2.796-1.035-2.778-.516.019-.96-.6-.986-1.373-.027-.773-.366-1.395-.752-1.382-1.056.036-.604 6.953.503 7.708 1.78 1.214 2.368.65 2.27-2.175zm3.686-1.904c-.14-3.993-.7-4.865-2.603-4.057-1.006.427-1.056.856-.21 1.806.611.686.895 2.253.632 3.482s-.207 2.487.124 2.796c1.258 1.174 2.175-.623 2.057-4.027zm7.495-.254c-.246-7.055-6.161-6.71-6.37.372l-.131 4.436 3.33-.116 3.331-.117-.16-4.575zm-3.499.482c-.061-2.062.105-2.801.37-1.644s.315 2.845.112 3.749c-.203.904-.42-.043-.482-2.105zm-17.313-5.5c-.018-.515-.98-.874-2.138-.798-1.935.129-.964.97 1.935 1.677.13.032.221-.364.203-.88zm7.789-3.561c.277-1.83.15-3.835-.284-4.456-.49-.703-.916.293-1.126 2.635-.28 3.123-.734 3.842-2.667 4.223l-2.329.459 2.365.564c3.132.748 3.449.48 4.04-3.425zm-20.938 3.082c-.018-.515-.77-.905-1.672-.865-1.4.06-1.43.196-.202.93 1.808 1.081 1.914 1.078 1.874-.065zm30.09-4.857c.167-4.731-1.723-4.81-2.186-.091-.217 2.208-.175 4.218.093 4.468.97.904 1.98-1.212 2.093-4.377zm-3.936 1.675c-.043-1.246.167-2.98.467-3.851.43-1.251.076-1.502-1.683-1.19-2.239.396-3.8 4.67-1.679 4.597.551-.02 1.024.597 1.051 1.37.027.773.471 1.39.986 1.373.516-.02.902-1.053.858-2.299zm-8.692.13c-.322-.301-1.131-.306-1.798-.012-.737.325-.508.54.586.546.989.006 1.534-.234 1.212-.535zm-7.114-3.876c-.305-1.021-.717-1.851-.915-1.844-.197.008-.33.856-.293 1.886.036 1.03.447 1.86.914 1.844.467-.016.6-.865.294-1.886zm3.476-.121c-.036-1.03-.447-1.86-.914-1.844-.467.016-.6.865-.294 1.886.305 1.021.717 1.851.915 1.844.197-.008.33-.856.293-1.886zm12.986-4.206c-.018-.515-.479-.921-1.025-.902-.545.02-.717.447-.38.951.336.504.798.91 1.025.902.227-.008.398-.436.38-.951zm-16.5-4.813c-1.06-.988-1.705.664-.911 2.332.753 1.58.803 1.578 1.134-.073.191-.95.09-1.966-.224-2.259zm5.673 1.439c.73-.025 1.313-.468 1.295-.983s-.665-.915-1.438-.888c-.773.027-1.427-.557-1.453-1.298-.027-.784-.854-1.258-1.974-1.134-1.707.188-1.752.332-.39 1.257.845.574 1.484 1.41 1.42 1.857-.257 1.766.344 3.626.781 2.423.238-.653 1.03-1.209 1.76-1.234zm-9.22.693c-.322-.3-1.131-.305-1.798-.011-.737.325-.507.54.586.546.989.006 1.535-.234 1.212-.535zm19.936-.522c-.008-.215.2-1.013.461-1.772.361-1.05-.096-1.25-1.905-.84-2.802.639-3.145 3.165-.417 3.07 1.031-.036 1.868-.242 1.86-.458zm-5.674-1.285c-.018-.516-.479-.922-1.025-.903-.545.02-.717.448-.38.952.336.504.798.91 1.025.902.227-.008.398-.436.38-.951zm10.29-.829a1.41 1.41 0 0 0-1.454-1.356 1.41 1.41 0 0 0-1.357 1.455 1.41 1.41 0 0 0 1.455 1.356 1.41 1.41 0 0 0 1.356-1.455zm-14.328-5.93c-.931-.8-1.05-.652-.534.663.367.932.733 2.186.814 2.786s.32.301.533-.664c.213-.965-.153-2.219-.813-2.786zm4.673-.064c.022-.388-.38-.69-.896-.673-.515.02-.867 1.191-.781 2.607.145 2.402 1.515.822 1.676-1.934zm-11.004.415c-.696-.649-1.135-.689-1.114-.102.044 1.25 1.19 2.32 1.794 1.673.257-.276-.05-.982-.68-1.571zm1.445-7.407c-.08-2.297-.496-3.56-1.05-3.191-1.552 1.036-.803 7.063.87 7.005.172-.007.253-1.722.18-3.814zm6.125.78c-.337-.505-1.009-.903-1.494-.886-.485.016-.867.452-.849.967.018.516.69.914 1.494.886.803-.028 1.185-.463.849-.968zm-2.776-3.832c-.326-.737-.54-.507-.547.586-.006.99.235 1.535.535 1.213.3-.323.306-1.132.012-1.799zm-6.694-7.095-.16-3.277-.617 2.835c-.924 4.246-.787 8.151.196 5.622.407-1.046.668-3.377.58-5.18zm6.958 2.876c-1.17-1.86-1.416-1.243-.43 1.081.35.827.828 1.298 1.06 1.049.234-.25-.05-1.208-.63-2.13zm-2.565-3.029c-.072-2.06-.398-3.738-.725-3.727-.786.028-1.31 3.837-.809 5.891.723 2.971 1.666 1.64 1.533-2.164zm-7.363-.857c-.325-.737-.54-.507-.546.586-.007.99.234 1.535.535 1.212.3-.322.305-1.131.01-1.798zm11.51-1.22c-.035-1-.485-1.804-1-1.786-.516.017-.9 1.112-.854 2.43.048 1.36.48 2.133 1 1.786.505-.336.889-1.43.854-2.43zm4.38-1.007c.054-1.532-.315-3.02-.819-3.308-.504-.288-.887.31-.851 1.33s-.168 2.528-.453 3.354c-.315.915-.02 1.484.755 1.456.74-.027 1.312-1.21 1.368-2.832zm-12.13-5.901c-1.077-1.557-1.103-1.554-.534.06.33.933.65 2.188.711 2.79.081.787.23.77.534-.061.231-.634-.089-1.889-.712-2.79zm4.245-1.077c-1.023-2.41-1.634-.655-.772 2.216.589 1.963.877 2.214 1.096.956.163-.939.018-2.366-.324-3.172zm3.754-1.095c-.985-.919-1.721.542-.896 1.78.624.934.845.927 1.129-.036.194-.659.09-1.443-.233-1.744zm4.045-2.271c-.036-1.03-.228-1.868-.425-1.861-.198.008-.55.863-.784 1.903-.233 1.04-.042 1.878.425 1.861.467-.016.82-.873.784-1.903zm-14.39-.6c-.325-.737-.539-.507-.546.586-.006.989.235 1.534.535 1.212.3-.322.306-1.131.012-1.798zm1.776-2.876c-.325-.737-.54-.508-.546.586-.006.989.234 1.534.535 1.212.3-.322.305-1.131.011-1.798zm5.568-1.191c-.283-.635-.477-.101-.432 1.187.045 1.289.276 1.808.513 1.155.238-.653.2-1.707-.081-2.342zm2.754-2.442c-.267-.893-.434-.149-.371 1.655.063 1.803.281 2.534.485 1.624.204-.91.153-2.385-.114-3.279zm4.327.318c-.715-4.94.646-9.352 2.67-8.655.851.293 1.669-.146 1.986-1.066.764-2.222-.18-2.726-2.54-1.354-1.585.92-2.202.93-2.792.047-.479-.718-1.664-.875-3.217-.427-2.779.802-2.297 2.525.677 2.421 1.81-.063 1.926.327 1.64 5.481-.191 3.437.096 5.926.755 6.54 1.476 1.377 1.46 1.434.82-2.987zm3.015.13c.3-.527.242-1.414-.13-1.972-.666-.997-2.214.62-2.19 2.287.016 1.028 1.683.8 2.32-.316zm-15.882-2.5c-.282-.636-.476-.101-.431 1.187.045 1.288.276 1.808.513 1.155.238-.654.2-1.708-.082-2.343zm3.3-.085c-.695-.649-1.134-.689-1.113-.102.044 1.25 1.19 2.32 1.794 1.673.257-.276-.05-.983-.68-1.571zm12.855-3.06a.94.94 0 0 0-.97-.904.94.94 0 0 0-.904.97.94.94 0 0 0 .97.904.94.94 0 0 0 .904-.97zm-11.356-2.831c-.008-.227-.446-.66-.972-.96-.527-.3-.942-.1-.923.446.02.546.457.978.972.96.515-.02.93-.219.923-.446zm3.106-9.545c.601-.02 1.398-.365 1.771-.765s-.868-.673-2.757-.607c-3.29.114-4.443 1.273-2.417 2.43.527.3 1.052 1.678 1.169 3.062.178 2.125.283 2.003.676-.782.255-1.815.957-3.317 1.558-3.338zm-5.18 3.878c-.029-.803-.464-1.185-.968-.849-.504.337-.903 1.009-.886 1.493.017.485.452.867.968.85.515-.02.914-.69.886-1.494zm10.166-3.974c-.115-3.85-1.368-2.058-1.49 2.13-.07 2.473.139 3.053.736 2.033.459-.786.798-2.66.754-4.163zm3.436 3.133c-.365-.546-1.09-.707-1.614-.358-.616.41-.503.89.32 1.36 1.536.877 2.203.36 1.294-1.003zm16.672-2.086c.29-.845.12-1.215-.4-.868-.498.332-.892 1.001-.875 1.486.047 1.348.708 1.027 1.275-.618zm-28.662-10.92c.105-3.744-.174-7.428-.62-8.186-.533-.903-.777-.05-.708 2.473.058 2.12-.094 5.818-.338 8.22-.278 2.74-.087 4.356.515 4.335.527-.02 1.045-3.097 1.15-6.842zm5.604 5.567c-.032-.901-2.577-1.669-3.226-.973-1.023 1.097-.496 1.74 1.374 1.674 1.03-.036 1.864-.351 1.852-.701zm3.737-.444c-.008-.227-.445-.659-.972-.959-.526-.3-.941-.1-.922.446.019.546.456.977.971.96.515-.02.93-.22.923-.447zm-5.071-11.714c.53-2.916.712-5.877.404-6.58-.324-.74-.558-.365-.557.894 0 1.195-.341 2.895-.76 3.779-.42.884-.947 3.724-1.173 6.311-.503 5.77.697 3.236 2.086-4.404zm-7.326 5.939c-.017-.485-.452-.867-.968-.849-.515.019-.914.69-.886 1.493.028.804.464 1.186.968.85s.903-1.01.886-1.494zm9.036-1.374c-.326-.737-.54-.507-.547.586-.006.989.235 1.534.535 1.212.3-.322.306-1.131.012-1.798zm1.941-6.224c-.081-2.008-.294-2.259-.963-1.139-1.12 1.874-1.054 3.79.13 3.748.516-.02.89-1.192.833-2.61zm2.752-2.207c-.018-.515-.219-.93-.446-.922-.227.008-.66.445-.96.971s-.1.942.446.923c.546-.02.978-.457.96-.972zm-9.825-1.533c2.057-.072 1.514-1.512-.603-1.597-1.37-.055-1.84.48-1.733 1.971.08 1.126.34 1.513.577.86.237-.653 1.029-1.208 1.759-1.234zm-.727-5.134c-.027-.773-.457-1.391-.956-1.374-.5.017-.643.656-.32 1.419.324.762.755 1.38.957 1.373.203-.008.346-.645.32-1.418zm8.059-1.923c-.282-.635-.477-.1-.432 1.188.045 1.288.276 1.808.514 1.154.237-.653.2-1.707-.082-2.342zm-5.159-3.013c-.64-.233-1.441-.347-1.78-.253-.339.095-.938-.31-1.331-.9-.506-.756-.868-.63-1.233.433-.41 1.188.115 1.466 2.495 1.324 1.657-.099 2.49-.37 1.85-.604zm3.685-97.075c-.166-3.055-.218-2.99-.78.965-.855 6.012-.58 11.326.314 6.087.354-2.076.564-5.25.466-7.052zm1.844-15.543c.27-.783.082-1.41-.417-1.392-.5.016-.885.664-.858 1.437.027.773.214 1.4.417 1.392.202-.008.589-.654.858-1.437zm4.58-65.532c-.325-.737-.54-.507-.546.586-.006.989.234 1.535.535 1.212.3-.322.305-1.131.011-1.798zm6.936-51.66c-.036-1.04-.69-1.852-1.47-1.825-1.578.055-1.635.23-.758 2.295.876 2.066 2.306 1.764 2.228-.47zm8.611-4.552c-.359-.846-.009-1.377.93-1.41.828-.028 1.492-.446 1.475-.926-.017-.481-1.294-.794-2.838-.697-2.516.16-4.25 2.758-1.783 2.671.515-.018.96.625.988 1.428.028.804.445 1.198.927.876.483-.322.618-1.196.301-1.942zm-23.526-6.184c.3-.526.1-.941-.446-.922-.545.02-.977.456-.96.971.019.515.22.93.447.923.227-.008.659-.445.96-.972zm109.06-7.1c-4.833-4.592-14.48-9.364-18.653-9.227-1.537.05-4.025-.496-5.528-1.214-1.503-.718-3.738-1.271-4.968-1.228-1.493.052-2.263-.466-2.32-1.56-.082-1.561-.129-1.56-.984.034-.883 1.646-3.592 2.439-3.64 1.065-.014-.386-2.819-.722-6.233-.746-3.415-.023-6.991-.427-7.948-.897-1.184-.581-1.935-.512-2.35.216-.362.633-2.193.95-4.486.778-2.131-.16-6.392.155-9.469.7s-6.933 1.024-8.57 1.063c-1.636.039-3.194.454-3.462.923-.267.47-2 .74-3.85.601-3.128-.235-3.287-.123-2.278 1.614 1.212 2.086 2.57 2.252 6.146.748 1.341-.565 6.511-1.38 11.489-1.813 4.977-.432 10.879-1.092 13.114-1.465 2.234-.374 3.865-.324 3.623.112-.243.435 2.362.77 5.788.744 9.556-.07 15.974.682 17.437 2.047.73.68 2.196.977 3.257.66 3.28-.982 13.144 2.871 21.177 8.273 6.148 4.135 7.7 3.316 2.708-1.427zm-98.742 2.722c-.282-.635-.476-.101-.431 1.187.045 1.289.276 1.808.513 1.155.238-.653.2-1.707-.082-2.342zm22.43-3.129c-.267-.893-.434-.149-.37 1.655s.28 2.534.485 1.624c.204-.91.152-2.385-.115-3.279zm-27.544 2.604c1.07-1.07 1.475-1.928.9-1.908-1.001.035-3.904 2.647-3.875 3.486.03.858 1.11.285 2.975-1.578zm13.838-.484a.94.94 0 0 0-.97-.904.94.94 0 0 0-.904.97.94.94 0 0 0 .97.904.94.94 0 0 0 .904-.97zm.503-3.945c-.325-.737-.54-.507-.546.586-.006.989.235 1.534.535 1.212.3-.322.306-1.131.011-1.798zm9.886-.639c.2-1.297.002-2.345-.441-2.33-.444.016-.77 1.083-.726 2.371s.244 2.337.441 2.33c.198-.008.524-1.074.726-2.37zm-15.197.772c3.627-1.273 5.052-3.7 2.112-3.598-2.072.073-7.772 3.115-7.737 4.13.039 1.118 1.247 1.003 5.625-.532zm8.294-3.814c-.018-.515-.218-.93-.446-.922-.227.008-.659.445-.96.971-.3.527-.099.942.447.923.546-.02.977-.456.96-.972zm-13.616-5.329c-.325-.737-.54-.507-.546.586-.006.99.235 1.535.535 1.213.3-.322.306-1.132.011-1.799zm38.637-3.463c-.008-.227-.445-.659-.971-.96-.527-.3-.942-.1-.923.447.02.545.457.977.972.96.515-.02.93-.22.922-.447zm16.765-3.455c-.063-1.803-.279-3.273-.48-3.266-.201.008-.487 1.494-.634 3.305-.148 1.811.068 3.281.48 3.267.412-.016.697-1.502.634-3.306zm34.687-27.477c-.177-5.084-1.169-5.324-3.151-.763-1.641 3.774-1.24 5.138 1.48 5.043 1.53-.054 1.795-.73 1.671-4.28zm-56.308-.613c-.03-.946-3.002-.764-4.522.276-.806.551-.241.766 1.661.631 1.586-.112 2.874-.52 2.861-.907zm40.046-4.43c-1.382-1.289-5.534-1.28-5.49.01.032.88 1.063 1.526 2.638 1.652 2.272.18 3.845-.736 2.852-1.662zm-8.006-15.297c-.393-16.693-.571-16.97-5.183-8.073l-2.995 5.777 2.233 4.3c1.229 2.365 3.056 6.277 4.062 8.692s1.92 4.39 2.033 4.385c.113-.004.046-6.79-.15-15.08zm14.914 5.613c.7-1.853 1.032-3.729.738-4.169-.293-.44-.163-1.887.29-3.217.544-1.595.453-3.454-.266-5.463l-1.589-4.436c-1.27-3.544-5.722 5.101-5.55 10.78.268 8.834 4.045 12.686 6.377 6.504zm8.914-7.775.234-10.327-2.231 5.627c-2.056 5.185-2.129 5.96-.921 9.882 2.484 8.07 2.623 7.822 2.918-5.182zm-16.97 7.628c-1.893-1.131-4.998-1.023-4.216.148.336.504 1.746.87 3.132.814 1.972-.08 2.208-.29 1.084-.962zm-.131-3.747a.94.94 0 0 0-.97-.905.94.94 0 0 0-.904.97.94.94 0 0 0 .97.904.94.94 0 0 0 .904-.97zm-2.862-1.363c-.028-.803-.47-1.18-.983-.839-.512.342-.675 1.006-.362 1.475.849 1.272 1.403 1.01 1.345-.636zm.2-5.446c-.354-.835-1.02-1.505-1.48-1.49-1.279.045-.905 2.633.441 3.062 1.604.51 1.798.216 1.04-1.572zm-29.821-1.6c1.153-1.162 2.083-2.505 2.067-2.985-.017-.48 1.14-2.743 2.57-5.03l2.6-4.16-3.668-6.493c-2.018-3.57-4.154-6.476-4.747-6.455-1.316.046-2.344 2.72-1.52 3.953.838 1.257.02 17.675-.882 17.706-1.191.042-4.86-7.41-4.361-8.86.293-.85-.193-1.3-1.36-1.259-1.837.065-4.566-3.55-4.684-6.204-.035-.793-.656-1.618-1.38-1.833-.725-.215-1.13-.026-.902.42 2.477 4.84 6.51 11.953 6.979 12.307 1.117.844 4.868 8.196 4.918 9.64.072 2.04 1.916 1.725 4.37-.747zm45.289-.949c-.027-.773.281-1.417.685-1.43 2.368-.083 3.47-8.286 1.5-11.169-2.447-3.58-3.258-3.58-4.954 0-.907 1.916-1.818 2.664-2.822 2.318-1.315-.452-1.292-.106.206 3.074.929 1.971 2.15 4.729 2.716 6.128 1.101 2.727 2.75 3.393 2.669 1.08zm-26.002-1.672c.826-1.705 2.167-4.245 2.98-5.644 1.384-2.38-2.795-12.663-6.794-16.716-1.003-1.016-7.544-1.409-8.072-.484-.257.451-1.318.63-2.358.396-2.44-.548-2.387 1.178.201 6.679 2.374 5.045 2.76 5.115 5.861 1.06 1.32-1.724 2.727-2.828 3.13-2.453.402.375-.357 1.9-1.686 3.387-2.879 3.223-2.915 5.007-.215 10.446 3.657 7.368 4.744 7.888 6.953 3.33zm12.762-1.179c-.04-1.121-2.724-2.232-3.468-1.435-.792.85.66 2.5 2.151 2.449.743-.026 1.335-.482 1.317-1.014zm3.716-1.038c-.047-1.35-.013-1.566.717-4.493.46-1.845.1-3.904-1.183-6.777l-1.843-4.128.234 8.2c.139 4.877.613 8.187 1.17 8.167a.94.94 0 0 0 .905-.97zm-4.117-3.843c-.494-1.34-4.531-2.032-4.487-.769.047 1.338 1.174 2.057 3.118 1.99 1.018-.036 1.611-.565 1.37-1.221zm9.245-5.019c3.166-4.096.227-9.149-5.21-8.959-1.59.056-1.092 4.173.73 6.025.465.474.873 1.621.905 2.549.068 1.94 2.197 2.17 3.575.385zm-10.13-.345c-.018-.515-.429-.923-.914-.906-.485.017-1.127.462-1.428.988-.3.527.111.934.914.906.804-.028 1.446-.472 1.428-.988zm-57.308-2.04c-.006-.418-.424-.484-.928-.147-.505.336-.886 1.324-.847 2.195.073 1.677 1.803-.319 1.775-2.049zm51.78-2.457c-.623-3.664-.582-3.732 2.3-3.832 1.614-.057 2.921-.48 2.905-.94-.042-1.214-2.405-1.84-4.536-1.203-1.013.303-2.14.103-2.507-.445-3.494-5.237-5.537-.208-2.142 5.272 3.638 5.873 4.84 6.22 3.98 1.148zM67.947 64.34c-.018-.515-.598.138-1.29 1.452-.69 1.314-1.242 2.811-1.224 3.326.018.516.598-.138 1.29-1.452.691-1.314 1.242-2.81 1.224-3.326zm35.283 1.113c.3-.526-.321-.927-1.382-.89-1.061.038-1.915.49-1.897 1.005.017.515.64.916 1.383.89.743-.026 1.596-.478 1.896-1.005zm35.206 457.49c-.019-.515-.797-.91-1.731-.877-2.86.1-3.133-8.093-.309-9.274 1.168-.489 2.447-.713 2.841-.499 1.087.59 1.247 11.517.169 11.555a.94.94 0 0 1-.97-.904zm-91.946-13.68c-.336-.504.257-.947 1.318-.984 1.06-.037 1.944.354 1.962.87.018.515-.575.958-1.318.984-.742.025-1.625-.366-1.962-.87zm-7.223-5.376c-.018-.515 1.89-1.004 4.239-1.086 2.609-.091 4.059.223 3.725.808-.3.526-2.208 1.015-4.239 1.086-2.03.07-3.707-.293-3.725-.808zm1.743-3.813c-.018-.515 1.865-1.003 4.184-1.084 2.319-.081 4.23.274 4.249.79.018.515-1.865 1.003-4.184 1.084-2.319.08-4.23-.275-4.249-.79zm-.806-5.127c.366-1.24 12.043-1.652 12.492-.44.207.557-2.262 1.018-6.215 1.159-3.98.142-6.448-.14-6.277-.719zm70.132-10.94c-3.116-.59-7.67-1.02-10.118-.957-2.448.063-4.466-.307-4.484-.823-.045-1.286 9.622-.796 21.379 1.084.13.02.25.46.268.975.039 1.094.255 1.103-7.045-.279zm-60.397.992c-.071-.725-1.517-1.12-3.807-1.04-2.031.071-3.968-.283-4.304-.787-.337-.504-.166-.933.38-.952.636-.022.87-3.65.653-10.107-.186-5.54-.117-11.03.153-12.2 1.102-4.773 1.684-1.524 1.795 10.02.15 15.64 1.606 15.731 2.408.152.77-14.963.876-15.274 5.254-15.427 1.903-.066 3.903-.596 4.445-1.177.711-.763 1.746-.679 3.716.301 2.685 1.336 2.62 1.363-3.944 1.63-7.862.318-7.36-.71-7.835 16.06-.217 7.655-.006 10.516.772 10.49.665-.024 1.011-1.902.913-4.957-.086-2.706.264-5.568.78-6.36.672-1.034.828.348.55 4.906l-.384 6.345 6.399-.209c4.477-.146 5.987.079 5.026.748-.756.527-3.763 1.048-6.683 1.157-3.359.127-5.467.636-5.74 1.388-.346.95-.455.954-.547.02zm31.984-2.043c-2.712-.095-4.947-.627-4.966-1.183-.023-.646 1.238-.845 3.498-.552 1.944.252 4.483.43 5.643.394 1.16-.034 2.123.359 2.14.874.019.515-.285.87-.675.788-.39-.082-2.928-.226-5.64-.32zm8.19-.532c-.018-.516.835-.968 1.896-1.005 1.061-.037 1.683.364 1.383.89-.3.527-1.154.979-1.897 1.004-.742.026-1.364-.374-1.382-.89zm-60.336 1.46c2.245-.523 3.436-8.574 2.103-14.212-.427-1.804-.334-3.026.232-3.046 1.32-.046 1.805 3.052 1.711 10.963l-.08 6.804-2.973-.024c-2.003-.016-2.327-.175-.993-.485zm28.985-3.805c-.94-.876-.967-5.71-.037-6.33.436-.29.85 1.148.922 3.196.139 3.969.112 4.064-.885 3.134zm-23.314-5.417c-.128-3.393.156-5.236.752-4.896 1.221.697 1.442 7.01.311 8.901-.61 1.02-.918-.146-1.063-4.005zm19.746 2.1c-.274-.26-.412-2.406-.307-4.768l.191-4.294 7.457-.26c4.88-.17 7.261.08 6.893.726-.327.572-1.919.78-3.79.497-6.604-1.002-9.62.464-9.793 4.76-.085 2.096-.378 3.6-.651 3.339zm28.403-6.306c-.337-.504-.166-.932.38-.951.546-.02 1.007.387 1.025.902.018.515-.153.944-.38.952-.228.008-.689-.399-1.025-.903zm18.235-1.63c-.02-.546.396-.746.922-.446.527.3.964.732.972.96.008.227-.407.428-.923.446-.515.019-.952-.414-.971-.96zm-15.49-.342c-1.495-.58-1.1-.779 1.844-.922 2.06-.1 4.392.204 5.183.677 1.859 1.112-4.252 1.325-7.027.245zm12.18-.425c-.337-.504-.166-.932.38-.951.546-.02 1.007.387 1.025.902.017.515-.153.943-.38.951-.228.008-.689-.398-1.025-.902zm20.11-1.64a.94.94 0 0 1 .905-.97.94.94 0 0 1 .97.904.94.94 0 0 1-.905.97.94.94 0 0 1-.97-.904zm-20.84-5.84c-.054-1.545.323-2.825.838-2.843.516-.017.982 1.232 1.036 2.778.054 1.546-.324 2.826-.84 2.844-.515.019-.98-1.232-1.034-2.778zm-28.535-.504c-.364-.857-.458-1.777-.21-2.043.249-.267.75.216 1.114 1.074.364.857.458 1.777.21 2.043-.25.267-.75-.216-1.114-1.074zm16.159-4.691c-.018-.516 1.232-.982 2.778-1.036 1.546-.054 2.825.324 2.843.84.018.515-1.232.98-2.778 1.034-1.546.054-2.825-.323-2.843-.838zm-9.158-.327c.894-.267 2.37-.319 3.28-.115.91.204.178.423-1.625.486-1.804.063-2.549-.104-1.655-.371zm52.347-3.862c-1.993-1.169-4.435-11.254-2.884-11.913.68-.289 1.689-.267 2.24.048.552.314.99.175.973-.31-.06-1.685 4.037-2.147 5.805-.657 3.396 2.865 1.915 3.707-3.185 1.813-1.038-.385-1.649-.197-1.625.5.022.616 1.321 1.553 2.887 2.082 3.538 1.196 4.018 3.631.57 2.893-2.193-.47-2.354-.264-2.244 2.874.12 3.46-.348 3.953-2.537 2.67zm-70.594-3.25c-.118-2.217.141-2.938.827-2.299.662.617.72 1.709.172 3.23-.777 2.16-.837 2.104-.999-.931zm46.785-1.68a.94.94 0 0 1 .904-.97.94.94 0 0 1 .97.904.94.94 0 0 1-.904.97.94.94 0 0 1-.97-.905zm-21.542.115c-.038-.607-.754-1.743-1.592-2.524-1.385-1.292-1.241-1.437 1.586-1.598 1.71-.097 4.724-.308 6.698-.468 2.005-.163 4.055.233 4.646.897.852.957.109 1.18-3.801 1.138-3.868-.042-5.126.326-6.164 1.803-.718 1.02-1.335 1.358-1.373.752zm-29.472-3.646c.635-.282 1.69-.32 2.342-.082.654.238.134.469-1.154.514-1.289.045-1.823-.15-1.188-.432zm38.357-9.685c-.047-1.36.33-2.161.873-1.852.527.3.986 1.365 1.021 2.365.035 1-.358 1.834-.873 1.852-.516.019-.975-1.047-1.021-2.365zm-23.777-2.133c-3.11-.36-2.563-2.051.7-2.165 1.408-.05 2.305.46 2.335 1.325.027.773-.058 1.346-.19 1.273-.131-.073-1.412-.268-2.845-.433zm12.857-1.652c-.348-.522.444-.954 1.841-1.002 1.397-.05 2.218.326 1.907.871-.3.527-1.13.978-1.841 1.003-.713.024-1.57-.368-1.907-.872zm-26.267-.02c-.356-.534.564-.959 2.199-1.016 1.546-.054 3.086.315 3.423.819.356.533-.564.958-2.2 1.015-1.545.054-3.085-.314-3.422-.819zm-22.171-3.91c-.067-1.92 4.772-3 15.022-3.359 9.335-.326 10.285-.203 10.013 1.292-.166.909-.914 1.532-1.662 1.385-2.704-.53-16.439.07-19.848.867-2.288.536-3.501.472-3.524-.186zm17.539-8.137c-.054-1.546.323-2.826.839-2.844.515-.019.98 1.233 1.035 2.779.054 1.545-.324 2.825-.839 2.843-.515.019-.981-1.232-1.035-2.778zm-15.78.551c-.045-1.288.15-1.823.432-1.188.282.635.319 1.69.081 2.343-.237.653-.468.133-.513-1.155zm20.075-11.87c-.287-8.228.144-10.401 2.08-10.468.96-.033 1.366 1.381 1.536 5.34l.23 5.386 1.275-2.859c1.126-2.523 1.23-2.582.891-.5-.211 1.297-.354 3.392-.317 4.655.053 1.785-.19 2.055-1.096 1.21-1.502-1.4-2.476-1.347-2.37.13.206 2.848-.165 4.462-1.033 4.492-.546.02-1.045-3.065-1.196-7.386zm2.431-2.724c-.27-.903-.461-.377-.426 1.17.035 1.547.255 2.286.49 1.642.234-.643.206-1.908-.064-2.812zm2.152 9.34c-1.092-1.017-.718-2.137.731-2.188.773-.027 1.42.348 1.436.833.041 1.18-1.392 2.078-2.167 1.356zm9.245-3.658c-.352-1.149-.744-3.562-.871-5.363-.208-2.927-.34-2.723-1.248 1.92l-1.015 5.194-.275-4.86c-.319-5.63.049-6.047 4.796-5.446 3.458.438 4.75 6.342 1.661 7.589-.466.188-.826.94-.8 1.67.073 2.103-1.545 1.597-2.248-.704zm3.034-3.624a.94.94 0 0 0-.97-.904c-.515.017-.922.454-.904.97s.455.922.97.904a.94.94 0 0 0 .904-.97zm-20.75 1.548c-.302-2.306-.823-3.072-1.937-2.85-1.384.277-3.334-2.222-2.464-3.155 2.294-2.46 5.76-.698 6.169 3.137.526 4.928-1.143 7.637-1.768 2.868zm11.388-1.009c-.074-2.117.288-4.13.804-4.475.618-.413.775.762.459 3.447-.634 5.382-1.098 5.76-1.263 1.028zm-28.098 3.115c-.085-.513-.38-2.72-.654-4.902l-.499-3.97 4.67-.163c3.593-.125 5.172.306 6.851 1.872l2.182 2.034-2.52.38c-1.386.21-3.372-.038-4.414-.55-3-1.472-4.724-1.075-4.119.949.293.98.111 2.568-.405 3.531-.516.963-1.007 1.332-1.092.819zm2.973-11.771c-.846-1.269 7.862-6.136 10.06-5.622 2.722.637 6.828 3.776 6.042 4.62-.363.389-2.338.218-4.39-.38-3.193-.933-4.262-.853-7.449.553-2.046.903-3.964 1.276-4.262.829zm27.784-5.34c-.117-1.237.164-2.262.624-2.278 1.013-.035 1.248 3.42.278 4.067-.378.252-.784-.554-.902-1.79zm-41.89-1.497c.316-4.364.66-5.659 1.3-4.892.633.758-.187 9.31-.895 9.334-.4.013-.582-1.985-.405-4.442zm3.163 3.408c-.018-.516.364-.951.848-.968.485-.016 1.157.382 1.494.886.336.504-.046.94-.85.968-.802.028-1.474-.37-1.492-.886zm2.258-6.411c.277-2.69.134-3.187-.601-2.09-.798 1.19-1.115 1.226-1.825.206-1.44-2.07-4.337-.715-4.566 2.136-.113 1.418-.65 2.594-1.19 2.613-.564.02-.774-.875-.493-2.093.27-1.17.463-3.105.428-4.3-.05-1.743.311-2.067 1.832-1.642 1.667.466 1.881.1 1.782-3.048-.061-1.967.114-4.64.39-5.94.374-1.763.234-2.098-.55-1.319-.578.574-1.202 2.679-1.388 4.677-.581 6.271-1.475 5.043-1-1.373.491-6.625.88-7.687 2.128-5.816 1.228 1.84 6.58.159 7.492-2.353l.744-2.049.13 2.028c.072 1.116.665 2.205 1.317 2.422.667.222.074.882-1.354 1.51-1.912.839-2.522 1.759-2.464 3.715.042 1.43-.338 3.248-.843 4.04-.687 1.076-.881.492-.77-2.319.217-5.49-1.647-5.45-2.238.048-.577 5.364-.582 5.354 2.695 5.425 1.971.043 2.37.427 2.018 1.945-.24 1.04-.402 3.051-.36 4.468.043 1.418-.318 2.591-.8 2.608-.484.016-.715-1.558-.514-3.5zm36.43.322c-.941-1.41.246-2.381 1.49-1.22.697.649.731 1.172.105 1.59-.513.343-1.231.176-1.595-.37zm-28.727-4.164c-.065-1.834.242-3.13.68-2.88.755.431.567 6.175-.202 6.202-.199.008-.414-1.488-.478-3.322zm19.512-5.372c-.029-.803.38-1.215.906-.914.526.3.97.943.988 1.428.016.485-.391.896-.907.914-.515.02-.96-.624-.987-1.428zm-11.29-.97a.94.94 0 0 1 .905-.97.94.94 0 0 1 .97.905.94.94 0 0 1-.905.97.94.94 0 0 1-.97-.905zm83.266-6.635c-1.019-.595-1.15-1.134-.457-1.877 1.227-1.316 4.122-.38 4.183 1.353.052 1.5-1.647 1.739-3.726.524zm-88.35-.513c-2.251-2.144-2.75-7.77-.937-10.571 1.436-2.217 1.472-2.101 1.13 3.584-.248 4.106-.032 5.864.716 5.838.589-.02 1.048-.686 1.02-1.48-.167-4.78 1.5-19.816 2.53-22.81l1.22-3.55-.195 4.697c-.169 4.073-.64 8.945-2.208 22.825-.388 3.43-.95 3.682-3.276 1.466zm8.573-4.383c.407-2.162.946-4.292 1.198-4.732.251-.441.036-.787-.48-.769-1.333.046-2.22 1.898-2.46 5.135-.48 6.455-1.281 3.278-.911-3.61.427-7.943 1.956-12.018 2.174-5.792.1 2.868.41 3.445 1.586 2.947.804-.342 1.639-.627 1.854-.635.216-.008.376-.46.357-1.005-.019-.546-.447-.717-.95-.38-1.27.846-1.243-4.381.057-11.26 1.17-6.192 1.569-3.934.717 4.051-.382 3.574-.213 5.145.582 5.42 1.159.398.266 9.631-1.033 10.688-.33.27-.848 1.237-1.15 2.15-1.114 3.38-2.279 1.711-1.54-2.209zm-21.498-.035c-.063-1.803.104-2.548.372-1.654.267.893.318 2.369.114 3.279-.204.91-.423.179-.486-1.625zm29.797-.102c-.036-1.03.357-1.889.872-1.907s.966.81 1.002 1.841c.036 1.03-.356 1.889-.871 1.907-.516.019-.967-.81-1.003-1.841zm-21.313-9.055c.07-6.166.503-13.568.964-16.45.461-2.882.795-7.982.742-11.334-.133-8.39.023-10.32.84-10.349 1.029-.037 1.17 18.236.168 21.823-.47 1.683-.998 6.865-1.173 11.514-.522 13.89-1.683 17.502-1.54 4.795zm-12.963 6.265c.715-7.142 2.312-26.044 2.28-26.974-.02-.557.323-1.025.761-1.04.439-.015.515 2.198.169 4.92-.346 2.72-.68 8.84-.744 13.598-.099 7.456-1.062 12.496-2.395 12.542-.207.008-.24-1.363-.07-3.046zm31.454.465c.007-1.093.221-1.323.547-.586.294.667.289 1.476-.012 1.798-.3.323-.54-.223-.535-1.212zm12.468-8.096c-.243-.379-.37-1.746-.28-3.04.088-1.292.189-3.09.223-3.994.146-3.853 1.95-1.296 2.1 2.975.145 4.163-.785 6.011-2.043 4.059zm-34.197-4.67c.247-2.846.61-8.043.805-11.55.196-3.505.708-6.609 1.137-6.895 1.082-.722 1.049.857-.26 12.496-1.183 10.51-2.473 15.078-1.682 5.95zm-4.745-1.71c.2-1.812.66-8.16 1.023-14.107.701-11.503 2.32-21.985 1.966-12.733-.47 12.286-1.807 27.41-2.54 28.7-.552.976-.696.38-.45-1.86zm20.697-3.78c.62-6.723 1.167-6.936 1.181-.462.007 2.94-.359 5.358-.812 5.374-.454.016-.62-2.194-.37-4.912zm5.944 3.294c-.733-.684-.093-10.156.753-11.14.396-.46.582 1.854.412 5.145-.33 6.397-.391 6.716-1.165 5.995zm3.483-2.063c-1.032-2.433-.937-8.645.144-9.366.703-.469.853.203.49 2.183-.307 1.68-.106 3.1.49 3.44 1.233.703 1.45 3.895.315 4.652-.451.301-1.099-.108-1.439-.91zm-17.704-2.57c.125-2.073.563-3.78.974-3.795.41-.015.951-2.566 1.202-5.67.251-3.103.793-5.45 1.204-5.215.907.518.51 8.643-.552 11.289-.42 1.046-.851 2.928-.958 4.18-.341 4.01-2.114 3.26-1.87-.79zm5.703-16.782c-.543-25.501-.522-26.56.54-26.596.657-.023.973 1.743.874 4.894-.084 2.712.276 5.126.8 5.366.55.252 1.008-1.447 1.083-4.025.072-2.453.48-4.472.908-4.487.428-.015.68 2.826.56 6.312-.26 7.626-.577 8.908-1.521 6.15-.393-1.146-1.08-2.072-1.525-2.056-1.267.044-1.937 4.65-.859 5.905 1.121 1.304 1.254 18.905.16 21.032-.4.776-.857-4.823-1.02-12.496zm4.233 5.873c.119-2.197.636-4.431 1.148-4.965.637-.663.78.038.45 2.212-.265 1.75-.454 3.974-.42 4.94.034.966-.266 1.768-.666 1.782-.4.013-.63-1.772-.512-3.969zm17.036-.36c-.036-1.03.33-1.888.813-1.905.484-.016.845.815.803 1.848-.041 1.034-.407 1.89-.813 1.905-.405.015-.767-.818-.803-1.848zm-.13-3.748c-.019-.515.388-.952.904-.97s.951.39.97.905a.94.94 0 0 1-.905.97.94.94 0 0 1-.97-.905zm-33.446-7.04c.384-10.025 1.661-19.054 2.7-19.09.523-.02.718.646.432 1.476-.285.83-.835 6.548-1.221 12.707-.738 11.754-2.33 15.844-1.91 4.908zm25.818 3.554a.94.94 0 0 1 .905-.97.94.94 0 0 1 .97.905.94.94 0 0 1-.905.97.94.94 0 0 1-.97-.905zm-17.876-1.95c-.041-1.417.311-3.224.784-4.014.63-1.052.9-.371 1.012 2.544.085 2.19-.268 3.996-.783 4.014-.515.02-.971-1.127-1.013-2.544zm11.34.073c.177-3.972 1.396-5.795 1.605-2.4.119 1.93-.206 3.524-.721 3.542-.515.019-.913-.496-.885-1.142zm-1.924-3.92c-.035-1.546.157-2.072.426-1.169.27.903.298 2.169.064 2.812-.235.643-.455-.096-.49-1.642zm9.137-1.726a.94.94 0 0 1 .905-.97c.515-.018.951.39.97.905s-.39.952-.905.97a.94.94 0 0 1-.97-.905zM37.4 315.398c-.085-3.196.963-5.848 1.818-4.599.576.843.813.44.762-1.299-.04-1.387.34-2.797.843-3.134 1.955-1.304 1.024 4.934-1.14 7.633-1.424 1.78-2.259 2.29-2.283 1.399zm19.716-1.236c.007-1.093.221-1.323.547-.586.294.667.289 1.476-.012 1.799-.3.322-.54-.224-.535-1.213zm-2.82-2.638c-.088-2.06.174-4.602.58-5.648.993-2.551 1.209 3.617.246 7.027-.574 2.035-.69 1.84-.827-1.378zm5.549-.372c-.127-2.158.182-4.2.686-4.536 1.069-.713 1.186 2.642.213 6.09-.571 2.023-.702 1.796-.899-1.554zm-8.46-.933c-.125-2.317.16-4.86.632-5.65 1.073-1.795 1.272 3.913.262 7.495-.554 1.964-.707 1.648-.895-1.845zm10.973-.375c.125-2.073.63-3.783 1.122-3.8 1.194-.042.819 6.774-.397 7.22-.583.213-.864-1.114-.725-3.42zm-33.07-1.237c.24-2.567.793-5.085 1.229-5.595.46-.538.61 1.034.356 3.74-.24 2.567-.793 5.085-1.23 5.595-.46.538-.609-1.034-.356-3.74zm27.711 1.65c.099-4.471 1.373-6.378 1.605-2.401.128 2.188-.189 3.993-.704 4.011-.515.02-.92-.706-.9-1.61zm10.074-4.338a.94.94 0 0 1 .904-.97c.516-.019.952.39.97.904s-.389.952-.904.97a.94.94 0 0 1-.97-.904zm14.743-7.629c-.046-1.33.374-2.285.935-2.12.56.166.998.608.972.983-.026.375-.025 1.314.002 2.087.027.773-.372 1.42-.887 1.438-.516.019-.975-1.056-1.022-2.388zm17.806-.488c-.025-.743.366-1.625.87-1.962.504-.336.947.256.984 1.318.037 1.06-.354 1.943-.87 1.961-.515.017-.958-.574-.984-1.317zm-68.925-3.746c.202-3.36.708-6.966 1.124-8.013.479-1.202.634.283.423 4.036-.183 3.266-.69 6.872-1.124 8.013-.528 1.386-.669.046-.423-4.036zm9.328 4.287c-.578-.866 2.394-1.631 10.445-2.686l6.708-.88.372-5.76c.204-3.17.438-8.163.52-11.1.081-2.935.426-5.825.766-6.42.34-.597.467-1.173.283-1.282-.185-.108-1.976-.968-3.982-1.909-7.703-3.616-7.287-5.755.56-2.88 7.22 2.644 7.69 3.146 6.594 7.037-.49 1.741-1.229 7.712-1.641 13.268-.413 5.556-1.208 10.495-1.766 10.975-1.236 1.065-18.255 2.542-18.859 1.637zm-5.803-3.237c.23-1.427.622-4.607.872-7.066s.876-4.487 1.392-4.505c.579-.02.763 1.677.482 4.44-.769 7.553-1.252 9.658-2.227 9.692-.52.02-.751-1.12-.52-2.561zm57.986-3.73c-.339-.797-.154-1.943.41-2.547.762-.818 1.046-.453 1.112 1.431.098 2.82-.587 3.321-1.522 1.116zm-49.145-1.449c-.14-4.011 1.194-5.888 2.193-3.083.6 1.685-.572 6.724-1.573 6.759-.27.008-.55-1.645-.62-3.676zm11.046 1.473c-.698-2.332-.024-5.665 1.152-5.706.494-.017.649 1.499.358 3.505-.63 4.35-.795 4.59-1.51 2.2zm14.266-4.71c-.191-3.417.026-4.369.825-3.623.773.72.847 2.055.26 4.634l-.827 3.623-.258-4.634zM32.46 281.8a.94.94 0 0 1 .904-.97.94.94 0 0 1 .97.904.94.94 0 0 1-.905.97.94.94 0 0 1-.97-.904zm10.695-.154c-.577-.359-1.353-1.974-1.726-3.588l-.678-2.936 5.856-1.232c8.486-1.785 9.822-1.723 9.337.436-.43 1.915-2.77 2.964-6.986 3.132-2.383.095-3.1 1.245-2.548 4.089.173.89-1.884.953-3.255.1zm1.029-4.243c-.283-.635-.477-.1-.432 1.188.045 1.288.276 1.808.513 1.155.238-.654.201-1.708-.081-2.343zm37.304 1.322c-.705-1.66.277-3.56 1.484-2.87 1.213.692 1.255 4.137.052 4.179-.532.019-1.223-.57-1.536-1.309zm24.825-4.195c-.054-1.546.323-2.825.838-2.843.516-.02.982 1.232 1.036 2.778.054 1.546-.324 2.825-.84 2.843-.515.02-.98-1.232-1.034-2.778zm-73.002 2.08c-.252-4.092.623-9.871 1.499-9.902.791-.027.447 5.035-.671 9.873l-.656 2.838-.172-2.809zm91.773-1.812c-.791-.48-3.034-1.256-4.985-1.724-3.483-.834-4.47-1.965-2.728-3.128.484-.323 1.648-.223 2.588.223.94.445 2.883 1.226 4.32 1.736 1.437.51 2.635 1.57 2.662 2.354.058 1.67.02 1.68-1.857.54zm-82.475-3.83c.417-1.416 7.06-4.01 8.364-3.266 1.165.665-4.49 4.13-6.975 4.274-.944.055-1.57-.399-1.39-1.008zm39.13-1.677c-.026-.773.373-1.42.889-1.438s.959.6.986 1.372c.026.773-.373 1.42-.888 1.438-.516.02-.96-.6-.986-1.372zm12.96-7.097c.007-1.093.22-1.323.546-.586.294.667.29 1.476-.011 1.798-.3.322-.541-.223-.535-1.212zm.086-8.837c.3-.526.732-.964.96-.972.227-.008.427.408.445.923.02.515-.413.952-.96.972-.545.02-.745-.397-.445-.923zm-31.852-3.265c-1.01-.942-.966-6.668.056-7.35.56-.374.975 1.05 1.066 3.66.152 4.343.025 4.76-1.122 3.69zm42.398-3.67-.114-3.279c-.008-.258.297-.374.68-.258 1.046.315 1.438 6.282.416 6.317-.486.017-.928-1.234-.982-2.78zm-22.569 2.219c-.762-.71.046-7.999.89-8.028 1.074-.037 1.355 7.182.307 7.882-.434.29-.973.355-1.197.146zm-28.858-10.7c-.336-.504-.165-.933.38-.952.546-.02 1.007.387 1.025.903.018.515-.153.943-.38.951-.227.008-.689-.398-1.025-.902zm40.422-2.037c-1.026-.957-.964-6.846.072-6.882.516-.019.996 1.654 1.068 3.715.134 3.83-.008 4.223-1.14 3.167zm-40.1-2.196c-.046-1.288.28-2.355.724-2.37.444-.016.643 1.033.441 2.33s-.527 2.363-.725 2.37c-.197.008-.396-1.042-.44-2.33zm-15.123-6.273c.267-2.976.51-6.678.54-8.227l.055-2.816 1.076 2.666c.738 1.827.81 3.653.232 5.806-.708 2.63-.593 3.198.706 3.495 1.35.309 1.34.376-.085.52-.976.1-1.61.922-1.57 2.04.036 1.031-.273 1.886-.687 1.9-.413.016-.534-2.408-.267-5.384zm-3.652-3.625c.067-4-.015-5.897-.182-4.215s-.729 3.075-1.248 3.093c-.863.03-.839-1.174.235-11.734.105-1.036.179-3.255.163-4.93-.018-1.982.44-3.065 1.312-3.095 1.065-.037 1.183.581.574 3.022-1.298 5.207-.736 8.524.752 4.436l1.21-3.326-.257 4.7c-.141 2.584-.407 7.976-.59 11.98-.184 4.006-.73 7.296-1.213 7.313-.504.017-.827-3.072-.756-7.243zm68.822 1.428c-.962-.897-.93-4.971.037-5.005.934-.032 2.053 2.192 2.124 4.224.049 1.398-1.067 1.8-2.161.78zm-23.994-2.53c.105-1.685.608-3.18 1.12-3.323.51-.143.9.163.867.68-.033.517-.087 1.996-.12 3.287-.032 1.291-.508 2.363-1.058 2.382-.565.02-.917-1.297-.81-3.027zm-17.06-.102c-.054-1.546.323-2.825.838-2.843s.982 1.232 1.036 2.778c.054 1.546-.324 2.825-.84 2.843-.515.02-.98-1.232-1.034-2.778zm-12.798-4.794c-.92-1.302-1.902-2.122-2.182-1.822-.28.3.047 1.17.727 1.932 1.021 1.147.967 1.396-.315 1.44-2.095.074-2.885-2.125-1.66-4.619.806-1.643 1.547-1.945 3.77-1.537 1.78.326 2.754.131 2.73-.548-.023-.66-1.637-.915-4.314-.683-4.887.425-6.012-.567-6.205-5.469-.192-4.872-.994-2.915-1.35 3.296-.175 3.039-.503 5.723-.729 5.966-.793.85-.647-7.876.195-11.62.467-2.08.926-4.514 1.02-5.41.595-5.695 2.9.875 2.56 7.293l-.194 3.628 4.212-.277c2.317-.152 5.467-.605 7-1.005 1.534-.4 3.731-.954 4.882-1.231 2.22-.534 2.854-3.798.853-4.388-.857-.253-.914-1.893-.246-7.052 1.028-7.942.978-13.208-.114-11.908-.424.505-1.101 4.905-1.505 9.778-.797 9.633-1.056 10.251-4.5 10.761-2.271.337-2.317.222-2.548-6.4-.145-4.145-.703-7.18-1.448-7.877-.97-.907-1.198-.581-1.144 1.632.06 2.41-.068 2.55-.99 1.084-.581-.925-.874-2.497-.65-3.494.224-.997.044-2.02-.399-2.273-.443-.253-1.007 1.56-1.252 4.03-.64 6.44-.99 7.005-1.25 2.016-.131-2.55-.72-4.556-1.414-4.817-1.772-.666 1.84-3.484 4.59-3.58 5.043-.176 14.154-3.654 14.093-5.379-.038-1.084.643-1.702 1.924-1.747 1.614-.057 1.883.327 1.442 2.06-2.69 10.585-3.625 22.523-1.806 23.06 4.323 1.274.49 6.533-5.204 7.138l-4.187.445.386 3.43c.212 1.886-.041 3.714-.562 4.062-.535.357-.977-.208-1.015-1.297-.073-2.1-1.454-2.528-2.461-.763-.391.685-.228.837.427.399.695-.464 1.087.118 1.142 1.691.105 3.003-.222 3.011-2.31.055zm-7.052-1.626c.007-1.093.222-1.323.547-.586.294.667.289 1.476-.012 1.798-.3.322-.54-.223-.535-1.212zm50.294-8.245c-.048-1.397.327-2.218.872-1.907.526.3.977 1.13 1.002 1.842.025.712-.367 1.57-.871 1.906-.522.349-.954-.444-1.003-1.84zm8.335-3.105c-.045-1.288.34-2.357.855-2.375.515-.017.974 1.021 1.018 2.31.045 1.288-.34 2.356-.855 2.374-.515.02-.973-1.02-1.018-2.31zm-20.923-8.181c-.054-1.546.323-2.826.838-2.844.516-.017.982 1.232 1.036 2.778.054 1.546-.324 2.826-.84 2.844s-.98-1.232-1.034-2.778zm-45.038-.304a.94.94 0 0 1 .904-.97.94.94 0 0 1 .97.905.94.94 0 0 1-.905.97.94.94 0 0 1-.97-.905zm33.846-7.135c.031-1.37.373-2.501.76-2.515.951-.034.934 2.013-.031 3.662-.563.962-.77.635-.73-1.147zm23.026-2.88c-.046-1.318.306-2.174.783-1.902.477.272.677 1.345.443 2.385-.584 2.601-1.126 2.388-1.226-.483zm10.979-8.38c-.105-3.258.146-4.623.7-3.812.894 1.308.875 7.373-.026 8.34-.281.301-.585-1.736-.674-4.527zm10.894 3.45c-.337-.504-.166-.932.38-.95.546-.02 1.007.386 1.025.902.018.515-.153.943-.38.95-.228.009-.689-.397-1.025-.901zm-71.806-1.244c-.06-1.71.295-2.695.855-2.375.526.3.985 1.34 1.018 2.31.034.97-.35 2.038-.855 2.374-.536.358-.959-.6-1.018-2.31zm3.8 1.399c-.038-1.114 7.77-5.62 9.418-5.435 3.117.35 3.263 2.517.18 2.66-1.46.067-3.451.77-4.425 1.561-1.573 1.278-5.14 2.116-5.172 1.214zm34.55-4.56c-.035-1 .246-2.024.624-2.277.378-.252.723.555.766 1.794.043 1.24-.238 2.264-.624 2.278-.387.012-.731-.794-.766-1.794zm-62.041-41.53c-.395-1.368-.247-3.401.335-4.585.574-1.17.89-2.732.702-3.47-.218-.857.547-1.478 2.11-1.715 1.347-.204 3.383-1.436 4.523-2.737 3.566-4.073 5.533-3.298 5.041 1.985-.524 5.623-1.943 7.536-2.106 2.841-.229-6.543-7.16-1.326-7.48 5.63-.198 4.329-2.107 5.582-3.125 2.052zm87.623-4.93c-.045-1.288.34-2.357.855-2.375.515-.019.974 1.022 1.019 2.31.045 1.288-.34 2.357-.856 2.375-.515.02-.973-1.021-1.018-2.31zm30.666.65c-1.022-.953-.934-5.91.105-5.945.515-.018.988 1.443 1.051 3.246.118 3.37-.04 3.74-1.156 2.698zm-44.863-4.244c-.09-2.567-.316-2.695-5.4-3.04-7.444-.507-9.332-2.562-2.07-2.254 6.598.28 14.571 7.73 8.5 7.941-.515.017-.979-1.173-1.03-2.647zm-44.541.486c-.685-1.026 4.422-2.877 10.507-3.809 3.746-.573 4.934-.487 4.47.326-.347.608-1.804 1.147-3.238 1.197s-4.55.751-6.927 1.558c-2.376.806-4.542 1.134-4.813.728zm84.725-4.89c-.02-.585 1.166-.848 2.88-.638 4.24.517 4.573 1.371.59 1.51-1.89.066-3.451-.327-3.47-.873zm-45.062-4.473c-1.163-1.822-2.142-4.131-2.177-5.132-.055-1.564-.735-1.797-4.827-1.654-3.395.118-4.661-.174-4.41-1.019.438-1.47 9.773-1.67 11.305-.241.758.707.738.993-.07 1.021-1.63.057-1.275 2.05.815 4.58 2.086 2.526 4.215.27 3.204-3.396-.489-1.773 2.517-6.992 3.5-6.076.285.266.104 3.644-.403 7.505-1.124 8.563-3.375 9.995-6.938 4.412zm-14-.151c-1.421-1.326-1.62-3.52-.323-3.566a.94.94 0 0 1 .97.905c.059 1.695 1.679.92 2.112-1.012.234-1.04.887-1.907 1.452-1.927.706-.025.679.911-.085 2.988-1.269 3.448-2.436 4.187-4.125 2.612zm28.545-4.928c-2.945-.476-5.715-1.22-6.155-1.651-.449-.44.445-.596 2.028-.355 1.556.237 5.052.626 7.768.864 2.716.24 5.189.808 5.493 1.265.691 1.035-2.208.996-9.134-.123zm-53.993-2.53c.615-3.752 1.105-4.372 2.458-3.11 1.596 1.489.797 5.348-1.201 5.802-1.534.348-1.698-.002-1.257-2.692zm65.603-56.543c-4.187-1.728-8.518-7.067-8.018-9.885.221-1.25.744-.865 2.113 1.558 2.353 4.166 6.11 7.069 9.96 7.697 1.685.275 3.078.874 3.094 1.332.047 1.33-2.936 1.036-7.15-.702zm-12.946-3.927c-.4-.38-.787-2.39-.86-4.468-.093-2.68.17-3.498.904-2.813.57.531.957 2.542.86 4.468-.097 1.926-.504 3.191-.904 2.813zm-42.362-.406c-.341-.805-.648-2.258-.682-3.23-.042-1.182-.519-1.574-1.44-1.183-2.11.894-2.836-2.078-1.176-4.814 1.276-2.105 6.95-5.62 12.915-8.003 1.85-.739 1.85-.739-.04-1.105-2.466-.479-3.313-1.794-3.455-5.365-.128-3.2 5.593-5.288 9.386-3.426 1.141.56 2.954.306 5.653-.793 6.445-2.625 7.215-2.814 7.25-1.78.02.54-.904 1.288-2.052 1.662-10.391 3.384-11.06 7.798-1.277 8.418 3.53.224 7.703.728 9.274 1.12 4.045 1.008 4.758-14.643 1.295-28.4-.628-2.496-.54-2.561 3.619-2.707 5.181-.18 5.71.807 4.693 8.749-.398 3.109-.525 11.426-.281 18.48.26 7.536.064 13.08-.474 13.44-.598.398-1.106-4.799-1.459-14.903-.318-9.115-.907-15.502-1.427-15.484-.513.018-.657 4.36-.343 10.33.299 5.666.226 10.312-.16 10.325-.386.013-.565 3.959-.397 8.768.337 9.653.088 10.432-2.86 8.958-3.486-1.744-22.994-1.311-28.929.641-6.378 2.098-6.863 2.117-7.634.3zM71.029 45.9c5.003-1.319 20.322-1.505 23.763-.29 1.451.513 1.64-.02 1.495-4.197-.153-4.368-.355-4.778-2.322-4.71-1.185.042-2.591-.331-3.124-.828-.533-.497-2.723-.911-4.867-.92-4.932-.021-7.699-1.43-3.1-1.58 3.012-.098 6.505.464 12.027 1.935 1.178.313 2.116.165 2.1-.331-.193-5.497-33.702-2.874-35.366 2.768-.25.848.057 1.06.887.61.7-.378.347.05-.783.95-2.668 2.126-2.722 5.565-.073 4.622 1.063-.38 1.868-.234 1.888.34.02.55-.913 1.046-2.072 1.103-2.057.1-2.063.134-.234 1.42 1.03.724 2.521 1.117 3.314.874.792-.243 3.702-1.038 6.467-1.766zm.632-11.232c.756-.527 2.428-.994 3.716-1.04 1.854-.064 2.056.118.969.876-.755.527-2.428.994-3.716 1.04-1.854.064-2.056-.118-.969-.876zm-13.457 7.27a59.04 59.04 0 0 1 1.077-3.086c.386-.99-.039-.86-1.393.429-1.964 1.87-2.565 4.4-1.032 4.346.455-.016 1.062-.775 1.348-1.688zm15.577-11.665c.805-.342 1.435-1.419 1.4-2.394-.086-2.477-1.278-2.157-2.468.662-1.094 2.594-1.067 2.638 1.068 1.732zm39.132 17.026c-.347-.52.426-.953 1.786-1 1.319-.047 2.412.337 2.43.852.02.516-.785.966-1.785 1s-2.094-.348-2.43-.852z"/></svg>