<svg id="object" xmlns="http://www.w3.org/2000/svg" viewBox="0 0 100 100"><g id="_19" data-name="19"><path d="M90.735,5.231a1,1,0,0,0-1.082.192L76.9,17.465,64.125,5.418a1.021,1.021,0,0,0-.278-.187,1.007,1.007,0,0,0-1.083.191L50,17.465,37.236,5.422a1.833,1.833,0,0,0-.29-.191,1.007,1.007,0,0,0-1.083.191L23.1,17.465,10.347,5.423A1,1,0,0,0,8.66,6.15V81.16a1,1,0,0,0,.314.727l13.439,12.69a1,1,0,0,0,1.373,0L36.549,82.535,49.313,94.578a1,1,0,0,0,1.374,0L63.45,82.535,76.214,94.578a1,1,0,0,0,1.373,0l13.439-12.69a1,1,0,0,0,.314-.727V6.15A1,1,0,0,0,90.735,5.231ZM89.34,37.074a13.212,13.212,0,0,1-3.066-4.1C84.84,29.2,84.035,25,89.34,15.776Zm-28.354.584a1.975,1.975,0,0,0,1.464.244V49.765a28.463,28.463,0,0,1-3.424-2.62c-2.752-2.592-4.63-10.619-.007-18.293C58.792,32.146,58.938,36.405,60.986,37.658Zm3.464-.737q.358-.249.713-.508c1.228-.9,2.614-1.92,3.622-1.484.892.383,2.551,2.288,3.647,10.75C74,57.82,72.087,60.792,71.216,60.912c-.638.085-1.813-1.158-2.082-2.988-.46-3.128-2.436-5.08-4.684-6.749Zm0,16.808a7.2,7.2,0,0,1,2.7,4.486c.348,2.361,2,4.7,3.987,4.7a2.414,2.414,0,0,0,.348-.024c3.286-.455,4.325-6.659,2.926-17.471-.973-7.508-2.466-11.311-4.841-12.331-1.859-.8-3.635.3-5.125,1.369V8.469L75.9,19.267v72.26L64.45,80.728ZM33.251,82.9c-3.564-13.69-4.638-19.912,2.286-21.9l.013,0V80.729Zm4.3-22.219c.022,0,.045-.005.067-.005a4.906,4.906,0,0,1,4.364,2.573c1.8,2.929,1.7,7.223.759,8.582a37.8,37.8,0,0,0-4.432,9.616l-.758-.715Zm6.827,12.3,0,0c1.458-2.092,1.472-7.255-.7-10.775a6.925,6.925,0,0,0-6.135-3.523v-34.5a.978.978,0,0,0,.5-.186,7.788,7.788,0,0,1,2.3-1.285,1,1,0,0,0-.58-1.915A8.543,8.543,0,0,0,37.55,21.9V8.469L49,19.272V44.53a.981.981,0,0,0-.862-.1,1,1,0,0,0-.589,1.286c.344.924.72,1.872,1.126,2.833a.986.986,0,0,0,.325.405V91.532l-9.049-8.538A36.235,36.235,0,0,1,44.377,72.976ZM35.55,24.24a1,1,0,0,0-1.057.217c-.669.657-1.377,1.409-2.106,2.235a1,1,0,1,0,1.5,1.324c.576-.651,1.13-1.238,1.665-1.779V58.946c-.189.044-.381.069-.567.123-9.252,2.664-6.98,11.706-3.39,25.393L24.1,91.527V46.332c.033-.1.061-.2.093-.3a.983.983,0,0,0-.093-.809V43.862a1.189,1.189,0,0,0,.128.023,1,1,0,0,0,.94-.657q.508-1.388,1.076-2.761A1,1,0,0,0,24.4,39.7c-.1.251-.194.507-.3.759V19.267L35.55,8.468ZM14.073,41.975a6.97,6.97,0,0,1,1.641,3.362,5.126,5.126,0,0,1-1.045,3.822,6.286,6.286,0,0,1-4.009,1.883V23.775c2.893,3.316,2.3,6.4,1.67,9.628-.143.737-.283,1.464-.381,2.181C11.555,38.475,12.893,40.334,14.073,41.975ZM10.66,66.161a.972.972,0,0,0,.448-.173,1,1,0,0,0,.213-1.4c-.212-.288-.436-.617-.661-.952V53.057a8.368,8.368,0,0,0,5.526-2.595,6.984,6.984,0,0,0,1.52-5.3,8.661,8.661,0,0,0-2.01-4.357c-1.1-1.531-2.051-2.852-1.764-4.953.092-.681.226-1.372.362-2.071.748-3.864,1.577-8.233-3.634-12.809V8.469L22.1,19.276V46.023c-.245.763-.488,1.526-.715,2.28a1,1,0,0,0,.67,1.245c.015,0,.03,0,.045.007v1.127a.966.966,0,0,0-.324-.166,1,1,0,0,0-1.232.693c-.277.991-.542,1.964-.8,2.911a1,1,0,0,0,.707,1.225,1.015,1.015,0,0,0,.26.034,1,1,0,0,0,.965-.741c.134-.5.28-1.025.42-1.54V91.535L10.66,80.729ZM51,91.532V53.5c.1.188.183.376.281.563a1,1,0,1,0,1.77-.933c-.464-.88-.906-1.766-1.325-2.649A.983.983,0,0,0,51,49.938V19.272l11.45-10.8V35.812a.871.871,0,0,1-.42.14c-1.32-.808-1.335-6.134-.592-10.6a1,1,0,0,0-1.744-.817c-7.659,8.89-6.349,20.011-2.039,24.07a31.214,31.214,0,0,0,3.808,2.913c.336.231.665.457.987.683V65.69c-.275-.235-.551-.469-.825-.724a1,1,0,1,0-1.363,1.464,24.95,24.95,0,0,0,2.188,1.813V80.729Zm26.9,0V72.205c.955-.02,1.9-.08,2.8-.189a1,1,0,0,0-.242-1.986c-.821.1-1.68.155-2.554.174V19.276L89.34,8.469v3.467C81.714,23.9,82.646,29.055,84.4,33.683c.789,2.093,2.612,3.906,4.54,5.827l.4.4V66.866c-.258.164-.514.333-.775.484a1,1,0,0,0,.5,1.865.979.979,0,0,0,.272-.04V80.729ZM44.36,25.814a1,1,0,0,1-.947-.68A5,5,0,0,0,42.206,23a1,1,0,1,1,1.328-1.5,6.788,6.788,0,0,1,1.774,2.994,1,1,0,0,1-.628,1.268A1.02,1.02,0,0,1,44.36,25.814Zm.114,5.009c-.131-1.17-.258-2.1-.4-2.919a1,1,0,0,1,1.971-.34c.148.861.281,1.826.417,3.036a1,1,0,0,1-.883,1.1,1.065,1.065,0,0,1-.112.006A1,1,0,0,1,44.474,30.823ZM69.6,70.367a.984.984,0,0,1-.953.785.922.922,0,0,1-.213-.024l-.079-.018a14.088,14.088,0,0,1-2.963-1.059,1,1,0,1,1,.871-1.8,12.166,12.166,0,0,0,2.559.916A1.024,1.024,0,0,1,69.6,70.367Zm5.972.818a1,1,0,0,1-1,.916.806.806,0,0,1-.085,0c-.986-.083-2.015-.211-3.056-.381a1,1,0,1,1,.323-1.974c.99.161,1.966.283,2.9.362A1,1,0,0,1,75.574,71.185ZM55.773,59.6a1,1,0,0,1-1.385-.281c-.551-.83-1.1-1.7-1.62-2.594a1,1,0,1,1,1.722-1.015c.507.861,1.033,1.7,1.564,2.5A1,1,0,0,1,55.773,59.6ZM20.906,57.542c-.273,1.02-.54,1.995-.8,2.914a1,1,0,0,1-.96.726,1.055,1.055,0,0,1-.276-.038,1,1,0,0,1-.687-1.237c.259-.909.522-1.874.794-2.883a1,1,0,1,1,1.931.518ZM59.6,62.88a1,1,0,0,1-1.5,1.325c-.657-.743-1.311-1.545-1.948-2.387a1,1,0,0,1,1.6-1.206C58.357,61.413,58.979,62.176,59.6,62.88Zm27.7,6.281a1,1,0,0,1-.55,1.3,23.133,23.133,0,0,1-2.98.979,1,1,0,0,1-.5-1.938,20.92,20.92,0,0,0,2.721-.894A1,1,0,0,1,87.3,69.161ZM19.2,63.375a23.128,23.128,0,0,1-1.172,2.914,1,1,0,0,1-1.789-.9,21.3,21.3,0,0,0,1.067-2.659,1,1,0,1,1,1.894.641Zm9.417-31.83c.577-.883,1.182-1.729,1.8-2.512a1,1,0,1,1,1.572,1.237c-.58.737-1.15,1.534-1.7,2.369a1,1,0,1,1-1.674-1.094ZM46.1,37.689a1,1,0,0,1-.991-.867c-.126-.943-.232-1.967-.336-3.023a1,1,0,0,1,1.991-.2c.1,1.031.2,2.031.328,2.952a1,1,0,0,1-.859,1.124A1.013,1.013,0,0,1,46.1,37.689ZM16.164,67.664A1,1,0,0,1,15.711,69a2.808,2.808,0,0,1-1.254.3A4.032,4.032,0,0,1,11.9,68.209a1,1,0,1,1,1.276-1.54c.685.567,1.193.767,1.649.541A1,1,0,0,1,16.164,67.664ZM47.506,43.528a1,1,0,0,1-.953-.7c-.324-1.023-.607-2.016-.839-2.953a1,1,0,1,1,1.941-.481c.222.895.492,1.847.8,2.83a1,1,0,0,1-.953,1.3Zm-21.867-6.62c.45-.945.92-1.862,1.4-2.726a1,1,0,1,1,1.75.968c-.459.829-.91,1.709-1.342,2.617a1,1,0,0,1-1.806-.859Z"/></g></svg>