<?xml version="1.0" encoding="UTF-8" standalone="no"?>
<svg
   xmlns:dc="http://purl.org/dc/elements/1.1/"
   xmlns:cc="http://creativecommons.org/ns#"
   xmlns:rdf="http://www.w3.org/1999/02/22-rdf-syntax-ns#"
   xmlns:svg="http://www.w3.org/2000/svg"
   xmlns="http://www.w3.org/2000/svg"
   version="1.1"
   id="svg5945"
   viewBox="0 0 425.19685 318.89763"
   height="90mm"
   width="120mm">
  <defs
     id="defs5947" />
  <metadata
     id="metadata5950">
    <rdf:RDF>
      <cc:Work
         rdf:about="">
        <dc:format>image/svg+xml</dc:format>
        <dc:type
           rdf:resource="http://purl.org/dc/dcmitype/StillImage" />
        <dc:title></dc:title>
      </cc:Work>
    </rdf:RDF>
  </metadata>
  <g
     transform="translate(372.07187,195.10689)"
     id="layer1">
    <path
       id="path6504"
       d="m -147.14286,102.79075 c 0,-0.55 0.70156,-1 1.55902,-1 0.85746,0 1.2809,0.45 0.94098,1 -0.33992,0.55 -1.04148,1 -1.55902,1 -0.51754,0 -0.94098,-0.45 -0.94098,-1 z m 17.41169,-0.55214 c -1.83717,-1.45025 -1.81424,-1.50357 0.58831,-1.36778 1.375,0.0777 2.725,0.054 3,-0.0527 1.61901,-0.62826 5,-0.57366 5,0.0807 0,2.16368 -6.29967,3.14641 -8.58831,1.33976 z m -54.41169,-5.43342 c -3.575,-2.21261 -7.4,-5.13409 -8.5,-6.49219 -5.23139,-6.45885 -6.5,-8.49456 -6.5,-10.430409 0,-1.22143 -0.64402,-2.09184 -1.54775,-2.09184 -1.83068,0 -6.45225,-4.72446 -6.45225,-6.59589 0,-0.71712 -1.39225,-3.36677 -3.09389,-5.88812 -1.71324,-2.53854 -2.83398,-5.26159 -2.51145,-6.10207 0.32034,-0.83479 0.20399,-1.28391 -0.25855,-0.99804 -0.46254,0.28587 -2.28439,-1.70779 -4.04854,-4.43035 -3.39151,-5.23398 -5.20447,-11.98553 -3.21841,-11.98553 0.62196,0 1.13084,-0.48032 1.13084,-1.06739 0,-0.58706 -0.83774,-0.8015 -1.86164,-0.47652 -4.78706,1.51935 -7.23059,-24.03815 -4.12604,-43.15524 1.17467,-7.23332 1.13062,-8.15307 -0.51046,-10.65767 -1.5479,-2.36239 -1.70604,-4.08162 -1.14443,-12.44217 0.3584,-5.33556 0.90152,-11.05101 1.20692,-12.70101 0.7277,-3.93145 2.22755,-5.44416 3.46198,-3.49164 0.69656,1.10177 0.94705,1.14675 0.95836,0.17209 0.009,-0.79364 0.91206,-1.192 2.26531,-0.99952 2.51786,0.35814 2.51454,0.0108 0.11073,11.5909 -1.23492,5.94906 -1.41226,8.57664 -0.63155,9.35735 1.31679,1.31679 2.90302,-1.22878 3.52924,-5.66366 0.79668,-5.64214 2.96939,-12.40969 4.35268,-13.55773 1.77096,-1.46976 1.72228,-0.11496 -0.1111,3.09221 -0.78602,1.375 -1.45162,3.625 -1.47912,5 -0.0275,1.375 -0.75485,4.52462 -1.61635,6.99915 -0.8615,2.47453 -1.56854,5.39953 -1.57121,6.5 -0.0119,4.89416 -1.00773,8.50085 -2.34725,8.50085 -0.78281,0 -1.19367,0.59841 -0.913,1.32981 0.48635,1.26741 3.80756,1.62289 4.90541,0.52504 0.5691,-0.5691 1.89353,-6.32361 4.09886,-17.80917 0.78721,-4.09988 1.87936,-7.90238 2.42698,-8.45 1.21976,-1.21976 1.2094,0.11447 -0.0536,6.90432 -0.51154,2.75 -1.10963,6.35 -1.32909,8 -0.21945,1.65 -0.95335,5.79069 -1.63088,9.20154 -1.08119,5.44298 -0.50885,13.87628 0.7159,10.54846 0.68523,-1.86188 2.07545,-1.51198 2.77717,0.69897 0.34092,1.07414 1.20991,1.72206 1.93597,1.44344 0.76419,-0.29324 1.55427,0.40032 1.8815,1.65165 0.73034,2.79281 2.36594,1.74762 3.19873,-2.04406 1.198,-5.45444 2.77983,-4.67008 2.00107,0.99224 -0.57857,4.20671 -0.45187,5.15812 0.63857,4.79501 0.7482,-0.24914 1.51654,-1.31569 1.70742,-2.37012 0.66207,-3.65712 2.23502,-4.01549 1.93872,-0.4417 -0.2173,2.62099 0.13357,3.53377 1.46422,3.80911 1.38109,0.28577 1.75,-0.3209 1.75,-2.87788 0,-4.18457 1.36201,-2.89189 1.44052,1.3672 0.0848,4.597 2.7454,4.23697 3.8713,-0.52386 0.7042,-2.97765 1.35649,-3.75 3.16706,-3.75 2.55757,0 6.39139,-4.33397 13.81652,-15.61903 2.57623,-3.91546 5.31526,-7.64288 6.08674,-8.28315 0.77148,-0.64027 1.90943,-2.38671 2.52879,-3.88098 1.44034,-3.47499 5.63953,-4.03332 6.43139,-0.85513 0.59995,2.40794 4.28454,13.08364 5.56995,16.13829 0.46288,1.1 2.22333,5.11874 3.9121,8.93054 1.68878,3.8118 2.86784,7.25847 2.62013,7.65926 -0.24771,0.4008 -3.59905,0.7582 -7.44744,0.79423 -5.97789,0.056 -6.99929,-0.18571 -7.01237,-1.65926 -0.0131,-1.4765 -0.15242,-1.50885 -0.96781,-0.22477 -0.76154,1.19928 -3.39762,1.5 -13.14867,1.5 -8.67547,0 -12.3138,0.35054 -12.60364,1.21432 -0.3074,0.91614 2.44871,1.14835 11.22378,0.94564 9.65715,-0.22308 11.78565,-0.005 12.54104,1.28568 0.50038,0.8549 0.92348,1.03419 0.9402,0.39842 0.0389,-1.4796 18.03041,-1.82531 18.03041,-0.34646 0,0.55132 0.35837,1.0024 0.79639,1.0024 0.43801,0 1.32335,-3.6155 1.96742,-8.03444 1.13979,-7.82011 3.37787,-13.16336 4.65087,-11.1036 0.34293,0.55486 0.13188,4.17743 -0.46899,8.05016 -1.04857,6.75814 -0.71245,9.6798 0.99237,8.62616 0.43992,-0.27188 1.11475,-4.10422 1.49962,-8.51631 0.48723,-5.58546 1.09718,-8.02197 2.00821,-8.02197 1.23987,0 1.28515,3.62582 0.14674,11.75 -0.1942,1.38587 0.20754,2.25 1.04604,2.25 0.74873,0 1.40619,-0.7875 1.46101,-1.75 0.0693,-1.21715 0.29769,-1.04694 0.75,0.55902 0.9334,3.31411 2.54871,2.81021 3.26868,-1.01967 0.39828,-2.11864 0.66521,-2.50956 0.75,-1.09837 0.20074,3.34107 1.83966,3.65327 2.96728,0.56525 0.98594,-2.70003 1.00808,-2.67807 1.08541,1.0771 0.0884,4.28999 2.33924,4.74451 2.91363,0.58834 0.5377,-3.89093 2.1653,-4.73405 2.1653,-1.12167 0,3.04468 1.24698,4.22742 2.43329,2.30794 0.30323,-0.49064 0.75912,-2.62814 1.0131,-4.75 1.09168,-9.12057 2.96152,-19.35794 3.53569,-19.35794 0.34195,0 0.28398,3.0375 -0.12883,6.75 -1.25888,11.32161 -1.06273,16.25 0.64675,16.25 1.53692,0 1.97958,-1.65011 1.58995,-5.92687 -0.18855,-2.06959 0.003,-2.24062 1.30327,-1.16175 1.74788,1.45062 2.098299,0.42415 3.016059,-8.8348 0.82717,-8.34512 2.18548,-7.97264 1.82959,0.50172 -0.29902,7.12029 -0.21283,7.47813 1.57132,6.52328 1.49957,-0.80254 1.92562,-2.27391 2.07211,-7.15599 0.10143,-3.38015 0.2819,-6.64597 0.40106,-7.25739 0.11915,-0.61142 -0.90836,-1.1642 -2.28336,-1.22839 -4.08299,-0.1906 -9.314559,-1.61981 -11.735329,-3.20596 -1.36451,-0.89406 -2.26467,-1.05603 -2.26467,-0.4075 0,2.22022 -8.3823,9.40382 -10.95546,9.38879 -1.3995,-0.008 -2.99454,0.32518 -3.54454,0.7408 -0.55,0.41562 -2.34668,0.99953 -3.99263,1.29757 -2.5244,0.45712 -3.57521,-0.0705 -6.71612,-3.37229 -2.24258,-2.35745 -3.49556,-4.50821 -3.15038,-5.40771 0.31521,-0.82143 0.0961,-1.49351 -0.48696,-1.49351 -1.66859,0 -4.23227,-6.30773 -4.41379,-10.85976 -0.0908,-2.27713 -0.51948,-4.14024 -0.95261,-4.14024 -0.43313,0 -0.78751,0.39663 -0.78751,0.88139 0,0.48476 -2.24824,0.82226 -4.99608,0.75 -2.74784,-0.0723 -4.99784,-0.46889 -5,-0.88139 -0.006,-1.17323 -8.47531,-0.87861 -9.69105,0.33713 -0.78285,0.78285 -1.2752,0.78285 -1.75902,0 -0.36954,-0.59792 -1.54533,-1.08713 -2.61287,-1.08713 -1.62953,0 -1.94098,0.71162 -1.94098,4.4349 0,5.52901 -1.21508,8.78624 -5.11401,13.70904 -2.09136,2.64056 -3.84575,3.85606 -5.56565,3.85606 -1.38138,0 -3.78444,0.90634 -5.34013,2.01409 -1.75812,1.2519 -4.07238,1.91415 -6.11539,1.75 -2.86893,-0.23051 -3.50823,0.18094 -5.02781,3.23591 -0.95752,1.925 -1.76256,2.91515 -1.78898,2.20034 -0.0264,-0.71481 0.63853,-2.62731 1.47765,-4.25 1.3605,-2.63092 1.36278,-3.26535 0.021,-5.85999 -0.82755,-1.60031 -1.99759,-3.07397 -2.60009,-3.27481 -0.60249,-0.20083 -1.35044,-3.17727 -1.6621,-6.61432 -0.43408,-4.78711 -0.14718,-7.17941 1.22628,-10.2252 1.72081,-3.81607 2.48656,-4.40811 5.23919,-4.05067 0.6875,0.0893 1.25,-0.47352 1.25,-1.25067 0,-1.58432 -4.86123,-2.64648 -12.19098,-2.66367 -2.58004,-0.006 -4.94861,-0.42786 -5.26349,-0.93734 -0.34765,-0.56251 -1.81308,-0.57053 -3.73117,-0.0204 -1.96542,0.56368 -3.59904,0.54042 -4.32438,-0.0615 -0.64113,-0.5321 -5.09816,-0.84669 -9.9045,-0.6991 -4.80634,0.1476 -8.96936,-0.1047 -9.25116,-0.56067 -0.28181,-0.45597 -1.16638,-0.28626 -1.96573,0.37714 -1.04023,0.86332 -1.7602,0.89933 -2.53283,0.1267 -0.59371,-0.59371 -1.69964,-0.84149 -2.45762,-0.55063 -0.78258,0.30025 -1.3781,-0.10143 -1.3781,-0.92963 0,-1.17355 1.90435,-1.47154 9.75,-1.52564 5.3625,-0.037 11.91484,-0.29104 14.56076,-0.56457 5.36516,-0.55463 14.59701,0.55102 25.30082,3.03016 6.27084,1.4524 7.06549,1.89287 6.72179,3.7258 -0.34815,1.85661 -0.28302,1.83732 0.60962,-0.18057 1.09306,-2.47097 0.78217,-2.468 19.05701,-0.18207 4.125,0.51598 9.975,1.1942 13,1.50717 3.025,0.31297 9.1,1.17545 13.5,1.91664 4.4,0.74118 10.7,1.66636 14,2.05594 3.3,0.38959 6.57337,1.16694 7.27417,1.72745 0.70079,0.56051 1.52741,0.76586 1.83694,0.45633 0.30953,-0.30953 2.75124,0.0871 5.42602,0.88145 2.67479,0.79432 6.63282,1.59425 8.79563,1.77762 2.16282,0.18337 6.23523,1.16149 9.049819,2.1736 4.32995,1.55703 5.11978,2.23297 5.13273,4.39265 0.0113,1.88535 0.24849,2.18412 0.90748,1.14314 0.49069,-0.77512 0.66904,-1.99078 0.39632,-2.70147 -0.36426,-0.94924 0.39008,-1.16742 2.84252,-0.82214 1.83611,0.2585 5.92587,0.84354 9.08837,1.30008 4.38603,0.63317 5.75,0.53243 5.75,-0.4247 0,-0.7589 -2.07474,-1.52904 -5.25,-1.94878 -6.68629,-0.88387 -25.813839,-4.97961 -31.947119,-6.84076 -2.58341,-0.78394 -4.8835,-1.23896 -5.11131,-1.01115 -0.22781,0.22781 -1.7141,-0.10213 -3.30288,-0.7332 -1.58878,-0.63107 -6.62378,-1.50731 -11.1889,-1.9472 -4.56511,-0.4399 -8.86085,-1.2651 -9.54608,-1.83379 -0.68524,-0.5687 -2.12514,-1.01546 -3.1998,-0.9928 -5.34824,0.11276 -20.13704,-1.46979 -21.45391,-2.29578 -0.96268,-0.60383 2.73752,-0.76372 10.32955,-0.44635 6.50625,0.27198 12.39765,0.96599 13.092,1.54226 0.69436,0.57626 1.527,0.78321 1.85033,0.45989 0.98531,-0.98532 10.80488,-0.57597 12.10702,0.5047 0.67118,0.55704 3.223,1.31896 5.67071,1.69317 2.44772,0.37421 5.01289,1.12405 5.70039,1.6663 0.6875,0.54226 1.25,0.65073 1.25,0.24104 0,-0.40969 0.5625,-0.2954 1.25,0.25397 0.6875,0.54937 2.14702,0.67267 3.24338,0.27398 1.81015,-0.65824 1.69981,-0.87669 -1.20034,-2.37641 -1.75654,-0.90835 -4.00357,-1.66585 -4.99338,-1.68334 -0.98981,-0.0175 -2.62559,-0.6577 -3.63505,-1.42269 -1.66918,-1.26492 -9.44435,-2.38585 -20.31554,-2.92884 -2.283,-0.11403 -4.83044,-0.77128 -5.66097,-1.46056 -1.02046,-0.84691 -1.72015,-0.91327 -2.15809,-0.20467 -0.89526,1.44857 -6.56631,1.31258 -16.03001,-0.3844 -13.69871,-2.45637 -21.12965,-3.56704 -23.8653,-3.56704 -1.44908,0 -2.6347,-0.37704 -2.6347,-0.83787 0,-0.46082 -2.09915,-0.91726 -4.66478,-1.0143 -2.56563,-0.097 -5.15313,-0.57695 -5.75,-1.06646 -0.59687,-0.48951 -2.51803,-0.72031 -4.26924,-0.5129 -2.64458,0.31322 -3.25683,5.2e-4 -3.61381,-1.84568 -0.42291,-2.18714 -0.43199,-2.1852 -0.56599,0.12044 -0.12559,2.16095 -0.4668,2.30104 -4.38618,1.80082 -2.3375,-0.29833 -4.61782,-0.56528 -5.06739,-0.59323 -0.44956,-0.0279 -0.53649,-0.93583 -0.19318,-2.01751 0.68521,-2.1589 -0.68963,-2.74904 -7.98943,-3.42944 -2.2,-0.20506 -4.675,-0.61124 -5.5,-0.90262 -0.825,-0.29138 -6.40286,-0.9873 -12.39525,-1.54648 -7.3136,-0.68248 -11.39662,-1.51807 -12.42039,-2.54184 -1.36685,-1.36685 -0.75501,-1.4646 5.89525,-0.94188 5.42152,0.42614 7.14162,0.2837 6.38552,-0.52877 -0.88635,-0.95242 -4.77311,-1.83052 -9.18375,-2.07479 -0.70569,-0.0391 -0.95624,-0.75122 -0.59525,-1.69193 0.55419,-1.4442 0.32813,-1.43101 -2.03729,0.11887 -2.11034,1.38275 -3.22821,1.52888 -5.40474,0.7065 -4.16132,-1.5723 -18.31252,-2.38903 -19.81327,-1.14352 -0.97564,0.8097 -1.1529,0.59579 -0.75791,-0.91464 0.58432,-2.23444 -1.44544,-3.67257 -6.2517,-4.42947 -1.69333,-0.26667 -4.61833,-1.30268 -6.5,-2.30225 -1.88167,-0.99956 -4.01992,-1.69792 -4.75165,-1.55191 -0.73174,0.14601 -2.44593,-0.46542 -3.8093,-1.35874 -1.36337,-0.89331 -3.23968,-1.46505 -4.16957,-1.27053 -1.21167,0.25347 -0.47608,1.13116 2.59618,3.09773 2.35778,1.50923 4.07497,3.08691 3.81598,3.50597 -0.97039,1.57013 1.13166,2.94378 9.39714,6.14088 13.84264,5.35435 12.84497,4.87904 10.40655,4.95787 -1.1514,0.0372 -4.70934,-0.83232 -7.90655,-1.93232 -3.19721,-1.1 -6.91751,-2 -8.26733,-2 l -2.45424,0 2.36079,1.96673 c 1.29843,1.0817 1.96818,1.9817 1.48833,2 -0.47984,0.0183 -0.31224,0.70827 0.37245,1.53327 0.69492,0.83733 0.80297,1.5 0.24457,1.5 -2.18296,0 -8.36461,-3.14925 -8.89507,-4.5316 -0.30991,-0.80762 -0.99172,-1.4684 -1.51513,-1.4684 -1.84053,0 -8.89341,-6.40171 -8.74958,-7.94177 0.28735,-3.07691 -0.11633,-3.93346 -2.15936,-4.5819 -3.35407,-1.06454 -5.55359,-7.86908 -5.25615,-16.26065 0.35842,-10.112061 1.62707,-11.827241 12.65617,-17.110821 5.046,-2.41733 10.52455,-5.38467 12.17455,-6.59411 4.04939,-2.96817 7.56882,-4.77753 9.99054,-5.1362 1.1052,-0.16369 5.15946,-0.98204 9.00946,-1.81856 20.10689,-4.36878 50.55283,-4.38915 56.81469,-0.038 0.99808,0.69353 2.57308,1.07985 3.5,0.8585 0.92692,-0.22136 2.32383,0.0144 3.10423,0.52395 1.21464,0.79304 1.17865,1.55559 -0.25,5.29644 -0.9179,2.40351 -1.66892,5.17823 -1.66892,6.16604 0,1.43219 -0.55709,1.6794 -2.75,1.22034 -12.8724,-2.69468 -37.25149,-3.97855 -37.25053,-1.96172 4.7e-4,0.98805 22.58379,3.20213 25.42553,2.49274 2.2997,-0.57409 8.47588,1.18506 9.00541,2.565 0.50323,1.31138 -0.2355,1.4294 -5.17166,0.82621 -21.87853,-2.67351 -54.71469,-1.95076 -63.50875,1.39788 -4.41271,1.68029 -3.19344,2.34394 3,1.6329 3.1625,-0.36308 7.775,-0.8191 10.25,-1.01339 2.475,-0.19429 7.875,-0.69808 12,-1.11954 10.03145,-1.02492 14.89734,-0.95451 25,0.36176 11.34821,1.47856 16.26291,3.44079 6.5,2.59517 -15.85536,-1.37331 -35.30451,-0.51399 -51.5,2.27542 -10.46698,1.80277 -10.46543,1.80224 -9.57829,3.23766 0.40544,0.65602 1.74579,0.55034 3.85013,-0.30357 3.3477,-1.35846 6.16044,-1.0782 5.17537,0.51566 -0.31088,0.50302 -2.00119,0.9289 -3.75623,0.94639 -1.75504,0.0175 -4.09098,0.72904 -5.19098,1.581221 -1.84205,1.42704 -1.44718,1.49663 5,0.88112 9.36045,-0.89363 11.90967,-1.319201 15.04682,-2.511941 1.45731,-0.55407 7.21794,-1.25644 12.80141,-1.56082 7.10448,-0.38731 10.48504,-0.98387 11.26201,-1.98741 1.20586,-1.55746 2.8616,-2.00644 1.94802,-0.52823 -0.75727,1.22528 6.90263,3.68054 12.37191,3.96562 2.4366,0.12701 5.1366,0.68417 6,1.23813 1.09184,0.700521 -0.56158,0.820351 -5.43017,0.393531 -11.42972,-1.002031 -32.96825,-0.486591 -44,1.05296 -2.75,0.38378 -6.98613,0.97819 -9.41362,1.3209 -6.69292,0.94491 -4.95796,2.65511 2.43971,2.40491 6.17544,-0.20887 6.47945,-0.10791 7.09818,2.35733 0.40939,1.63112 0.17667,2.86587 -0.63464,3.36729 -0.774,0.47836 -0.99886,1.52436 -0.5681,2.64267 0.6928,1.79856 0.74254,1.79823 1.75832,-0.0115 0.57494,-1.02433 0.80167,-3.36406 0.50383,-5.19939 -0.53196,-3.27811 -0.46779,-3.34603 3.6374,-3.85047 2.29841,-0.28242 5.75392,-0.76014 7.67892,-1.0616 1.925,-0.30146 8.58994,-0.59165 14.81098,-0.64486 9.91875,-0.0848 11.48419,0.13193 12.7182,1.761 1.30085,1.71732 1.40962,1.72546 1.43902,0.10773 0.0221,-1.21581 0.83604,-1.75 2.6665,-1.75 4.89485,0 15.36556,2.33793 15.32968,3.42285 -0.0196,0.59243 -0.75399,3.77715 -1.63199,7.07715 -0.878,3.3 -1.77675,8.475 -1.99723,11.5 -0.36023,4.94238 -0.2539,5.31473 1.04878,3.67265 0.79731,-1.00504 1.76802,-4.15504 2.15712,-7 0.3891,-2.84496 1.1888,-6.29765 1.77712,-7.67265 0.58832,-1.375 1.18184,-3.85 1.31893,-5.5 0.79721,-9.594831 1.77277,-14.720061 2.88297,-15.146081 0.70194,-0.26936 1.02815,-1.36548 0.73733,-2.47758 -0.37685,-1.44108 0.07,-2.14921 1.61051,-2.55205 2.45749,-0.64264 2.88202,-2.32428 0.58677,-2.32428 -1.74843,0 -1.32189,-4.11365 1.22044,-11.77022 0.77985,-2.34862 1.08765,-4.80459 0.68401,-5.4577 -1.52156,-2.46194 -1.13777,-5.85666 1.21307,-10.72971 1.33529,-2.76791 2.42779,-5.43333 2.42779,-5.92316 0,-1.39789 2.18911,-5.25028 6.053,-10.65206 1.95414,-2.73193 4.06087,-6.15827 4.6816,-7.61409 1.33914,-3.14071 6.38945,-6.99952 11.2654,-8.60762 1.92932,-0.63629 9.42924,-1.1565 16.71231,-1.15922 l 13.21232,-0.005 0.64897,3.45935 c 0.77081,4.10873 2.38444,4.65001 2.11466,0.70935 l -0.18826,-2.75002 10.5,-0.0902 c 6.50936,-0.0559 11.45015,0.38016 13,1.14742 3.59295,1.77871 13.95826,12.5356 14.63976,15.1928 0.31738,1.2375 0.92949,2.25 1.36024,2.25 0.43075,0 1.08689,1.21005 1.45808,2.68901 0.37119,1.47895 1.48026,3.84145 2.46458,5.25 2.81942,4.03452 7.15661,24.07321 8.56261,39.56099 0.19972,2.2 0.79166,5.87807 1.31544,8.17349 0.562209,2.463881 0.584749,4.541051 0.055,5.070791 -0.52974,0.52974 -0.29162,2.91647 0.581289,5.82651 0.81323,2.71107 1.75496,7.51671 2.09275,10.67921 0.60092,5.62613 1.68149,7.24782 2.83187,4.25 0.31658,-0.825 0.39031,-2.0625 0.16385,-2.75 -0.22646,-0.6875 -0.64329,-3.725 -0.92628,-6.75 -0.65515,-7.00294 -1.41651,-13.34272 -1.80009,-14.9893 -0.16451,-0.70617 0.82589,-1.594041 2.20089,-1.973041 2.54166,-0.70057 25.43643,-0.42233 30,0.36459 1.375,0.23709 3.7375,0.46858 5.25,0.51442 1.5125,0.0458 2.75,0.510061 2.75,1.031621 0,1.25799 -21.11404,1.0159 -22.77961,-0.26119 -0.84762,-0.649911 -2.12951,-0.593911 -3.79706,0.16588 -1.38458,0.63086 -4.29625,1.14702 -6.47037,1.14702 -2.17412,0 -3.95295,0.42761 -3.95295,0.95024 0,0.52263 1.9125,0.94979 4.25,0.94925 2.3375,-5.4e-4 4.925,0.0336 5.75,0.0758 0.825,0.0422 5.6145,0.009 10.64333,-0.0742 9.17733,-0.15154 11.35667,0.28991 11.35667,2.30038 0,0.74269 -1.96571,0.84658 -6.25,0.33034 -9.24105,-1.11352 -26.11113,-0.94841 -26.51377,0.25949 -0.6192,1.8576 4.85027,2.41784 19.26377,1.97322 4.46656,-0.13778 13.67748,0.80826 17.5,1.79741 1.375,0.3558 4.075,0.98261 6,1.3929 1.925003,0.4103 4.568433,1.10542 5.874283,1.54471 l 2.37428,0.79872 -2.87428,1.20038 c -2.82812,1.18109 -2.78595,1.21198 2.62572,1.9232 7.76348,1.0203 9.00204,1.48839 8.98469,3.39555 -0.009,0.95941 -0.33109,1.2528 -0.75,0.68261 -0.82222,-1.11914 -18.238603,-1.40117 -18.236213,-0.29531 8.4e-4,0.38757 1.68902,0.98362 3.751523,1.32455 9.88925,1.63465 11.40625,2.04102 11.09007,2.97076 -0.18704,0.55 -0.6711,0.88966 -1.07569,0.75479 -2.65725,-0.88575 -27.764383,-1.31122 -27.764383,-0.4705 0,1.3242 4.76586,2.0383 14.60838,2.18888 4.459613,0.0682 9.409613,0.51725 11.000003,0.99784 1.88093,0.56838 -3.13163,0.83663 -14.341143,0.76748 -9.47801,-0.0585 -17.4761,0.13704 -17.77353,0.43447 -0.29743,0.29743 -0.24079,1.32256 0.12587,2.27807 0.59105,1.54024 1.69955,1.66605 9.77354,1.10927 5.00878,-0.3454 13.08461,-0.58155 17.946283,-0.52478 8.32373,0.0972 8.80339,-0.0103 8.22206,-1.84189 -0.58307,-1.83708 -0.18541,-1.92072 7.16059,-1.50602 14.22748,0.80316 17.27795,0.48538 17.27795,-1.79995 0,-0.98355 0.78375,-2.22689 1.74167,-2.76297 3.2077396,-1.79514 0.0445,-2.7978 -6.74167,-2.13694 -2.80229,0.2729 -12.21657,-0.87099 -12.9148,-1.56921 -0.24853,-0.24853 0.0613,-0.96502 0.68846,-1.5922 0.79224,-0.79224 2.14554,-0.85194 4.43333,-0.19558 2.06288,0.59183 5.47688,0.59317 9.13917,0.004 4.69071,-0.75517 6.0248,-0.66381 6.75,0.46224 0.76875,1.19366 1.0470796,1.18048 1.8621996,-0.0882 0.5271,-0.8204 0.6396,-1.80106 0.25,-2.17924 -1.2661096,-1.229 -6.2083596,-2.08572 -6.2083596,-1.0762 0,0.53335 -1.125,0.75468 -2.5,0.49183 -2.69975,-0.51609 -3.22226,-1.68034 -1.29006,-2.8745 0.78098,-0.48267 0.16054,-1.0532 -1.75,-1.60925 -9.99325,-2.90843 -14.1582,-3.81166 -15.70773,-3.40645 -0.96372,0.25157 -1.75221,0.0499 -1.75221,-0.44861 0,-0.49851 -0.43588,-0.90638 -0.96862,-0.90638 -0.53273,0 -0.72995,0.62193 -0.43826,1.38206 0.29169,0.76014 2.41506,1.7286 4.71861,2.15215 4.9316,0.90676 4.23808,0.72551 8.93827,2.33599 2.0625,0.7067 3.75,1.65719 3.75,2.1122 0,1.27588 -7.69459,0.088 -16,-2.47009 -4.125,-1.27051 -8.9625,-2.61629 -10.75,-2.99062 -1.95281,-0.40895 -3.250003,-1.29086 -3.250003,-2.20955 0,-1.14972 0.64903,-1.36606 2.616663,-0.87222 5.44261,1.36601 8.38334,1.7899 8.38334,1.20842 0,-0.98202 -8.20281,-4.64706 -10.437833,-4.66365 -2.51654,-0.0187 -5.2537,-1.62649 -4.33426,-2.54594 0.3685,-0.36849 2.11012,-0.16796 3.87027,0.44563 1.760153,0.61359 5.131563,1.11562 7.492033,1.11562 2.36046,0 4.56987,0.45 4.90979,1 0.33992,0.55 1.82898,0.96132 3.30902,0.91405 l 2.69098,-0.086 -3,-0.9546 c -2.85348,-0.90798 -15.803553,-4.526971 -25.500003,-7.126151 l -4.5,-1.20624 3.41207,-0.346 c 3.13911,-0.31831 18.593693,2.14446 22.087933,3.51984 0.825,0.32473 3.525,1.35301 6,2.285061 2.475,0.93205 5.2875,2.03649 6.25,2.45431 1.25089,0.54301 1.75,0.30678 1.75,-0.82827 0,-0.91496 -1.16547,-1.85134 -2.75,-2.20945 -1.5125,-0.341831 -5.9,-1.554701 -9.75,-2.695261 -3.85,-1.14056 -7.45,-2.13267 -8,-2.20469 -0.55,-0.072 -1.675,-0.40623 -2.5,-0.74269 -0.825,-0.33646 -2.850003,-0.8906 -4.500003,-1.23141 -1.65,-0.34078 -4.125,-0.8736 -5.5,-1.184 -3.55962,-0.80357 -13.70714,-1.37048 -26.75,-1.49444 -6.1875,-0.0588 -11.25,-0.50228 -11.25,-0.98549 0,-0.48321 0.87344,-0.87857 1.94098,-0.87857 3.23291,0 3.28151,-1.79222 0.0677,-2.49808 -6.035379,-1.32559 -2.89967,-2.56578 5.99127,-2.36957 4.95,0.10924 9,0.57415 9,1.03313 0,0.45899 -1.9125,0.84141 -4.25,0.84983 -4.01389,0.0145 -7.75283,1.31854 -6.72104,2.34417 0.949,0.94334 20.97104,1.54226 20.97104,0.62731 0,-0.50945 -2.1375,-1.62109 -4.75,-2.47032 l -4.75,-1.54406 6.28736,0.42236 c 3.45805,0.23229 6.95642,0.97762 7.77416,1.65629 0.81775,0.67867 1.75799,0.96276 2.08943,0.63132 0.33144,-0.33144 1.86706,0.0512 3.41249,0.85043 1.54543,0.79917 3.46786,1.20054 4.27206,0.89194 0.80421,-0.3086 1.75927,-0.0804 2.12237,0.50708 0.36314,0.58749 1.83921,1.06817 3.280203,1.06817 1.44099,0 4.00193,0.43759 5.69098,0.97241 11.15032,3.53068 15.4285,5.05572 18.071,6.44174 1.65,0.86544 3.9,1.57798 5,1.58343 3.2418,0.016 7.86284,3.404101 9.96373,7.305221 1.07558,1.99722 2.47225,3.75863 3.1037196,3.91425 1.82169,0.44894 12.43255,13.1022 12.43255,14.82559 0,0.85655 0.4965,2.05386 1.10333,2.66069 1.13149,1.13149 1.79588,7.09445 2.26146,20.29667 0.25101,7.11792 0.1178,7.64024 -2.61493,10.25279 -2.08817,1.99635 -3.51862003,2.59237 -5.20554,2.16898 -1.27937,-0.3211 -2.62678,-0.0974 -2.99424,0.4972 -0.36746,0.59457 -1.49012,1.08103 -2.49479,1.08103 -1.00467,0 -3.1156096,0.67223 -4.6909796,1.49384 -3.84666,2.00617 -8.33689,1.89688 -10.01855,-0.24384 -1.05345,-1.34102 -1.31292,-1.39945 -1.11024,-0.25 0.21421,1.2149 -1.30359,1.5552 -7.98552,1.79044 -4.5375,0.15975 -8.25,0.6741 -8.25,1.14301 0,1.4673 2.2245,1.74265 11.25,1.39254 4.8125,-0.18668 8.75,0.0439 8.75,0.51231 0,2.07763 -3.94612,3.95975 -9.15788,4.36789 -3.27578,0.25653 -6.85449,1.25113 -8.5,2.36233 -3.60727,2.43594 -9.88602,4.39672 -14.14178,4.4163 -1.814813,0.008 -4.640963,0.70879 -6.280333,1.55655 -2.27085,1.1743 -5.36655,1.45406 -12.99934,1.17477 -9.48522,-0.34706 -12.87579,0.45749 -9.83855,2.33461 1.07606,0.66504 0.9728,1.23108 -0.52687,2.8882 -1.02587,1.13358 -1.6309,2.06105 -1.34451,2.06105 0.28639,0 0.0922,1.9125 -0.43151,4.25 -1.23533,5.51362 -1.68237,16.75 -0.6664,16.75 0.43332,0 1.09245,-2.69229 1.46474,-5.98286 0.37229,-3.29058 1.32071,-6.77808 2.10761,-7.75 1.51688,-1.87354 1.50971,-1.5268 -0.17017,8.23286 -0.284,1.65 -0.58983,4.6875 -0.67962,6.75 -0.0898,2.0625 -0.53949,3.75 -0.99932,3.75 -0.45984,0 -0.72357,-0.50625 -0.58607,-1.125 0.1375,-0.61875 -0.3562,-1.34582 -1.09711,-1.6157 -1.06527,-0.38804 -1.11757,-0.0618 -0.25,1.55926 1.94847,3.64074 1.32375,8.61989 -1.40289,11.18144 -1.375,1.29175 -2.5,2.91304 -2.5,3.60289 0,0.68984 -0.57873,1.8489 -1.28607,2.57568 -2.34875,2.41331 -3.69726,9.02694 -2.71623,13.32143 0.57259,2.50656 0.55692,4.12445 -0.042,4.33333 -0.52565,0.18334 -0.95573,1.14243 -0.95573,2.13131 0,0.98889 -1.6875,3.0651 -3.75,4.61381 -4.823519,3.62192 -5.216299,4.24425 -5.234689,8.29399 -0.0131,2.88362 -0.23273,3.19201 -1.51531,2.12756 -1.2457,-1.03384 -1.5,-0.91586 -1.5,0.6959 0,1.06744 -1.53675,3.66814 -3.41499,5.77935 -1.87825,2.1112 -4.00758,5.00545 -4.73185,6.43165 -2.94491,5.798989 -11.09081,16.607009 -12.66712,16.806799 -0.92732,0.11753 -3.90459,0.77439 -6.61614,1.45969 -3.94353,0.99665 -5.01358,0.99556 -5.34725,-0.005 -0.30624,-0.91871 -0.76759,-0.96058 -1.73526,-0.15748 -0.72497,0.60166 -4.61871,1.24727 -8.65275,1.43469 -4.03405,0.18741 -12.50964,0.62232 -18.83464,0.96647 l -11.5,0.62573 -6.5,-4.02292 z m 36.5,-1.75151 c 2.75,-0.15184 5.675,-0.29667 6.5,-0.32184 3.72054,-0.11351 14.07575,-2.25463 14.54042,-3.00649 1.22767,-1.98641 -3.5954,-3.01265 -9.30273,-1.97939 -3.15573,0.57131 -9.11269,1.00277 -13.23769,0.9588 -4.125,-0.044 -9.6375,0.34929 -12.25,0.87391 -2.63371,0.52889 -4.75,0.56586 -4.75,0.083 0,-0.47899 0.675,-0.87089 1.5,-0.87089 0.825,0 1.5,-0.45 1.5,-1 0,-0.55 -1.2375,-1.01368 -2.75,-1.03041 -2.03902,-0.0225 -2.36219,-0.25279 -1.25,-0.89058 0.825,-0.47309 4.875,-0.54295 9,-0.15524 6.68539,0.62836 9.38049,0.65868 17.75,0.19964 1.27849,-0.0701 2.25,-0.77109 2.25,-1.62341 0,-1.08487 1.11386,-1.5 4.02475,-1.5 3.35145,0 4.18064,-0.41002 4.9566,-2.45094 0.64805,-1.70451 1.53452,-2.33488 2.91076,-2.06984 2.22323,0.42816 4.8189,-1.921759 3.21658,-2.912039 -0.54363,-0.33599 -5.17798,-0.79094 -10.29855,-1.01101 -5.12058,-0.22007 -10.09764,-0.43524 -11.06014,-0.47815 -0.9625,-0.0429 -1.75,-0.58792 -1.75,-1.21113 0,-0.81567 3.94158,-0.98396 14.07004,-0.60073 12.45917,0.47143 14.14148,0.34356 14.69404,-1.11689 0.34321,-0.9071 1.21583,-2.24805 1.93916,-2.97989 2.26212,-2.28874 0.58653,-2.91485 -6.93034,-2.58965 -30.25331,1.30884 -39.73724,1.32371 -46.7729,0.0733 -5.25401,-0.93375 -7.47295,-1.75518 -7.40967,-2.74299 0.0681,-1.06284 -1.65568,-1.48543 -7,-1.71605 -7.86886,-0.33957 -10.36239,-1.5698 -6.30696,-3.11167 2.60798,-0.99155 3.28905,-2.80486 3.95994,-10.54309 0.20518,-2.36665 -0.29511,-3.23037 -2.49331,-4.30457 -1.59711,-0.78044 -2.75,-2.15941 -2.75,-3.28926 0,-1.06998 -0.48032,-1.94543 -1.06739,-1.94543 -0.60546,0 -0.79787,0.84918 -0.4446,1.96223 0.34253,1.07922 0.11764,2.90609 -0.49975,4.05971 -0.6174,1.15362 -1.42983,4.88312 -1.8054,8.28777 -0.58605,5.31265 -0.98741,6.2337 -2.83092,6.49648 -1.18144,0.16841 -2.38865,1.22619 -2.6827,2.35062 -0.29404,1.12443 -0.96776,1.77673 -1.49715,1.44955 -0.52938,-0.32718 -1.22055,0.0775 -1.53592,0.89938 -0.3483,0.90766 0.003,1.49426 0.89521,1.49426 0.80774,0 1.46862,-0.46988 1.46862,-1.04417 0,-1.36256 15.11721,-0.25374 16.5,1.21024 0.69315,0.73385 0.37019,0.86936 -1.05246,0.44163 -1.12885,-0.33939 -2.89424,-0.002 -3.92309,0.75076 -1.68848,1.23465 -1.34255,1.42754 3.55246,1.9809 12.26854,1.38691 30.10566,2.83585 34.67309,2.81655 1.7875,-0.008 3.25,0.37395 3.25,0.84779 0,1.16814 -3.73222,2.27983 -5.00763,1.49159 -1.33221,-0.82336 -5.38456,-1.1784 -22.99237,-2.01442 -7.975,-0.37866 -14.8375,-0.89332 -15.25,-1.14369 -0.4125,-0.25037 -0.75,0.21602 -0.75,1.03642 0,1.78144 1.5073,2.26882 9.75,3.15263 7.98032,0.85567 8.17227,2.15677 0.25,1.6946 -6.06163,-0.35362 -8.50124,1.22176 -3.5,2.260119 1.375,0.28548 3.625,0.75262 5,1.0381 3.75148,0.77889 3.03192,2.53008 -0.75,1.82527 -1.7875,-0.33313 -3.475,-0.60017 -3.75,-0.59342 -2.32775,0.0571 -2.73827,0.6278 -2.51692,3.4991 0.227,2.94453 0.61553,3.30716 4.13373,3.85809 3.36295,0.52663 3.02866,1.40748 -0.36681,0.96656 -0.6875,-0.0893 -1.25,0.49596 -1.25,1.30053 0,2.03267 6.36831,3.21216 18.98951,3.51709 5.76924,0.13938 10.6695,0.43341 10.88948,0.65339 0.21999,0.21998 0.8997,0.0835 1.51049,-0.30334 0.61079,-0.38682 3.36052,-0.82755 6.11052,-0.97939 z m -29.13888,-3.48765 c -0.26354,-0.4264 0.8974,-0.77528 2.57986,-0.77528 1.68246,0 3.05902,0.44496 3.05902,0.9888 0,1.13807 -4.91866,0.95182 -5.63888,-0.21352 z m 19.13888,-7.77528 c 0.33992,-0.55 1.04148,-1 1.55902,-1 0.51754,0 0.94098,0.45 0.94098,1 0,0.55 -0.70156,1 -1.55902,1 -0.85746,0 -1.2809,-0.45 -0.94098,-1 z m -17.5,-1 c 0,-1.17371 0.76862,-1.17371 3.5,0 1.77225,0.76156 1.68684,0.86743 -0.75,0.92971 -1.5125,0.0387 -2.75,-0.37971 -2.75,-0.92971 z m 33.35569,-2.25 c -0.26055,-0.4125 1.80283,-0.749999 4.58529,-0.749999 2.78246,0 5.05902,0.429049 5.05902,0.953439 0,1.10532 -8.93672,0.91681 -9.64431,-0.20344 z m -13.81298,-0.680899 c -0.31644,-0.512 -0.23049,-1.10573 0.19098,-1.31942 1.44365,-0.73192 11.26631,0.44233 11.26631,1.34683 0,1.196329 -10.71683,1.170689 -11.45729,-0.0274 z m -15.88436,-1.30379 c -0.63709,-0.40408 0.52915,-0.74158 2.59165,-0.75 2.0625,-0.008 3.75,0.38709 3.75,0.8789 0,1.0419 -4.64455,0.94749 -6.34165,-0.1289 z m 8.34165,0.23469 c 0,-0.55 0.42344,-1 0.94098,-1 0.51754,0 1.2191,0.45 1.55902,1 0.33992,0.55 -0.0835,1 -0.94098,1 -0.85746,0 -1.55902,-0.45 -1.55902,-1 z m 4.5,0 c 0.33992,-0.55 0.81648,-1 1.05902,-1 0.24254,0 0.44098,0.45 0.44098,1 0,0.55 -0.47656,1 -1.05902,1 -0.58246,0 -0.7809,-0.45 -0.44098,-1 z m -16,-1 c 0.33992,-0.55 0.81648,-1 1.05902,-1 0.24254,0 0.44098,0.45 0.44098,1 0,0.55 -0.47656,1 -1.05902,1 -0.58246,0 -0.7809,-0.45 -0.44098,-1 z m 48.5,5.499999 c 0,-0.825 -0.17686,-1.5 -0.39301,-1.5 -0.21616,0 -0.65203,0.675 -0.96862,1.5 -0.31658,0.825 -0.13972,1.5 0.39301,1.5 0.53274,0 0.96862,-0.675 0.96862,-1.5 z m 4,-0.5 c 0,-0.55 -0.45,-1 -1,-1 -0.55,0 -1,0.45 -1,1 0,0.55 0.45,1 1,1 0.55,0 1,-0.45 1,-1 z m 3,-5.118029 c 0,-0.55 -0.45,-0.72189 -1,-0.38197 -0.55,0.33992 -1,1.06803 -1,1.61803 0,0.55 0.45,0.72189 1,0.38197 0.55,-0.33992 1,-1.06803 1,-1.61803 z m -74.67567,-6.13197 c -0.43654,-0.6875 -0.8006,-1.55 -0.80902,-1.91667 -0.0402,-1.7489 -1.51531,-1.91115 -1.51531,-0.16666 0,2.14682 0.79224,3.33333 2.22568,3.33333 0.4908,0 0.53519,-0.5625 0.0986,-1.25 z m 85.7609,-6.40286 c -1.21801,-0.85312 -2.45553,-1.31018 -2.75003,-1.01567 -0.9678,0.96779 0.47113,2.22833 2.73865,2.39914 l 2.22594,0.16768 -2.21456,-1.55115 z m -46.85698,-3.70232 c 1.41643,-2.56147 2.68242,-13.64482 1.55858,-13.64482 -0.43276,0 -0.78683,0.46973 -0.78683,1.04384 0,0.57411 -0.5625,0.9308 -1.25,0.79264 -0.6875,-0.13816 -2.4875,0.0757 -4,0.47521 -2.68803,0.71004 -2.75,0.89382 -2.75,8.15534 l 0,7.42893 3.02111,-1.05316 c 1.66161,-0.57924 3.55482,-2.01833 4.20714,-3.19798 z m 22.0029,2.60518 c 2.06488,-2.34474 2.29651,-12.56719 0.3219,-14.20597 -0.78766,-0.6537 -2.69682,-1.04353 -4.24258,-0.86629 -2.79743,0.32076 -2.81047,0.35647 -2.81047,7.69697 0,6.4374 0.25419,7.47789 2,8.18661 2.85255,1.158 3.02255,1.12885 4.73115,-0.81132 z m 18.76885,0.80902 c 0,-0.51754 -0.45,-1.2191 -1,-1.55902 -0.55,-0.33992 -1,0.0835 -1,0.94098 0,0.85746 0.45,1.55902 1,1.55902 0.55,0 1,-0.42344 1,-0.94098 z m -30.13071,-1.40152 c 0.61279,-0.73837 1.23039,-3.49359 1.37244,-6.1227 l 0.25827,-4.7802 -3.76261,-0.1273 c -4.46405,-0.15103 -5.26806,1.34824 -4.27485,7.97146 0.56159,3.74494 1.0054,4.40124 2.97629,4.40124 1.27395,0 2.81766,-0.60412 3.43046,-1.3425 z m -24.5033,-0.60655 c 2.01107,-0.76461 2.63372,-1.88206 3.20389,-5.75 0.38924,-2.64052 1.20775,-5.13845 1.81892,-5.55095 1.45088,-0.97927 -1.35011,-2.92699 -3.22059,-2.2395 -0.73248,0.26923 -2.41998,0.4895 -3.75,0.4895 -1.93953,0 -2.44421,0.54435 -2.54958,2.75 -0.0831,1.74051 -0.50187,0.8228 -1.14065,-2.5 -0.6274,-3.26361 -1.52359,-5.25 -2.36862,-5.25 -0.74765,0 -1.35936,0.6437 -1.35936,1.43045 0,0.78675 -1.0125,1.57425 -2.25,1.75 -2.0444,0.29035 -2.27702,0.93635 -2.54569,7.06955 -0.285,6.50587 -0.21053,6.75 2.05887,6.75 2.62535,0 5.22929,-1.72366 6.04284,-4 0.29485,-0.825 0.57161,-0.1125 0.61503,1.58333 0.11677,4.56032 1.03419,5.14458 5.44494,3.46762 z m 46.04512,-2.12768 c 1.42389,-1.69219 2.58889,-4.22229 2.58889,-5.62244 0,-1.90263 0.31577,-2.29339 1.25,-1.54686 0.71207,0.569 2.11069,0.65194 3.25,0.19273 2.83815,-1.14396 4.72441,-1.11882 4,0.0533 -0.33992,0.55 -0.16977,1 0.37811,1 0.56514,0 0.76845,-1.40619 0.46989,-3.25 -0.44043,-2.71996 0.45786,-11.81822 1.99932,-20.25 0.2011,-1.1 0.17081,-1.43014 -0.0673,-0.73365 -0.29305,0.85716 -1.04372,0.53405 -2.3232,-1 -2.22611,-2.66902 -2.49837,-1.33771 -0.4568,2.23365 1.97464,3.45427 1.8488,4.10568 -0.75,3.88232 -4.81474,-0.41379 -5.74963,0.0512 -5.76531,2.86768 -0.0212,3.80254 -0.93507,4.74159 -4.98469,5.12186 -4.41547,0.41462 -4.96583,1.32585 -4.98469,8.25314 -0.008,3.09375 -0.29656,7.03125 -0.64031,8.75 -0.53629,2.68144 -0.336,3.125 1.41111,3.125 1.11985,0 3.2011,-1.38453 4.625,-3.07673 z m 2.74678,-11.92327 c 0,-1.375 0.22698,-1.9375 0.50439,-1.25 0.27741,0.6875 0.27741,1.8125 0,2.5 -0.27741,0.6875 -0.50439,0.125 -0.50439,-1.25 z m 3.84211,12.05902 c 0,-0.51754 -0.45,-1.2191 -1,-1.55902 -0.55,-0.33992 -1,0.0835 -1,0.94098 0,0.85746 0.45,1.55902 1,1.55902 0.55,0 1,-0.42344 1,-0.94098 z m 4.8125,-1.99652 c 0.25,-0.75 -0.125,-1.125 -0.875,-0.875 -0.72188,0.24063 -1.50937,1.02812 -1.75,1.75 -0.25,0.75 0.125,1.125 0.875,0.875 0.72187,-0.24063 1.50937,-1.02813 1.75,-1.75 z m -88.35521,-1.9934 c 0.31644,-0.512 0.11799,-1.21356 -0.44098,-1.55902 -0.55897,-0.34546 -1.01631,0.0734 -1.01631,0.9309 0,1.75653 0.60006,2.01516 1.45729,0.62812 z m -2.50729,-4.08441 c 3.7481,-0.0225 4.78524,-1.04056 5.58984,-5.48698 0.39788,-2.19874 1.14541,-4.81398 1.66118,-5.81163 1.33975,-2.59149 -0.76152,-4.68608 -4.70102,-4.68608 -4.29099,0 -5.04357,1.25503 -5.39689,9 -0.16309,3.575 -0.70301,6.65 -1.19982,6.83333 -0.49681,0.18334 -0.90329,0.83584 -0.90329,1.45 0,0.77593 0.36617,0.7505 1.2,-0.0833 0.66,-0.66 2.3475,-1.20689 3.75,-1.21531 z m 103.346639,-2.73469 c 0.288,-1.5125 1.50892,-6.125 2.71316,-10.25 1.20423,-4.125 2.63483,-11.325 3.1791,-16 0.54426,-4.675 1.56095,-9.175 2.25931,-10 1.71928,-2.03108 2.57252,-5.86915 1.45791,-6.55802 -1.63311,-1.00932 -0.94809,-2.67057 0.84388,-2.04652 1.61481,0.56237 1.62145,0.50903 0.086,-0.69038 -0.91521,-0.71491 -1.81521,-2.59381 -2,-4.17534 -0.5246,-4.48996 -2.27257,-3.99817 -3.42367,0.96326 -0.57513,2.47885 -0.67817,4.507 -0.22899,4.507 1.45461,0 0.91487,7.74835 -0.57969,8.32186 -0.81588,0.31309 -1.68054,2.74791 -2.07994,5.85699 -0.37597,2.92663 -1.77212,9.82115 -3.10257,15.32115 -2.512559,10.38682 -2.838669,13.24828 -1.814119,15.91821 0.92393,2.40773 2.106549,1.89407 2.689649,-1.16821 z m 2.70336,1.75 c 0,-0.55 -0.45,-1 -1,-1 -0.55,0 -1,0.45 -1,1 0,0.55 0.45,1 1,1 0.55,0 1,-0.45 1,-1 z m -8.999999,-2.44098 c 0,-1.05548 -1.91911,-1.49891 -2.48992,-0.57533 -0.34546,0.55897 0.0734,1.01631 0.9309,1.01631 0.85746,0 1.55902,-0.19844 1.55902,-0.44098 z m -104.50708,-3.54757 c 0.35034,-0.56686 -0.0511,-0.7345 -0.94098,-0.39301 -1.73242,0.66479 -2.04939,1.38156 -0.61096,1.38156 0.51754,0 1.21592,-0.44485 1.55194,-0.98855 z m 103.09548,-3.75639 c -1.0924,-1.0924 -1.84148,0.64486 -1.05718,2.45181 0.74368,1.71337 0.79759,1.71181 1.21194,-0.0351 0.2385,-1.00555 0.16886,-2.09305 -0.15476,-2.41667 z m -106.88126,1.18065 c 1.16748,-1.16747 1.27619,-1.85238 0.42857,-2.7 -0.84761,-0.84761 -1.13571,-0.70447 -1.13571,0.56429 0,0.935 -0.45,1.7 -1,1.7 -0.55,0 -1,0.45 -1,1 0,1.4269 0.9045,1.23836 2.70714,-0.56429 z m 64.29286,-2.99473 c 0,-0.85746 -0.45734,-1.27636 -1.01631,-0.9309 -0.55897,0.34546 -0.75742,1.04702 -0.44098,1.55902 0.85723,1.38704 1.45729,1.12841 1.45729,-0.62812 z m -40.87591,-2.70765 c -0.98762,-0.98026 -1.10248,-0.8654 -0.5598,0.5598 0.37553,0.98622 0.93469,1.54122 1.24258,1.23333 0.30789,-0.30789 6.4e-4,-1.11479 -0.68278,-1.79313 z m -17.00567,-3.03909 c 0.0651,0.44317 0.033,1.25576 -0.0714,1.80576 -0.43147,2.27271 1.73119,-1.15467 2.32757,-3.68871 0.85222,-3.62111 -1.18721,-4.71113 -3.37868,-1.80583 -1.33385,1.76833 -1.87246,1.97288 -2.35355,0.89382 -0.34313,-0.7696 -0.36712,-0.36919 -0.0533,0.8898 0.5099,2.0457 0.29628,2.22024 -2.00923,1.64159 -2.15288,-0.54033 -2.57983,-0.30374 -2.57983,1.42954 0,1.4354 0.46337,1.89921 1.5,1.50142 0.87373,-0.33529 1.51319,-0.009 1.5316,0.78138 0.0179,0.77033 1.09874,0.144 2.5,-1.44877 1.35762,-1.54317 2.52169,-2.44317 2.58682,-2 z m 67.08158,2.10576 c -0.64167,-0.64167 -1.49863,-0.8347 -1.90437,-0.42896 -0.40574,0.40574 -0.0888,1.13877 0.70437,1.62896 1.86759,1.15423 2.71091,0.31091 1.2,-1.2 z m 35.18156,0.64806 c 0.34149,-0.88992 0.17385,-1.29132 -0.39301,-0.94098 -0.5437,0.33602 -0.98855,1.0344 -0.98855,1.55194 0,1.43843 0.71677,1.12146 1.38156,-0.61096 z m -115.45185,-7.73425 c 0.0909,-6.18753 3.92803,-21.88707 5.70069,-23.32405 1.82574,-1.48001 1.72684,-2.06308 -0.44634,-2.63138 -3.59912,-0.94119 -5.8026,2.36111 -7.19151,10.77772 -2.09011,12.66576 -2.33174,18.46161 -0.88255,21.16943 1.18947,2.22256 1.37627,2.27972 2.02973,0.62115 0.39584,-1.00467 0.75133,-3.98046 0.78998,-6.61287 z m 67.07029,7.28619 c 0,-0.55 -0.42344,-1 -0.94098,-1 -0.51754,0 -1.2191,0.45 -1.55902,1 -0.33992,0.55 0.0835,1 0.94098,1 0.85746,0 1.55902,-0.45 1.55902,-1 z m -42,-6 c 0,-2.24963 -1.65228,-3.53826 -2.25183,-1.75623 -0.62485,1.85721 0.34131,4.81896 1.36552,4.18597 0.48747,-0.30128 0.88631,-1.39466 0.88631,-2.42974 z m 24.2558,0.59603 c 0.41569,-0.60282 0.64069,-4.69603 0.5,-9.09603 -0.25499,-7.97477 -0.26475,-8.00102 -3.09423,-8.32496 -1.679,-0.19221 -3.61927,0.38169 -4.75,1.40499 -1.82591,1.65242 -1.91157,1.63337 -1.91157,-0.42504 0,-1.78812 -0.58438,-2.15499 -3.43261,-2.15499 -3.88196,0 -4.3171,0.80559 -4.48171,8.29731 -0.13711,6.23995 1.21967,8.70269 4.79452,8.70269 1.5454,0 3.61773,0.89272 4.60516,1.98383 1.88273,2.08039 6.2176,1.86405 7.77044,-0.3878 z m -9.2558,-11.59603 c 0,-1.86667 0.26667,-2.13333 1.2,-1.2 0.93333,0.93333 0.93333,1.46667 0,2.4 -0.93333,0.93333 -1.2,0.66667 -1.2,-1.2 z m 20.1045,9 c 0.63401,-2.27687 0.86154,-2.33907 0.91452,-0.25 0.0274,1.08198 4.6299,2.15457 6.80478,1.58583 1.65314,-0.43231 1.8236,-1.44615 1.59624,-9.49383 -0.14,-4.95541 -0.4628,-9.21809 -0.71733,-9.47262 -0.25453,-0.25453 -1.97927,0.39203 -3.83275,1.43679 -3.17166,1.78781 -3.35039,2.17303 -3.03745,6.54671 0.20552,2.87233 -0.0809,4.64712 -0.75,4.64712 -0.6124,0 -1.08251,-1.90777 -1.08251,-4.39301 0,-4.69175 -1.19809,-5.89096 -4.91449,-4.9191 -2.84763,0.74467 -3.4685,5.20051 -2.20794,15.84601 0.0673,0.56864 1.56431,1.01864 3.32661,1 2.55138,-0.027 3.346,-0.54324 3.90032,-2.5339 z m 21.8955,0.29059 4.5,-0.79059 0.63295,-5.5 c 0.34812,-3.025 1.12725,-6.74478 1.7314,-8.26618 1.05614,-2.65964 0.99324,-2.74781 -1.63295,-2.28904 -1.50227,0.26243 -3.9689,1.94021 -5.4814,3.72841 l -2.75,3.25126 0,-3.82063 c 0,-3.66595 -0.11134,-3.79314 -2.75,-3.14147 -4.22324,1.04302 -4.63724,1.94093 -4.908,10.6448 l -0.25201,8.10116 3.205,-0.56356 c 1.76276,-0.30996 5.23001,-0.91933 7.70501,-1.35416 z m 15.18963,-3.04059 c 0.17071,-2.0625 0.15278,-5.65976 -0.0398,-7.9939 -0.33198,-4.023 -0.48813,-4.21173 -3,-3.62585 -4.06213,0.94747 -4.96351,2.40121 -5.1896,8.36975 -0.27859,7.35441 -0.48007,7 3.97944,7 3.83063,0 3.94823,-0.10376 4.25,-3.75 z m -84.18963,-2.73921 c 0,-4.35742 -0.009,-4.36854 -2.92775,-3.53151 -2.2212,0.63703 -3.06415,0.48422 -3.49294,-0.63319 -0.89002,-2.31936 -2.45307,-0.61062 -2.36228,2.58247 0.0586,2.06006 0.48852,2.73792 1.49228,2.35275 0.86214,-0.33084 1.62097,0.26569 1.95297,1.53525 0.51526,1.97037 2.96455,3.27756 4.58772,2.44849 0.4125,-0.2107 0.75,-2.35011 0.75,-4.75426 z m -3.33333,2.82254 c -0.99495,-0.99494 -0.80471,-3.33333 0.27118,-3.33333 0.51582,0 0.87006,0.9 0.7872,2 -0.17026,2.26027 -0.15309,2.23863 -1.05838,1.33333 z m 103.18412,-2.61134 c -0.52312,-0.9779 -1.34012,-1.5376 -1.81555,-1.24377 -0.47543,0.29383 -1.09444,-0.0311 -1.37558,-0.72199 -0.28113,-0.69093 -0.45084,-0.0722 -0.37713,1.37502 0.10418,2.04527 0.62234,2.60201 2.32672,2.5 1.77884,-0.10648 2.01317,-0.46683 1.24154,-1.90926 z m -94.85079,-0.22199 c 0,-0.825 -0.17686,-1.5 -0.39301,-1.5 -0.21616,0 -0.65203,0.675 -0.96862,1.5 -0.31658,0.825 -0.13972,1.5 0.39301,1.5 0.53274,0 0.96862,-0.675 0.96862,-1.5 z m 10.81805,-1 c 0.62649,-1.375 0.95586,-2.5 0.73194,-2.5 -0.79619,0 -3.54999,3.15829 -3.54999,4.07143 0,1.82986 1.70032,0.88171 2.81805,-1.57143 z m 102.639239,-0.4309 c 0.31644,-0.512 0.11799,-1.21356 -0.44098,-1.55902 -0.55897,-0.34546 -1.01631,0.0734 -1.01631,0.9309 0,1.75653 0.60006,2.01516 1.45729,0.62812 z m -114.950009,-7.17946 c 0.48082,-2.61864 0.28476,-3.75546 -0.71375,-4.13863 -1.05514,-0.40489 -1.36695,0.60174 -1.3351,4.31012 0.0464,5.40545 1.04012,5.32228 2.04885,-0.17149 z m 95.49005,2.10537 c -0.55445,-1.03599 -1.45567,-2.16024 -2.00271,-2.49833 -1.39226,-0.86047 -1.24828,2.84966 0.16546,4.2634 1.69604,1.69604 3.01264,0.43116 1.83725,-1.76507 z m -6.92038,-4.44501 c 0.50768,-0.5225 0.90874,-1.4225 0.89125,-2 -0.0175,-0.5775 -0.71187,-0.15 -1.54305,0.95 -1.55084,2.0524 -2.0154,2.08495 -4.17515,0.29252 -2.28148,-1.89346 -1.40589,1.9786 1,4.4222 l 2.25,2.28528 0.32695,-2.5 c 0.17982,-1.375 0.74232,-2.9275 1.25,-3.45 z m -93.07695,2.41867 c 0,-1.69974 -0.57132,-1.99284 -3.5,-1.79561 -1.925,0.12964 -3.5,0.64622 -3.5,1.14796 0,0.50173 0.88345,0.68121 1.96323,0.39885 1.07978,-0.28237 2.48488,0.11514 3.12245,0.88336 1.56077,1.88062 1.91432,1.76343 1.91432,-0.63456 z m 8.21331,-3.96867 c -0.24217,-1.65 -0.83923,-3 -1.32681,-3 -0.48757,0 -0.8865,1.35 -0.8865,3 0,1.82596 0.51924,3 1.32681,3 0.90541,0 1.18696,-0.95281 0.8865,-3 z m -10.5302,-3.1875 c -0.31922,-0.79773 -0.55618,-0.56078 -0.60416,0.60417 -0.0434,1.05416 0.19292,1.64479 0.52522,1.3125 0.33229,-0.3323 0.36781,-1.1948 0.0789,-1.91667 z m 109.97917,-1.0625 c -0.27741,-0.6875 -0.50439,-0.125 -0.50439,1.25 0,1.375 0.22698,1.9375 0.50439,1.25 0.27741,-0.6875 0.27741,-1.8125 0,-2.5 z m -108.66228,-3.30902 c 0,-0.85746 -0.45734,-1.27636 -1.01631,-0.9309 -0.55897,0.34546 -0.75742,1.04702 -0.44098,1.55902 0.85723,1.38704 1.45729,1.12841 1.45729,-0.62812 z m -6.55764,-4.34772 c 0.30822,-0.49871 -0.34022,-0.67122 -1.44098,-0.38337 -2.33499,0.61061 -2.63015,1.29011 -0.5604,1.29011 0.79254,0 1.69316,-0.40803 2.00138,-0.90674 z m 48.55764,-3.09326 c 0,-0.55 -0.45,-1 -1,-1 -0.55,0 -1,0.45 -1,1 0,0.55 0.45,1 1,1 0.55,0 1,-0.45 1,-1 z m 14.68311,-3.1875 c -0.31922,-0.79773 -0.55618,-0.56078 -0.60416,0.60417 -0.0434,1.05416 0.19292,1.64479 0.52522,1.3125 0.33229,-0.3323 0.36781,-1.1948 0.0789,-1.91667 z m 65.316889,-4.8125 c 0,-0.55 -0.45,-1 -1,-1 -0.55,0 -1,0.45 -1,1 0,0.55 0.45,1 1,1 0.55,0 1,-0.45 1,-1 z m -36.999999,-3 c 0,-0.55 -0.45,-1 -1,-1 -0.55,0 -1,0.45 -1,1 0,0.55 0.45,1 1,1 0.55,0 1,-0.45 1,-1 z m -67,-4.19113 c 0,0.65512 0.9,1.19113 2,1.19113 2.26671,0 2.56299,-1.03701 0.8,-2.8 -0.93333,-0.93333 -0.93333,-1.46667 0,-2.4 1.77691,-1.77691 1.45851,-3.49913 -0.75386,-4.07768 -1.66184,-0.43458 -1.87413,-0.11229 -1.42041,2.15634 0.38037,1.90182 -0.0634,3.20741 -1.54613,4.54931 -1.14378,1.0351 -2.06529,2.37476 -2.0478,2.97702 0.0175,0.60225 0.6925,0.2215 1.5,-0.84612 0.80751,-1.06762 1.4682,-1.40512 1.4682,-0.75 z m 72.75,-0.30887 c 0,-1.375 -0.32498,-2.5 -0.72219,-2.5 -0.3972,0 -1.21049,-1.0125 -1.80732,-2.25 -0.7534,-1.56216 -1.10582,-1.76198 -1.15281,-0.65364 -0.0623,1.47037 2.68931,7.90364 3.38056,7.90364 0.16597,0 0.30176,-1.125 0.30176,-2.5 z m -12.06689,-3.6875 c -0.31922,-0.79773 -0.55618,-0.56078 -0.60416,0.60417 -0.0434,1.05416 0.19293,1.64479 0.52522,1.3125 0.33229,-0.3323 0.36781,-1.1948 0.0789,-1.91667 z m -47.68311,-2.05305 c 0,-0.4177 -0.84188,-0.75945 -1.87083,-0.75945 -1.54449,0 -1.98925,-1.04665 -2.54966,-6 -0.37335,-3.3 -1.15894,-6 -1.74574,-6 -0.66675,0 -0.80468,1.03145 -0.36773,2.75 0.38456,1.5125 0.77452,3.95 0.86658,5.41667 0.0921,1.46666 0.50488,3.00416 0.91738,3.41666 0.4125,0.4125 0.75,1.57882 0.75,2.59181 0,1.59148 0.27183,1.67205 2,0.59279 1.1,-0.68696 2,-1.59078 2,-2.00848 z m 76.72617,0.0713 c -1.59891,-0.98818 -2.10651,-0.2643 -1.29591,1.84808 0.56918,1.48326 0.81998,1.53428 1.57075,0.31952 0.5679,-0.91889 0.46777,-1.70865 -0.27484,-2.1676 z m 15.273829,1.58592 c 0,-0.87084 -0.53438,-1.40521 -1.1875,-1.1875 -1.85422,0.61807 -2.16176,2.77083 -0.39583,2.77083 0.87083,0 1.58333,-0.7125 1.58333,-1.58333 z m -29.478289,-5.31783 c -0.37434,-1.70436 -1.04238,-3.09884 -1.48453,-3.09884 -1.38176,0 -1.98444,4.23003 -0.8932,6.26903 1.5289,2.85677 3.20936,0.61622 2.37773,-3.17019 z m -80.94091,-0.85137 c -1.08935,-1.08936 -1.50282,0.33508 -0.81164,2.7962 l 0.68983,2.45633 0.35131,-2.33586 c 0.19322,-1.28473 0.0899,-2.59723 -0.2295,-2.91667 z m 69.40389,-1.05649 c 0.008,-0.71996 -0.43469,-1.0309 -0.98469,-0.69098 -0.55,0.33992 -0.99311,1.60398 -0.98469,2.80902 0.0125,1.78123 0.1966,1.91046 0.98469,0.69098 0.53316,-0.825 0.97627,-2.08906 0.98469,-2.80902 z m 15.01531,0.69099 c 0,-0.55 -0.45,-0.72189 -1,-0.38197 -0.55,0.33992 -1,1.06803 -1,1.61803 0,0.55 0.45,0.72189 1,0.38197 0.55,-0.33992 1,-1.06803 1,-1.61803 z m 63.000002,1.34311 c 0,-0.83474 -19.370623,-3.89447 -30.000003,-4.73872 -5.50947,-0.43759 -9.30271,-1.26169 -18.83316,-4.09156 -2.237879,-0.66449 -0.68547,-2.87448 2.26268,-3.2211 1.92854,-0.22675 3.22024,0.30894 4.23364,1.75577 1.1235,1.60404 2.42317,2.04559 5.66053,1.92314 2.31121,-0.0874 6.44637,0.34641 9.18925,0.96407 12.99501,2.9263 13.87877,3.04405 15.66642,2.08733 1.10021,-0.58882 1.82064,-0.6046 1.82064,-0.0399 0,0.51397 2.025,1.09555 4.5,1.29239 2.475,0.19685 4.500003,0.0172 4.500003,-0.3993 0,-0.41647 -0.3375,-0.79164 -0.75,-0.83372 -0.4125,-0.0421 -1.650003,-0.26032 -2.750003,-0.48496 -1.1,-0.22465 -3.50938,-0.6121 -5.35418,-0.86101 -8.46091,-1.14157 -3.16909,-1.73902 12.604443,-1.42306 9.48765,0.19005 17.25015,0.0562 17.25,-0.29747 -3.2e-4,-0.79188 -3.1869,-2.24524 -4.34812,-1.98313 -3.24231,0.73185 -20.044723,0.0452 -21.140143,-0.8639 -0.8765,-0.72743 -1.54692,-0.76248 -1.955,-0.10219 -0.34158,0.55268 -1.16914,0.82013 -1.83903,0.59432 -0.66988,-0.22581 -3.46797,-0.65191 -6.21797,-0.94689 -8.9005,-0.95472 -13.49642,-1.92949 -33.38551,-7.08085 -5.211429,-1.34978 -6.534569,-1.41269 -7.196199,-0.34214 -0.63148,1.02176 -0.95678,0.93107 -1.47148,-0.41024 -0.50065,-1.30464 -1.84662,-1.72196 -5.5538,-1.72196 -2.69115,0 -4.89301,-0.45 -4.89301,-1 0,-1.25976 8.91943,-1.29518 16.06634,-0.0638 2.988509,0.51491 11.733659,1.91619 19.433659,3.11397 7.7,1.19778 14.54279,2.61524 15.2062,3.1499 0.6634,0.53467 1.62799,0.71144 2.14352,0.39282 0.51552,-0.31861 2.81914,0.0846 5.11915,0.89614 4.71215,1.66254 8.211753,1.46912 8.864783,-0.48996 0.29184,-0.87553 -0.10993,-1.10702 -1.197203,-0.68979 -1.01583,0.3898 -1.63645,0.11742 -1.63645,-0.71822 0,-0.74039 -0.76138,-1.96377 -1.69196,-2.71862 -0.93058,-0.75484 -1.38553,-0.86093 -1.01101,-0.23575 0.37452,0.62518 0.1234,1.57098 -0.55804,2.10177 -1.20251,0.93666 -5.57078,0.2379 -25.73899,-4.11726 -4.125,-0.89076 -7.86782,-1.61993 -8.31739,-1.62038 -0.44956,-4.5e-4 -0.57233,-0.78832 -0.27283,-1.75082 0.29951,-0.9625 0.15515,-2.37015 -0.3208,-3.12812 -0.9884,-1.57403 -3.08898,-0.6695 -3.08898,1.33015 0,2.16206 -2.21071,2.42988 -11.100079,1.34476 -5.46486,-0.6671 -8.83669,-1.57635 -9.64992,-2.60222 -1.12493,-1.41905 -1.39727,-1.3826 -2.72184,0.3643 -0.80952,1.06762 -1.27364,2.50363 -1.03139,3.19113 0.55223,1.5672 -4.59844,1.67483 -9.50337,0.19859 -2.91334,-0.87683 -28.6655,-2.28987 -36.88983,-2.02418 -1.31804,0.0426 -2.89304,-0.31094 -3.5,-0.78561 -1.94834,-1.52367 -6.60357,-2.26711 -6.60357,-1.05459 0,0.78079 -1.59759,0.89811 -5.25,0.38554 -7.89327,-1.10771 -10.01654,-1.08016 -10.43745,0.13546 -0.48793,1.40913 15.13075,3.3386 30.68745,3.79101 19.29428,0.5611 41.77146,3.4627 47.5,6.13182 2.75,1.28132 6.57431,2.72762 8.49847,3.21399 2.15246,0.54408 3.63422,1.5892 3.8513,2.7164 0.308779,1.60339 -0.15912,1.76342 -3.74847,1.28198 -2.25572,-0.30255 -4.1013,-0.13178 -4.1013,0.3795 0,1.97767 14.103449,5.85941 26.999999,7.43131 1.925,0.23463 4.85,0.7229 6.5,1.08506 1.65,0.36215 7.5,0.96667 13,1.34338 5.5,0.3767 10.562503,0.76038 11.250003,0.85263 0.6875,0.0922 1.25,-0.181 1.25,-0.60721 z m -40.500003,-12.8528 c -7.32231,-2.75001 -6.23049,-2.99491 2.43394,-0.54595 3.53866,1.00019 5.78866,2.03921 5,2.30893 -0.78867,0.26973 -4.13394,-0.52361 -7.43394,-1.76298 z m 47.000003,12.62772 c -0.33992,-0.55 -1.71648,-1 -3.05902,-1 -1.34254,0 -2.44098,0.45 -2.44098,1 0,0.55 1.37656,1 3.05902,1 1.7847,0 2.80156,-0.41658 2.44098,-1 z m -144.500002,-1.55902 c 0,-0.85746 -0.45734,-1.27636 -1.01631,-0.9309 -0.55897,0.34546 -0.75742,1.04702 -0.44098,1.55902 0.85723,1.38704 1.45729,1.12841 1.45729,-0.62812 z m 53,0.059 c 0,-0.82536 -0.8854,-1.5 -1.96862,-1.5 -1.33903,0 -1.78453,0.47971 -1.39301,1.5 0.31659,0.825 1.20246,1.5 1.96862,1.5 0.76615,2e-5 1.39301,-0.67498 1.39301,-1.49998 z m -43.5,-1.49998 c 0.33992,-0.55 -0.11008,-1 -1,-1 -0.88992,0 -1.33992,0.45 -1,1 0.33992,0.55 0.78992,1 1,1 0.21008,0 0.66008,-0.45 1,-1 z m 133.000002,-1 c -0.33992,-0.55 -1.29303,-1 -2.11803,-1 -0.825,0 -1.22189,0.45 -0.88197,1 0.33992,0.55 1.29303,1 2.11803,1 0.825,0 1.22189,-0.45 0.88197,-1 z m -143.500002,-1.80887 c 0,-0.99488 -0.61576,-2.65098 -1.36836,-3.68022 -1.31914,-1.80402 -1.41193,-1.78996 -2.57905,0.39083 -1.02211,1.90982 -0.92579,2.47809 0.61836,3.64841 2.47903,1.87887 3.32905,1.7872 3.32905,-0.35902 z m 55.68311,-0.37863 c -0.31922,-0.79773 -0.55618,-0.56078 -0.60416,0.60417 -0.0434,1.05416 0.19293,1.64479 0.52522,1.3125 0.33229,-0.3323 0.36781,-1.1948 0.0789,-1.91667 z m -46.68311,-3.3125 c 0,-0.825 -0.45,-1.5 -1,-1.5 -0.55,0 -1,0.675 -1,1.5 0,0.825 0.45,1.5 1,1.5 0.55,0 1,-0.675 1,-1.5 z m -5.81667,-3.71667 c -0.71756,-0.71756 -1.18333,-0.7766 -1.18333,-0.15 0,0.56834 0.3,1.33334 0.66667,1.7 0.36666,0.36667 0.89916,0.43417 1.18333,0.15 0.28417,-0.28416 -0.0158,-1.04916 -0.66667,-1.7 z m 170.499782,-0.97083 c -0.31922,-0.79773 -0.55618,-0.56078 -0.60416,0.60417 -0.0434,1.05416 0.19293,1.64479 0.52522,1.3125 0.33229,-0.3323 0.36781,-1.1948 0.0789,-1.91667 z m -2.18311,-0.8125 c 0.33992,-0.55 0.14148,-1 -0.44098,-1 -0.58246,0 -1.05902,0.45 -1.05902,1 0,0.55 0.19844,1 0.44098,1 0.24254,0 0.7191,-0.45 1.05902,-1 z m -42.316673,-7.21667 c -0.71756,-0.71756 -1.18333,-0.7766 -1.18333,-0.15 0,1.33478 1.18261,2.51739 1.85,1.85 0.28417,-0.28416 -0.0158,-1.04916 -0.66667,-1.7 z m 11.166013,0.7487 c 0.30982,-0.80739 0.13297,-1.73395 -0.39301,-2.05902 -0.52598,-0.32508 -0.95633,0.33551 -0.95633,1.46797 0,2.41457 0.55611,2.65816 1.34934,0.59105 z m -4.349343,-5.03203 c 0,-0.825 -0.45,-1.5 -1,-1.5 -0.55,0 -1,0.675 -1,1.5 0,0.825 0.45,1.5 1,1.5 0.55,0 1,-0.675 1,-1.5 z m -25.5,-1.5 c 0.33992,-0.55 0.14148,-1 -0.44098,-1 -0.58246,0 -1.05902,0.45 -1.05902,1 0,0.55 0.19844,1 0.44098,1 0.24254,0 0.7191,-0.45 1.05902,-1 z m 12.5,-0.5 c 0,-0.825 -0.17686,-1.5 -0.39301,-1.5 -0.21616,0 -0.65203,0.675 -0.96862,1.5 -0.31658,0.825 -0.13972,1.5 0.39301,1.5 0.53274,0 0.96862,-0.675 0.96862,-1.5 z m 16.000003,0.5 c 0,-0.55 -0.45,-1 -1,-1 -0.55,0 -1,0.45 -1,1 0,0.55 0.45,1 1,1 0.55,0 1,-0.45 1,-1 z m -147.000002,-1.9654 c 0,-0.46605 -0.93804,-0.60206 -2.08453,-0.30224 -1.51993,0.39747 -1.736,0.76052 -0.79775,1.34039 1.39249,0.86061 2.88228,0.32402 2.88228,-1.03815 z m 42,0.9654 c 0,-0.55 -0.47656,-1 -1.05902,-1 -0.58246,0 -0.7809,0.45 -0.44098,1 0.33992,0.55 0.81648,1 1.05902,1 0.24254,0 0.44098,-0.45 0.44098,-1 z m 44.5,0 c 0.33992,-0.55 0.14148,-1 -0.44098,-1 -0.58246,0 -1.05902,0.45 -1.05902,1 0,0.55 0.19844,1 0.44098,1 0.24254,0 0.7191,-0.45 1.05902,-1 z m -104.06638,-2.10222 c -3.30519,-1.29432 -5.06381,-0.89897 -2.44617,0.54992 1.3681,0.75726 2.91323,1.11368 3.43362,0.79206 0.5204,-0.32162 0.0761,-0.92551 -0.98745,-1.34198 z m 8.56638,1.10222 c 0,-0.55 -0.45,-1 -1,-1 -0.55,0 -1,0.45 -1,1 0,0.55 0.45,1 1,1 0.55,0 1,-0.45 1,-1 z m 18,-1.60699 c 0,-0.21615 -0.92656,-0.39301 -2.05902,-0.39301 -1.13246,0 -1.79305,0.43035 -1.46797,0.95633 0.53361,0.8634 3.52699,0.38531 3.52699,-0.56332 z m -15,-0.95203 c 0,-0.85746 -0.45,-1.2809 -1,-0.94098 -0.55,0.33992 -1,1.04148 -1,1.55902 0,0.51754 0.45,0.94098 1,0.94098 0.55,0 1,-0.70156 1,-1.55902 z m 69.5,0.20446 c 4.4,-0.1589 9.0125,-0.62446 10.25,-1.03456 1.69348,-0.56122 2.25,-0.35797 2.25,0.82173 0,0.86207 0.46973,1.56739 1.04384,1.56739 0.57411,0 0.91161,-0.7875 0.75,-1.75 -0.22526,-1.34153 0.52216,-1.82742 3.20215,-2.0817 1.92279,-0.18244 3.94779,-0.67165 4.5,-1.08714 1.63873,-1.23299 15.058949,-1.25023 21.772009,-0.028 6.46106,1.17638 8.17862,1.3981 18.232,2.35358 5.00558,0.47574 5.58566,0.38053 3.5,-0.57448 -1.375,-0.6296 -2.91625,-1.04818 -3.425,-0.93018 -0.50875,0.118 -2.67217,-0.0806 -4.80761,-0.44142 -3.52441,-0.59544 -3.71585,-0.77913 -2.075,-1.99101 3.06823,-2.2661 0.33021,-3.41526 -9.56839,-4.01589 -9.03119,-0.548 -9.27536,-0.50606 -8.64347,1.48484 0.50327,1.58568 0.29642,1.913 -0.91514,1.44808 -0.86096,-0.33034 -1.56539,-1.00251 -1.56539,-1.49367 0,-1.40899 -6.303229,-0.97849 -8.347199,0.57011 -1.01596,0.76973 -2.4599,1.1644 -3.20876,0.87703 -0.74886,-0.28736 -2.93764,-0.002 -4.86397,0.63342 -1.92632,0.63575 -5.85822,1.36999 -8.73754,1.63164 -2.87933,0.26166 -5.8079,0.95108 -6.50792,1.53205 -1.40813,1.16865 -21.83895,0.97728 -24.34882,-0.22806 -1.40342,-0.67398 -4.98579,1.0543 -4.98579,2.40535 0,0.7247 12.52559,1.4974 16,0.98704 1.375,-0.20198 6.1,-0.49724 10.5,-0.65615 z m -28.5,-1.14544 c 1.07287,-1.29273 0.66615,-1.5 -2.9433,-1.5 -2.3035,0 -5.0704,-0.47215 -6.14867,-1.04922 -1.07826,-0.57707 -4.31118,-1.19445 -7.18425,-1.37197 -2.87308,-0.17751 -5.89878,-0.57901 -6.72378,-0.89223 -0.825,-0.31321 -2.4,-0.71293 -3.5,-0.88825 -2.4873,-0.39643 -3.30906,-4.55063 -1.07014,-5.40979 0.86358,-0.33138 1.57014,-1.03093 1.57014,-1.55455 0,-0.52361 -0.3401,-0.74183 -0.75577,-0.48493 -0.41567,0.2569 -2.44067,-0.35246 -4.5,-1.35413 -2.05933,-1.00167 -3.74423,-1.46656 -3.74423,-1.03308 0,3.00433 1.47066,7.03815 2.56598,7.03815 0.72379,0 1.63162,0.5107 2.01739,1.1349 0.90443,1.4634 -7.64986,0.27198 -12.4724,-1.73713 -2.40909,-1.00365 -3.7568,-1.10666 -4.66097,-0.35627 -1.68988,1.40247 -2.79806,-0.36948 -1.9339,-3.09224 0.46084,-1.45196 1.19365,-1.85877 2.56455,-1.42366 1.98259,0.62925 2.69067,-0.93086 0.91935,-2.0256 -0.55,-0.33992 -1,-1.78622 -1,-3.214 0,-2.48744 0.0795,-2.52406 1.90072,-0.87584 1.3076,1.18335 2.11551,1.37259 2.58903,0.60642 0.49529,-0.80139 1.11632,-0.75848 2.21462,0.15303 1.29111,1.07153 1.46086,0.96344 1.10158,-0.70144 -0.2336,-1.08249 -0.93308,-1.86481 -1.5544,-1.73848 -0.62132,0.12632 -1.42285,-0.69404 -1.78118,-1.82303 -0.61711,-1.94436 -0.75095,-1.96272 -2.53551,-0.34771 -1.79451,1.62401 -1.93272,1.57688 -2.90943,-0.99207 -0.56399,-1.48339 -1.02543,-3.11778 -1.02543,-3.63198 0,-0.51419 -0.675,-0.9349 -1.5,-0.9349 -0.825,0 -1.5,0.47656 -1.5,1.05902 0,0.58246 -0.53515,0.72827 -1.18922,0.32404 -0.80693,-0.49872 -0.47044,-1.0557 1.04679,-1.73271 2.78588,-1.24309 2.53711,-5.02356 -0.35757,-5.43379 -1.398,-0.19812 -2.39033,0.60444 -3.29678,2.66634 -1.13759,2.58764 -1.04551,3.41859 0.75,6.76863 1.14211,2.13093 2.04678,3.0519 2.04678,2.08366 0,-0.95435 0.45,-1.73519 1,-1.73519 0.55,0 1.00277,0.5625 1.00616,1.25 0.003,0.6875 0.62777,2.44137 1.38752,3.8975 1.33414,2.557 1.27411,2.67265 -1.75616,3.38344 -1.72564,0.40477 -3.70002,0.65617 -4.38752,0.55867 -2.07319,-0.29403 -1.40547,2.68225 1,4.4574 1.2751,0.94098 1.76984,1.84775 1.14181,2.09277 -0.6095,0.23779 -1.9595,1.10491 -3,1.92692 -1.84519,1.45775 -1.84252,1.49099 0.10819,1.34879 4.97682,-0.3628 6.5,0.11184 6.5,2.02549 0,1.06754 -0.45734,2.22364 -1.01631,2.5691 -1.14224,0.70595 -0.37179,2.48992 1.07533,2.48992 0.51754,0 0.94098,-1.09844 0.94098,-2.44098 0,-1.34254 0.45,-2.7191 1,-3.05902 0.55,-0.33992 1.00689,0.19602 1.01531,1.19098 0.0115,1.36064 0.22318,1.48118 0.85396,0.48631 0.81485,-1.28518 1.59127,-1.25896 10.63073,0.35905 1.65,0.29534 5.25,0.74904 8,1.00823 2.75,0.25919 8.15,1.10041 12,1.86938 9.42442,1.88235 13.98817,1.90769 15.5,0.0861 z m -54,-1.44098 c 0,-2.19922 -1.50635,-3.48215 -3.0027,-2.55735 -0.66681,0.41211 -0.65502,1.26937 0.0352,2.55902 1.33562,2.49564 2.96752,2.49472 2.96752,-0.002 z m 182.683112,-1.24652 c -0.31922,-0.79773 -0.55618,-0.56078 -0.60416,0.60417 -0.0434,1.05416 0.19293,1.64479 0.52522,1.3125 0.33229,-0.3323 0.36781,-1.1948 0.0789,-1.91667 z m -82.683112,-4.93053 c 0,-0.55 -0.45,-0.72189 -1,-0.38197 -0.55,0.33992 -1,1.06803 -1,1.61803 0,0.55 0.45,0.72189 1,0.38197 0.55,-0.33992 1,-1.06803 1,-1.61803 z m -115,-0.38197 c 0,-1.62882 -0.91477,-1.85367 -3.50206,-0.86084 -1.32869,0.50987 -1.39581,0.81021 -0.33179,1.48469 2.0727,1.31388 3.83385,1.0273 3.83385,-0.62385 z m -14.01531,-6.65638 c 0.0108,-1.17088 -0.57548,-1.50189 -2.00027,-1.12929 -2.85602,0.74686 -3.25687,1.87036 -1.34829,3.77894 1.33556,1.33556 1.81631,1.3993 2.49387,0.33062 0.46166,-0.72814 0.84627,-2.06926 0.85469,-2.98027 z m 43.01531,2.34751 c 0,-1.94909 -2.55738,-6.01059 -3.26768,-5.18956 -0.23716,0.27414 -0.0361,1.96093 0.44683,3.74843 0.93928,3.4767 2.82085,4.43797 2.82085,1.44113 z m 131.999999,0.85371 c 0,-1.0768 -2.62466,-2.08684 -3.40223,-1.30927 -1.1147,1.1147 -0.60469,1.8383 1.40223,1.98948 1.1,0.0829 2,-0.22324 2,-0.68021 z m -180.999999,-0.98582 c 0,-0.51754 -0.45,-1.2191 -1,-1.55902 -0.55,-0.33992 -1,0.0835 -1,0.94098 0,0.85746 0.45,1.55902 1,1.55902 0.55,0 1,-0.42344 1,-0.94098 z m 79,-0.059 c 0,-0.55 -0.45,-1 -1,-1 -0.55,0 -1,0.45 -1,1 0,0.55 0.45,1 1,1 0.55,0 1,-0.45 1,-1 z m -49,-1.5 c 0,-0.825 -0.45,-1.5 -1,-1.5 -0.55,0 -1,0.675 -1,1.5 0,0.825 0.45,1.5 1,1.5 0.55,0 1,-0.675 1,-1.5 z m 103.45729,0.5691 c 0.31644,-0.512 0.11799,-1.21356 -0.44098,-1.55902 -0.55897,-0.34546 -1.01631,0.0734 -1.01631,0.9309 0,1.75653 0.60006,2.01516 1.45729,0.62812 z m -144.95729,-1.0691 c 0.33992,-0.55 -0.0835,-1 -0.94098,-1 -0.85746,0 -1.55902,0.45 -1.55902,1 0,0.55 0.42344,1 0.94098,1 0.51754,0 1.2191,-0.45 1.55902,-1 z m 28.70802,-0.87595 c 0.70216,2.10649 2.79278,-0.10188 2.77667,-2.93307 -0.012,-2.10476 -0.22649,-2.36421 -0.98469,-1.19098 -0.64625,1 -0.97448,1.08333 -0.98469,0.25 -0.026,-2.12144 -1.45244,-1.36977 -2.76531,1.45717 -1.64629,3.54488 -1.54243,5.26236 0.1808,2.98983 0.93813,-1.23717 1.49587,-1.41698 1.77722,-0.57295 z m 110.79198,0.26896 c 0,-0.21615 -0.675,-0.39301 -1.5,-0.39301 -0.825,0 -1.5,0.43588 -1.5,0.96862 0,0.53273 0.675,0.70959 1.5,0.39301 0.825,-0.31659 1.5,-0.75246 1.5,-0.96862 z m -160,-0.33399 c 0,-0.51754 -0.45,-1.2191 -1,-1.55902 -0.55,-0.33992 -1,0.0835 -1,0.94098 0,0.85746 0.45,1.55902 1,1.55902 0.55,0 1,-0.42344 1,-0.94098 z m 26.5884,-2.80396 c -1.0924,-1.0924 -1.84148,0.64486 -1.05718,2.45181 0.74368,1.71337 0.79759,1.71181 1.21194,-0.0351 0.2385,-1.00555 0.16886,-2.09305 -0.15476,-2.41667 z m -13.5884,1.74494 c 0,-0.55 -0.47656,-1 -1.05902,-1 -0.58246,0 -0.7809,0.45 -0.44098,1 0.33992,0.55 0.81648,1 1.05902,1 0.24254,0 0.44098,-0.45 0.44098,-1 z m 79,-1.05902 c 0,-0.51754 -0.675,-0.94098 -1.5,-0.94098 -0.825,0 -1.5,-0.675 -1.5,-1.5 0,-0.85333 -0.89815,-1.5 -2.08333,-1.5 -2.61225,0 -2.0581,2.15181 0.89802,3.48713 1.20192,0.54292 2.18531,1.35698 2.18531,1.80902 0,0.45203 0.45,0.54377 1,0.20385 0.55,-0.33992 1,-1.04148 1,-1.55902 z m -82,-0.5 c 0,-0.85746 -0.45,-1.2809 -1,-0.94098 -0.55,0.33992 -1,1.04148 -1,1.55902 0,0.51754 0.45,0.94098 1,0.94098 0.55,0 1,-0.70156 1,-1.55902 z m 134,0.61804 c 0,-0.51754 -0.40775,-1.19299 -0.90612,-1.501 -0.49837,-0.30801 -0.69516,-1.57206 -0.43733,-2.80902 0.45485,-2.18211 0.42595,-2.17694 -0.97167,0.17403 -1.07846,1.81412 -1.15704,2.74695 -0.31267,3.71197 1.33987,1.53131 2.62779,1.73913 2.62779,0.42402 z m 8.44721,-1.14443 c -0.32197,-0.52097 -1.01165,-0.68378 -1.53262,-0.3618 -0.52097,0.32197 -0.68378,1.01165 -0.3618,1.53262 0.32197,0.52097 1.01165,0.68378 1.53262,0.3618 0.52097,-0.32197 0.68378,-1.01165 0.3618,-1.53262 z m 10.4825,1.33541 c -0.0387,-0.4125 -0.45702,-1.65 -0.92971,-2.75 -0.76156,-1.77225 -0.86743,-1.68684 -0.92971,0.75 -0.0387,1.5125 0.37971,2.75 0.92971,2.75 0.55,0 0.96837,-0.3375 0.92971,-0.75 z m 6.05498,-1.5 c -0.012,-1.75671 -0.21673,-1.9316 -0.93402,-0.79775 -0.50529,0.79874 -0.69684,1.81124 -0.42567,2.25 0.86737,1.40343 1.37543,0.86078 1.35969,-1.45225 z m 10.19864,0.0333 c -0.91111,-0.91111 -1.47089,-0.87352 -2.43333,0.16337 -0.84293,0.90814 -0.86543,1.13079 -0.0691,0.68369 0.6495,-0.36466 1.48206,-0.17573 1.85014,0.41983 0.36808,0.59556 0.93167,0.8204 1.25243,0.49964 0.32076,-0.32075 0.0507,-1.11569 -0.60014,-1.76653 z m -112.18333,0.82369 c 0,-0.21616 -0.675,-0.65203 -1.5,-0.96862 -0.825,-0.31658 -1.5,-0.13972 -1.5,0.39301 0,0.53274 0.675,0.96862 1.5,0.96862 0.825,0 1.5,-0.17686 1.5,-0.39301 z m 44,0 c 0,-0.94863 -2.99338,-1.42672 -3.52699,-0.56332 -0.32508,0.52598 0.33551,0.95633 1.46797,0.95633 1.13246,0 2.05902,-0.17686 2.05902,-0.39301 z m 60.68311,-2.79449 c -0.31922,-0.79773 -0.55618,-0.56078 -0.60416,0.60417 -0.0434,1.05416 0.19293,1.64479 0.52522,1.3125 0.33229,-0.3323 0.36781,-1.1948 0.0789,-1.91667 z m -13.24787,-0.70772 c 0.3043,-0.49236 -0.0962,-1.14445 -0.89006,-1.44907 -0.96277,-0.36945 -1.25818,-0.0714 -0.88726,0.89522 0.6446,1.67981 1.01089,1.79396 1.77732,0.55385 z m -135.75213,-2.29228 c -0.31922,-0.79773 -0.55618,-0.56078 -0.60416,0.60417 -0.0434,1.05416 0.19292,1.64479 0.52522,1.3125 0.33229,-0.3323 0.36781,-1.1948 0.0789,-1.91667 z m 15.31689,1.74652 c 0,-0.24254 -0.45,-0.7191 -1,-1.05902 -0.55,-0.33992 -1,-0.14148 -1,0.44098 0,0.58246 0.45,1.05902 1,1.05902 0.55,0 1,-0.19844 1,-0.44098 z m 55.77083,-0.74654 c -0.61807,-1.85422 -2.77083,-2.16176 -2.77083,-0.39583 0,0.87083 0.7125,1.58333 1.58333,1.58333 0.87084,0 1.40521,-0.53437 1.1875,-1.1875 z m -51.77083,-2.5125 c 0,-2.01099 -0.28907,-2.41093 -1.13278,-1.56722 -0.62303,0.62303 -0.86216,1.83803 -0.53139,2.7 0.91543,2.38558 1.66417,1.87592 1.66417,-1.13278 z m -48,-0.35902 c 0,-1.13246 -0.43035,-1.79305 -0.95633,-1.46797 -0.52598,0.32507 -0.70283,1.25163 -0.39301,2.05902 0.79323,2.06711 1.34934,1.82352 1.34934,-0.59105 z m 143.68311,-0.12848 c -0.31922,-0.79773 -0.55618,-0.56078 -0.60416,0.60417 -0.0434,1.05416 0.19292,1.64479 0.52522,1.3125 0.33229,-0.3323 0.36781,-1.1948 0.0789,-1.91667 z m 58.316889,1.1875 c 0,-0.55 -0.45,-1 -1,-1 -0.55,0 -1,0.45 -1,1 0,0.55 0.45,1 1,1 0.55,0 1,-0.45 1,-1 z m -148.299359,-1.25 c 0.52003,-0.6875 0.97927,-2.375 1.02052,-3.75 0.0412,-1.375 -0.14164,-1.9375 -0.40641,-1.25 -0.26478,0.6875 -1.06646,1.25 -1.78151,1.25 -0.71505,0 -1.51514,1.125 -1.77799,2.5 -0.51393,2.68847 1.28107,3.45026 2.94539,1.25 z m 36.02853,0.64583 c -0.3323,-0.33229 -1.1948,-0.36781 -1.91667,-0.0789 -0.79773,0.31922 -0.56078,0.55618 0.60417,0.60416 1.05416,0.0434 1.64479,-0.19292 1.3125,-0.52522 z m 45.25552,-2.70485 c -0.0125,-1.78123 -0.1966,-1.91046 -0.98469,-0.69098 -1.27319,1.97012 -1.27319,4.28687 0,3.5 0.55,-0.33992 0.99311,-1.60398 0.98469,-2.80902 z m -90.43639,-0.70886 c 0.0436,-2.24337 -1.07523,-3.9262 -2.63744,-3.96681 -0.32403,-0.008 -0.54903,1.57102 -0.5,3.50987 0.0649,2.56798 0.49644,3.4456 1.58914,3.23212 0.83434,-0.16301 1.52143,-1.39456 1.5483,-2.77518 z m -30.5483,0.0179 c 0,-1.1 -0.45,-2 -1,-2 -0.55,0 -1,0.9 -1,2 0,1.1 0.45,2 1,2 0.55,0 1,-0.9 1,-2 z m 10,0.44098 c 0,-0.85746 -0.45734,-1.27636 -1.01631,-0.9309 -0.55897,0.34546 -0.75742,1.04702 -0.44098,1.55902 0.85723,1.38704 1.45729,1.12841 1.45729,-0.62812 z m -33.27083,-1.04515 c -0.33229,-0.33229 -1.1948,-0.36781 -1.91667,-0.0789 -0.79773,0.31922 -0.56078,0.55618 0.60417,0.60416 1.05416,0.0434 1.64479,-0.19292 1.3125,-0.52522 z m 94.27083,-0.95485 c 0,-0.85746 -0.45734,-1.27636 -1.01631,-0.9309 -0.55897,0.34546 -0.75742,1.04702 -0.44098,1.55902 0.85723,1.38704 1.45729,1.12841 1.45729,-0.62812 z m 40.39699,-0.60765 c -0.28326,-0.45833 -0.93847,-0.83333 -1.45601,-0.83333 -0.51754,0 -0.94098,0.375 -0.94098,0.83333 0,0.45834 0.65521,0.83334 1.45601,0.83334 0.80081,0 1.22425,-0.375 0.94098,-0.83334 z m 36.60301,0.16667 c 0,-0.55 -0.47656,-1 -1.05902,-1 -0.58246,0 -0.7809,0.45 -0.44098,1 0.33992,0.55 0.81648,1 1.05902,1 0.24254,0 0.44098,-0.45 0.44098,-1 z m 102.000002,0.21924 c 0,-1.13103 -6.11271,-3.26762 -7.28164,-2.54518 -1.18033,0.72948 3.04018,3.24006 5.53164,3.2905 0.9625,0.0195 1.75,-0.3159 1.75,-0.74532 z m -164.872442,-1.9112 c 1.14481,-1.41133 1.14657,-1.55594 0.0106,-0.87188 -0.83777,0.5045 -1.6977,0.28976 -2.23469,-0.55804 -0.64788,-1.02289 -0.87683,-0.79814 -0.8882,0.87188 -0.0182,2.67399 1.21632,2.89535 3.11225,0.55804 z m 47.14291,-0.43757 c -0.60291,-0.60291 -1.66805,-0.74279 -2.36696,-0.31084 -0.9387,0.58015 -0.76548,0.96881 0.66287,1.48735 2.36753,0.85949 3.1795,0.2989 1.70409,-1.17651 z m 8.71422,-2.12047 c 0.008,-0.9625 -0.43469,-1.75 -0.98469,-1.75 -0.55,0 -0.99311,1.4625 -0.98469,3.25 0.0116,2.46622 0.24909,2.88826 0.98469,1.75 0.53316,-0.825 0.97627,-2.2875 0.98469,-3.25 z m -71.98469,-0.86803 c 0,-0.55 -0.45,-0.72189 -1,-0.38197 -0.55,0.33992 -1,1.06803 -1,1.61803 0,0.55 0.45,0.72189 1,0.38197 0.55,-0.33992 1,-1.06803 1,-1.61803 z m 82,1.11803 c 0,-0.55 -0.45,-1 -1,-1 -0.55,0 -1,0.45 -1,1 0,0.55 0.45,1 1,1 0.55,0 1,-0.45 1,-1 z m -184.39583,-3.729171 c -1.01652,-1.01651 -1.85525,0.51389 -1.02122,1.863381 0.63003,1.01942 0.86558,1.02021 1.2043,0.004 0.2316,-0.69479 0.14921,-1.535121 -0.18308,-1.867421 z m 104.07894,-1.45833 c -0.31922,-0.79773 -0.55618,-0.56078 -0.60416,0.60417 -0.0434,1.05416 0.19292,1.64479 0.52522,1.3125 0.33229,-0.3323 0.36781,-1.1948 0.0789,-1.91667 z m 95.85801,1.12097 c 0.36253,-0.58659 0.46097,-1.26472 0.21874,-1.50695 -0.74407,-0.74406 -6.75986,0.76746 -6.75986,1.69848 0,1.252791 5.75258,1.084341 6.54112,-0.19153 z m -91.54112,-2.13347 c 0,-1.61542 -0.29571,-1.90429 -1.11287,-1.08713 -0.61207,0.61207 -0.81052,1.60207 -0.44098,2.2 1.03439,1.67368 1.55385,1.30164 1.55385,-1.11287 z m 67.5,0.23092 c 10.5446,0.0581 26.21756,-3.06087 25.03074,-4.98118 -0.26822,-0.43399 -2.40986,-0.41732 -4.7592,0.037 -2.34935,0.45436 -6.88936,0.84571 -10.08893,0.86966 -5.37116,0.0402 -5.76869,-0.10986 -5.18261,-1.95645 0.36414,-1.14731 0.1797,-2 -0.43261,-2 -0.58707,0 -1.06739,0.80298 -1.06739,1.78439 0,2.86131 -4.83089,4.90897 -11,4.66255 -3.025,-0.12083 -5.95,-0.34227 -6.5,-0.49208 -0.55,-0.14981 -1.84711,0.0951 -2.88247,0.5442 -1.06381,0.46147 -2.5859,0.38461 -3.5,-0.17673 -1.49189,-0.91615 -9.87872,-0.87152 -16.32327,0.0869 -1.48816,0.22131 -3.19445,-0.18646 -3.79174,-0.90616 -0.83546,-1.00667 -0.44196,-1.52553 1.70574,-2.24913 2.78259,-0.93751 2.78413,-0.94304 0.46871,-1.68782 -2.21804,-0.71344 -2.24493,-0.83351 -0.59501,-2.65665 1.64293,-1.81541 1.63421,-1.91524 -0.17697,-2.02731 -5.85363,-0.3622 -8.65626,-0.76426 -15.90499,-2.28173 -7.20516,-1.50834 -9.50982,-2.06049 -17.25,-4.13278 -1.59382,-0.42671 -2.25,-0.16922 -2.25,0.88291 0,1.06057 2.64509,2.06503 9.25,3.51263 14.39569,3.15513 16.07899,3.47459 18.75,3.5584 1.375,0.0431 2.36908,0.52845 2.20906,1.07845 -0.16002,0.55 -1.06002,0.9548 -2,0.89956 -3.44028,-0.20217 -11.90582,-1.41179 -19.67791,-2.81172 -8.44507,-1.52114 -9.53115,-1.39653 -9.53115,1.09362 0,1.27633 -0.27545,1.33483 -1.5,0.31854 -1.22851,-1.01957 -1.5,-0.95123 -1.5,0.37755 0,0.89235 0.45,1.62245 1,1.62245 0.55,0 1,0.87344 1,1.94098 0,2.42693 1.60306,3.5358 2.33902,1.61794 0.41167,-1.0728 1.74489,-1.29804 5.342,-0.90248 2.63638,0.28991 5.58667,0.95164 6.5562,1.47052 0.96953,0.51887 1.76278,0.68674 1.76278,0.37304 0,-0.3137 0.82776,-0.12736 1.83948,0.41409 1.99594,1.0682 16.22493,2.19817 30.83742,2.44891 5.0473,0.0866 9.43451,0.41508 9.74937,0.72994 0.31486,0.31486 3.16026,0.19728 6.3231,-0.2613 3.16285,-0.45858 8.45063,-0.8189 11.75063,-0.80072 z m -48.5,-2.69706 c -5.73716,-0.90365 -7.37559,-1.4837 -6.21575,-2.20052 1.77816,-1.09896 10.49608,0.18591 10.96913,1.61666 0.41416,1.25265 -0.10359,1.31625 -4.75338,0.58386 z m -13.25,-3.02319 c -0.9625,-0.25152 -1.75,-0.83219 -1.75,-1.29038 0,-0.45817 0.9,-0.59769 2,-0.31004 1.1,0.28766 2,0.92053 2,1.40638 0,0.48585 -0.1125,0.83117 -0.25,0.76737 -0.1375,-0.0638 -1.0375,-0.3218 -2,-0.57333 z m 58.25,-0.75165 c 0,-0.24254 -0.45,-0.7191 -1,-1.05902 -0.55,-0.33992 -1,-0.14148 -1,0.44098 0,0.58246 0.45,1.05902 1,1.05902 0.55,0 1,-0.19844 1,-0.44098 z m -8,-3.61804 c 0,-0.51754 -0.66088,-0.94098 -1.46862,-0.94098 -0.89208,0 -1.24351,0.5866 -0.89521,1.49426 0.59029,1.53826 2.36383,1.12315 2.36383,-0.55328 z m 16.12188,0.15551 c -0.75796,-0.48009 -1.08812,-1.3421 -0.73368,-1.91559 0.35443,-0.57349 0.18708,-1.32535 -0.37189,-1.67082 -0.55897,-0.34546 -1.01631,0.22344 -1.01631,1.26424 0,2.13817 0.82406,3.23288 2.41667,3.21037 0.59583,-0.008 0.46318,-0.40811 -0.29479,-0.8882 z m 15.16823,-1.09787 c 0.28785,-1.10076 0.11534,-1.7492 -0.38337,-1.44098 -0.49871,0.30822 -0.90674,1.20884 -0.90674,2.00138 0,2.06975 0.6795,1.77459 1.29011,-0.5604 z m -165.51959,-1.56133 c 2.89879,-0.3179 7.93978,-0.67482 11.20219,-0.79316 6.25638,-0.22695 9.40714,-1.51904 4.44396,-1.82241 -3.46068,-0.21153 -4.37212,-0.17511 -15.41667,0.61606 -11.54486,0.82702 -15,1.45732 -15,2.73636 0,0.71314 1.62371,0.87118 4.75,0.46234 2.6125,-0.34166 7.12174,-0.88129 10.02052,-1.19919 z m 126.22948,0.64217 c 0,-0.5063 -1.4625,-1.2684 -3.25,-1.69355 -1.7875,-0.42515 -3.5875,-0.85465 -4,-0.95445 -0.4125,-0.0998 -1.0301,-0.23771 -1.37244,-0.30646 -0.34235,-0.0688 -0.0126,-0.9125 0.73276,-1.875 1.07367,-1.38644 0.88526,-1.34872 -0.90688,0.18153 -2.05734,1.7567 -2.70716,1.81747 -7.17895,0.67138 -2.70427,-0.69308 -5.95357,-1.15668 -7.22067,-1.03023 -2.47001,0.2465 -7.80382,-1.59018 -7.80382,-2.68722 0,-0.69985 7.92233,0.11299 11.75,1.20556 1.37345,0.39204 2.25,0.20723 2.25,-0.47439 0,-0.61415 -0.87344,-1.11663 -1.94098,-1.11663 -1.06754,0 -2.2014,-0.42137 -2.51969,-0.93637 -0.31829,-0.515 -1.35735,-0.88565 -2.30902,-0.82366 -0.95167,0.062 -3.47642,-0.22303 -5.61056,-0.63338 -2.96627,-0.57035 -3.60422,-1.02212 -2.70836,-1.91798 0.75448,-0.75448 1.4242,-0.81868 1.88025,-0.18025 0.3896,0.5454 2.73336,1.04086 5.20836,1.10102 2.475,0.0602 7.37758,0.28516 10.89461,0.5 9.3565,0.57155 9.26339,-1.65009 -0.10563,-2.52024 -9.68403,-0.89939 -13.78898,-1.65611 -13.78898,-2.5419 0,-0.40159 2.1375,-0.37833 4.75,0.0517 6.65136,1.09482 13.25,1.07651 13.25,-0.0368 0,-0.51581 -0.7875,-0.9587 -1.75,-0.98419 -4.3498,-0.11521 -9.67423,-1.10218 -10.5226,-1.95055 -0.57339,-0.57339 1.79319,-0.79964 6.17128,-0.59 3.90573,0.18702 7.10132,-0.0451 7.10132,-0.51582 0,-0.99888 -8.74816,-3.02159 -13.06827,-3.02159 -2.62533,0 -2.90081,0.27502 -2.37479,2.37083 0.50997,2.03189 0.26251,2.33054 -1.73095,2.08906 -1.2793,-0.15498 -6.13918,-0.77185 -10.79976,-1.37083 -10.44919,-1.34294 -12.02623,-1.35462 -12.02623,-0.0891 0,0.55 0.3375,0.94671 0.75,0.88158 2.39335,-0.3779 5.25,0.26738 5.25,1.1859 0,0.63612 -1.67643,0.93919 -4.14863,0.75 -2.49237,-0.19073 -4.30886,0.14163 -4.55,0.83252 -0.24815,0.711 0.85838,1.16471 2.89863,1.18854 1.815,0.0212 5.72392,0.5162 8.68649,1.1 2.96257,0.58381 5.57663,1.06146 5.80902,1.06146 0.23239,0 0.16903,0.41016 -0.1408,0.91147 -0.30982,0.50131 -1.79888,0.70383 -3.30901,0.45005 -1.51014,-0.25379 -5.17236,-0.70568 -8.13827,-1.00421 -4.65123,-0.46816 -5.30856,-0.32382 -4.78139,1.04996 0.33616,0.876 0.17531,1.59273 -0.35742,1.59273 -0.53274,0 -0.96862,0.38321 -0.96862,0.85158 0,1.33618 21.97324,6.67484 24.22138,5.88488 0.70324,-0.24712 2.35253,-0.0517 3.66508,0.43425 1.31255,0.48595 4.01255,1.14587 6,1.46648 1.98745,0.32061 5.63854,0.93047 8.11354,1.35525 6.48047,1.11223 10,1.14285 10,0.087 z m -41.5,-8.55146 -4,-1.31829 3.16821,-0.10486 c 3.66739,-0.12137 6.33179,0.72112 6.33179,2.00214 0,1.11389 -0.53398,1.05768 -5.5,-0.57899 z m 6.5,0.41298 c 0,-0.58246 0.45,-0.7809 1,-0.44098 0.55,0.33992 1,0.81648 1,1.05902 0,0.24254 -0.45,0.44098 -1,0.44098 -0.55,0 -1,-0.47656 -1,-1.05902 z m 1.5,-7.94098 c -0.33992,-0.55 -0.14148,-1 0.44098,-1 0.58246,0 1.05902,0.45 1.05902,1 0,0.55 -0.19844,1 -0.44098,1 -0.24254,0 -0.7191,-0.45 -1.05902,-1 z m -7.5,-1 c -1.16887,-0.75538 -0.89294,-0.97275 1.25,-0.98469 1.5125,-0.008 2.75,0.43469 2.75,0.98469 0,1.26441 -2.04347,1.26441 -4,0 z m 50.73628,12.85092 c 0.11422,-1.5163 -0.1508,-1.8364 -0.90007,-1.08713 -0.58407,0.58407 -0.7596,1.55116 -0.39006,2.14908 0.94006,1.52105 1.10583,1.3846 1.29013,-1.06195 z m -12.27061,-2.70106 c -0.56346,-0.59314 -2.46567,0.91014 -2.46567,1.94858 0,0.53923 0.62961,0.40017 1.39914,-0.30901 0.76953,-0.70919 1.24947,-1.44699 1.06653,-1.63957 z m 27.21744,0.66264 c -0.31922,-0.79773 -0.55618,-0.56078 -0.60416,0.60417 -0.0434,1.05416 0.19293,1.64479 0.52522,1.3125 0.33229,-0.33229 0.36781,-1.19479 0.0789,-1.91667 z m -131.43311,-0.0678 c 9.87773,0.0298 17.75,-0.34528 17.75,-0.8456 0,-0.49448 -1.0125,-0.90618 -2.25,-0.91489 -1.2375,-0.009 -7.63593,-0.46198 -14.21874,-1.00729 -12.98431,-1.07558 -22.43103,-0.007 -24.76066,2.79953 -1.10811,1.33519 -0.83279,1.42384 2.23271,0.7189 1.92318,-0.44225 11.48419,-0.78005 21.24669,-0.75065 z m 147.75,-0.74466 c 0,-0.55 -0.47656,-1 -1.05902,-1 -0.58246,0 -0.7809,0.45 -0.44098,1 0.33992,0.55 0.81648,1 1.05902,1 0.24254,0 0.44098,-0.45 0.44098,-1 z m -37,-2 c 0.825,-0.53316 1.05,-0.96937 0.5,-0.96937 -0.55,0 -1.675,0.43621 -2.5,0.96937 -0.825,0.53316 -1.05,0.96937 -0.5,0.96937 0.55,0 1.675,-0.43621 2.5,-0.96937 z m 13.45729,-5.9309 c 0.31644,-0.512 0.11799,-1.21355 -0.44098,-1.55902 -0.55897,-0.34546 -1.01631,0.0734 -1.01631,0.9309 0,1.75653 0.60006,2.01516 1.45729,0.62812 z m 25.54271,-1.18713 c 0,-0.55 -0.45,-0.72189 -1,-0.38197 -0.55,0.33992 -1,1.06803 -1,1.61803 0,0.55 0.45,0.72189 1,0.38197 0.55,-0.33992 1,-1.06803 1,-1.61803 z m -12,-1.44099 c 0,-0.85746 -0.45,-1.2809 -1,-0.94098 -0.55,0.33992 -1,1.04148 -1,1.55902 0,0.51754 0.45,0.94098 1,0.94098 0.55,0 1,-0.70156 1,-1.55902 z m -35,-2.44098 c 0,-1.1 -0.17252,-2 -0.38337,-2 -0.21085,0 -0.61872,0.9 -0.90638,2 -0.28766,1.1 -0.11514,2 0.38337,2 0.49851,0 0.90638,-0.9 0.90638,-2 z m 29.08466,-4.31533 c -1.29508,-1.29509 -1.5032,1.11706 -0.34369,3.98354 0.6524,1.61284 0.78205,1.54907 1.08466,-0.53355 0.18904,-1.30093 -0.1444,-2.85343 -0.74097,-3.44999 z m -19.08466,3.31533 c 0,-0.55 -0.45,-1 -1,-1 -0.55,0 -1,0.45 -1,1 0,0.55 0.45,1 1,1 0.55,0 1,-0.45 1,-1 z m -32.62784,-1.02784 c -0.96085,-0.96085 -7.17917,-2.21873 -17.12216,-3.46358 -7.2298,-0.90517 -4.67989,1.05919 3.5,2.69626 9.5016,1.90159 15.0701,2.21526 13.62216,0.76732 z m 36.5725,-9.53884 c -1.56709,-1.88823 -3.15143,-0.7969 -1.97881,1.36304 0.50868,0.937 1.27739,3.50364 1.70823,5.70364 l 0.78335,4 0.32925,-4.82769 c 0.185,-2.71259 -0.18391,-5.44601 -0.84202,-6.23899 z m -14.94466,7.7264 c 0,-1.55609 -31.10417,-6.83141 -33.07981,-5.6104 -1.65092,1.02033 0.0838,2.45068 2.97216,2.45068 1.52587,0 3.09588,0.32156 3.4889,0.71458 0.76241,0.76241 0.88193,0.77901 13.11875,1.82224 4.4,0.37512 8.1875,0.85779 8.41667,1.0726 0.8083,0.75769 5.08333,0.37949 5.08333,-0.4497 z m 21,-4.6007 c 0,-0.79254 -0.45,-1.7191 -1,-2.05902 -0.55,-0.33992 -1,0.30852 -1,1.44098 0,1.13246 0.45,2.05902 1,2.05902 0.55,0 1,-0.64844 1,-1.44098 z m -56,-0.44244 c 0,-0.95631 -5.19751,-2.23927 -5.97104,-1.4739 -0.70683,0.69936 2.22221,2.32452 4.22104,2.34201 0.9625,0.008 1.75,-0.38223 1.75,-0.86811 z m 32.99929,-1.69161 c 3.9e-4,-0.59126 -1.46179,-1.06505 -3.24929,-1.05286 -1.7875,0.0122 -7.075,-0.57266 -11.75,-1.29966 -4.675,-0.72699 -9.175,-1.29555 -10,-1.26347 -0.825,0.0321 -3.67389,-0.41541 -6.33086,-0.99446 -3.27744,-0.71426 -5.1582,-0.72546 -5.84884,-0.0348 -1.04752,1.04752 0.96989,1.70653 8.1797,2.67197 1.925,0.25777 6.425,0.92824 10,1.48993 11.99696,1.88492 18.99826,2.06304 18.99929,0.48338 z m 4.00071,1.13405 c 0,-1.05548 -1.91911,-1.49891 -2.48992,-0.57533 -0.34546,0.55897 0.0734,1.01631 0.9309,1.01631 0.85746,0 1.55902,-0.19844 1.55902,-0.44098 z m 8,-2.55902 c 0,-1.1 -0.45,-2 -1,-2 -0.55,0 -1,0.9 -1,2 0,1.1 0.45,2 1,2 0.55,0 1,-0.9 1,-2 z m 18.66228,-1.25 c -0.27741,-0.6875 -0.50439,-0.125 -0.50439,1.25 0,1.375 0.22698,1.9375 0.50439,1.25 0.27741,-0.6875 0.27741,-1.8125 0,-2.5 z m -5,-1 c -0.27741,-0.6875 -0.50439,-0.125 -0.50439,1.25 0,1.375 0.22698,1.9375 0.50439,1.25 0.27741,-0.6875 0.27741,-1.8125 0,-2.5 z m -21.82762,-1.61534 c 0.452,-3.19461 -1.42113,-5.01293 -2.30271,-2.23532 -0.75152,2.36782 -3.52408,2.66528 -10.03195,1.0763 -2.2,-0.53716 -6.7,-1.22151 -10,-1.52077 -3.3,-0.29926 -7.8,-0.71291 -10,-0.91923 -2.2,-0.20631 -4.7875,-0.68438 -5.75,-1.06236 -1.01544,-0.39878 -1.75,-0.23059 -1.75,0.40068 0,0.59836 1.0125,1.27862 2.25,1.51169 4.47092,0.84202 15.33817,2.598 19.32157,3.12206 2.23936,0.29461 6.06436,0.93598 8.5,1.42525 6.93103,1.39231 9.37537,0.94209 9.76309,-1.7983 z m 17.16534,-2.19368 c 0,-0.51754 -0.45,-0.94098 -1,-0.94098 -0.55,0 -1,0.70156 -1,1.55902 0,0.85746 0.45,1.2809 1,0.94098 0.55,-0.33992 1,-1.04148 1,-1.55902 z m -23,-1.87359 c 0,-1.0774 -3.37802,-2.37263 -7,-2.68399 -5.27588,-0.45354 -16.31881,-2.39798 -16.91667,-2.97869 -1.39104,-1.35113 2.14887,-1.20751 14.31918,0.58096 7.53895,1.10788 14.35751,2.01433 15.15234,2.01433 1.03907,0 1.43519,-1.19423 1.40971,-4.25 -0.0344,-4.12436 -0.0756,-4.17747 -1.39411,-1.79647 -1.58884,2.86918 -4.45822,2.96719 -21.07045,0.71971 -10.68613,-1.44573 -12.2705,-1.30657 -10.42611,0.91579 0.94995,1.14462 0.72315,1.43187 -1.20145,1.52166 -1.30484,0.0609 -3.38494,0.0287 -4.62244,-0.0716 -1.2375,-0.10024 -2.25,0.22985 -2.25,0.73353 0,0.84261 10.11175,2.72168 21,3.90241 2.475,0.26839 5.85,0.86072 7.5,1.31627 4.149,1.14552 5.5,1.1642 5.5,0.076 z m 2.75295,-12.81124 c 0.56898,-1.72778 -3.68333,-3.14756 -11.14331,-3.72057 -3.47287,-0.26676 -7.0096,-0.75183 -7.85938,-1.07792 -0.84979,-0.3261 -2.12992,0.0332 -2.84472,0.79838 -0.73421,0.78597 -2.41036,1.19099 -3.8526,0.93091 -1.45468,-0.26232 -2.20107,-0.0789 -1.73499,0.42634 0.86214,0.93463 21.81261,4.30787 25.10372,4.04197 1.05692,-0.0854 2.106,-0.71499 2.33128,-1.39911 z m 58.747049,229.743851 c 0.33992,-0.55 0.81648,-1 1.05902,-1 0.24254,0 0.44098,0.45 0.44098,1 0,0.55 -0.47656,1 -1.05902,1 -0.58246,0 -0.7809,-0.45 -0.44098,-1 z m -42.499999,-62.875 c 0,-4.04672 1.3176,-8.125 2.625,-8.125 1.68691,0 1.68833,-0.13953 -0.0487,4.78386 -0.78306,2.21943 -1.15806,4.30101 -0.83334,4.62573 0.32469,0.32473 0.0654,0.59041 -0.57629,0.59041 -0.64167,0 -1.16667,-0.84375 -1.16667,-1.875 z m -49.60699,-0.70679 c 0.33385,-0.86998 0.60699,-2.08498 0.60699,-2.7 0,-0.81571 0.30645,-0.81176 1.13278,0.0146 1.30949,1.30949 0.47192,4.26722 -1.20838,4.26722 -0.62721,0 -0.86582,-0.71028 -0.53139,-1.58179 z m 73.00748,-1.91821 c 0.56641,-5.05831 1.51265,-7.5 2.9065,-7.5 0.73124,0 0.69583,0.39718 -0.10699,1.2 -0.66,0.66 -1.20689,2.5725 -1.21531,4.25 -0.008,1.6775 -0.46909,3.725 -1.02371,4.55 -0.73251,1.08961 -0.88585,0.40562 -0.56049,-2.5 z m 4.61482,1.99963 c -0.0222,-2.89395 2.72671,-15.58233 3.54199,-16.34937 0.38014,-0.35764 0.44263,0.24974 0.13889,1.34974 -0.30375,1.1 -0.84418,4.72931 -1.20096,8.06514 -0.65044,6.08152 -2.44797,11.10787 -2.47992,6.93449 z m -95.51531,-3.49963 c 0.33992,-0.55 0.81648,-1 1.05902,-1 0.24254,0 0.44098,0.45 0.44098,1 0,0.55 -0.47656,1 -1.05902,1 -0.58246,0 -0.7809,-0.45 -0.44098,-1 z m 1.53041,-34.45 c -0.0222,-2.15133 0.26838,-2.65121 1.07321,-1.84638 0.79095,0.79095 0.79957,1.62674 0.0304,2.95 -0.94083,1.61863 -1.07696,1.48249 -1.10362,-1.10362 z m 35.96959,-6.55 c 0,-1.25292 1.06124,-1.25292 3,0 1.21296,0.78387 1.06944,0.9723 -0.75,0.98469 -1.2375,0.008 -2.25,-0.43469 -2.25,-0.98469 z m -12,-1.05902 c 0,-0.58246 0.45,-0.7809 1,-0.44098 0.55,0.33992 1,0.81648 1,1.05902 0,0.24254 -0.45,0.44098 -1,0.44098 -0.55,0 -1,-0.47656 -1,-1.05902 z m 8.8125,0.37591 c 0.72187,-0.28887 1.58437,-0.25335 1.91667,0.0789 0.33229,0.33229 -0.25834,0.56864 -1.3125,0.52522 -1.16495,-0.048 -1.4019,-0.28494 -0.60417,-0.60416 z m -93.11585,-4.66503 c -0.30737,-0.80098 -0.33638,-1.67879 -0.0645,-1.95069 0.80272,-0.80272 5.32532,0.70946 5.37991,1.79883 0.0817,1.63087 -4.6955,1.76735 -5.31542,0.15186 z m -17.10459,-0.50291 c -0.30038,-0.48602 -2.54037,-1.10845 -4.97776,-1.38318 -4.71155,-0.53106 -10.6143,-4.0072 -10.6143,-6.25079 0,-1.04023 0.85796,-0.92242 3.75,0.51491 5.60291,2.78462 10.92013,4.97011 12.09211,4.97011 1.48113,0 2.3705,1.75057 1.2433,2.44721 -0.52097,0.32198 -1.19298,0.18776 -1.49335,-0.29826 z m 64.70241,-0.40341 c -1.53696,-0.41495 -5.41206,-0.8441 -8.61133,-0.95367 -3.19927,-0.10957 -6.08061,-0.62597 -6.40296,-1.14755 -0.7487,-1.21141 18.50122,0.0344 28.71982,1.85863 l 7.5,1.33893 -9.20553,-0.17094 c -5.06304,-0.094 -10.46304,-0.51045 -12,-0.9254 z m -57.29447,-2.25586 c -5.77438,-3.06976 -5.69218,-3.03601 -11,-4.51608 -2.475,-0.69014 -3.91814,-1.46049 -3.20698,-1.71188 1.63237,-0.57702 10.20698,1.90673 10.20698,2.9566 0,0.42992 0.83086,0.78168 1.84636,0.78168 2.68302,0 8.27303,2.99781 7.60513,4.07849 -0.31324,0.50683 -0.65547,0.89495 -0.76051,0.86248 -0.10504,-0.0325 -2.21598,-1.13554 -4.69098,-2.45129 z m 19.5,0.38879 c -3.85,-1.07001 -8.98802,-2.38091 -11.41781,-2.91312 -2.4298,-0.5322 -4.6423,-1.19213 -4.91667,-1.4665 -1.12629,-1.12629 6.39297,-0.36948 16.04902,1.61533 5.657,1.1628 12.76046,2.0578 15.78546,1.98889 5.08609,-0.11587 5.35392,-0.0116 3.55887,1.38582 -2.29815,1.78904 -3.76258,1.9074 -5.246,0.42398 -0.78285,-0.78285 -1.2752,-0.78285 -1.75902,0 -0.92427,1.4955 -3.85639,1.24388 -12.05385,-1.0344 z m 32.91008,-2.82059 c -0.50054,-0.47426 -4.28508,-1.11736 -8.41008,-1.42912 -18.73015,-1.4156 -32.76876,-3.24604 -34.4449,-4.49115 -0.58031,-0.43107 -2.13469,-0.84047 -3.45418,-0.90977 -1.3195,-0.0693 -2.8945,-0.62861 -3.5,-1.24291 -1.19063,-1.20793 1.66737,-0.98123 12.89908,1.02317 7.56224,1.34956 8.0587,1.41941 25.25,3.55306 7.8375,0.97273 14.25,2.11785 14.25,2.5447 0,1.2811 -1.61575,1.87503 -2.58992,0.95202 z m -65.91008,-8.05788 c -1.26064,-0.54172 -1.44548,-0.85943 -0.5,-0.85943 0.825,0 2.4,0.38674 3.5,0.85943 1.26064,0.54172 1.44548,0.85943 0.5,0.85943 -0.825,0 -2.4,-0.38674 -3.5,-0.85943 z m 12,-1 c -0.33992,-0.55 -0.14148,-1 0.44098,-1 0.58246,0 1.05902,0.45 1.05902,1 0,0.55 -0.19844,1 -0.44098,1 -0.24254,0 -0.7191,-0.45 -1.05902,-1 z m 11.25,-1.81037 c -2.0625,-0.1707 -3.75,-0.7332 -3.75,-1.25 0,-1.04381 3.90633,-1.05895 8.5,-0.0329 2.43546,0.54397 2.62364,0.75693 1,1.13168 -1.1,0.2539 -3.6875,0.32197 -5.75,0.15126 z m 245.139592,-4.63337 c -0.27827,-0.27827 -2.95476,-0.58361 -5.94777,-0.67854 -6.22024,-0.19727 -11.31202,-1.61494 -6.94182,-1.93275 1.375,-0.1 2.93844,-0.0949 3.47431,0.0114 0.53586,0.10625 4.04911,0.33529 7.80722,0.50897 3.7581,0.17368 7.10716,0.59004 7.44236,0.92523 0.33519,0.3352 -0.10375,0.60945 -0.97544,0.60945 -0.87168,0 -2.20768,0.23899 -2.9689,0.5311 -0.76121,0.2921 -1.61169,0.30342 -1.88996,0.0252 z m -272.889592,-3.55626 c 0,-0.55 0.42344,-1 0.94098,-1 0.51754,0 1.2191,0.45 1.55902,1 0.33992,0.55 -0.0835,1 -0.94098,1 -0.85746,0 -1.55902,-0.45 -1.55902,-1 z m -4.97104,-0.96094 c -0.80907,-0.51167 -1.18048,-1.22087 -0.82536,-1.57599 0.87435,-0.87435 4.7964,0.43751 4.7964,1.60432 0,1.18988 -2.0681,1.17513 -3.97104,-0.0283 z m 241.221039,-15.25955 c -2.43553,-1.17462 -3.01882,-2.78791 -1,-2.76586 2.91009,0.0318 5.75,1.3174 5.75,2.60298 0,1.62154 -1.61096,1.67678 -4.75,0.16288 z m -170.249999,-6.64084 c 0,-0.47373 1.125,-0.64627 2.5,-0.38342 1.375,0.26285 2.5,0.65044 2.5,0.86133 0,0.21088 -1.125,0.38342 -2.5,0.38342 -1.375,0 -2.5,-0.3876 -2.5,-0.86133 z m -6,-5.138671 c 0,-0.55 0.47656,-1 1.05902,-1 0.58246,0 0.7809,0.45 0.44098,1 -0.33992,0.55 -0.81648,1 -1.05902,1 -0.24254,0 -0.44098,-0.45 -0.44098,-1 z m 139.834629,0.34921 c -1.46595,-0.25615 -2.88929,-1.04927 -3.16298,-1.76249 -0.38755,-1.00994 1.30796,-1.23742 7.66537,-1.02845 4.48964,0.14757 11.43693,0.36883 15.43842,0.49167 9.33995,0.28675 10.55991,1.95006 1.43027,1.95006 -3.80178,0 -9.56584,0.18336 -12.80902,0.40747 -3.24318,0.2241 -7.0961,0.19789 -8.56206,-0.0583 z m -178.334629,-1.34921 c -0.33992,-0.55 0.11008,-1 1,-1 0.88992,0 1.33992,0.45 1,1 -0.33992,0.55 -0.78992,1 -1,1 -0.21008,0 -0.66008,-0.45 -1,-1 z m 14,-0.99868 c 2.62041,-1.12776 6.5,-1.22639 6.5,-0.16525 0,0.45983 -1.9125,0.8788 -4.25,0.93103 -3.20296,0.0716 -3.75728,-0.11709 -2.25,-0.76578 z m 36.06476,0.10347 c -0.3043,-0.49237 0.0751,-1.13637 0.84322,-1.4311 1.46629,-0.56267 2.59202,0.0857 2.59202,1.49298 0,1.11676 -2.73727,1.06745 -3.43524,-0.0619 z m 2.03825,-4.93812 c -0.28327,-0.45834 0.14017,-0.83334 0.94098,-0.83334 0.8008,0 1.45601,0.375 1.45601,0.83334 0,0.45833 -0.42344,0.83333 -0.94098,0.83333 -0.51754,0 -1.17275,-0.375 -1.45601,-0.83333 z m 122.896989,-9.16667 c 0.33992,-0.55 1.26648,-1 2.05902,-1 0.79254,0 1.44098,0.45 1.44098,1 0,0.55 -0.92656,1 -2.05902,1 -1.13246,0 -1.7809,-0.45 -1.44098,-1 z"
       style="fill:#000000" />
  </g>
</svg>
