<svg xmlns="http://www.w3.org/2000/svg" viewBox="0 0 197.67 200.84" version="1.0"><defs><linearGradient id="b" y2="272.81" gradientUnits="userSpaceOnUse" x2="2191" gradientTransform="matrix(-.99259 .14866 .02508 1.0037 4410.1 -275.65)" y1="203.93" x1="2152.9"><stop style="stop-color:#412407" offset="0"/><stop style="stop-color:black" offset="1"/></linearGradient><linearGradient id="a" y2="251.96" gradientUnits="userSpaceOnUse" x2="2246.7" gradientTransform="matrix(-.99259 .14866 .02508 1.0037 4407.9 -275.33)" y1="178.98" x1="2192.5"><stop style="stop-color:#61360a" offset="0"/><stop style="stop-color:#050200" offset="1"/></linearGradient><radialGradient id="c" gradientUnits="userSpaceOnUse" cy="423.85" cx="2442.7" gradientTransform="matrix(.19966 .03345 0 .18828 1658.4 173.48)" r="82.646"><stop style="stop-color:#dadada" offset="0"/><stop style="stop-color:#888" offset="1"/></radialGradient></defs><path style="stroke-linejoin:round;fill-rule:evenodd;stroke:#000;stroke-linecap:round;stroke-width:6.374;fill:#492f17" d="m229.73 145.02-101.61.82-15.85 64.68 1.36.17-48.257 35-.569-.08v.48l-.114.08.114.03.256 27.52-.285-.06.313 20.52.171.03c-.145 2.02-.048 6.34.114 10.5l.085 8.99 16.22 3.3v-.11l76.512 15.99.06.94 15.85 5.66-.03-.82 9.19-8.4L207.17 310l.03.28 12.12-10.3-6.32-76.57.6-.51 1.19.14.12-.65c47.09-8.35 55.97-62.21 14.74-76.92l.08-.45zM77.67 240.48l-3.33 2.31h-.057l3.387-2.31z" transform="translate(-61.503 -141.83)"/><path style="fill-rule:evenodd;fill:#492f17" d="m2193.8 238.64 87.6-23.14v44.19l-49.3 20.66-38.3-41.71z" transform="matrix(-1.09086 .16338 .02756 1.10307 2536.397 -539.12)"/><path style="fill-rule:evenodd;fill:#85552b" transform="matrix(-.88829 .75313 .02756 1.10307 2536.397 -539.12)" d="M2643.5-1198.4h47.903v26.709H2643.5z"/><path style="fill-rule:evenodd;fill:#684322" transform="matrix(-.9134 .71896 .02756 1.10307 2536.397 -539.12)" d="M2576.2-1093.8h46.201v24.232H2576.2z"/><path style="fill-rule:evenodd;fill:#784d27" transform="matrix(-.9134 .71896 .02756 1.10307 2536.397 -539.12)" d="M2578.1-1117.3h45.677v23.926H2578.1z"/><path style="fill-rule:evenodd;fill:#5e3c1e" d="m2230.2 334.68 98.7-35.2s.5-18.56-.2-18.56c-.8 0-99.3 33.49-99.3 33.49l.8 20.27z" transform="matrix(-1.09086 .16338 .02756 1.10307 2536.397 -539.12)"/><path style="fill-rule:evenodd;fill:#674221" d="m2230.3 314.6 98.8-32.72-.2-18.56-98.7 30.23.1 21.05z" transform="matrix(-1.09086 .16338 .02756 1.10307 2536.397 -539.12)"/><path style="fill-rule:evenodd;fill:#1f130a" d="M2280.7 216.26v51.46l44.5-27.93-44.5-23.53z" transform="matrix(-1.09086 .16338 .02756 1.10307 2536.397 -539.12)"/><path style="fill-rule:evenodd;fill:#794e27" d="m2230.2 294.89.9-16.26 96-27.93-1.3 22-95.6 22.19z" transform="matrix(-1.09086 .16338 .02756 1.10307 2536.397 -539.12)"/><path style="fill-rule:evenodd;fill:#6b4523" d="m2231.5 279.59.2-16.27 96-25.06-.6 14.73-95.6 26.6z" transform="matrix(-1.09086 .16338 .02756 1.10307 2536.397 -539.12)"/><path style="fill-rule:evenodd;fill:#412407" d="m2239.9 288.74-9.5 8.74 4.2 70.68 11-9.36-5.7-70.06zM2210 315.09l-9.5 8.75 4 70.13 10.6-9.68-5.1-69.2z" transform="translate(-2310.303 -236.181) scale(1.099)"/><path style="fill-rule:evenodd;fill:#512d09" d="m2200.8 323.4-14.3-2.47 3.6 68.65 14.4 5.16-3.7-71.34zM2117.1 310.98l-12-1.67.6 61.98 14.7 2.99-3.3-63.3z" transform="translate(-2310.303 -236.181) scale(1.099)"/><path style="fill-rule:evenodd;fill:url(#a)" d="m2240.9 285.88-90.2-7.47 14-55.79 88.9-1.87-12.7 65.13z" transform="translate(-2310.303 -236.181) scale(1.099)"/><path style="fill-rule:evenodd;fill:#1f130a" d="m2154.2 279.66 12-56.32c23.2-.28 41.1 45.53-12 56.32z" transform="translate(-2310.303 -236.181) scale(1.099)"/><path style="fill-rule:evenodd;fill:#523e2c" d="m2149.6 277.49 91 11.05-39.6 35.01-96-13.73 44.6-32.33zm2.7 3.05-38.6 26.22 86.6 12.68 31.5-29.02-79.5-9.88z" transform="translate(-2310.303 -236.181) scale(1.099)"/><path style="fill-rule:evenodd;fill:url(#b)" d="m2241.2 285.57 12.8-63.79c24.8-.09 44 52.08-12.8 63.79z" transform="translate(-2310.303 -236.181) scale(1.099)"/><path style="fill-rule:evenodd;fill:#523e2c" d="m2162.7 218.54 92.4-.75-13.6 70.99-93.2-11.38 14.4-58.86zm3.9 5.14-11.1 51.82 84.1 9.23 12.6-63.23-85.6 2.18z" transform="translate(-2310.303 -236.181) scale(1.099)"/><path style="fill-rule:evenodd;fill:#523e2c" d="M2253.9 217.81c39.2 12.91 30.9 63.58-13.4 70.58l13.4-70.58zm1.2 6.45-10.9 57.09c35.8-5.66 42.6-46.65 10.9-57.09z" transform="translate(-2310.303 -236.181) scale(1.099)"/><path style="fill-rule:evenodd;fill:#917f6e" d="M2223.2 283.76c-1.8 1.2-2.5 2.98-2.9 4.89l-8.9-1.4c-2.1-.63.4-4.79 2.4-4.48l9.4.99z" transform="translate(-2310.303 -236.181) scale(1.099)"/><path style="fill-rule:evenodd;fill:#b3a69a" d="M2209.1 230.97a3.111 3.72 0 1 1 0 .01" transform="matrix(-.23998 -.44333 -.47957 .64508 773.491 908.867)"/><path style="fill-rule:evenodd;fill:#917f6e" d="M2176.8 278.11c-1.8 1.2-2.5 2.98-3 4.88l-8.9-1.4c-2-.62.4-4.79 2.5-4.47l9.4.99z" transform="translate(-2310.303 -236.181) scale(1.099)"/><path style="fill-rule:evenodd;fill:#b3a69a" d="M2209.1 230.97a3.111 3.72 0 1 1 0 .01" transform="matrix(-.23998 -.44333 -.47957 .64508 722.497 902.603)"/><path style="fill-rule:evenodd;fill:url(#c)" d="M2136.9 326.57c8.5-2.64 20.3-1.62 28.4 4.87 4.5 3.53 3.3 27.87-13.6 25.16-15-2.42-20.5-28.28-14.8-30.03z" transform="translate(-2310.303 -236.181) scale(1.099)"/><path style="fill-rule:evenodd;fill:#000" d="M2150.1 332.32c-1.2-.18-2.4.31-3 1.39h-.1c-.8 1.55-.2 3.74 1.5 4.93l-3.3 7.52 10 1.68-3-8.81c.5-.24.8-.59 1.1-1.06.9-1.57.2-3.8-1.5-4.98-.6-.37-1.1-.59-1.7-.67z" transform="translate(-2310.303 -236.181) scale(1.099)"/></svg>